<svg width="33" height="17" viewBox="0 0 33 17" fill="none" xmlns="http://www.w3.org/2000/svg">
<path d="M23.2642 1.71691C23.7013 2.01947 24.146 2.34456 24.5804 2.68628C25.0042 3.02957 25.4206 3.38043 25.8265 3.74792C26.2339 4.11089 26.6294 4.47996 27.0218 4.85808C27.4083 5.23925 27.7858 5.63252 28.1603 6.01979C28.9108 6.80486 29.6254 7.62329 30.3055 8.47054C30.9872 9.31327 31.6315 10.1939 32.2518 11.0867C32.3749 11.2619 32.3314 11.5031 32.1561 11.6262C32.1112 11.6566 32.0647 11.6764 32.0106 11.6888L31.994 11.6935C30.817 11.9257 29.664 12.1457 28.522 12.4395C27.954 12.5848 27.3861 12.7452 26.8289 12.919C26.2687 13.1019 25.7161 13.2923 25.1681 13.4992C24.6231 13.7121 24.0767 13.9295 23.5394 14.1649C23.2678 14.2767 23.0022 14.4004 22.7366 14.5241C22.471 14.6478 22.2024 14.7655 21.9399 14.8952C21.4118 15.1486 20.8852 15.4126 20.3693 15.69C19.8473 15.9554 19.3436 16.2568 18.8263 16.5388C18.4618 16.7354 18.0079 16.6076 17.8067 16.2417C17.738 16.1142 17.7085 15.9745 17.7166 15.8419L17.7194 15.8178C17.792 14.5501 17.9233 13.2865 18.0697 12.0227C18.1496 11.393 18.2401 10.7618 18.3351 10.1321C18.4301 9.50229 18.5402 8.87243 18.6684 8.24846C18.792 7.62302 18.9488 7.00337 19.1056 6.38373C19.2805 5.76998 19.46 5.15771 19.668 4.54975C19.8746 3.94633 20.0902 3.34585 20.3149 2.74832L21.0237 0.972048L21.043 0.928271C21.1229 0.72906 21.3435 0.635754 21.5428 0.715677C21.5609 0.721574 21.5821 0.733472 21.6032 0.745369C22.1504 1.07879 22.7095 1.39106 23.2551 1.71396L23.2642 1.71691ZM22.8813 2.29294C22.3285 2.02276 21.7861 1.73597 21.2349 1.47632L21.8099 1.24816L21.5481 2.14395L21.3225 3.05153C21.1807 3.65602 21.0509 4.26946 20.9332 4.8768L20.5966 6.70924L20.269 8.54464C20.0607 9.76816 19.8418 10.9933 19.6802 12.227C19.5941 12.8447 19.5081 13.4623 19.437 14.0799L19.2225 15.9371L18.1127 15.2101C18.6542 14.9461 19.1881 14.6595 19.7434 14.4149C20.288 14.1569 20.8433 13.9123 21.4001 13.6783C21.957 13.4442 22.5199 13.2222 23.0875 13.0166C23.6565 12.8066 24.2287 12.6176 24.8055 12.43C25.3838 12.253 25.9637 12.0866 26.5497 11.9321C27.1372 11.7881 27.7217 11.6382 28.3125 11.5153C29.4908 11.2634 30.6848 11.0868 31.8547 10.9073L31.5984 11.5095C31.0367 10.6058 30.4136 9.73707 29.7635 8.88961C29.1134 8.04216 28.4304 7.219 27.716 6.43068C27.3596 6.03426 26.9821 5.65603 26.6033 5.28234C26.2184 4.91169 25.832 4.54557 25.4307 4.1946C25.0279 3.84816 24.6102 3.51687 24.1895 3.19463C23.7704 2.88291 23.3333 2.58035 22.8782 2.28694L22.8813 2.29294Z" fill="url(#paint0_linear_596_1681)"/>
<path d="M19.0911 10.0893L18.5352 9.99581L17.9886 9.92556L17.4351 9.87664L16.8807 9.85102C16.5088 9.84443 16.137 9.84796 15.7683 9.86262C15.3986 9.88032 15.026 9.90716 14.6585 9.94916C14.29 9.99421 13.9216 10.0494 13.5572 10.1126C13.1919 10.1789 12.8298 10.2564 12.4656 10.3399L11.9255 10.4773L11.3926 10.6338C11.0398 10.7446 10.684 10.8646 10.3404 10.9885C9.98461 11.1185 9.64006 11.2556 9.30061 11.3977C8.96017 11.5428 8.61774 11.6941 8.28551 11.8554C7.61702 12.18 6.9639 12.5299 6.32006 12.903C5.67927 13.2771 5.04669 13.6674 4.42538 14.0748C3.80612 14.4863 3.19607 14.9108 2.58502 15.3384L2.55881 15.3568C2.33597 15.5133 2.02658 15.4597 1.87003 15.2369C1.86798 15.2329 1.86288 15.2278 1.86082 15.2238C1.81372 15.1512 1.75627 15.0482 1.73155 14.9896L1.67185 14.8523C1.62864 14.7573 1.59663 14.6694 1.56157 14.5805C1.4884 14.4017 1.42742 14.2268 1.36134 14.047C1.23428 13.6923 1.11735 13.3375 1.00141 12.9796C0.885478 12.6218 0.780665 12.2609 0.685983 11.8998C0.585208 11.5368 0.495557 11.1707 0.416037 10.8045C0.344594 10.4342 0.262028 10.0671 0.212833 9.69055C0.186215 9.50332 0.156552 9.31509 0.140066 9.12779C0.121526 8.93645 0.0949089 8.74922 0.0895466 8.5588L0.0683594 7.98252C0.0710742 7.788 0.0839204 7.5934 0.092728 7.40087C0.105574 7.20627 0.145768 7.01048 0.171792 6.81681C0.2049 6.62208 0.285619 6.42602 0.340052 6.23824C0.376695 6.11541 0.503875 6.04566 0.626722 6.08231C0.73129 6.113 0.797806 6.20879 0.791417 6.31115L0.789781 6.36789C0.782889 6.54421 0.763741 6.70643 0.764925 6.87864C0.778295 7.05482 0.776433 7.22604 0.793841 7.40016L0.858252 7.92651L0.949018 8.45471C0.979604 8.62976 1.02337 8.80573 1.057 8.98177C1.09063 9.15781 1.1344 9.33379 1.17816 9.50976C1.22192 9.68573 1.25959 9.85972 1.3064 10.0367L1.44173 10.5626L1.73669 11.6121C1.78754 11.787 1.83839 11.9619 1.89328 12.1348L2.05291 12.6585C2.16169 13.0072 2.27147 13.3529 2.39236 13.6955L2.57417 14.2029C2.60413 14.2867 2.6331 14.3737 2.66603 14.4484L2.71243 14.5646C2.72376 14.5919 2.71448 14.5686 2.70746 14.5798L1.98327 14.4652C2.61358 14.0405 3.25927 13.641 3.91622 13.2587C4.57316 12.8764 5.23932 12.5072 5.9229 12.1672C6.60649 11.8273 7.29935 11.5105 8.0056 11.2251C8.35822 11.084 8.7139 10.9438 9.07063 10.8107C9.43346 10.6796 9.79027 10.5566 10.1481 10.4407C10.5192 10.3257 10.8802 10.221 11.2493 10.1222C11.6195 10.0306 11.9887 9.94195 12.3599 9.85737C12.7323 9.77988 13.1056 9.70947 13.4831 9.64714C13.8586 9.59091 14.2382 9.54274 14.6149 9.50372C14.9926 9.47178 15.3733 9.44083 15.7531 9.42306C16.135 9.40932 16.5129 9.40778 16.8949 9.4143C17.2749 9.42692 17.656 9.44662 18.0362 9.4795L18.6091 9.54146L19.1689 9.62276C19.2977 9.64114 19.3867 9.76108 19.3653 9.88887C19.3469 10.0177 19.2269 10.1066 19.0991 10.0852C19.0941 10.0903 19.0941 10.0903 19.0911 10.0893Z" fill="url(#paint1_linear_596_1681)"/>
<path d="M19.7341 6.35367C19.7341 6.35367 19.672 6.30648 19.5528 6.21713C19.4337 6.12777 19.2594 5.99017 19.0335 5.84582C18.9195 5.77163 18.7994 5.68532 18.659 5.59915C18.5176 5.51603 18.364 5.42893 18.2002 5.33178C18.0304 5.24277 17.8514 5.15078 17.6603 5.05483C17.4662 4.96801 17.2609 4.87417 17.0495 4.77836C16.6127 4.6091 16.1383 4.43098 15.6196 4.29571C15.1059 4.14521 14.5489 4.03452 13.9698 3.95031C13.3927 3.86001 12.7866 3.82765 12.1755 3.81052C11.5635 3.79644 10.9355 3.83109 10.3229 3.88083C9.67889 3.93383 9.09488 4.01985 8.4877 4.12527C7.88867 4.23671 7.305 4.37338 6.7416 4.50991C6.18033 4.66061 5.63825 4.80409 5.13386 4.97669C4.62225 5.13009 4.1513 5.30348 3.7065 5.44832C2.82115 5.76635 2.08536 6.02865 1.56992 6.2145C1.05044 6.40239 0.746132 6.49867 0.746132 6.49867L0.739047 6.49973C0.614703 6.54008 0.482509 6.47007 0.44214 6.34574C0.410057 6.24769 0.447832 6.14207 0.527472 6.08379C0.527472 6.08379 0.594004 6.03471 0.71396 5.94577C0.836963 5.85781 1.01537 5.72389 1.2555 5.57638C1.49151 5.4208 1.79022 5.24858 2.13237 5.05682C2.48168 4.87413 2.87845 4.66984 3.32496 4.47838C3.7704 4.27984 4.2636 4.10023 4.79328 3.92239C5.32402 3.75164 5.89337 3.59683 6.48717 3.4601C7.08408 3.33448 7.70437 3.21985 8.34222 3.15474C8.96994 3.0897 9.65045 3.03849 10.2756 3.04336C10.9352 3.04598 11.5747 3.06899 12.2094 3.13763C12.8431 3.19918 13.4647 3.28715 14.0593 3.40671C14.6538 3.52627 15.2212 3.66729 15.7502 3.83288C16.2821 3.98933 16.7698 4.18863 17.2149 4.37404C17.4344 4.47588 17.6458 4.5717 17.8451 4.66355C18.0413 4.76454 18.2253 4.86155 18.4012 4.95255C18.742 5.14778 19.039 5.32204 19.2772 5.48048C19.5245 5.63178 19.6905 5.76336 19.8157 5.84457C19.9368 5.92783 20.003 5.97297 20.003 5.97297C20.1099 6.04822 20.1372 6.19189 20.062 6.29877C19.9867 6.40565 19.843 6.43296 19.7361 6.35771C19.7392 6.3587 19.7331 6.35672 19.7341 6.35367Z" fill="url(#paint2_linear_596_1681)"/>
<path d="M18.3312 6.37136C18.3312 6.37136 18.1254 6.35149 17.7983 6.22809C17.6347 6.16132 17.4257 6.12019 17.1952 6.05185C16.9668 5.97743 16.7009 5.91439 16.4096 5.84647C16.1204 5.77245 15.8018 5.71586 15.464 5.65635C15.1292 5.58771 14.7683 5.55774 14.3992 5.51162C14.0272 5.48476 13.644 5.45089 13.2539 5.44847C12.8637 5.43592 12.4687 5.45886 12.0737 5.47167C11.6778 5.50779 11.2858 5.52159 10.9002 5.5779C10.5154 5.62103 10.14 5.6874 9.77563 5.74052C9.41543 5.81185 9.06218 5.86186 8.73549 5.94411C8.40363 6.01119 8.09408 6.08218 7.80785 6.15402C7.52055 6.21878 7.25756 6.28135 7.02396 6.34675C6.78825 6.39799 6.58292 6.44902 6.41607 6.49574C6.07825 6.5811 5.87789 6.61691 5.87789 6.61691L5.87081 6.61797C5.7848 6.63375 5.70233 6.57656 5.68655 6.49056C5.67394 6.42581 5.70491 6.36178 5.75635 6.328C5.75635 6.328 5.92987 6.21944 6.24786 6.05013C6.40529 5.95991 6.60226 5.87247 6.8326 5.77568C7.06294 5.67889 7.3236 5.57177 7.61784 5.48569C7.90791 5.3814 8.23261 5.30525 8.57553 5.22492C8.91844 5.14459 9.28686 5.08941 9.6664 5.03112C10.0471 4.99004 10.4408 4.93975 10.845 4.92992C11.2471 4.90592 11.6555 4.91429 12.0628 4.91558C12.4723 4.94117 12.8797 4.95259 13.2772 5.0046C13.6756 5.0333 14.0661 5.0965 14.4433 5.14865C14.631 5.18283 14.8156 5.21602 14.9932 5.25027C15.1717 5.28148 15.3502 5.31269 15.5197 5.35105C15.8596 5.42472 16.1803 5.49548 16.4726 5.58062C16.7659 5.65259 17.034 5.72979 17.2716 5.80719C17.5071 5.88056 17.7163 5.94195 17.8788 6.00163C18.2119 6.11689 18.3998 6.18146 18.3998 6.18146C18.481 6.2113 18.5401 6.24737 18.5133 6.32961C18.4834 6.41085 18.4124 6.4012 18.3302 6.37441C18.3342 6.37236 18.3342 6.37236 18.3312 6.37136Z" fill="url(#paint3_linear_596_1681)"/>
<path d="M4.35039 6.55668C4.35039 6.55668 4.39942 6.61309 4.44235 6.66752C4.48634 6.72903 4.52941 6.80372 4.55122 6.8816C4.57608 6.96047 4.61319 7.05344 4.60659 7.12543C4.60304 7.19841 4.61266 7.27232 4.61266 7.27232L4.60075 7.30888C4.54914 7.46731 4.32061 7.53778 4.16523 7.48716C4.16218 7.48617 4.15609 7.48418 4.15304 7.48319C4.15304 7.48319 4.08091 7.45632 4.0095 7.38588C3.93709 7.31848 3.87043 7.2024 3.8402 7.07797C3.80996 6.95354 3.81919 6.82174 3.85095 6.72425C3.86584 6.67855 3.88576 6.62775 3.90185 6.6094C3.91992 6.58495 3.93098 6.5717 3.93098 6.5717L3.94203 6.55845C4.0426 6.4463 4.21783 6.43599 4.32999 6.53655C4.33509 6.54158 4.34324 6.54761 4.35039 6.55668Z" fill="url(#paint4_linear_596_1681)"/>
<path d="M2.95936 6.85963C2.95936 6.85963 3.02142 6.89669 3.07661 6.96522C3.13279 7.03071 3.18712 7.12255 3.21517 7.22267C3.24321 7.3228 3.249 7.42916 3.23234 7.51135C3.21872 7.59454 3.1847 7.6576 3.1847 7.6576C3.09759 7.8112 2.90442 7.86623 2.75081 7.77912C2.74777 7.77813 2.74267 7.7731 2.73962 7.7721C2.73962 7.7721 2.67755 7.73503 2.62541 7.6675C2.56923 7.60202 2.52298 7.50607 2.50202 7.40488C2.47802 7.30269 2.48236 7.19627 2.50001 7.11103C2.51767 7.02579 2.55169 6.96273 2.55169 6.96273C2.63079 6.82336 2.8088 6.77351 2.95121 6.8536C2.95326 6.85764 2.95631 6.85863 2.95936 6.85963Z" fill="url(#paint5_linear_596_1681)"/>
<defs>
<linearGradient id="paint0_linear_596_1681" x1="0.5" y1="6" x2="31.8355" y2="5.23762" gradientUnits="userSpaceOnUse">
<stop stop-color="#166AFF"/>
<stop offset="1" stop-color="#2ED0FA"/>
</linearGradient>
<linearGradient id="paint1_linear_596_1681" x1="0.5" y1="6" x2="31.8355" y2="5.23762" gradientUnits="userSpaceOnUse">
<stop stop-color="#166AFF"/>
<stop offset="1" stop-color="#2ED0FA"/>
</linearGradient>
<linearGradient id="paint2_linear_596_1681" x1="0.5" y1="6" x2="31.8355" y2="5.23762" gradientUnits="userSpaceOnUse">
<stop stop-color="#166AFF"/>
<stop offset="1" stop-color="#2ED0FA"/>
</linearGradient>
<linearGradient id="paint3_linear_596_1681" x1="0.5" y1="6" x2="31.8355" y2="5.23762" gradientUnits="userSpaceOnUse">
<stop stop-color="#166AFF"/>
<stop offset="1" stop-color="#2ED0FA"/>
</linearGradient>
<linearGradient id="paint4_linear_596_1681" x1="0.5" y1="6" x2="31.8355" y2="5.23762" gradientUnits="userSpaceOnUse">
<stop stop-color="#166AFF"/>
<stop offset="1" stop-color="#2ED0FA"/>
</linearGradient>
<linearGradient id="paint5_linear_596_1681" x1="0.5" y1="6" x2="31.8355" y2="5.23762" gradientUnits="userSpaceOnUse">
<stop stop-color="#166AFF"/>
<stop offset="1" stop-color="#2ED0FA"/>
</linearGradient>
</defs>
</svg>
