<svg width="70" height="60" viewBox="0 0 70 60" fill="none" xmlns="http://www.w3.org/2000/svg">
<path d="M0.384644 39.2308C0.386659 41.0663 1.1167 42.826 2.41459 44.1239C3.71248 45.4218 5.47222 46.1518 7.30772 46.1538H25.7693C26.3813 46.1538 26.9683 45.9107 27.401 45.4779C27.8338 45.0452 28.0769 44.4582 28.0769 43.8461C28.0769 43.2341 27.8338 42.6471 27.401 42.2144C26.9683 41.7816 26.3813 41.5385 25.7693 41.5385H7.30772C6.69585 41.5379 6.1092 41.2946 5.67654 40.8619C5.24389 40.4293 5.00058 39.8426 5.00003 39.2308V10.9403L26.8892 23.7125C27.9535 24.3129 29.1547 24.6284 30.3767 24.6284C31.5986 24.6284 32.7999 24.3129 33.8642 23.7125L55.7693 10.9311V16.1538C55.7693 16.7659 56.0124 17.3529 56.4452 17.7856C56.8779 18.2184 57.4649 18.4615 58.0769 18.4615C58.689 18.4615 59.276 18.2184 59.7087 17.7856C60.1415 17.3529 60.3846 16.7659 60.3846 16.1538V6.92308C60.3826 5.08758 59.6526 3.32784 58.3547 2.02995C57.0568 0.732056 55.2971 0.00201572 53.4616 0H7.30772C5.48452 0.0411182 3.7474 0.783712 2.45788 2.07323C1.16836 3.36276 0.425762 5.09988 0.384644 6.92308V39.2308ZM7.30772 4.61538H53.4616C53.8637 4.62006 54.2575 4.73109 54.6028 4.93719C54.9482 5.14329 55.2329 5.43713 55.4279 5.78885L31.5385 19.728C31.1856 19.9323 30.7851 20.0399 30.3774 20.0399C29.9696 20.0399 29.5691 19.9323 29.2163 19.728L5.33672 5.79554C5.53139 5.44197 5.81643 5.14642 6.16272 4.93908C6.50901 4.73174 6.90413 4.62003 7.30772 4.61538Z" fill="url(#paint0_linear_115_11568)"/>
<path d="M51.1539 23.0771C47.5025 23.0771 43.9332 24.1599 40.8972 26.1885C37.8612 28.2171 35.4949 31.1004 34.0976 34.4738C32.7003 37.8472 32.3347 41.5592 33.0471 45.1404C33.7594 48.7215 35.5177 52.0111 38.0996 54.593C40.6815 57.1749 43.971 58.9331 47.5522 59.6455C51.1334 60.3578 54.8454 59.9922 58.2188 58.5949C61.5922 57.1976 64.4755 54.8313 66.5041 51.7954C68.5326 48.7594 69.6154 45.19 69.6154 41.5387C69.6098 36.6441 67.6629 31.9516 64.2019 28.4906C60.7409 25.0296 56.0484 23.0828 51.1539 23.0771ZM51.1539 55.3848C48.4154 55.3848 45.7383 54.5728 43.4614 53.0513C41.1844 51.5299 39.4097 49.3674 38.3617 46.8374C37.3137 44.3073 37.0395 41.5233 37.5738 38.8374C38.108 36.1515 39.4267 33.6844 41.3632 31.748C43.2996 29.8116 45.7667 28.4928 48.4526 27.9586C51.1385 27.4243 53.9225 27.6985 56.4526 28.7465C58.9826 29.7945 61.1451 31.5692 62.6665 33.8462C64.188 36.1232 65 38.8002 65 41.5387C64.996 45.2097 63.5359 48.7292 60.9401 51.3249C58.3443 53.9207 54.8249 55.3808 51.1539 55.3848Z" fill="#5BFF45"/>
<path d="M56.2751 35.4807L48.6546 45.0066L45.8623 42.2143C45.4271 41.7939 44.8442 41.5613 44.2391 41.5666C43.634 41.5718 43.0552 41.8145 42.6274 42.2424C42.1995 42.6703 41.9568 43.2491 41.9515 43.8541C41.9463 44.4592 42.1789 45.0421 42.5992 45.4774L47.2146 50.0927C47.4459 50.3187 47.7217 50.4941 48.0244 50.6078C48.327 50.7216 48.6501 50.7711 48.9729 50.7533C49.2958 50.7355 49.6114 50.6508 49.8998 50.5045C50.1882 50.3582 50.443 50.1535 50.648 49.9035L59.8788 38.3651C60.0682 38.1284 60.2091 37.8568 60.2936 37.5657C60.378 37.2746 60.4043 36.9698 60.3709 36.6685C60.3375 36.3673 60.2451 36.0756 60.099 35.81C59.9529 35.5445 59.7559 35.3103 59.5192 35.1209C59.2826 34.9315 59.011 34.7906 58.7199 34.7061C58.4288 34.6217 58.124 34.5954 57.8227 34.6288C57.5215 34.6622 57.2297 34.7546 56.9642 34.9007C56.6987 35.0468 56.4645 35.2438 56.2751 35.4804V35.4807Z" fill="#5BFF45"/>
<defs>
<linearGradient id="paint0_linear_115_11568" x1="30.3846" y1="0" x2="30.3846" y2="46.1538" gradientUnits="userSpaceOnUse">
<stop stop-color="#166AFF"/>
<stop offset="1" stop-color="#2ED0FA"/>
</linearGradient>
</defs>
</svg>
