<svg width="70" height="60" viewBox="0 0 70 60" fill="none" xmlns="http://www.w3.org/2000/svg">
<path d="M51.1539 23.0771C46.2593 23.0828 41.5668 25.0296 38.1058 28.4906C34.6448 31.9516 32.6979 36.6441 32.6923 41.5387C32.6923 46.435 34.6374 51.1308 38.0996 54.593C41.5618 58.0552 46.2576 60.0002 51.1539 60.0002C56.0502 60.0002 60.7459 58.0552 64.2081 54.593C67.6703 51.1308 69.6154 46.435 69.6154 41.5387C69.6098 36.6441 67.6629 31.9516 64.2019 28.4906C60.7409 25.0296 56.0484 23.0828 51.1539 23.0771ZM43.2694 52.9061C44.0903 51.5497 45.2472 50.4279 46.6284 49.6493C48.0096 48.8708 49.5683 48.4617 51.1539 48.4617C52.7394 48.4617 54.2981 48.8708 55.6793 49.6493C57.0605 50.4279 58.2174 51.5497 59.0383 52.9061C56.7257 54.5197 53.9737 55.3848 51.1539 55.3848C48.334 55.3848 45.582 54.5197 43.2694 52.9061ZM51.1539 41.5387C50.6974 41.5387 50.2513 41.4033 49.8718 41.1498C49.4923 40.8962 49.1965 40.5358 49.0218 40.1141C48.8472 39.6924 48.8015 39.2284 48.8905 38.7808C48.9796 38.3331 49.1993 37.9219 49.5221 37.5992C49.8448 37.2765 50.256 37.0567 50.7036 36.9676C51.1513 36.8786 51.6153 36.9243 52.037 37.099C52.4587 37.2736 52.8191 37.5694 53.0726 37.9489C53.3262 38.3284 53.4616 38.7746 53.4616 39.231C53.461 39.8429 53.2177 40.4295 52.785 40.8622C52.3524 41.2948 51.7657 41.5381 51.1539 41.5387ZM62.3736 49.6207C60.6844 47.2485 58.2839 45.4755 55.5198 44.5585C56.6294 43.6566 57.4325 42.4331 57.8187 41.0563C58.2049 39.6795 58.1553 38.2169 57.6768 36.8694C57.1982 35.5219 56.3141 34.3556 55.1459 33.5309C53.9778 32.7061 52.5829 32.2633 51.1529 32.2633C49.723 32.2633 48.3281 32.7061 47.16 33.5309C45.9918 34.3556 45.1077 35.5219 44.6291 36.8694C44.1505 38.2169 44.1009 39.6795 44.4872 41.0563C44.8734 42.4331 45.6765 43.6566 46.7861 44.5585C44.022 45.4755 41.6215 47.2485 39.9322 49.6207C38.4374 47.5536 37.5427 45.1138 37.3468 42.5704C37.1508 40.027 37.6613 37.4789 38.822 35.2073C39.9826 32.9357 41.7482 31.0288 43.924 29.6972C46.0997 28.3655 48.6011 27.6608 51.152 27.6608C53.703 27.6608 56.2043 28.3655 58.3801 29.6972C60.5558 31.0288 62.3214 32.9357 63.4821 35.2073C64.6427 37.4789 65.1532 40.027 64.9573 42.5704C64.7613 45.1138 63.8666 47.5536 62.3718 49.6207H62.3736Z" fill="#FF5151"/>
<path d="M26.8894 23.7125C27.9497 24.3248 29.1524 24.6472 30.3768 24.6472C31.6012 24.6472 32.8039 24.3248 33.8642 23.7125L55.7693 10.9311V16.1538C55.7693 16.7659 56.0124 17.3529 56.4452 17.7856C56.8779 18.2184 57.4649 18.4615 58.077 18.4615C58.689 18.4615 59.276 18.2184 59.7087 17.7856C60.1415 17.3529 60.3846 16.7659 60.3846 16.1538V6.92308C60.3826 5.08758 59.6526 3.32784 58.3547 2.02995C57.0568 0.732057 55.2971 0.00201572 53.4616 0H7.30772C6.32326 0.00512797 5.35112 0.219259 4.45561 0.628223C3.56011 1.03719 2.76166 1.63166 2.1131 2.37231C1.01846 3.63802 0.406273 5.24982 0.384644 6.92308V39.2308C0.386659 41.0663 1.1167 42.826 2.41459 44.1239C3.71248 45.4218 5.47223 46.1518 7.30772 46.1538H25.7693C26.3813 46.1538 26.9683 45.9107 27.401 45.4779C27.8338 45.0452 28.077 44.4582 28.077 43.8462C28.077 43.2341 27.8338 42.6471 27.401 42.2144C26.9683 41.7816 26.3813 41.5385 25.7693 41.5385H7.30772C6.69585 41.5379 6.1092 41.2946 5.67654 40.8619C5.24389 40.4293 5.00058 39.8426 5.00003 39.2308V10.9403L26.8894 23.7125ZM7.30772 4.61538H53.4616C53.8637 4.62006 54.2575 4.73109 54.6029 4.93719C54.9482 5.14329 55.2329 5.43713 55.428 5.78885L31.5385 19.728C31.1854 19.9318 30.785 20.039 30.3774 20.039C29.9698 20.039 29.5693 19.9318 29.2163 19.728L5.33672 5.79554C5.53139 5.44197 5.81643 5.14642 6.16272 4.93908C6.50901 4.73174 6.90413 4.62003 7.30772 4.61538Z" fill="url(#paint0_linear_115_11560)"/>
<defs>
<linearGradient id="paint0_linear_115_11560" x1="30.3846" y1="0" x2="30.3846" y2="46.1538" gradientUnits="userSpaceOnUse">
<stop stop-color="#166AFF"/>
<stop offset="1" stop-color="#2ED0FA"/>
</linearGradient>
</defs>
</svg>
