<svg width="16" height="8" viewBox="0 0 16 8" fill="none" xmlns="http://www.w3.org/2000/svg">
<path d="M1.00005 0.00535513C1.13132 0.00517681 1.26133 0.0313345 1.38257 0.0823191C1.50381 0.133304 1.61388 0.208106 1.70644 0.302409L6.81972 5.48195C6.97443 5.63873 7.15811 5.76309 7.36026 5.84794C7.56242 5.93279 7.7791 5.97646 7.99792 5.97646C8.21674 5.97646 8.43341 5.93279 8.63557 5.84794C8.83773 5.76309 9.0214 5.63873 9.17611 5.48195L14.2814 0.30916C14.3736 0.212439 14.4839 0.13529 14.6059 0.0822164C14.7278 0.0291426 14.859 0.00120669 14.9917 3.8236e-05C15.1244 -0.00113022 15.2561 0.0244922 15.3789 0.0754109C15.5018 0.12633 15.6134 0.201525 15.7072 0.296608C15.8011 0.391692 15.8753 0.50476 15.9256 0.629215C15.9758 0.753671 16.0011 0.887021 16 1.02148C15.9988 1.15595 15.9712 1.28883 15.9188 1.41238C15.8665 1.53594 15.7903 1.64768 15.6948 1.7411L10.5895 6.91389C9.90176 7.60938 8.96969 8 7.99792 8C7.02614 8 6.09407 7.60938 5.40629 6.91389L0.293003 1.73435C0.153115 1.59272 0.0578396 1.41223 0.0192323 1.21573C-0.019375 1.01923 0.000421152 0.815541 0.0761158 0.63044C0.15181 0.44534 0.280002 0.287146 0.444468 0.175877C0.608935 0.0646079 0.802285 0.00526431 1.00005 0.00535513Z" fill="#8F8F8F"/>
</svg>
