<svg width="15" height="15" viewBox="0 0 15 15" fill="none" xmlns="http://www.w3.org/2000/svg">
<path opacity="0.72" d="M13.75 0H10.625C10.2935 0 9.97554 0.131696 9.74112 0.366117C9.5067 0.600537 9.375 0.918479 9.375 1.25V5.5925C9.3753 5.83374 9.44367 6.07 9.57225 6.27412C9.70083 6.47824 9.88439 6.64194 10.1019 6.74639C10.3193 6.85084 10.5618 6.89181 10.8015 6.86459C11.0412 6.83737 11.2684 6.74306 11.4569 6.5925L12.1875 6.00812L12.9181 6.59312C13.1067 6.74371 13.3339 6.83803 13.5736 6.86523C13.8134 6.89243 14.056 6.85141 14.2734 6.74688C14.4909 6.64235 14.6745 6.47856 14.803 6.27435C14.9315 6.07014 14.9998 5.83379 15 5.5925V1.25C15 0.918479 14.8683 0.600537 14.6339 0.366117C14.3995 0.131696 14.0815 0 13.75 0V0ZM13.6994 5.61688L12.5781 4.72C12.4673 4.63125 12.3295 4.58289 12.1875 4.58289C12.0455 4.58289 11.9077 4.63125 11.7969 4.72L10.625 5.5925V1.25H13.75L13.6994 5.61688ZM15 8.75V11.875C14.999 12.7035 14.6694 13.4978 14.0836 14.0836C13.4978 14.6694 12.7035 14.999 11.875 15H3.125C2.2965 14.999 1.50222 14.6694 0.916387 14.0836C0.330551 13.4978 0.000992411 12.7035 0 11.875L0 5C0.000992411 4.1715 0.330551 3.37722 0.916387 2.79139C1.50222 2.20555 2.2965 1.87599 3.125 1.875H7.5C7.66576 1.875 7.82473 1.94085 7.94194 2.05806C8.05915 2.17527 8.125 2.33424 8.125 2.5C8.125 2.66576 8.05915 2.82473 7.94194 2.94194C7.82473 3.05915 7.66576 3.125 7.5 3.125H3.125C2.78513 3.12594 2.45195 3.21955 2.16132 3.39575C1.8707 3.57196 1.63362 3.82409 1.47563 4.125L6.17375 8.82375C6.53116 9.16439 7.00595 9.3544 7.49969 9.3544C7.99342 9.3544 8.46822 9.16439 8.82563 8.82375L9.36188 8.30062C9.42056 8.24317 9.48999 8.19784 9.56619 8.16722C9.64239 8.13659 9.72388 8.12128 9.806 8.12215C9.88813 8.12302 9.96927 8.14006 10.0448 8.17229C10.1203 8.20452 10.1888 8.25132 10.2462 8.31C10.3037 8.36868 10.349 8.43811 10.3797 8.51431C10.4103 8.59052 10.4256 8.67201 10.4247 8.75413C10.4239 8.83625 10.4068 8.9174 10.3746 8.99294C10.3424 9.06847 10.2956 9.13692 10.2369 9.19438L9.70625 9.7125C9.11778 10.2924 8.32451 10.617 7.49835 10.6161C6.67218 10.6151 5.87966 10.2887 5.2925 9.7075L1.25 5.66937V11.875C1.25 12.3723 1.44754 12.8492 1.79917 13.2008C2.15081 13.5525 2.62772 13.75 3.125 13.75H11.875C12.3723 13.75 12.8492 13.5525 13.2008 13.2008C13.5525 12.8492 13.75 12.3723 13.75 11.875V8.75C13.75 8.58424 13.8158 8.42527 13.9331 8.30806C14.0503 8.19085 14.2092 8.125 14.375 8.125C14.5408 8.125 14.6997 8.19085 14.8169 8.30806C14.9342 8.42527 15 8.58424 15 8.75Z" fill="white"/>
</svg>
