<svg width="70" height="60" viewBox="0 0 70 60" fill="none" xmlns="http://www.w3.org/2000/svg">
<path d="M7.30769 46.1538H25.7692C26.3813 46.1538 26.9682 45.9107 27.401 45.4779C27.8338 45.0452 28.0769 44.4582 28.0769 43.8461C28.0769 43.2341 27.8338 42.6471 27.401 42.2144C26.9682 41.7816 26.3813 41.5385 25.7692 41.5385H7.30769C6.69589 41.5377 6.10939 41.2943 5.67678 40.8617C5.24418 40.4291 5.00079 39.8426 5 39.2308V10.9408L26.8961 23.7136C27.9639 24.3042 29.1643 24.614 30.3846 24.614C31.6049 24.614 32.8053 24.3042 33.8731 23.7136L55.7692 10.9408V16.1538C55.7692 16.7659 56.0123 17.3529 56.4451 17.7856C56.8779 18.2184 57.4649 18.4615 58.0769 18.4615C58.6889 18.4615 59.2759 18.2184 59.7087 17.7856C60.1415 17.3529 60.3846 16.7659 60.3846 16.1538V6.92308C60.3635 5.33422 59.8054 3.79926 58.801 2.56791C57.7967 1.33657 56.4052 0.481292 54.8531 0.141231C54.3952 0.0471901 53.929 -0.000129101 53.4615 2.64533e-07H7.30769C5.48307 0.0367006 3.74341 0.777876 2.45295 2.06833C1.16249 3.35879 0.421313 5.09846 0.384613 6.92308V39.2308C0.386629 41.0663 1.11667 42.826 2.41456 44.1239C3.71245 45.4218 5.47219 46.1518 7.30769 46.1538ZM7.30769 4.61538H53.4615C53.8648 4.62012 54.2597 4.73177 54.6057 4.93894C54.9518 5.14611 55.2367 5.44138 55.4314 5.79462L31.5468 19.7268C31.1938 19.9327 30.7925 20.0412 30.3839 20.0412C29.9753 20.0412 29.574 19.9327 29.2211 19.7268L5.33784 5.79462C5.53252 5.44138 5.81743 5.14611 6.16349 4.93894C6.50955 4.73177 6.90438 4.62012 7.30769 4.61538Z" fill="url(#paint0_linear_112_11534)"/>
<path d="M51.1538 23.0767C47.5025 23.0767 43.9332 24.1594 40.8972 26.188C37.8612 28.2166 35.4949 31.0999 34.0976 34.4733C32.7003 37.8467 32.3347 41.5587 33.047 45.1399C33.7594 48.7211 35.5177 52.0106 38.0996 54.5925C40.6815 57.1744 43.971 58.9327 47.5522 59.645C51.1334 60.3573 54.8454 59.9917 58.2188 58.5944C61.5922 57.1971 64.4755 54.8309 66.5041 51.7949C68.5326 48.7589 69.6154 45.1895 69.6154 41.5382C69.6098 36.6436 67.6629 31.9511 64.2019 28.4901C60.7409 25.0291 56.0484 23.0823 51.1538 23.0767ZM51.1538 55.3843C48.4153 55.3843 45.7383 54.5723 43.4613 53.0508C41.1843 51.5294 39.4097 49.3669 38.3617 46.8369C37.3137 44.3068 37.0395 41.5228 37.5737 38.8369C38.108 36.1511 39.4267 33.6839 41.3631 31.7475C43.2996 29.8111 45.7667 28.4924 48.4526 27.9581C51.1385 27.4238 53.9225 27.698 56.4525 28.746C58.9826 29.794 61.1451 31.5687 62.6665 33.8457C64.1879 36.1227 65 38.7997 65 41.5382C64.996 45.2092 63.5359 48.7287 60.9401 51.3245C58.3443 53.9202 54.8248 55.3803 51.1538 55.3843Z" fill="#FF0000"/>
<path d="M51.1538 53.0768C52.4283 53.0768 53.4615 52.0436 53.4615 50.7691C53.4615 49.4946 52.4283 48.4614 51.1538 48.4614C49.8793 48.4614 48.8461 49.4946 48.8461 50.7691C48.8461 52.0436 49.8793 53.0768 51.1538 53.0768Z" fill="#FF0000"/>
<path d="M51.1538 30C50.5418 30 49.9548 30.2431 49.5221 30.6759C49.0893 31.1087 48.8461 31.6957 48.8461 32.3077V43.8462C48.8461 44.4582 49.0893 45.0452 49.5221 45.4779C49.9548 45.9107 50.5418 46.1538 51.1538 46.1538C51.7659 46.1538 52.3528 45.9107 52.7856 45.4779C53.2184 45.0452 53.4615 44.4582 53.4615 43.8462V32.3077C53.4615 31.6957 53.2184 31.1087 52.7856 30.6759C52.3528 30.2431 51.7659 30 51.1538 30Z" fill="#FF0000"/>
<defs>
<linearGradient id="paint0_linear_112_11534" x1="30.3846" y1="0" x2="30.3846" y2="46.1538" gradientUnits="userSpaceOnUse">
<stop stop-color="#166AFF"/>
<stop offset="1" stop-color="#2ED0FA"/>
</linearGradient>
</defs>
</svg>
