<svg width="14" height="15" viewBox="0 0 14 15" fill="none" xmlns="http://www.w3.org/2000/svg">
<path opacity="0.72" d="M6.87496 10.0001C7.166 10.0006 7.45313 9.93346 7.7137 9.80382L8.96369 9.17883C9.6008 8.86249 10.0027 8.21143 9.99994 7.50011V5.64576C10.0021 4.93505 9.6003 4.28485 8.96369 3.96891L7.7137 3.34393C7.18557 3.08143 6.56498 3.08143 6.03685 3.34393L4.78685 3.96891C4.15001 4.28467 3.74791 4.93494 3.74999 5.64576V7.50011C3.7477 8.21099 4.14951 8.86144 4.78624 9.1776L6.03623 9.80259C6.29668 9.93264 6.58385 10.0003 6.87496 10.0001ZM4.99999 7.50011V5.64576C5.00098 5.58201 5.01173 5.51876 5.03186 5.45826L6.39435 6.13949C6.69693 6.29072 7.05303 6.29072 7.3556 6.13949L8.7181 5.45826C8.73822 5.51876 8.74898 5.58201 8.74997 5.64576V7.50011C8.75097 7.73724 8.61688 7.95427 8.40436 8.05947L7.15437 8.68446C6.97812 8.77167 6.77126 8.77167 6.59501 8.68446L5.34501 8.05947C5.1327 7.95409 4.99887 7.73712 4.99999 7.50011ZM11.2499 13.75H9.5568L11.7361 11.7363C14.421 9.05151 14.4211 4.69857 11.7363 2.01369C9.05149 -0.671191 4.69858 -0.67122 2.0137 2.01354C-0.67118 4.69831 -0.671239 9.05131 2.01355 11.7362C2.01944 11.742 4.19313 13.75 4.19313 13.75H2.50002C2.15485 13.75 1.87504 14.0298 1.87504 14.375C1.87504 14.7202 2.15485 15 2.50002 15H11.2499C11.5951 15 11.8749 14.7202 11.8749 14.375C11.8749 14.0299 11.5951 13.75 11.2499 13.75ZM2.89752 2.89766C5.08937 0.695962 8.65104 0.687993 10.8527 2.87984C13.0544 5.07169 13.0624 8.63336 10.8705 10.8351L8.37996 13.1357C7.52989 13.9369 6.20129 13.9322 5.35688 13.125L2.89752 10.8525C0.704234 8.65446 0.704263 5.09578 2.89752 2.89766Z" fill="white"/>
</svg>
