<svg width="92" height="86" viewBox="0 0 92 86" fill="none" xmlns="http://www.w3.org/2000/svg">
<path d="M1.38991 51.7187L22.1708 9.40292C24.8377 3.97615 30.6275 0.518089 36.1753 0.615827C37.3481 0.634443 38.507 0.815958 39.6287 1.16968L80.9066 14.1967C87.3201 16.2213 89.8985 23.1886 86.6731 29.7603L65.8922 72.0715C63.2254 77.4982 57.4356 80.9563 51.8878 80.8586C50.7149 80.84 49.556 80.6584 48.4344 80.3047L7.15179 67.2823C0.742973 65.2624 -1.83544 58.2904 1.38991 51.7187Z" fill="url(#paint0_linear_36_1856)"/>
<path d="M1.38991 51.7187L22.1708 9.40292C24.8377 3.97615 30.6275 0.518089 36.1753 0.615827C37.3481 0.634443 38.507 0.815958 39.6287 1.16968L80.9066 14.1967C87.3201 16.2213 89.8985 23.1886 86.6731 29.7603L65.8922 72.0715C63.2254 77.4982 57.4356 80.9563 51.8878 80.8586C50.7149 80.84 49.556 80.6584 48.4344 80.3047L7.15179 67.2823C0.742973 65.2624 -1.83544 58.2904 1.38991 51.7187ZM7.19833 67.1473L48.4809 80.1697C49.5653 80.5095 50.7103 80.6957 51.8924 80.7143H52.1158C57.7195 80.7143 63.2067 77.2143 65.7619 72.0063L86.5428 29.6951C88.1532 26.4093 88.3533 22.8256 87.0827 19.8609C85.9471 17.2033 83.7363 15.2393 80.86 14.3317L39.5821 1.30464C38.4977 0.964881 37.3528 0.778722 36.1706 0.760105H35.9472C30.3436 0.760105 24.8609 4.26005 22.3011 9.46807L1.52022 51.7839C-0.09478 55.0698 -0.290245 58.6535 0.975693 61.6182C2.11597 64.2757 4.32204 66.2398 7.19833 67.1473Z" fill="url(#paint1_linear_36_1856)"/>
<path d="M7.15652 67.2823L48.4391 80.3047C49.5561 80.6584 50.7197 80.8353 51.8925 80.8586C57.4403 80.9563 63.2301 77.4936 65.8969 72.0715L86.6779 29.7603C88.8327 25.3668 88.3953 20.7964 85.9518 17.6455L89.3168 21.9832C91.7602 25.1341 92.1977 29.7045 90.0428 34.098L69.2573 76.4092C66.5904 81.836 60.8006 85.294 55.2528 85.1963C54.08 85.1776 52.9211 84.9961 51.7994 84.6424L10.5168 71.62C8.38988 70.9498 6.68644 69.7351 5.47636 68.1713L2.11139 63.8336C3.32613 65.3974 5.02956 66.6121 7.15652 67.2823Z" fill="url(#paint2_linear_36_1856)"/>
<g opacity="0.8">
<path opacity="0.0114" d="M49.7655 15.5278C52.2788 15.5697 54.7734 15.956 57.1797 16.7146C70.607 20.9546 76.1641 35.2289 69.6017 48.6051C66.1948 55.5444 60.1863 60.8688 53.3213 63.801C52.7256 64.0523 52.2323 64.527 51.939 65.0855L49.4165 69.9072C48.9883 70.7264 48.1273 71.1918 47.3407 71.1778C46.9032 71.1685 46.489 71.0149 46.1818 70.6985L42.4771 66.8867C42.1327 66.5283 41.63 66.3375 41.0669 66.3328C40.9691 66.3328 40.8714 66.3328 40.769 66.3282C38.2697 66.2863 35.789 65.9046 33.3968 65.146C19.9695 60.9107 14.4077 46.6363 20.9748 33.2602C26.369 22.281 38.2557 15.3277 49.7655 15.5278Z" fill="#BCCAF6"/>
<path opacity="0.0227" d="M49.7424 15.4906C52.2556 15.5324 54.7502 15.9187 57.1565 16.6774C70.5838 20.9173 76.1409 35.1917 69.5785 48.5678C66.1716 55.5072 60.1631 60.8316 53.2981 63.7637C52.7024 64.015 52.2091 64.4898 51.9158 65.0483L49.3933 69.87C48.9651 70.6891 48.1041 71.1546 47.3175 71.1406C46.88 71.1313 46.4658 70.9777 46.1586 70.6612L42.4539 66.8494C42.1095 66.4911 41.6068 66.3003 41.0437 66.2956C40.9459 66.2956 40.8482 66.2956 40.7458 66.2909C38.2465 66.2491 35.7658 65.8674 33.3736 65.1088C19.9463 60.8735 14.3845 46.5991 20.9516 33.223C26.3411 22.2438 38.2279 15.2904 49.7424 15.4906Z" fill="#BBC8F5"/>
<path opacity="0.0341" d="M49.7144 15.4533C52.2277 15.4952 54.7223 15.8815 57.1285 16.6401C70.5558 20.8801 76.1129 35.1545 69.5505 48.5306C66.1437 55.47 60.1351 60.7944 53.2702 63.7265C52.6745 63.9778 52.1811 64.4525 51.8879 65.011L49.3653 69.8328C48.9372 70.6519 48.0761 71.1173 47.2896 71.1034C46.8521 71.0941 46.4379 70.9405 46.1307 70.624L42.4259 66.8122C42.0815 66.4538 41.5789 66.263 41.0157 66.2584C40.918 66.2584 40.8203 66.2584 40.7179 66.2537C38.2186 66.2118 35.7379 65.8302 33.3456 65.0716C19.9183 60.8362 14.3566 46.5619 20.9236 33.1857C26.3178 22.2065 38.2046 15.2485 49.7144 15.4533Z" fill="#B9C7F3"/>
<path opacity="0.0455" d="M49.6864 15.4114C52.1997 15.4533 54.6943 15.8396 57.1006 16.5983C70.5279 20.8382 76.085 35.1126 69.5226 48.4887C66.1157 55.4281 60.1072 60.7525 53.2422 63.6846C52.6465 63.9359 52.1532 64.4107 51.8599 64.9692L49.3374 69.7909C48.9092 70.61 48.0482 71.0754 47.2616 71.0615C46.8241 71.0522 46.4099 70.8986 46.1027 70.5821L42.398 66.7703C42.0536 66.412 41.5509 66.2211 40.9878 66.2165C40.89 66.2165 40.7923 66.2165 40.6899 66.2118C38.1906 66.1699 35.7099 65.7883 33.3177 65.0297C19.8904 60.7944 14.3286 46.52 20.8957 33.1439C26.2899 22.1693 38.1767 15.2113 49.6864 15.4114Z" fill="#B8C5F2"/>
<path opacity="0.0568" d="M49.6632 15.3742C52.1765 15.4161 54.6711 15.8024 57.0774 16.561C70.5047 20.801 76.0618 35.0754 69.4994 48.4515C66.0925 55.3909 60.084 60.7152 53.219 63.6474C52.6233 63.8987 52.13 64.3734 51.8368 64.9319L49.3142 69.7537C48.886 70.5728 48.025 71.0382 47.2384 71.0243C46.8009 71.0149 46.3867 70.8614 46.0795 70.5449L42.3748 66.7331C42.0304 66.3747 41.5277 66.1839 40.9646 66.1792C40.8668 66.1792 40.7691 66.1792 40.6667 66.1746C38.1674 66.1327 35.6867 65.7511 33.2945 64.9924C19.8672 60.7571 14.3054 46.4828 20.8725 33.1066C26.2667 22.1274 38.1535 15.1741 49.6632 15.3742Z" fill="#B6C4F1"/>
<path opacity="0.0682" d="M49.6353 15.337C52.1486 15.3789 54.6432 15.7652 57.0494 16.5238C70.4767 20.7637 76.0338 35.0381 69.4714 48.4142C66.0646 55.3536 60.056 60.678 53.1911 63.6101C52.5954 63.8615 52.102 64.3362 51.8088 64.8947L49.2862 69.7164C48.858 70.5356 47.997 71.001 47.2105 70.987C46.773 70.9777 46.3588 70.8241 46.0516 70.5076L42.3468 66.6959C42.0024 66.3375 41.4998 66.1467 40.9366 66.142C40.8389 66.142 40.7412 66.142 40.6388 66.1374C38.1395 66.0955 35.6588 65.7138 33.2665 64.9552C19.8392 60.7199 14.2775 46.4455 20.8445 33.0694C26.2387 22.0902 38.1255 15.1368 49.6353 15.337Z" fill="#B5C3F0"/>
<path opacity="0.0795" d="M49.612 15.2997C52.1252 15.3416 54.6199 15.7279 57.0261 16.4866C70.4534 20.7265 76.0105 35.0009 69.4481 48.377C66.0412 55.3164 60.0327 60.6408 53.1678 63.5729C52.572 63.8242 52.0787 64.299 51.7855 64.8575L49.2629 69.6792C48.8347 70.4983 47.9737 70.9637 47.1871 70.9498C46.7497 70.9405 46.3354 70.7869 46.0283 70.4704L42.3235 66.6586C41.9791 66.3002 41.4765 66.1094 40.9133 66.1048C40.8156 66.1048 40.7178 66.1048 40.6154 66.1001C38.1161 66.0582 35.6355 65.6766 33.2432 64.918C19.8159 60.6827 14.2542 46.4083 20.8212 33.0322C26.2154 22.0529 38.1022 15.0949 49.612 15.2997Z" fill="#B3C1EF"/>
<path opacity="0.0909" d="M49.584 15.2578C52.0973 15.2997 54.5919 15.686 56.9981 16.4447C70.4255 20.6846 75.9825 34.959 69.4201 48.3351C66.0133 55.2745 60.0047 60.5989 53.1398 63.531C52.5441 63.7823 52.0507 64.2571 51.7575 64.8156L49.235 69.6373C48.8068 70.4564 47.9457 70.9219 47.1592 70.9079C46.7217 70.8986 46.3075 70.745 46.0003 70.4285L42.2956 66.6167C41.9512 66.2584 41.4485 66.0675 40.8854 66.0629C40.7876 66.0629 40.6899 66.0629 40.5875 66.0582C38.0882 66.0163 35.6075 65.6347 33.2153 64.8761C19.788 60.6408 14.2262 46.3664 20.7933 32.9903C26.1875 22.0157 38.0742 15.0577 49.584 15.2578Z" fill="#B2C0ED"/>
<path opacity="0.1023" d="M49.5608 15.2206C52.0741 15.2625 54.5687 15.6488 56.9749 16.4074C70.4023 20.6474 75.9594 34.9218 69.397 48.2979C65.9901 55.2373 59.9815 60.5617 53.1166 63.4938C52.5209 63.7451 52.0276 64.2198 51.7343 64.7783L49.2118 69.6001C48.7836 70.4192 47.9226 70.8846 47.136 70.8707C46.6985 70.8614 46.2843 70.7078 45.9771 70.3913L42.2724 66.5795C41.928 66.2211 41.4253 66.0303 40.8622 66.0257C40.7644 66.0257 40.6667 66.0257 40.5643 66.021C38.065 65.9791 35.5843 65.5975 33.1921 64.8388C19.7648 60.6035 14.203 46.3292 20.7701 32.953C26.1596 21.9738 38.0464 15.0205 49.5608 15.2206Z" fill="#B0BEEC"/>
<path opacity="0.1136" d="M49.5329 15.1834C52.0461 15.2253 54.5408 15.6116 56.947 16.3702C70.3743 20.6102 75.9314 34.8845 69.369 48.2607C65.9621 55.2 59.9536 60.5244 53.0887 63.4566C52.4929 63.7079 51.9996 64.1826 51.7064 64.7411L49.1838 69.5628C48.7556 70.382 47.8946 70.8474 47.108 70.8334C46.6706 70.8241 46.2563 70.6705 45.9492 70.354L42.2444 66.5423C41.9 66.1839 41.3974 65.9931 40.8342 65.9884C40.7365 65.9884 40.6387 65.9884 40.5363 65.9838C38.0371 65.9419 35.5564 65.5602 33.1641 64.8016C19.7368 60.5663 14.1751 46.2919 20.7421 32.9158C26.1363 21.9366 38.0231 14.9833 49.5329 15.1834Z" fill="#AFBDEB"/>
<path opacity="0.125" d="M49.5096 15.1415C52.0228 15.1834 54.5175 15.5697 56.9237 16.3283C70.351 20.5683 75.9081 34.8426 69.3457 48.2188C65.9388 55.1581 59.9303 60.4825 53.0654 63.4147C52.4696 63.666 51.9763 64.1407 51.6831 64.6992L49.1605 69.5209C48.7323 70.3401 47.8713 70.8055 47.0847 70.7915C46.6472 70.7822 46.233 70.6286 45.9258 70.3122L42.2211 66.5004C41.8767 66.142 41.3741 65.9512 40.8109 65.9465C40.7132 65.9465 40.6154 65.9465 40.513 65.9419C38.0137 65.9 35.5331 65.5184 33.1408 64.7597C19.7135 60.5244 14.1517 46.25 20.7188 32.8739C26.1083 21.8994 37.9951 14.9414 49.5096 15.1415Z" fill="#ADBCEA"/>
<path opacity="0.1364" d="M49.4816 15.1043C51.9949 15.1462 54.4895 15.5325 56.8957 16.2911C70.323 20.531 75.8801 34.8054 69.3177 48.1815C65.9109 55.1209 59.9023 60.4453 53.0374 63.3774C52.4417 63.6288 51.9483 64.1035 51.6551 64.662L49.1325 69.4837C48.7044 70.3029 47.8433 70.7683 47.0568 70.7543C46.6193 70.745 46.2051 70.5914 45.8979 70.2749L42.1932 66.4632C41.8488 66.1048 41.3461 65.914 40.7829 65.9093C40.6852 65.9093 40.5875 65.9093 40.4851 65.9047C37.9858 65.8628 35.5051 65.4811 33.1129 64.7225C19.6855 60.4872 14.1238 46.2128 20.6908 32.8367C26.085 21.8621 37.9718 14.9041 49.4816 15.1043Z" fill="#ACBAE9"/>
<path opacity="0.1477" d="M49.4538 15.067C51.967 15.1089 54.4617 15.4952 56.8679 16.2539C70.2952 20.4938 75.8523 34.7682 69.2899 48.1443C65.883 55.0837 59.8745 60.4081 53.0096 63.3402C52.4138 63.5915 51.9205 64.0662 51.6273 64.6248L49.1047 69.4465C48.6765 70.2656 47.8155 70.731 47.0289 70.7171C46.5914 70.7078 46.1772 70.5542 45.8701 70.2377L42.1653 66.4259C41.8209 66.0675 41.3183 65.8767 40.7551 65.8721C40.6574 65.8721 40.5596 65.8721 40.4572 65.8674C37.9579 65.8255 35.4773 65.4439 33.085 64.6853C19.6577 60.45 14.096 46.1756 20.663 32.7995C26.0572 21.8202 37.944 14.8669 49.4538 15.067Z" fill="#AAB9E7"/>
<path opacity="0.1591" d="M49.4305 15.0298C51.9437 15.0717 54.4384 15.458 56.8446 16.2166C70.2719 20.4566 75.829 34.731 69.2666 48.1071C65.8597 55.0465 59.8512 60.3708 52.9863 63.303C52.3905 63.5543 51.8972 64.029 51.604 64.5875L49.0814 69.4093C48.6532 70.2284 47.7922 70.6938 47.0056 70.6799C46.5681 70.6705 46.1539 70.5169 45.8467 70.2005L42.142 66.3887C41.7976 66.0303 41.2949 65.8395 40.7318 65.8348C40.6341 65.8348 40.5363 65.8348 40.4339 65.8302C37.9346 65.7883 35.454 65.4067 33.0617 64.648C19.6344 60.4127 14.0726 46.1384 20.6397 32.7622C26.0339 21.783 37.9207 14.8297 49.4305 15.0298Z" fill="#A9B7E6"/>
<path opacity="0.1705" d="M49.4025 14.9879C51.9158 15.0298 54.4104 15.4161 56.8166 16.1747C70.2439 20.4147 75.801 34.689 69.2386 48.0652C65.8318 55.0046 59.8232 60.3289 52.9583 63.2611C52.3626 63.5124 51.8692 63.9871 51.576 64.5456L49.0534 69.3674C48.6253 70.1865 47.7642 70.6519 46.9777 70.6379C46.5402 70.6286 46.126 70.4751 45.8188 70.1586L42.1141 66.3468C41.7696 65.9884 41.267 65.7976 40.7038 65.793C40.6061 65.793 40.5084 65.7929 40.406 65.7883C37.9067 65.7464 35.426 65.3648 33.0338 64.6061C19.6064 60.3708 14.0447 46.0964 20.6117 32.7203C26.0059 21.7458 37.8927 14.7878 49.4025 14.9879Z" fill="#A7B6E5"/>
<path opacity="0.1818" d="M49.3793 14.9507C51.8926 14.9926 54.3872 15.3789 56.7934 16.1375C70.2207 20.3775 75.7778 34.6518 69.2154 48.0279C65.8086 54.9673 59.8 60.2917 52.9351 63.2238C52.3394 63.4752 51.846 63.9499 51.5528 64.5084L49.0303 69.3301C48.6021 70.1493 47.741 70.6147 46.9545 70.6007C46.517 70.5914 46.1028 70.4378 45.7956 70.1213L42.0909 66.3096C41.7465 65.9512 41.2438 65.7604 40.6807 65.7557C40.5829 65.7557 40.4852 65.7557 40.3828 65.7511C37.8835 65.7092 35.4028 65.3275 33.0106 64.5689C19.5832 60.3336 14.0215 46.0592 20.5885 32.6831C25.9827 21.7039 37.8695 14.7505 49.3793 14.9507Z" fill="#A6B5E4"/>
<path opacity="0.1932" d="M49.3515 14.9134C51.8647 14.9553 54.3594 15.3416 56.7656 16.1003C70.1929 20.3402 75.75 34.6146 69.1876 47.9907C65.7807 54.9301 59.7722 60.2545 52.9073 63.1866C52.3115 63.4379 51.8182 63.9127 51.525 64.4711L49.0024 69.2929C48.5742 70.112 47.7132 70.5774 46.9266 70.5635C46.4892 70.5542 46.0749 70.4006 45.7678 70.0841L42.063 66.2723C41.7186 65.914 41.216 65.7231 40.6528 65.7185C40.5551 65.7185 40.4573 65.7185 40.3549 65.7138C37.8556 65.6719 35.375 65.2903 32.9827 64.5317C19.5554 60.2964 13.9937 46.022 20.5607 32.6459C25.9549 21.6667 37.8417 14.7133 49.3515 14.9134Z" fill="#A4B3E3"/>
<path opacity="0.2045" d="M49.328 14.8762C51.8413 14.9181 54.3359 15.3044 56.7422 16.063C70.1695 20.303 75.7266 34.5773 69.1642 47.9535C65.7573 54.8928 59.7488 60.2172 52.8838 63.1494C52.2881 63.4007 51.7948 63.8754 51.5015 64.4339L48.979 69.2556C48.5508 70.0748 47.6898 70.5402 46.9032 70.5262C46.4657 70.5169 46.0515 70.3633 45.7443 70.0469L42.0396 66.2351C41.6952 65.8767 41.1925 65.6859 40.6294 65.6812C40.5316 65.6812 40.4339 65.6813 40.3315 65.6766C37.8322 65.6347 35.3515 65.2531 32.9593 64.4944C19.532 60.2591 13.9702 45.9847 20.5373 32.6086C25.9268 21.6294 37.8136 14.6714 49.328 14.8762Z" fill="#A3B2E2"/>
<path opacity="0.2159" d="M49.3001 14.8343C51.8133 14.8762 54.308 15.2625 56.7142 16.0211C70.1415 20.2611 75.6986 34.5355 69.1362 47.9116C65.7294 54.851 59.7208 60.1754 52.8559 63.1075C52.2602 63.3588 51.7668 63.8335 51.4736 64.392L48.951 69.2138C48.5228 70.0329 47.6618 70.4983 46.8753 70.4844C46.4378 70.4751 46.0236 70.3215 45.7164 70.005L42.0116 66.1932C41.6672 65.8348 41.1646 65.644 40.6014 65.6394C40.5037 65.6394 40.406 65.6394 40.3036 65.6347C37.8043 65.5928 35.3236 65.2112 32.9313 64.4526C19.504 60.2173 13.9423 45.9429 20.5093 32.5668C25.9035 21.5922 37.7903 14.6342 49.3001 14.8343Z" fill="#A1B0E0"/>
<path opacity="0.2273" d="M49.2769 14.7971C51.7902 14.839 54.2848 15.2253 56.691 15.9839C70.1183 20.2239 75.6754 34.4982 69.113 47.8744C65.7062 54.8137 59.6976 60.1381 52.8327 63.0703C52.237 63.3216 51.7436 63.7963 51.4504 64.3548L48.9278 69.1765C48.4997 69.9957 47.6386 70.4611 46.8521 70.4471C46.4146 70.4378 46.0004 70.2842 45.6932 69.9677L41.9884 66.156C41.644 65.7976 41.1414 65.6068 40.5782 65.6021C40.4805 65.6021 40.3828 65.6021 40.2804 65.5975C37.7811 65.5556 35.3004 65.1739 32.9081 64.4153C19.4808 60.18 13.9191 45.9056 20.4861 32.5295C25.8757 21.5503 37.7625 14.597 49.2769 14.7971Z" fill="#A0AFDF"/>
<path opacity="0.2386" d="M49.2489 14.7599C51.7622 14.8017 54.2568 15.188 56.6631 15.9467C70.0904 20.1866 75.6475 34.461 69.0851 47.8371C65.6782 54.7765 59.6697 60.1009 52.8047 63.033C52.209 63.2843 51.7157 63.7591 51.4224 64.3176L48.8999 69.1393C48.4717 69.9584 47.6107 70.4239 46.8241 70.4099C46.3866 70.4006 45.9724 70.247 45.6652 69.9305L41.9605 66.1187C41.6161 65.7604 41.1134 65.5695 40.5503 65.5649C40.4525 65.5649 40.3548 65.5649 40.2524 65.5602C37.7531 65.5184 35.2724 65.1367 32.8802 64.3781C19.4529 60.1428 13.8911 45.8684 20.4582 32.4923C25.8524 21.5131 37.7392 14.5597 49.2489 14.7599Z" fill="#9EAEDE"/>
<path opacity="0.25" d="M49.2256 14.7226C51.7389 14.7645 54.2335 15.1508 56.6397 15.9094C70.0671 20.1494 75.6241 34.4238 69.0618 47.7999C65.6549 54.7393 59.6463 60.0637 52.7814 62.9958C52.1857 63.2471 51.6923 63.7218 51.3991 64.2803L48.8766 69.1021C48.4484 69.9212 47.5874 70.3866 46.8008 70.3727C46.3633 70.3634 45.9491 70.2098 45.6419 69.8933L41.9372 66.0815C41.5928 65.7231 41.0901 65.5323 40.527 65.5277C40.4292 65.5277 40.3315 65.5277 40.2291 65.523C37.7298 65.4811 35.2491 65.0995 32.8569 64.3408C19.4296 60.1055 13.8678 45.8312 20.4349 32.455C25.8244 21.4758 37.7112 14.5178 49.2256 14.7226Z" fill="#9DACDD"/>
<path opacity="0.2614" d="M49.1978 14.6807C51.7111 14.7226 54.2057 15.1089 56.6119 15.8675C70.0392 20.1075 75.5963 34.3819 69.0339 47.758C65.6271 54.6974 59.6185 60.0218 52.7536 62.9539C52.1579 63.2052 51.6645 63.6799 51.3713 64.2384L48.8487 69.0602C48.4205 69.8793 47.5595 70.3447 46.773 70.3308C46.3355 70.3215 45.9213 70.1679 45.6141 69.8514L41.9093 66.0396C41.5649 65.6813 41.0623 65.4904 40.4991 65.4858C40.4014 65.4858 40.3037 65.4858 40.2013 65.4811C37.702 65.4392 35.2213 65.0576 32.829 64.299C19.4017 60.0636 13.84 45.7893 20.407 32.4132C25.8012 21.4386 37.688 14.4806 49.1978 14.6807Z" fill="#9BABDC"/>
<path opacity="0.2727" d="M49.1698 14.6435C51.6831 14.6854 54.1777 15.0717 56.584 15.8303C70.0113 20.0703 75.5684 34.3446 69.006 47.7208C65.5991 54.6601 59.5906 59.9845 52.7256 62.9167C52.1299 63.168 51.6366 63.6427 51.3433 64.2012L48.8208 69.0229C48.3926 69.8421 47.5316 70.3075 46.745 70.2935C46.3075 70.2842 45.8933 70.1306 45.5861 69.8142L41.8814 66.0024C41.537 65.644 41.0343 65.4532 40.4712 65.4485C40.3734 65.4485 40.2757 65.4485 40.1733 65.4439C37.674 65.402 35.1933 65.0204 32.8011 64.2617C19.3738 60.0264 13.812 45.752 20.3791 32.3759C25.7733 21.3967 37.66 14.4434 49.1698 14.6435Z" fill="#9AA9DA"/>
<path opacity="0.2841" d="M49.1465 14.6063C51.6598 14.6482 54.1544 15.0344 56.5606 15.7931C69.988 20.033 75.545 34.3074 68.9826 47.6835C65.5758 54.6229 59.5672 59.9473 52.7023 62.8794C52.1066 63.1308 51.6132 63.6055 51.32 64.164L48.7975 68.9857C48.3693 69.8049 47.5082 70.2703 46.7217 70.2563C46.2842 70.247 45.87 70.0934 45.5628 69.7769L41.8581 65.9652C41.5137 65.6068 41.011 65.416 40.4479 65.4113C40.3501 65.4113 40.2524 65.4113 40.15 65.4067C37.6507 65.3648 35.17 64.9831 32.7778 64.2245C19.3505 59.9892 13.7887 45.7148 20.3558 32.3387C25.75 21.3595 37.6367 14.4061 49.1465 14.6063Z" fill="#98A8D9"/>
<path opacity="0.2955" d="M49.1187 14.569C51.632 14.6109 54.1266 14.9972 56.5328 15.7558C69.9601 19.9958 75.5172 34.2702 68.9548 47.6463C65.548 54.5857 59.5394 59.9101 52.6745 62.8422C52.0787 63.0935 51.5854 63.5682 51.2922 64.1267L48.7696 68.9485C48.3414 69.7676 47.4804 70.233 46.6939 70.2191C46.2564 70.2098 45.8421 70.0562 45.535 69.7397L41.8302 65.9279C41.4858 65.5695 40.9832 65.3787 40.42 65.3741C40.3223 65.3741 40.2245 65.3741 40.1222 65.3694C37.6229 65.3275 35.1422 64.9459 32.7499 64.1873C19.3226 59.952 13.7609 45.6776 20.3279 32.3015C25.7221 21.3222 37.6089 14.3642 49.1187 14.569Z" fill="#97A7D8"/>
<path opacity="0.3068" d="M49.0954 14.5271C51.6086 14.569 54.1033 14.9553 56.5095 15.714C69.9368 19.9539 75.4939 34.2283 68.9315 47.6044C65.5246 54.5438 59.5161 59.8682 52.6512 62.8003C52.0554 63.0516 51.5621 63.5264 51.2689 64.0849L48.7463 68.9066C48.3181 69.7257 47.4571 70.1912 46.6705 70.1772C46.2331 70.1679 45.8188 70.0143 45.5117 69.6978L41.8069 65.886C41.4625 65.5277 40.9599 65.3368 40.3967 65.3322C40.299 65.3322 40.2012 65.3322 40.0988 65.3275C37.5996 65.2857 35.1189 64.904 32.7266 64.1454C19.2993 59.9101 13.7376 45.6357 20.3046 32.2596C25.6942 21.285 37.5856 14.327 49.0954 14.5271Z" fill="#95A5D7"/>
<path opacity="0.3182" d="M49.0674 14.4899C51.5807 14.5318 54.0753 14.9181 56.4815 15.6767C69.9088 19.9167 75.4659 34.1911 68.9035 47.5672C65.4967 54.5066 59.4881 59.8309 52.6232 62.7631C52.0275 63.0144 51.5341 63.4891 51.2409 64.0476L48.7184 68.8694C48.2902 69.6885 47.4292 70.1539 46.6426 70.14C46.2051 70.1307 45.7909 69.9771 45.4837 69.6606L41.779 65.8488C41.4346 65.4904 40.9319 65.2996 40.3688 65.295C40.271 65.295 40.1733 65.295 40.0709 65.2903C37.5716 65.2484 35.0909 64.8668 32.6987 64.1081C19.2714 59.8728 13.7096 45.5985 20.2767 32.2224C25.6709 21.2431 37.5576 14.2898 49.0674 14.4899Z" fill="#94A4D6"/>
<path opacity="0.3295" d="M49.0441 14.4527C51.5574 14.4946 54.052 14.8809 56.4582 15.6395C69.8855 19.8795 75.4426 34.1538 68.8802 47.5299C65.4734 54.4693 59.4648 59.7937 52.5999 62.7258C52.0042 62.9772 51.5108 63.4519 51.2176 64.0104L48.695 68.8321C48.2669 69.6513 47.4058 70.1167 46.6193 70.1027C46.1818 70.0934 45.7676 69.9398 45.4604 69.6233L41.7557 65.8116C41.4113 65.4532 40.9086 65.2624 40.3454 65.2577C40.2477 65.2577 40.15 65.2577 40.0476 65.2531C37.5483 65.2112 35.0676 64.8295 32.6754 64.0709C19.248 59.8356 13.6863 45.5612 20.2533 32.1851C25.6429 21.2059 37.5297 14.2525 49.0441 14.4527Z" fill="#92A2D4"/>
<path opacity="0.3409" d="M49.0162 14.4108C51.5294 14.4527 54.0241 14.839 56.4303 15.5976C69.8576 19.8376 75.4147 34.1119 68.8523 47.4881C65.4454 54.4274 59.4369 59.7518 52.5719 62.684C51.9762 62.9353 51.4829 63.41 51.1897 63.9685L48.6671 68.7902C48.2389 69.6094 47.3779 70.0748 46.5913 70.0608C46.1538 70.0515 45.7396 69.8979 45.4324 69.5815L41.7277 65.7697C41.3833 65.4113 40.8806 65.2205 40.3175 65.2158C40.2198 65.2158 40.122 65.2158 40.0196 65.2112C37.5203 65.1693 35.0396 64.7876 32.6474 64.029C19.2201 59.7937 13.6583 45.5193 20.2254 32.1432C25.6196 21.1687 37.5064 14.2107 49.0162 14.4108Z" fill="#91A1D3"/>
<path opacity="0.3523" d="M48.9931 14.3736C51.5063 14.4154 54.001 14.8017 56.4072 15.5604C69.8345 19.8003 75.3916 34.0747 68.8292 47.4508C65.4223 54.3902 59.4138 59.7146 52.5489 62.6467C51.9531 62.8981 51.4598 63.3728 51.1666 63.9313L48.644 68.753C48.2158 69.5721 47.3548 70.0376 46.5683 70.0236C46.1308 70.0143 45.7165 69.8607 45.4094 69.5442L41.7046 65.7325C41.3602 65.3741 40.8576 65.1833 40.2944 65.1786C40.1967 65.1786 40.0989 65.1786 39.9966 65.1739C37.4973 65.1321 35.0166 64.7504 32.6243 63.9918C19.197 59.7565 13.6353 45.4821 20.2023 32.106C25.5919 21.1314 37.4786 14.1734 48.9931 14.3736Z" fill="#8FA0D2"/>
<path opacity="0.3636" d="M48.965 14.3363C51.4783 14.3782 53.9729 14.7645 56.3791 15.5231C69.8064 19.7631 75.3635 34.0375 68.8011 47.4136C65.3943 54.353 59.3857 59.6773 52.5208 62.6095C51.9251 62.8608 51.4317 63.3355 51.1385 63.894L48.6159 68.7158C48.1878 69.5349 47.3267 70.0003 46.5402 69.9864C46.1027 69.9771 45.6885 69.8235 45.3813 69.507L41.6766 65.6952C41.3321 65.3368 40.8295 65.146 40.2663 65.1414C40.1686 65.1414 40.0709 65.1414 39.9685 65.1367C37.4692 65.0948 34.9885 64.7132 32.5963 63.9545C19.1689 59.7192 13.6072 45.4449 20.1742 32.0687C25.5684 21.0895 37.4552 14.1362 48.965 14.3363Z" fill="#8E9ED1"/>
<path opacity="0.375" d="M48.9372 14.2991C51.4504 14.341 53.9451 14.7273 56.3513 15.4859C69.7786 19.7259 75.3357 34.0002 68.7733 47.3764C65.3664 54.3157 59.3579 59.6401 52.493 62.5723C51.8972 62.8236 51.4039 63.2983 51.1107 63.8568L48.5881 68.6785C48.1599 69.4977 47.2989 69.9631 46.5123 69.9491C46.0749 69.9398 45.6606 69.7862 45.3535 69.4698L41.6487 65.658C41.3043 65.2996 40.8017 65.1088 40.2385 65.1041C40.1408 65.1041 40.043 65.1041 39.9406 65.0995C37.4413 65.0576 34.9607 64.6759 32.5684 63.9173C19.1411 59.682 13.5794 45.4076 20.1464 32.0315C25.5406 21.0523 37.4274 14.099 48.9372 14.2991Z" fill="#8C9DD0"/>
<path opacity="0.3864" d="M48.9139 14.2572C51.4271 14.2991 53.9218 14.6854 56.328 15.444C69.7553 19.684 75.3124 33.9584 68.75 47.3345C65.3431 54.2739 59.3346 59.5982 52.4697 62.5304C51.8739 62.7817 51.3806 63.2564 51.0874 63.8149L48.5648 68.6367C48.1366 69.4558 47.2756 69.9212 46.489 69.9073C46.0515 69.8979 45.6373 69.7444 45.3301 69.4279L41.6254 65.6161C41.281 65.2577 40.7784 65.0669 40.2152 65.0622C40.1175 65.0622 40.0197 65.0622 39.9173 65.0576C37.418 65.0157 34.9373 64.6341 32.5451 63.8754C19.1178 59.6401 13.556 45.3658 20.1231 31.9896C25.5173 21.0151 37.4041 14.0571 48.9139 14.2572Z" fill="#8B9BCE"/>
<path opacity="0.3977" d="M48.8859 14.22C51.3992 14.2619 53.8938 14.6482 56.3 15.4068C69.7273 19.6468 75.2844 33.9211 68.722 47.2972C65.3152 54.2366 59.3066 59.561 52.4417 62.4931C51.846 62.7445 51.3526 63.2192 51.0594 63.7777L48.5368 68.5994C48.1087 69.4186 47.2476 69.884 46.4611 69.87C46.0236 69.8607 45.6094 69.7071 45.3022 69.3906L41.5975 65.5789C41.253 65.2205 40.7504 65.0297 40.1872 65.025C40.0895 65.025 39.9918 65.025 39.8894 65.0204C37.3901 64.9785 34.9094 64.5968 32.5171 63.8382C19.0898 59.6029 13.5281 45.3285 20.0951 31.9524C25.4893 20.9732 37.3761 14.0198 48.8859 14.22Z" fill="#899ACD"/>
<path opacity="0.4091" d="M48.8627 14.1827C51.376 14.2246 53.8706 14.6109 56.2768 15.3695C69.7041 19.6095 75.2612 33.8839 68.6988 47.26C65.292 54.1994 59.2834 59.5238 52.4185 62.4559C51.8228 62.7072 51.3294 63.182 51.0362 63.7405L48.5136 68.5622C48.0855 69.3813 47.2244 69.8467 46.4379 69.8328C46.0004 69.8235 45.5862 69.6699 45.279 69.3534L41.5743 65.5416C41.2298 65.1833 40.7272 64.9924 40.164 64.9878C40.0663 64.9878 39.9686 64.9878 39.8662 64.9831C37.3669 64.9412 34.8862 64.5596 32.494 63.801C19.0666 59.5656 13.5049 45.2913 20.0719 31.9152C25.4661 20.936 37.3529 13.9826 48.8627 14.1827Z" fill="#8899CC"/>
<path opacity="0.4205" d="M48.8348 14.1455C51.348 14.1874 53.8427 14.5737 56.2489 15.3323C69.6762 19.5723 75.2333 33.8466 68.6709 47.2228C65.264 54.1621 59.2555 59.4865 52.3906 62.4187C51.7948 62.67 51.3015 63.1447 51.0083 63.7032L48.4857 68.525C48.0575 69.3441 47.1965 69.8095 46.4099 69.7955C45.9724 69.7862 45.5582 69.6326 45.251 69.3162L41.5463 65.5044C41.2019 65.146 40.6992 64.9552 40.1361 64.9505C40.0383 64.9505 39.9406 64.9505 39.8382 64.9459C37.3389 64.904 34.8583 64.5224 32.466 63.7637C19.0387 59.5284 13.4769 45.254 20.044 31.8779C25.4382 20.8987 37.325 13.9407 48.8348 14.1455Z" fill="#8697CB"/>
<path opacity="0.4318" d="M48.8116 14.1036C51.3248 14.1455 53.8195 14.5318 56.2257 15.2904C69.653 19.5304 75.2101 33.8048 68.6477 47.1809C65.2408 54.1203 59.2323 59.4446 52.3674 62.3768C51.7716 62.6281 51.2783 63.1028 50.9851 63.6613L48.4625 68.4831C48.0343 69.3022 47.1733 69.7676 46.3867 69.7537C45.9492 69.7443 45.535 69.5908 45.2278 69.2743L41.5231 65.4625C41.1787 65.1041 40.6761 64.9133 40.1129 64.9087C40.0152 64.9087 39.9174 64.9087 39.815 64.904C37.3157 64.8621 34.8351 64.4805 32.4428 63.7218C19.0155 59.4865 13.4537 45.2122 20.0208 31.836C25.4103 20.8615 37.2971 13.9035 48.8116 14.1036Z" fill="#8596CA"/>
<path opacity="0.4432" d="M48.7836 14.0664C51.2969 14.1083 53.7915 14.4946 56.1977 15.2532C69.625 19.4931 75.1821 33.7675 68.6197 47.1436C65.2129 54.083 59.2043 59.4074 52.3394 62.3395C51.7437 62.5909 51.2503 63.0656 50.9571 63.6241L48.4345 68.4458C48.0064 69.265 47.1453 69.7304 46.3588 69.7164C45.9213 69.7071 45.5071 69.5535 45.1999 69.237L41.4952 65.4253C41.1508 65.0669 40.6481 64.8761 40.0849 64.8714C39.9872 64.8714 39.8895 64.8714 39.7871 64.8668C37.2878 64.8249 34.8071 64.4432 32.4149 63.6846C18.9875 59.4493 13.4258 45.1749 19.9928 31.7988C25.387 20.8196 37.2738 13.8662 48.7836 14.0664Z" fill="#8394C8"/>
<path opacity="0.4545" d="M48.7603 14.0292C51.2736 14.071 53.7682 14.4573 56.1744 15.216C69.6017 19.4559 75.1588 33.7303 68.5964 47.1064C65.1896 54.0458 59.181 59.3702 52.3161 62.3023C51.7204 62.5536 51.227 63.0284 50.9338 63.5869L48.4112 68.4086C47.983 69.2277 47.122 69.6932 46.3355 69.6792C45.898 69.6699 45.4838 69.5163 45.1766 69.1998L41.4718 65.388C41.1274 65.0297 40.6248 64.8388 40.0616 64.8342C39.9639 64.8342 39.8662 64.8342 39.7638 64.8295C37.2645 64.7877 34.7838 64.406 32.3915 63.6474C18.9642 59.4121 13.4025 45.1377 19.9695 31.7616C25.3591 20.7824 37.2458 13.829 48.7603 14.0292Z" fill="#8293C7"/>
<path opacity="0.4659" d="M48.7323 13.9919C51.2456 14.0338 53.7402 14.4201 56.1465 15.1787C69.5738 19.4187 75.1309 33.6931 68.5685 47.0692C65.1616 54.0086 59.1531 59.3329 52.2881 62.2651C51.6924 62.5164 51.1991 62.9911 50.9058 63.5496L48.3833 68.3714C47.9551 69.1905 47.0941 69.6559 46.3075 69.642C45.87 69.6327 45.4558 69.4791 45.1486 69.1626L41.4439 65.3508C41.0995 64.9924 40.5968 64.8016 40.0337 64.797C39.9359 64.797 39.8382 64.797 39.7358 64.7923C37.2365 64.7504 34.7558 64.3688 32.3636 63.6101C18.9363 59.3748 13.3745 45.1005 19.9416 31.7243C25.3358 20.7451 37.2225 13.7871 48.7323 13.9919Z" fill="#8092C6"/>
<path opacity="0.4773" d="M48.7092 13.95C51.2224 13.9919 53.717 14.3782 56.1233 15.1368C69.5506 19.3768 75.1077 33.6512 68.5453 47.0273C65.1384 53.9667 59.1299 59.2911 52.2649 62.2232C51.6692 62.4745 51.1759 62.9492 50.8826 63.5077L48.3601 68.3295C47.9319 69.1486 47.0709 69.614 46.2843 69.6001C45.8468 69.5908 45.4326 69.4372 45.1254 69.1207L41.4207 65.3089C41.0763 64.9505 40.5736 64.7597 40.0105 64.7551C39.9127 64.7551 39.815 64.7551 39.7126 64.7504C37.2133 64.7085 34.7326 64.3269 32.3404 63.5682C18.9131 59.3329 13.3513 45.0586 19.9184 31.6825C25.3079 20.7079 37.1947 13.7499 48.7092 13.95Z" fill="#7F90C5"/>
<path opacity="0.4886" d="M48.6812 13.9128C51.1945 13.9547 53.6891 14.341 56.0953 15.0996C69.5226 19.3396 75.0797 33.6139 68.5173 46.9901C65.1105 53.9294 59.1019 59.2538 52.237 62.186C51.6412 62.4373 51.1479 62.912 50.8547 63.4705L48.3321 68.2923C47.9039 69.1114 47.0429 69.5768 46.2564 69.5628C45.8189 69.5535 45.4046 69.3999 45.0975 69.0835L41.3927 65.2717C41.0483 64.9133 40.5457 64.7225 39.9825 64.7178C39.8848 64.7178 39.787 64.7178 39.6847 64.7132C37.1854 64.6713 34.7047 64.2896 32.3124 63.531C18.8851 59.2957 13.3234 45.0213 19.8904 31.6452C25.2846 20.666 37.1714 13.7127 48.6812 13.9128Z" fill="#7D8FC4"/>
<path opacity="0.5" d="M48.6532 13.8756C51.1665 13.9174 53.6611 14.3037 56.0674 15.0624C69.4947 19.3023 75.0518 33.5767 68.4894 46.9528C65.0825 53.8922 59.0739 59.2166 52.209 62.1487C51.6133 62.4 51.12 62.8748 50.8267 63.4333L48.3042 68.255C47.876 69.0741 47.015 69.5396 46.2284 69.5256C45.7909 69.5163 45.3767 69.3627 45.0695 69.0462L41.3648 65.2344C41.0204 64.8761 40.5177 64.6852 39.9546 64.6806C39.8568 64.6806 39.7591 64.6806 39.6567 64.6759C37.1574 64.634 34.6767 64.2524 32.2845 63.4938C18.8572 59.2585 13.2954 44.9841 19.8625 31.608C25.2567 20.6288 37.1435 13.6754 48.6532 13.8756Z" fill="#7C8EC2"/>
<path opacity="0.5114" d="M48.6299 13.8383C51.1432 13.8802 53.6378 14.2665 56.044 15.0251C69.4713 19.2651 75.0284 33.5395 68.466 46.9156C65.0592 53.855 59.0506 59.1794 52.1857 62.1115C51.59 62.3628 51.0966 62.8375 50.8034 63.396L48.2809 68.2178C47.8527 69.0369 46.9917 69.5023 46.2051 69.4884C45.7676 69.4791 45.3534 69.3255 45.0462 69.009L41.3415 65.1972C40.9971 64.8388 40.4944 64.648 39.9313 64.6434C39.8335 64.6434 39.7358 64.6434 39.6334 64.6387C37.1341 64.5968 34.6534 64.2152 32.2612 63.4565C18.8339 59.2212 13.2721 44.9469 19.8392 31.5707C25.2334 20.5915 37.1201 13.6335 48.6299 13.8383Z" fill="#7A8CC1"/>
<path opacity="0.5227" d="M48.6021 13.7964C51.1153 13.8383 53.61 14.2246 56.0162 14.9833C69.4435 19.2232 75.0006 33.4976 68.4382 46.8737C65.0314 53.8131 59.0228 59.1375 52.1579 62.0696C51.5622 62.3209 51.0688 62.7957 50.7756 63.3542L48.253 68.1759C47.8248 68.995 46.9638 69.4604 46.1773 69.4465C45.7398 69.4372 45.3256 69.2836 45.0184 68.9671L41.3136 65.1553C40.9692 64.797 40.4666 64.6061 39.9034 64.6015C39.8057 64.6015 39.708 64.6015 39.6056 64.5968C37.1063 64.5549 34.6256 64.1733 32.2333 63.4147C18.806 59.1794 13.2443 44.905 19.8113 31.5289C25.2055 20.5543 37.0923 13.5963 48.6021 13.7964Z" fill="#798BC0"/>
<path opacity="0.5341" d="M48.5788 13.7592C51.092 13.8011 53.5867 14.1874 55.9929 14.946C69.4202 19.186 74.9773 33.4604 68.4149 46.8365C65.008 53.7759 58.9995 59.1002 52.1346 62.0324C51.5388 62.2837 51.0455 62.7584 50.7523 63.3169L48.2297 68.1387C47.8015 68.9578 46.9405 69.4232 46.1539 69.4093C45.7164 69.3999 45.3022 69.2464 44.9951 68.9299L41.2903 65.1181C40.9459 64.7597 40.4433 64.5689 39.8801 64.5642C39.7824 64.5642 39.6846 64.5642 39.5822 64.5596C37.0829 64.5177 34.6023 64.1361 32.21 63.3774C18.7827 59.1421 13.221 44.8678 19.788 31.4916C25.1775 20.5124 37.069 13.5591 48.5788 13.7592Z" fill="#7789BF"/>
<path opacity="0.5455" d="M48.5508 13.722C51.0641 13.7639 53.5587 14.1502 55.9649 14.9088C69.3922 19.1488 74.9493 33.4231 68.3869 46.7992C64.9801 53.7386 58.9715 59.063 52.1066 61.9952C51.5109 62.2465 51.0175 62.7212 50.7243 63.2797L48.2018 68.1014C47.7736 68.9206 46.9125 69.386 46.126 69.372C45.6885 69.3627 45.2743 69.2091 44.9671 68.8926L41.2624 65.0809C40.918 64.7225 40.4153 64.5317 39.8522 64.527C39.7544 64.527 39.6567 64.527 39.5543 64.5224C37.055 64.4805 34.5743 64.0988 32.1821 63.3402C18.7547 59.1049 13.193 44.8305 19.7601 31.4544C25.1542 20.4752 37.041 13.5219 48.5508 13.722Z" fill="#7688BE"/>
<path opacity="0.5568" d="M48.5276 13.6801C51.0409 13.722 53.5355 14.1083 55.9417 14.8669C69.3691 19.1069 74.9261 33.3812 68.3638 46.7574C64.9569 53.6967 58.9483 59.0211 52.0834 61.9533C51.4877 62.2046 50.9943 62.6793 50.7011 63.2378L48.1786 68.0595C47.7504 68.8787 46.8894 69.3441 46.1028 69.3301C45.6653 69.3208 45.2511 69.1672 44.9439 68.8507L41.2392 65.039C40.8948 64.6806 40.3921 64.4898 39.829 64.4851C39.7312 64.4851 39.6335 64.4851 39.5311 64.4805C37.0318 64.4386 34.5511 64.0569 32.1589 63.2983C18.7316 59.063 13.1698 44.7886 19.7369 31.4125C25.1264 20.438 37.0132 13.48 48.5276 13.6801Z" fill="#7487BD"/>
<path opacity="0.5682" d="M48.4997 13.6428C51.0129 13.6847 53.5076 14.071 55.9138 14.8297C69.3411 19.0696 74.8982 33.344 68.3358 46.7201C64.9289 53.6595 58.9204 58.9839 52.0555 61.916C51.4597 62.1673 50.9664 62.6421 50.6732 63.2006L48.1506 68.0223C47.7224 68.8414 46.8614 69.3069 46.0748 69.2929C45.6374 69.2836 45.2231 69.13 44.916 68.8135L41.2112 65.0017C40.8668 64.6434 40.3642 64.4525 39.801 64.4479C39.7033 64.4479 39.6055 64.4479 39.5031 64.4432C37.0038 64.4013 34.5232 64.0197 32.1309 63.2611C18.7036 59.0258 13.1419 44.7514 19.7089 31.3753C25.1031 20.4007 36.9899 13.4427 48.4997 13.6428Z" fill="#7385BB"/>
<path opacity="0.5795" d="M48.4764 13.6056C50.9896 13.6475 53.4843 14.0338 55.8905 14.7924C69.3178 19.0324 74.8749 33.3068 68.3125 46.6829C64.9056 53.6223 58.8971 58.9467 52.0322 61.8788C51.4364 62.1301 50.9431 62.6048 50.6499 63.1633L48.1273 67.9851C47.6991 68.8042 46.8381 69.2696 46.0515 69.2557C45.614 69.2464 45.1998 69.0928 44.8926 68.7763L41.1879 64.9645C40.8435 64.6061 40.3409 64.4153 39.7777 64.4107C39.68 64.4107 39.5822 64.4107 39.4798 64.406C36.9805 64.3641 34.4998 63.9825 32.1076 63.2238C18.6803 58.9885 13.1185 44.7142 19.6856 31.338C25.0751 20.3588 36.9619 13.4055 48.4764 13.6056Z" fill="#7184BA"/>
<path opacity="0.5909" d="M48.4484 13.5684C50.9617 13.6103 53.4563 13.9966 55.8625 14.7552C69.2898 18.9952 74.8469 33.2695 68.2845 46.6456C64.8777 53.585 58.8691 58.9094 52.0042 61.8415C51.4085 62.0929 50.9151 62.5676 50.6219 63.1261L48.0993 67.9478C47.6712 68.767 46.8101 69.2324 46.0236 69.2184C45.5861 69.2091 45.1719 69.0555 44.8647 68.739L41.16 64.9273C40.8155 64.5689 40.3129 64.3781 39.7497 64.3734C39.652 64.3734 39.5543 64.3734 39.4519 64.3688C36.9526 64.3269 34.4719 63.9452 32.0796 63.1866C18.6523 58.9513 13.0906 44.6769 19.6576 31.3008C25.0518 20.3216 36.9386 13.3636 48.4484 13.5684Z" fill="#7082B9"/>
<path opacity="0.6023" d="M48.4205 13.5265C50.9337 13.5684 53.4284 13.9547 55.8346 14.7133C69.2619 18.9533 74.819 33.2276 68.2566 46.6038C64.8497 53.5431 58.8412 58.8675 51.9762 61.7997C51.3805 62.051 50.8872 62.5257 50.594 63.0842L48.0714 67.9059C47.6432 68.7251 46.7822 69.1905 45.9956 69.1765C45.5581 69.1672 45.1439 69.0136 44.8367 68.6972L41.132 64.8854C40.7876 64.527 40.2849 64.3362 39.7218 64.3315C39.6241 64.3315 39.5263 64.3315 39.4239 64.3269C36.9246 64.285 34.4439 63.9034 32.0517 63.1447C18.6244 58.9094 13.0626 44.635 19.6297 31.2589C25.0239 20.2844 36.9107 13.3264 48.4205 13.5265Z" fill="#6E81B8"/>
<path opacity="0.6136" d="M48.3973 13.4893C50.9105 13.5311 53.4052 13.9174 55.8114 14.6761C69.2387 18.916 74.7958 33.1904 68.2334 46.5665C64.8265 53.5059 58.818 58.8303 51.9531 61.7624C51.3573 62.0138 50.864 62.4885 50.5708 63.047L48.0482 67.8687C47.62 68.6879 46.759 69.1533 45.9724 69.1393C45.5349 69.13 45.1207 68.9764 44.8135 68.6599L41.1088 64.8481C40.7644 64.4898 40.2617 64.299 39.6986 64.2943C39.6008 64.2943 39.5031 64.2943 39.4007 64.2896C36.9014 64.2478 34.4208 63.8661 32.0285 63.1075C18.6012 58.8722 13.0394 44.5978 19.6065 31.2217C25.0007 20.2425 36.8875 13.2891 48.3973 13.4893Z" fill="#6D80B7"/>
<path opacity="0.625" d="M48.3693 13.452C50.8826 13.4939 53.3772 13.8802 55.7834 14.6389C69.2107 18.8788 74.7678 33.1532 68.2054 46.5293C64.7986 53.4687 58.79 58.7931 51.9251 61.7252C51.3294 61.9765 50.836 62.4513 50.5428 63.0098L48.0202 67.8315C47.5921 68.6506 46.731 69.116 45.9445 69.1021C45.507 69.0928 45.0928 68.9392 44.7856 68.6227L41.0809 64.8109C40.7364 64.4525 40.2338 64.2617 39.6706 64.2571C39.5729 64.2571 39.4752 64.2571 39.3728 64.2524C36.8735 64.2105 34.3928 63.8289 32.0005 63.0703C18.5732 58.835 13.0115 44.5606 19.5785 31.1845C24.9727 20.2052 36.8595 13.2519 48.3693 13.452Z" fill="#6B7EB5"/>
<path opacity="0.6364" d="M48.3461 13.4148C50.8594 13.4567 53.354 13.843 55.7602 14.6016C69.1875 18.8416 74.7446 33.1159 68.1822 46.4921C64.7754 53.4314 58.7668 58.7558 51.9019 61.688C51.3062 61.9393 50.8128 62.414 50.5196 62.9725L47.997 67.7942C47.5689 68.6134 46.7078 69.0788 45.9213 69.0648C45.4838 69.0555 45.0696 68.9019 44.7624 68.5855L41.0577 64.7737C40.7133 64.4153 40.2106 64.2245 39.6474 64.2198C39.5497 64.2198 39.452 64.2198 39.3496 64.2152C36.8503 64.1733 34.3696 63.7916 31.9774 63.033C18.55 58.7977 12.9883 44.5233 19.5553 31.1472C24.9495 20.168 36.8363 13.21 48.3461 13.4148Z" fill="#6A7DB4"/>
<path opacity="0.6477" d="M48.3182 13.3729C50.8314 13.4148 53.3261 13.8011 55.7323 14.5597C69.1596 18.7997 74.7167 33.0741 68.1543 46.4502C64.7474 53.3896 58.7389 58.7139 51.8739 61.6461C51.2782 61.8974 50.7849 62.3721 50.4917 62.9306L47.9691 67.7524C47.5409 68.5715 46.6799 69.0369 45.8933 69.0229C45.4558 69.0136 45.0416 68.8601 44.7344 68.5436L41.0297 64.7318C40.6853 64.3734 40.1826 64.1826 39.6195 64.178C39.5218 64.178 39.424 64.178 39.3216 64.1733C36.8223 64.1314 34.3416 63.7498 31.9494 62.9911C18.5221 58.7558 12.9603 44.4815 19.5274 31.1053C24.9216 20.1308 36.8084 13.1728 48.3182 13.3729Z" fill="#687BB3"/>
<path opacity="0.6591" d="M48.2948 13.3357C50.8081 13.3776 53.3027 13.7639 55.709 14.5225C69.1363 18.7625 74.6934 33.0368 68.131 46.4129C64.7241 53.3523 58.7156 58.6767 51.8506 61.6088C51.2549 61.8602 50.7616 62.3349 50.4683 62.8934L47.9458 67.7151C47.5176 68.5343 46.6566 68.9997 45.87 68.9857C45.4325 68.9764 45.0183 68.8228 44.7111 68.5063L41.0064 64.6946C40.662 64.3362 40.1593 64.1454 39.5962 64.1407C39.4984 64.1407 39.4007 64.1407 39.2983 64.1361C36.799 64.0942 34.3183 63.7125 31.9261 62.9539C18.4988 58.7186 12.937 44.4442 19.5041 31.0681C24.8936 20.0889 36.7804 13.1355 48.2948 13.3357Z" fill="#677AB2"/>
<path opacity="0.6705" d="M48.2669 13.2984C50.7801 13.3403 53.2748 13.7266 55.681 14.4853C69.1083 18.7252 74.6654 32.9996 68.103 46.3757C64.6962 53.3151 58.6876 58.6395 51.8227 61.5716C51.227 61.8229 50.7336 62.2977 50.4404 62.8562L47.9178 67.6779C47.4896 68.497 46.6286 68.9625 45.8421 68.9485C45.4046 68.9392 44.9904 68.7856 44.6832 68.4691L40.9784 64.6573C40.634 64.299 40.1314 64.1081 39.5682 64.1035C39.4705 64.1035 39.3728 64.1035 39.2704 64.0988C36.7711 64.0569 34.2904 63.6753 31.8981 62.9167C18.4708 58.6814 12.9091 44.407 19.4761 31.0309C24.8703 20.0517 36.7571 13.0983 48.2669 13.2984Z" fill="#6579B1"/>
<path opacity="0.6818" d="M48.2437 13.2612C50.757 13.3031 53.2516 13.6894 55.6578 14.448C69.0851 18.688 74.6422 32.9624 68.0798 46.3385C64.673 53.2779 58.6644 58.6022 51.7995 61.5344C51.2037 61.7857 50.7104 62.2604 50.4172 62.8189L47.8946 67.6407C47.4664 68.4598 46.6054 68.9252 45.8189 68.9112C45.3814 68.9019 44.9671 68.7484 44.66 68.4319L40.9552 64.6201C40.6108 64.2617 40.1082 64.0709 39.545 64.0662C39.4473 64.0662 39.3495 64.0663 39.2472 64.0616C36.7479 64.0197 34.2672 63.6381 31.8749 62.8794C18.4476 58.6441 12.8859 44.3697 19.4529 30.9936C24.8425 20.0144 36.7293 13.0564 48.2437 13.2612Z" fill="#6477AF"/>
<path opacity="0.6932" d="M48.2157 13.2193C50.729 13.2612 53.2236 13.6475 55.6299 14.4061C69.0572 18.6461 74.6143 32.9205 68.0519 46.2966C64.645 53.236 58.6364 58.5603 51.7715 61.4925C51.1758 61.7438 50.6825 62.2185 50.3892 62.777L47.8667 67.5988C47.4385 68.4179 46.5775 68.8833 45.7909 68.8694C45.3534 68.86 44.9392 68.7065 44.632 68.39L40.9273 64.5782C40.5829 64.2198 40.0802 64.029 39.5171 64.0244C39.4193 64.0244 39.3216 64.0243 39.2192 64.0197C36.7199 63.9778 34.2392 63.5962 31.847 62.8375C18.4197 58.6022 12.8579 44.3279 19.425 30.9517C24.8192 19.9772 36.706 13.0192 48.2157 13.2193Z" fill="#6276AE"/>
<path opacity="0.7045" d="M48.1879 13.1821C50.7012 13.224 53.1958 13.6103 55.602 14.3689C69.0293 18.6089 74.5864 32.8832 68.024 46.2594C64.6172 53.1987 58.6086 58.5231 51.7437 61.4553C51.148 61.7066 50.6546 62.1813 50.3614 62.7398L47.8388 67.5615C47.4107 68.3807 46.5496 68.8461 45.7631 68.8321C45.3256 68.8228 44.9114 68.6692 44.6042 68.3528L40.8995 64.541C40.5551 64.1826 40.0524 63.9918 39.4892 63.9871C39.3915 63.9871 39.2938 63.9871 39.1914 63.9825C36.6921 63.9406 34.2114 63.5589 31.8191 62.8003C18.3918 58.565 12.8301 44.2906 19.3971 30.9145C24.7913 19.9353 36.6781 12.982 48.1879 13.1821Z" fill="#6174AD"/>
<path opacity="0.7159" d="M48.1645 13.1448C50.6777 13.1867 53.1724 13.573 55.5786 14.3317C69.0059 18.5716 74.563 32.846 68.0006 46.2221C64.5937 53.1615 58.5852 58.4859 51.7203 61.418C51.1245 61.6693 50.6312 62.1441 50.338 62.7026L47.8154 67.5243C47.3872 68.3434 46.5262 68.8089 45.7396 68.7949C45.3022 68.7856 44.8879 68.632 44.5808 68.3155L40.876 64.5037C40.5316 64.1454 40.029 63.9545 39.4658 63.9499C39.3681 63.9499 39.2703 63.9499 39.1679 63.9452C36.6686 63.9034 34.188 63.5217 31.7957 62.7631C18.3684 58.5278 12.8067 44.2534 19.3737 30.8773C24.7679 19.8981 36.6547 12.9447 48.1645 13.1448Z" fill="#5F73AC"/>
<path opacity="0.7273" d="M48.1365 13.103C50.6498 13.1448 53.1444 13.5312 55.5506 14.2898C68.9779 18.5297 74.535 32.8041 67.9726 46.1802C64.5658 53.1196 58.5572 58.444 51.6923 61.3761C51.0966 61.6275 50.6032 62.1022 50.31 62.6607L47.7875 67.4824C47.3593 68.3015 46.4982 68.767 45.7117 68.753C45.2742 68.7437 44.86 68.5901 44.5528 68.2736L40.8481 64.4619C40.5037 64.1035 40.001 63.9127 39.4378 63.908C39.3401 63.908 39.2424 63.908 39.14 63.9033C36.6407 63.8615 34.16 63.4798 31.7678 62.7212C18.3405 58.4859 12.7787 44.2115 19.3458 30.8354C24.74 19.8608 36.6267 12.9028 48.1365 13.103Z" fill="#5E72AB"/>
<path opacity="0.7386" d="M48.1133 13.0657C50.6266 13.1076 53.1212 13.4939 55.5274 14.2525C68.9547 18.4925 74.5118 32.7669 67.9494 46.143C64.5426 53.0824 58.534 58.4068 51.6691 61.3389C51.0734 61.5902 50.58 62.0649 50.2868 62.6234L47.7643 67.4452C47.3361 68.2643 46.475 68.7297 45.6885 68.7158C45.251 68.7065 44.8368 68.5529 44.5296 68.2364L40.8249 64.4246C40.4805 64.0663 39.9778 63.8754 39.4147 63.8708C39.3169 63.8708 39.2192 63.8708 39.1168 63.8661C36.6175 63.8242 34.1368 63.4426 31.7446 62.684C18.3172 58.4487 12.7555 44.1743 19.3226 30.7982C24.7167 19.8236 36.6035 12.8656 48.1133 13.0657Z" fill="#5C70A9"/>
<path opacity="0.75" d="M48.0854 13.0285C50.5986 13.0704 53.0933 13.4567 55.4995 14.2153C68.9268 18.4553 74.4839 32.7296 67.9215 46.1058C64.5146 53.0451 58.5061 58.3695 51.6412 61.3017C51.0454 61.553 50.5521 62.0277 50.2589 62.5862L47.7363 67.4079C47.3081 68.2271 46.4471 68.6925 45.6605 68.6785C45.223 68.6692 44.8088 68.5156 44.5016 68.1992L40.7969 64.3874C40.4525 64.029 39.9499 63.8382 39.3867 63.8335C39.289 63.8335 39.1912 63.8335 39.0888 63.8289C36.5895 63.787 34.1089 63.4054 31.7166 62.6467C18.2893 58.4114 12.7275 44.137 19.2946 30.7609C24.6888 19.7817 36.5756 12.8284 48.0854 13.0285Z" fill="#5B6FA8"/>
<path opacity="0.7614" d="M48.0622 12.9913C50.5754 13.0332 53.0701 13.4194 55.4763 14.1781C68.9036 18.418 74.4607 32.6924 67.8983 46.0685C64.4914 53.0079 58.4829 58.3323 51.618 61.2644C51.0222 61.5158 50.5289 61.9905 50.2357 62.549L47.7131 67.3707C47.2849 68.1899 46.4239 68.6553 45.6373 68.6413C45.1999 68.632 44.7856 68.4784 44.4785 68.1619L40.7737 64.3502C40.4293 63.9918 39.9267 63.801 39.3635 63.7963C39.2658 63.7963 39.168 63.7963 39.0656 63.7917C36.5663 63.7498 34.0857 63.3681 31.6934 62.6095C18.2661 58.3742 12.7044 44.0998 19.2714 30.7237C24.661 19.7445 36.5477 12.7911 48.0622 12.9913Z" fill="#596DA7"/>
<path opacity="0.7727" d="M48.0342 12.9494C50.5475 12.9913 53.0421 13.3776 55.4483 14.1362C68.8756 18.3761 74.4327 32.6505 67.8703 46.0266C64.4635 52.966 58.4549 58.2904 51.59 61.2225C50.9943 61.4739 50.5009 61.9486 50.2077 62.5071L47.6852 67.3288C47.257 68.148 46.396 68.6134 45.6094 68.5994C45.1719 68.5901 44.7577 68.4365 44.4505 68.12L40.7458 64.3083C40.4014 63.9499 39.8987 63.7591 39.3356 63.7544C39.2378 63.7544 39.1401 63.7544 39.0377 63.7498C36.5384 63.7079 34.0577 63.3262 31.6655 62.5676C18.2382 58.3323 12.6764 44.0579 19.2435 30.6818C24.6377 19.7073 36.5244 12.7493 48.0342 12.9494Z" fill="#586CA6"/>
<path opacity="0.7841" d="M48.011 12.9121C50.5243 12.954 53.0189 13.3403 55.4251 14.099C68.8525 18.3389 74.4095 32.6133 67.8472 45.9894C64.4403 52.9288 58.4317 58.2532 51.5668 61.1853C50.9711 61.4366 50.4777 61.9114 50.1845 62.4699L47.662 67.2916C47.2338 68.1107 46.3728 68.5761 45.5862 68.5622C45.1487 68.5529 44.7345 68.3993 44.4273 68.0828L40.7226 64.271C40.3782 63.9127 39.8755 63.7218 39.3124 63.7172C39.2146 63.7172 39.1169 63.7172 39.0145 63.7125C36.5152 63.6706 34.0345 63.289 31.6423 62.5304C18.215 58.2951 12.6532 44.0207 19.2203 30.6446C24.6098 19.67 36.4966 12.712 48.011 12.9121Z" fill="#566BA5"/>
<path opacity="0.7955" d="M47.983 12.8749C50.4962 12.9168 52.9909 13.3031 55.3971 14.0617C68.8244 18.3017 74.3815 32.5761 67.8191 45.9522C64.4122 52.8916 58.4037 58.2159 51.5387 61.1481C50.943 61.3994 50.4497 61.8741 50.1565 62.4326L47.6339 67.2544C47.2057 68.0735 46.3447 68.5389 45.5581 68.525C45.1206 68.5156 44.7064 68.3621 44.3992 68.0456L40.6945 64.2338C40.3501 63.8754 39.8474 63.6846 39.2843 63.68C39.1866 63.68 39.0888 63.68 38.9864 63.6753C36.4871 63.6334 34.0064 63.2518 31.6142 62.4931C18.1869 58.2578 12.6251 43.9835 19.1922 30.6073C24.5864 19.6281 36.4732 12.6748 47.983 12.8749Z" fill="#5569A3"/>
<path opacity="0.8068" d="M47.9599 12.8377C50.4731 12.8795 52.9678 13.2659 55.374 14.0245C68.8013 18.2644 74.3584 32.5388 67.796 45.9149C64.3891 52.8543 58.3806 58.1787 51.5157 61.1108C50.9199 61.3622 50.4266 61.8369 50.1334 62.3954L47.6108 67.2171C47.1826 68.0363 46.3216 68.5017 45.535 68.4877C45.0976 68.4784 44.6833 68.3248 44.3762 68.0083L40.6714 64.1966C40.327 63.8382 39.8244 63.6474 39.2612 63.6427C39.1635 63.6427 39.0657 63.6427 38.9633 63.6381C36.4641 63.5962 33.9834 63.2145 31.5911 62.4559C18.1638 58.2206 12.6021 43.9462 19.1691 30.5701C24.5587 19.5909 36.4454 12.6329 47.9599 12.8377Z" fill="#5368A2"/>
<path opacity="0.8182" d="M47.9319 12.7958C50.4452 12.8377 52.9398 13.224 55.346 13.9826C68.7733 18.2226 74.3304 32.4969 67.7681 45.8731C64.3612 52.8124 58.3526 58.1368 51.4877 61.069C50.892 61.3203 50.3986 61.795 50.1054 62.3535L47.5829 67.1752C47.1547 67.9944 46.2937 68.4598 45.5071 68.4458C45.0696 68.4365 44.6554 68.2829 44.3482 67.9665L40.6435 64.1547C40.2991 63.7963 39.7964 63.6055 39.2333 63.6008C39.1355 63.6008 39.0378 63.6008 38.9354 63.5962C36.4361 63.5543 33.9554 63.1726 31.5632 62.414C18.1359 58.1787 12.5741 43.9043 19.1412 30.5282C24.5354 19.5537 36.4221 12.5957 47.9319 12.7958Z" fill="#5266A1"/>
<path opacity="0.8295" d="M47.9039 12.7586C50.4171 12.8005 52.9117 13.1867 55.318 13.9454C68.7453 18.1853 74.3024 32.4597 67.74 45.8358C64.3331 52.7752 58.3246 58.0996 51.4597 61.0317C50.8639 61.2831 50.3706 61.7578 50.0774 62.3163L47.5548 67.138C47.1266 67.9571 46.2656 68.4226 45.479 68.4086C45.0415 68.3993 44.6273 68.2457 44.3201 67.9292L40.6154 64.1175C40.271 63.7591 39.7683 63.5683 39.2052 63.5636C39.1074 63.5636 39.0097 63.5636 38.9073 63.5589C36.408 63.5171 33.9274 63.1354 31.5351 62.3768C18.1078 58.1415 12.546 43.8671 19.1131 30.491C24.5073 19.5118 36.3941 12.5584 47.9039 12.7586Z" fill="#5065A0"/>
<path opacity="0.8409" d="M47.8807 12.7213C50.3939 12.7632 52.8886 13.1495 55.2948 13.9081C68.7221 18.1481 74.2792 32.4225 67.7168 45.7986C64.3099 52.738 58.3014 58.0623 51.4364 60.9945C50.8407 61.2458 50.3474 61.7205 50.0542 62.279L47.5316 67.1008C47.1034 67.9199 46.2424 68.3853 45.4558 68.3714C45.0183 68.3621 44.6041 68.2085 44.2969 67.892L40.5922 64.0802C40.2478 63.7218 39.7451 63.531 39.182 63.5264C39.0843 63.5264 38.9865 63.5264 38.8841 63.5217C36.3848 63.4798 33.9041 63.0982 31.5119 62.3396C18.0846 58.1042 12.5228 43.8299 19.0899 30.4538C24.4841 19.4745 36.3709 12.5212 47.8807 12.7213Z" fill="#4F649F"/>
<path opacity="0.8523" d="M47.8527 12.6841C50.366 12.726 52.8606 13.1123 55.2668 13.8709C68.6941 18.1109 74.2512 32.3852 67.6888 45.7614C64.282 52.7007 58.2734 58.0251 51.4085 60.9573C50.8128 61.2086 50.3194 61.6833 50.0262 62.2418L47.5036 67.0635C47.0755 67.8827 46.2144 68.3481 45.4279 68.3341C44.9904 68.3248 44.5762 68.1712 44.269 67.8548L40.5643 64.043C40.2198 63.6846 39.7172 63.4938 39.154 63.4891C39.0563 63.4891 38.9586 63.4891 38.8562 63.4845C36.3569 63.4426 33.8762 63.061 31.4839 62.3023C18.0566 58.067 12.4949 43.7926 19.0619 30.4165C24.4561 19.4373 36.3429 12.4793 47.8527 12.6841Z" fill="#4D629E"/>
<path opacity="0.8636" d="M47.8295 12.6422C50.3428 12.6841 52.8374 13.0704 55.2436 13.829C68.6709 18.069 74.228 32.3433 67.6656 45.7195C64.2588 52.6589 58.2502 57.9832 51.3853 60.9154C50.7896 61.1667 50.2962 61.6414 50.003 62.1999L47.4804 67.0216C47.0523 67.8408 46.1912 68.3062 45.4047 68.2922C44.9672 68.2829 44.553 68.1293 44.2458 67.8129L40.5411 64.0011C40.1966 63.6427 39.694 63.4519 39.1308 63.4472C39.0331 63.4472 38.9354 63.4472 38.833 63.4426C36.3337 63.4007 33.853 63.019 31.4608 62.2604C18.0334 58.0251 12.4717 43.7507 19.0387 30.3746C24.4283 19.4001 36.3197 12.4421 47.8295 12.6422Z" fill="#4C619C"/>
<path opacity="0.875" d="M47.8016 12.605C50.3148 12.6468 52.8095 13.0332 55.2157 13.7918C68.643 18.0317 74.2001 32.3061 67.6377 45.6822C64.2308 52.6216 58.2223 57.946 51.3574 60.8781C50.7616 61.1295 50.2683 61.6042 49.9751 62.1627L47.4525 66.9844C47.0243 67.8036 46.1633 68.269 45.3767 68.255C44.9392 68.2457 44.525 68.0921 44.2178 67.7756L40.5131 63.9639C40.1687 63.6055 39.666 63.4147 39.1029 63.41C39.0051 63.41 38.9074 63.41 38.805 63.4054C36.3057 63.3635 33.8251 62.9818 31.4328 62.2232C18.0055 57.9879 12.4437 43.7135 19.0108 30.3374C24.405 19.3582 36.2918 12.4048 47.8016 12.605Z" fill="#4A5F9B"/>
<path opacity="0.8864" d="M47.7782 12.5677C50.2915 12.6096 52.7861 12.9959 55.1924 13.7545C68.6197 17.9945 74.1768 32.2689 67.6144 45.645C64.2075 52.5844 58.1989 57.9088 51.334 60.8409C50.7383 61.0922 50.245 61.567 49.9517 62.1255L47.4292 66.9472C47.001 67.7663 46.14 68.2317 45.3534 68.2178C44.9159 68.2085 44.5017 68.0549 44.1945 67.7384L40.4898 63.9266C40.1454 63.5682 39.6427 63.3774 39.0796 63.3728C38.9818 63.3728 38.8841 63.3728 38.7817 63.3681C36.2824 63.3262 33.8017 62.9446 31.4095 62.186C17.9822 57.9507 12.4204 43.6763 18.9875 30.3002C24.377 19.3209 36.2638 12.3676 47.7782 12.5677Z" fill="#495E9A"/>
<path opacity="0.8977" d="M47.7504 12.5305C50.2637 12.5724 52.7583 12.9587 55.1645 13.7173C68.5918 17.9573 74.1489 32.2316 67.5865 45.6078C64.1797 52.5471 58.1711 57.8715 51.3062 60.8037C50.7105 61.055 50.2171 61.5297 49.9239 62.0882L47.4013 66.91C46.9732 67.7291 46.1121 68.1945 45.3256 68.1805C44.8881 68.1712 44.4739 68.0176 44.1667 67.7012L40.462 63.8894C40.1176 63.531 39.6149 63.3402 39.0517 63.3355C38.954 63.3355 38.8563 63.3355 38.7539 63.3309C36.2546 63.289 33.7739 62.9074 31.3816 62.1487C17.9543 57.9134 12.3926 43.639 18.9596 30.2629C24.3538 19.2837 36.2406 12.3257 47.7504 12.5305Z" fill="#475D99"/>
<path opacity="0.9091" d="M47.7271 12.4886C50.2403 12.5305 52.735 12.9168 55.1412 13.6754C68.5685 17.9154 74.1256 32.1898 67.5632 45.5659C64.1564 52.5053 58.1478 57.8296 51.2829 60.7618C50.6872 61.0131 50.1938 61.4878 49.9006 62.0463L47.378 66.8681C46.9498 67.6872 46.0888 68.1526 45.3023 68.1387C44.8648 68.1293 44.4506 67.9758 44.1434 67.6593L40.4386 63.8475C40.0942 63.4891 39.5916 63.2983 39.0284 63.2937C38.9307 63.2937 38.833 63.2937 38.7306 63.289C36.2313 63.2471 33.7506 62.8655 31.3583 62.1068C17.931 57.8715 12.3693 43.5972 18.9363 30.221C24.3259 19.2465 36.2126 12.2885 47.7271 12.4886Z" fill="#465B98"/>
<path opacity="0.9205" d="M47.6991 12.4514C50.2124 12.4933 52.707 12.8796 55.1132 13.6382C68.5406 17.8782 74.0977 32.1525 67.5353 45.5286C64.1284 52.468 58.1199 57.7924 51.2549 60.7245C50.6592 60.9759 50.1659 61.4506 49.8726 62.0091L47.3501 66.8308C46.9219 67.65 46.0609 68.1154 45.2743 68.1014C44.8368 68.0921 44.4226 67.9385 44.1154 67.622L40.4107 63.8103C40.0663 63.4519 39.5636 63.2611 39.0005 63.2564C38.9027 63.2564 38.805 63.2564 38.7026 63.2518C36.2033 63.2099 33.7226 62.8282 31.3304 62.0696C17.9031 57.8343 12.3413 43.5599 18.9084 30.1838C24.3026 19.2046 36.1894 12.2513 47.6991 12.4514Z" fill="#445A96"/>
<path opacity="0.9318" d="M47.6712 12.4142C50.1844 12.456 52.6791 12.8423 55.0853 13.601C68.5126 17.8409 74.0697 32.1153 67.5073 45.4914C64.1004 52.4308 58.0919 57.7552 51.227 60.6873C50.6313 60.9386 50.1379 61.4134 49.8447 61.9719L47.3221 66.7936C46.8939 67.6127 46.0329 68.0781 45.2464 68.0642C44.8089 68.0549 44.3946 67.9013 44.0875 67.5848L40.3827 63.773C40.0383 63.4147 39.5357 63.2238 38.9725 63.2192C38.8748 63.2192 38.7771 63.2192 38.6747 63.2145C36.1754 63.1726 33.6947 62.791 31.3024 62.0324C17.8751 57.7971 12.3134 43.5227 18.8804 30.1466C24.2746 19.1674 36.1614 12.214 47.6712 12.4142Z" fill="#435895"/>
<path opacity="0.9432" d="M47.648 12.3722C50.1613 12.4141 52.6559 12.8004 55.0621 13.5591C68.4894 17.799 74.0465 32.0734 67.4841 45.4495C64.0773 52.3889 58.0687 57.7133 51.2038 60.6454C50.608 60.8967 50.1147 61.3715 49.8215 61.93L47.2989 66.7517C46.8707 67.5709 46.0097 68.0363 45.2232 68.0223C44.7857 68.013 44.3714 67.8594 44.0643 67.5429L40.3595 63.7311C40.0151 63.3728 39.5125 63.1819 38.9493 63.1773C38.8516 63.1773 38.7538 63.1773 38.6515 63.1726C36.1522 63.1308 33.6715 62.7491 31.2792 61.9905C17.8519 57.7552 12.2902 43.4808 18.8572 30.1047C24.2514 19.1301 36.1382 12.1721 47.648 12.3722Z" fill="#415794"/>
<path opacity="0.9545" d="M47.62 12.335C50.1333 12.3769 52.6279 12.7632 55.0341 13.5218C68.4615 17.7618 74.0186 32.0362 67.4562 45.4123C64.0493 52.3517 58.0407 57.6761 51.1758 60.6082C50.5801 60.8595 50.0867 61.3342 49.7935 61.8927L47.271 66.7145C46.8428 67.5336 45.9818 67.999 45.1952 67.9851C44.7577 67.9758 44.3435 67.8222 44.0363 67.5057L40.3316 63.6939C39.9872 63.3355 39.4845 63.1447 38.9214 63.1401C38.8236 63.1401 38.7259 63.1401 38.6235 63.1354C36.1242 63.0935 33.6435 62.7119 31.2513 61.9533C17.824 57.718 12.2622 43.4436 18.8293 30.0675C24.2235 19.0929 36.1102 12.1349 47.62 12.335Z" fill="#405693"/>
<path opacity="0.9659" d="M47.5967 12.2978C50.11 12.3397 52.6046 12.726 55.0108 13.4846C68.4382 17.7246 73.9952 31.9989 67.4328 45.3751C64.026 52.3144 58.0174 57.6388 51.1525 60.571C50.5568 60.8223 50.0634 61.297 49.7702 61.8555L47.2477 66.6773C46.8195 67.4964 45.9584 67.9618 45.1719 67.9478C44.7344 67.9385 44.3202 67.7849 44.013 67.4685L40.3083 63.6567C39.9639 63.2983 39.4612 63.1075 38.8981 63.1028C38.8003 63.1028 38.7026 63.1028 38.6002 63.0982C36.1009 63.0563 33.6202 62.6747 31.228 61.916C17.8007 57.6807 12.2389 43.4063 18.806 30.0302C24.2002 19.051 36.0869 12.0977 47.5967 12.2978Z" fill="#3E5492"/>
<path opacity="0.9773" d="M47.5688 12.2606C50.082 12.3024 52.5767 12.6887 54.9829 13.4474C68.4102 17.6873 73.9673 31.9617 67.4049 45.3378C63.998 52.2772 57.9895 57.6016 51.1246 60.5337C50.5288 60.785 50.0355 61.2598 49.7423 61.8183L47.2197 66.64C46.7915 67.4591 45.9305 67.9246 45.1439 67.9106C44.7064 67.9013 44.2922 67.7477 43.9851 67.4312L40.2803 63.6194C39.9359 63.2611 39.4333 63.0703 38.8701 63.0656C38.7724 63.0656 38.6746 63.0656 38.5722 63.0609C36.0729 63.0191 33.5923 62.6374 31.2 61.8788C17.7727 57.6435 12.211 43.3691 18.778 29.993C24.1722 19.0138 36.059 12.0604 47.5688 12.2606Z" fill="#3D5390"/>
<path opacity="0.9886" d="M47.5456 12.2187C50.0588 12.2606 52.5535 12.6468 54.9597 13.4055C68.387 17.6454 73.9441 31.9198 67.3817 45.2959C63.9748 52.2353 57.9663 57.5597 51.1014 60.4918C50.5056 60.7432 50.0123 61.2179 49.7191 61.7764L47.1965 66.5981C46.7683 67.4173 45.9073 67.8827 45.1208 67.8687C44.6833 67.8594 44.269 67.7058 43.9619 67.3893L40.2571 63.5776C39.9127 63.2192 39.4101 63.0284 38.8469 63.0237C38.7492 63.0237 38.6514 63.0237 38.549 63.0191C36.0497 62.9772 33.5691 62.5955 31.1768 61.8369C17.7495 57.6016 12.1878 43.3272 18.7548 29.9511C24.1443 18.9765 36.0311 12.0185 47.5456 12.2187Z" fill="#3B518F"/>
<path d="M18.7268 29.9139C24.121 18.9347 36.0078 11.9813 47.5176 12.1814C50.0309 12.2233 52.5255 12.6096 54.9317 13.3683C68.359 17.6082 73.9161 31.8826 67.3537 45.2587C63.9469 52.1981 57.9383 57.5225 51.0734 60.4546C50.4777 60.7059 49.9843 61.1807 49.6911 61.7392L47.1686 66.5609C46.7404 67.38 45.8793 67.8454 45.0928 67.8315C44.6553 67.8222 44.2411 67.6686 43.9339 67.3521L40.2292 63.5403C39.8848 63.182 39.3821 62.9958 38.819 62.9865C38.7212 62.9865 38.6235 62.9865 38.5211 62.9818C36.0218 62.9399 33.5411 62.5583 31.1489 61.7997C17.7215 57.5644 12.1598 43.29 18.7268 29.9139Z" fill="#3A508E"/>
</g>
<path d="M19.2342 53.1057L20.3559 54.5531C22.9343 57.8808 26.5878 60.4779 31.1489 61.916C33.5412 62.6747 36.0219 63.0516 38.5212 63.0982C38.6189 63.0982 38.7166 63.1028 38.819 63.1028C39.3822 63.1121 39.8848 63.303 40.2293 63.6567L43.934 67.4685C44.2412 67.7849 44.6554 67.9385 45.0929 67.9478C45.8841 67.9618 46.7405 67.4964 47.1686 66.6773L49.6912 61.8555C49.9844 61.2924 50.4778 60.8223 51.0735 60.571C57.9384 57.6388 63.9423 52.3144 67.3538 45.3751C71.6915 36.5414 70.7374 27.3168 65.7249 20.8475L64.6032 19.4001C69.6158 25.8694 70.5652 35.094 66.2322 43.9276C62.8253 50.867 56.8167 56.1914 49.9518 59.1235C49.3561 59.3748 48.8628 59.8496 48.5695 60.4081L46.047 65.2298C45.6188 66.0489 44.7578 66.5144 43.9712 66.5004C43.5337 66.4911 43.1195 66.3375 42.8123 66.021L39.1076 62.2092C38.7632 61.8509 38.2605 61.6647 37.6974 61.6554C37.5996 61.6554 37.5019 61.6554 37.3995 61.6507C34.9002 61.6088 32.4195 61.2272 30.0273 60.4686C25.4662 59.0304 21.8127 56.4334 19.2342 53.1057Z" fill="url(#paint3_radial_36_1856)"/>
<path d="M17.6051 28.5828C22.9993 17.6036 34.8861 10.6502 46.3959 10.8503C48.9092 10.8922 51.4038 11.2785 53.81 12.0372C67.2373 16.2771 72.7944 30.5515 66.232 43.9276C62.8252 50.867 56.8166 56.1914 49.9517 59.1235C49.356 59.3748 48.8626 59.8496 48.5694 60.4081L46.0469 65.2298C45.6187 66.0489 44.7577 66.5144 43.9711 66.5004C43.5336 66.4911 43.1194 66.3375 42.8122 66.021L39.1075 62.2092C38.7631 61.8509 38.2604 61.6647 37.6973 61.6554C37.5995 61.6554 37.5018 61.6554 37.3994 61.6507C34.9001 61.6088 32.4194 61.2272 30.0272 60.4686C16.5998 56.2333 11.0427 41.9589 17.6051 28.5828Z" fill="url(#paint4_radial_36_1856)"/>
<path d="M17.6051 28.5828C22.9993 17.6036 34.8861 10.6502 46.3959 10.8503C48.9092 10.8922 51.4038 11.2785 53.81 12.0372C67.2373 16.2771 72.7944 30.5515 66.232 43.9276C62.8252 50.867 56.8166 56.1914 49.9517 59.1235C49.356 59.3748 48.8626 59.8496 48.5694 60.4081L46.0469 65.2298C45.6187 66.0489 44.7577 66.5144 43.9711 66.5004C43.5336 66.4911 43.1194 66.3375 42.8122 66.021L39.1075 62.2092C38.7631 61.8509 38.2604 61.6647 37.6973 61.6554C37.5995 61.6554 37.5018 61.6554 37.3994 61.6507C34.9001 61.6088 32.4194 61.2272 30.0272 60.4686C16.5998 56.2333 11.0427 41.9589 17.6051 28.5828ZM30.0737 60.3289C32.3915 61.0643 34.8582 61.4599 37.404 61.5018L37.6973 61.5065C38.3069 61.5158 38.8468 61.7299 39.2099 62.1068L42.9146 65.9186C43.1845 66.1979 43.5476 66.3468 43.9711 66.3561H44.0037C44.7763 66.3561 45.5442 65.8767 45.9212 65.1646L48.4438 60.3429C48.7556 59.7425 49.2862 59.2492 49.8959 58.9885C57.0586 55.9261 62.8159 50.5552 66.1017 43.8624C69.3876 37.1697 69.7506 30.1094 67.1256 23.9751C64.7055 18.3203 59.9629 14.1315 53.7681 12.1768C51.4224 11.4368 48.9418 11.0412 46.3913 10.9946C46.2284 10.99 46.0701 10.99 45.9072 10.99C34.2438 10.99 22.9202 18.0876 17.7355 28.6433C14.4496 35.336 14.0866 42.3964 16.7115 48.5306C19.1317 54.1901 23.879 58.3788 30.0737 60.3289Z" fill="url(#paint5_linear_36_1856)"/>
<path d="M30.9767 24.6593C31.1721 24.5802 31.3676 24.5429 31.5538 24.5476C31.954 24.5523 32.3124 24.7477 32.4939 25.0828L37.0318 33.4278C37.2784 33.8792 37.7532 34.1399 38.2977 34.1492C38.5118 34.1538 38.7352 34.1166 38.9586 34.0421L46.2657 31.5196C46.8288 31.3241 47.392 31.2357 47.9225 31.245C49.7563 31.2776 51.2503 32.4551 51.4737 34.2935L53.1073 47.8185C53.1818 48.4701 52.7489 49.1636 52.0694 49.4707C51.8321 49.5778 51.59 49.629 51.362 49.6243C50.9105 49.615 50.5149 49.4056 50.3055 49.0239L45.7304 40.6883C45.4838 40.2369 45.009 39.9809 44.4738 39.9716C44.2597 39.9669 44.0363 40.0041 43.8083 40.0833L36.6362 42.5593C36.073 42.7548 35.5145 42.8385 34.9839 42.8292C33.1269 42.7966 31.6189 41.5866 31.4281 39.7202L30.0133 26.1347C29.9481 25.5343 30.353 24.9106 30.9767 24.6593Z" fill="url(#paint6_linear_36_1856)"/>
<defs>
<linearGradient id="paint0_linear_36_1856" x1="41.1729" y1="-1.91084" x2="47.2464" y2="88.6747" gradientUnits="userSpaceOnUse">
<stop stop-color="#F2F9FF"/>
<stop offset="0.9569" stop-color="#D0BCFF"/>
<stop offset="1" stop-color="#CEB9FF"/>
</linearGradient>
<linearGradient id="paint1_linear_36_1856" x1="31.0306" y1="-2.94565" x2="56.8752" y2="83.8924" gradientUnits="userSpaceOnUse">
<stop offset="0.0757" stop-color="white"/>
<stop offset="1" stop-color="white" stop-opacity="0"/>
</linearGradient>
<linearGradient id="paint2_linear_36_1856" x1="98.2705" y1="37.4605" x2="4.90777" y2="88.0977" gradientUnits="userSpaceOnUse">
<stop offset="0.00217948" stop-color="#E0D4FF"/>
<stop offset="0.0164" stop-color="#C9BBF5"/>
<stop offset="0.0295" stop-color="#BBABEF"/>
<stop offset="0.0398" stop-color="#B6A5ED"/>
<stop offset="0.2753" stop-color="#B4A3EC"/>
<stop offset="0.3602" stop-color="#AD9DE7"/>
<stop offset="0.4206" stop-color="#A292DF"/>
<stop offset="0.4695" stop-color="#9182D4"/>
<stop offset="0.5109" stop-color="#7B6EC5"/>
<stop offset="0.5341" stop-color="#6B5FBA"/>
<stop offset="0.7181" stop-color="#6D61BB"/>
<stop offset="0.7844" stop-color="#7468BF"/>
<stop offset="0.8316" stop-color="#7F73C6"/>
<stop offset="0.8698" stop-color="#9084D0"/>
<stop offset="0.9025" stop-color="#A69ADD"/>
<stop offset="0.931" stop-color="#C1B5ED"/>
<stop offset="0.9563" stop-color="#E0D4FF"/>
</linearGradient>
<radialGradient id="paint3_radial_36_1856" cx="0" cy="0" r="1" gradientUnits="userSpaceOnUse" gradientTransform="translate(55.7166 85.1166) rotate(180) scale(66.593 66.593)">
<stop offset="0.2764" stop-color="#005A9F"/>
<stop offset="0.5203" stop-color="#5423A1"/>
<stop offset="0.7061" stop-color="#810D7A"/>
<stop offset="0.7728" stop-color="#8C1474"/>
<stop offset="0.8911" stop-color="#AB2763"/>
<stop offset="0.9994" stop-color="#CC3C51"/>
</radialGradient>
<radialGradient id="paint4_radial_36_1856" cx="0" cy="0" r="1" gradientUnits="userSpaceOnUse" gradientTransform="translate(50.7185 77.6369) rotate(180) scale(72.7497 72.7497)">
<stop offset="0.2804" stop-color="#008CFF"/>
<stop offset="0.5203" stop-color="#9435FF"/>
<stop offset="0.7036" stop-color="#D124DC"/>
<stop offset="0.7519" stop-color="#D629D1"/>
<stop offset="0.8378" stop-color="#E235B2"/>
<stop offset="0.9507" stop-color="#F64981"/>
<stop offset="0.9964" stop-color="#FF526B"/>
</radialGradient>
<linearGradient id="paint5_linear_36_1856" x1="34.4535" y1="10.2644" x2="49.9055" y2="64.0455" gradientUnits="userSpaceOnUse">
<stop offset="0.0757" stop-color="white"/>
<stop offset="1" stop-color="white" stop-opacity="0"/>
</linearGradient>
<linearGradient id="paint6_linear_36_1856" x1="41.102" y1="24.1071" x2="42.1774" y2="54.8636" gradientUnits="userSpaceOnUse">
<stop stop-color="#F2F9FF"/>
<stop offset="0.9569" stop-color="#D0BCFF"/>
<stop offset="1" stop-color="#CEB9FF"/>
</linearGradient>
</defs>
</svg>
