<svg width="70" height="60" viewBox="0 0 70 60" fill="none" xmlns="http://www.w3.org/2000/svg">
<path d="M30.3846 46.1538C30.9967 46.1538 31.5837 45.9107 32.0164 45.4779C32.4492 45.0452 32.6923 44.4582 32.6923 43.8462C32.6923 43.2341 32.4492 42.6471 32.0164 42.2144C31.5837 41.7816 30.9967 41.5385 30.3846 41.5385H7.30772C6.6958 41.5381 6.10904 41.2948 5.67634 40.8622C5.24364 40.4295 5.00039 39.8427 5.00003 39.2308V10.9403L26.8894 23.7125C27.9496 24.3249 29.1524 24.6473 30.3768 24.6473C31.6012 24.6473 32.804 24.3249 33.8642 23.7125L55.7693 10.9311V20.7692C55.7693 21.3813 56.0124 21.9682 56.4452 22.401C56.8779 22.8338 57.4649 23.0769 58.077 23.0769C58.689 23.0769 59.276 22.8338 59.7087 22.401C60.1415 21.9682 60.3846 21.3813 60.3846 20.7692V6.92308C60.3826 5.08758 59.6526 3.32784 58.3547 2.02995C57.0568 0.732057 55.2971 0.00201572 53.4616 0H7.30772C6.19757 0.00503891 5.10484 0.27644 4.12133 0.791402C3.13783 1.30636 2.29228 2.04985 1.65572 2.95938C0.845974 4.12417 0.403294 5.50461 0.384644 6.92308V39.2308C0.386659 41.0663 1.1167 42.826 2.41459 44.1239C3.71248 45.4218 5.47223 46.1518 7.30772 46.1538H30.3846ZM7.30772 4.61538H53.4616C53.8638 4.6199 54.2576 4.73084 54.603 4.93691C54.9484 5.14298 55.2331 5.43684 55.4282 5.78862L31.5385 19.728C31.185 19.9312 30.7845 20.0381 30.3768 20.0381C29.9691 20.0381 29.5685 19.9312 29.2151 19.728L5.33672 5.79531C5.53126 5.44164 5.81627 5.14602 6.16259 4.9387C6.50892 4.73138 6.90411 4.6198 7.30772 4.61538Z" fill="url(#paint0_linear_115_11553)"/>
<path d="M53.4616 27.6924C49.1773 27.6924 45.0685 29.3943 42.0391 32.4237C39.0097 35.4532 37.3077 39.562 37.3077 43.8462C37.3077 48.1305 39.0097 52.2393 42.0391 55.2687C45.0685 58.2982 49.1773 60.0001 53.4616 60.0001C54.0736 60.0001 54.6606 59.7569 55.0934 59.3242C55.5261 58.8914 55.7693 58.3044 55.7693 57.6924C55.7693 57.0803 55.5261 56.4934 55.0934 56.0606C54.6606 55.6278 54.0736 55.3847 53.4616 55.3847C51.1795 55.3847 48.9487 54.708 47.0512 53.4401C45.1537 52.1722 43.6748 50.3702 42.8014 48.2618C41.9281 46.1534 41.6996 43.8334 42.1448 41.5952C42.59 39.3569 43.689 37.301 45.3027 35.6873C46.9163 34.0736 48.9723 32.9747 51.2105 32.5295C53.4488 32.0843 55.7688 32.3128 57.8772 33.1861C59.9855 34.0594 61.7876 35.5383 63.0555 37.4358C64.3233 39.3333 65 41.5641 65 43.8462V46.1539C65 46.766 64.7569 47.3529 64.3241 47.7857C63.8914 48.2185 63.3044 48.4616 62.6924 48.4616C62.0803 48.4616 61.4933 48.2185 61.0606 47.7857C60.6278 47.3529 60.3847 46.766 60.3847 46.1539V43.8462C60.3847 42.477 59.9786 41.1385 59.2179 40C58.4572 38.8615 57.376 37.9741 56.1109 37.4501C54.8459 36.9261 53.4539 36.789 52.111 37.0562C50.768 37.3233 49.5344 37.9827 48.5662 38.9509C47.598 39.9191 46.9387 41.1527 46.6715 42.4956C46.4044 43.8385 46.5415 45.2305 47.0655 46.4956C47.5895 47.7606 48.4768 48.8418 49.6153 49.6026C50.7538 50.3633 52.0923 50.7693 53.4616 50.7693C54.6544 50.7618 55.8245 50.4424 56.8557 49.843C57.6536 51.1133 58.8433 52.0895 60.245 52.6239C61.6467 53.1584 63.1843 53.2221 64.6254 52.8055C66.0665 52.3888 67.3328 51.5144 68.2331 50.3144C69.1333 49.1144 69.6185 47.6541 69.6154 46.1539V43.8462C69.6102 39.5636 67.9067 35.4578 64.8783 32.4295C61.85 29.4012 57.7443 27.6976 53.4616 27.6924ZM53.4616 46.1539C53.0052 46.1539 52.559 46.0186 52.1795 45.765C51.8 45.5114 51.5042 45.151 51.3296 44.7293C51.1549 44.3077 51.1092 43.8437 51.1982 43.396C51.2873 42.9484 51.5071 42.5372 51.8298 42.2144C52.1525 41.8917 52.5637 41.6719 53.0114 41.5829C53.459 41.4938 53.923 41.5395 54.3447 41.7142C54.7664 41.8889 55.1268 42.1846 55.3804 42.5641C55.6339 42.9436 55.7693 43.3898 55.7693 43.8462C55.7689 44.4582 55.5257 45.0449 55.093 45.4776C54.6603 45.9103 54.0735 46.1536 53.4616 46.1539Z" fill="#FFD932"/>
<defs>
<linearGradient id="paint0_linear_115_11553" x1="30.3846" y1="0" x2="30.3846" y2="46.1538" gradientUnits="userSpaceOnUse">
<stop stop-color="#166AFF"/>
<stop offset="1" stop-color="#2ED0FA"/>
</linearGradient>
</defs>
</svg>
