<svg width="61" height="61" viewBox="0 0 61 61" fill="none" xmlns="http://www.w3.org/2000/svg">
<path d="M60.7362 47.468L57.1956 37.1652C58.9016 33.6769 59.804 29.797 59.81 25.8932C59.8207 19.106 57.1944 12.6879 52.4156 7.82221C47.6356 2.95533 41.2663 0.215919 34.4803 0.108771C27.4442 -0.00194769 20.8297 2.67436 15.8568 7.64601C11.0626 12.4403 8.40293 18.762 8.3184 25.5158C3.592 29.0743 0.803781 34.6222 0.812115 40.5463C0.816877 43.319 1.44071 46.0751 2.62291 48.5681L0.184706 55.6648C-0.23436 56.8851 0.071606 58.209 0.983551 59.1221C1.62525 59.7638 2.47171 60.1055 3.34199 60.1055C3.70867 60.1055 4.07893 60.0448 4.43966 59.9209L11.5364 57.4827C14.0282 58.6649 16.7854 59.2888 19.5582 59.2935C19.5677 59.2935 19.5772 59.2935 19.5879 59.2935C25.6013 59.2935 31.1908 56.4315 34.7362 51.5908C38.4257 51.4932 42.0758 50.6003 45.3748 48.9859L55.6776 52.5266C56.1074 52.6742 56.5467 52.7456 56.9824 52.7456C58.017 52.7456 59.023 52.3396 59.7861 51.5765C60.8695 50.4919 61.2338 48.9181 60.7362 47.468ZM19.5879 55.6648C19.5796 55.6648 19.5725 55.6648 19.5641 55.6648C17.1105 55.6612 14.6723 55.0564 12.5162 53.9147C12.0733 53.6802 11.5519 53.6397 11.078 53.8028L3.80153 56.3029L6.30164 49.0264C6.46475 48.5526 6.42427 48.0323 6.18973 47.5882C5.04921 45.4322 4.44442 42.9952 4.43966 40.5403C4.4337 36.5925 5.96949 32.8507 8.65413 30.0494C9.53155 35.3972 12.0805 40.3248 16.0306 44.2048C19.9522 48.0561 24.881 50.5086 30.1991 51.3098C27.3919 54.079 23.6072 55.6648 19.5879 55.6648ZM57.2206 49.0109C57.117 49.1145 56.9955 49.1419 56.8574 49.0943L45.8272 45.3036C45.6355 45.2381 45.4367 45.2048 45.2379 45.2048C44.945 45.2048 44.6533 45.2751 44.389 45.4155C41.2401 47.0811 37.6816 47.9656 34.0969 47.9704C34.085 47.9704 34.0743 47.9704 34.0624 47.9704C22.0547 47.9704 12.1352 38.2164 11.9459 26.2111C11.8507 20.1644 14.1496 14.4832 18.4212 10.2104C22.6928 5.9376 28.3764 3.63988 34.4219 3.73512C46.4391 3.92561 56.2003 13.863 56.1812 25.8861C56.1753 29.4696 55.2919 33.0293 53.6264 36.1782C53.3918 36.6211 53.3513 37.1425 53.5144 37.6164L57.3039 48.6466C57.3515 48.7847 57.3229 48.9074 57.2206 49.0109Z" fill="url(#paint0_linear_98_22)"/>
<path d="M39.5531 25.5718L33.9469 31.1792L33.9457 31.1804C33.7064 31.4185 33.3195 31.4185 33.0814 31.1792L27.4752 25.5718C26.7585 24.8551 25.5977 24.8551 24.881 25.5706C24.1643 26.2873 24.1643 27.4481 24.8798 28.1648L30.4872 33.7722C32.1599 35.4401 34.8672 35.4401 36.5399 33.7722L42.1473 28.1648C42.4913 27.8207 42.6842 27.3552 42.6842 26.8683C42.6842 26.3814 42.4913 25.9147 42.1461 25.5706C41.4306 24.8551 40.2686 24.8551 39.5531 25.5718Z" fill="url(#paint1_linear_98_22)"/>
<path d="M39.5531 17.0178L33.5136 23.0574L27.474 17.0131C26.7573 16.2964 25.5965 16.2964 24.8798 17.0119C24.1631 17.7286 24.1631 18.8894 24.8787 19.6061L32.2147 26.9421C32.2147 26.9421 32.2147 26.9421 32.2159 26.9433C32.9326 27.6588 34.0933 27.6588 34.81 26.9421L42.1461 19.6061C42.4901 19.262 42.683 18.7965 42.683 18.3096C42.6818 17.8238 42.489 17.3595 42.1449 17.0167C41.4306 16.3011 40.2686 16.3011 39.5531 17.0178Z" fill="url(#paint2_linear_98_22)"/>
<defs>
<linearGradient id="paint0_linear_98_22" x1="30.4777" y1="0.105469" x2="30.4777" y2="60.1055" gradientUnits="userSpaceOnUse">
<stop stop-color="#166AFF"/>
<stop offset="1" stop-color="#2ED0FA"/>
</linearGradient>
<linearGradient id="paint1_linear_98_22" x1="30.4777" y1="0.105469" x2="30.4777" y2="60.1055" gradientUnits="userSpaceOnUse">
<stop stop-color="#166AFF"/>
<stop offset="1" stop-color="#2ED0FA"/>
</linearGradient>
<linearGradient id="paint2_linear_98_22" x1="30.4777" y1="0.105469" x2="30.4777" y2="60.1055" gradientUnits="userSpaceOnUse">
<stop stop-color="#166AFF"/>
<stop offset="1" stop-color="#2ED0FA"/>
</linearGradient>
</defs>
</svg>
