<svg width="18" height="20" viewBox="0 0 18 20" fill="none" xmlns="http://www.w3.org/2000/svg">
<path d="M15.4374 6.63908L7.48639 0.805027C6.86539 0.350291 6.13058 0.0764315 5.36344 0.0138145C4.59629 -0.0488024 3.82679 0.10227 3.14027 0.45028C2.45374 0.798291 1.87701 1.32964 1.47403 1.98541C1.07105 2.64118 0.85756 3.39575 0.857239 4.16544V15.8336C0.857376 16.6036 1.07088 17.3585 1.47404 18.0146C1.87721 18.6707 2.45428 19.2022 3.14121 19.5502C3.82813 19.8982 4.59804 20.049 5.3655 19.986C6.13296 19.923 6.86795 19.6485 7.48889 19.1931L15.4399 13.3591C15.9677 12.972 16.3969 12.4661 16.6927 11.8823C16.9886 11.2985 17.1427 10.6532 17.1427 9.99867C17.1427 9.34417 16.9886 8.69887 16.6927 8.11505C16.3969 7.53123 15.9677 7.0253 15.4399 6.63825L15.4374 6.63908ZM14.4506 12.0148L6.49961 17.8488C6.12707 18.121 5.68648 18.2849 5.22659 18.3222C4.7667 18.3595 4.30546 18.2688 3.89392 18.0602C3.48238 17.8516 3.13659 17.5331 2.89483 17.1402C2.65307 16.7472 2.52476 16.295 2.52411 15.8336V4.16544C2.51949 3.70318 2.64537 3.24898 2.8873 2.85505C3.12924 2.46112 3.4774 2.14343 3.89178 1.9385C4.24424 1.75922 4.63399 1.66557 5.02942 1.66513C5.5594 1.66716 6.07473 1.83923 6.49961 2.15603L14.4506 7.99008C14.7669 8.22236 15.024 8.52582 15.2013 8.87592C15.3786 9.22602 15.4709 9.61292 15.4709 10.0053C15.4709 10.3977 15.3786 10.7847 15.2013 11.1348C15.024 11.4848 14.7669 11.7883 14.4506 12.0206V12.0148Z" fill="url(#paint0_linear_44_2001)"/>
<defs>
<linearGradient id="paint0_linear_44_2001" x1="8.99998" y1="0" x2="8.99998" y2="20" gradientUnits="userSpaceOnUse">
<stop stop-color="#166AFF"/>
<stop offset="1" stop-color="#2ED0FA"/>
</linearGradient>
</defs>
</svg>
