<svg width="17" height="20" viewBox="0 0 17 20" fill="none" xmlns="http://www.w3.org/2000/svg">
<path d="M14.5801 6.63908L6.62916 0.805027C6.00815 0.350291 5.27334 0.0764315 4.5062 0.0138145C3.73905 -0.0488024 2.96956 0.10227 2.28303 0.45028C1.5965 0.798291 1.01977 1.32964 0.616792 1.98541C0.21381 2.64118 0.000321719 3.39575 0 4.16544V15.8336C0.000137327 16.6036 0.213637 17.3585 0.616806 18.0146C1.01997 18.6707 1.59704 19.2022 2.28397 19.5502C2.97089 19.8982 3.74081 20.049 4.50826 19.986C5.27572 19.923 6.01071 19.6485 6.63166 19.1931L14.5826 13.3591C15.1104 12.972 15.5396 12.4661 15.8355 11.8823C16.1313 11.2985 16.2855 10.6532 16.2855 9.99867C16.2855 9.34417 16.1313 8.69887 15.8355 8.11505C15.5396 7.53123 15.1104 7.0253 14.5826 6.63825L14.5801 6.63908ZM13.5934 12.0148L5.64237 17.8488C5.26983 18.121 4.82924 18.2849 4.36935 18.3222C3.90947 18.3595 3.44822 18.2688 3.03668 18.0602C2.62514 17.8516 2.27935 17.5331 2.03759 17.1402C1.79583 16.7472 1.66752 16.295 1.66687 15.8336V4.16544C1.66225 3.70318 1.78813 3.24898 2.03007 2.85505C2.272 2.46112 2.62016 2.14343 3.03454 1.9385C3.387 1.75922 3.77675 1.66557 4.17218 1.66513C4.70216 1.66716 5.21749 1.83923 5.64237 2.15603L13.5934 7.99008C13.9096 8.22236 14.1668 8.52582 14.3441 8.87592C14.5213 9.22602 14.6137 9.61292 14.6137 10.0053C14.6137 10.3977 14.5213 10.7847 14.3441 11.1348C14.1668 11.4848 13.9096 11.7883 13.5934 12.0206V12.0148Z" fill="white"/>
</svg>
