<svg width="60" height="60" viewBox="0 0 60 60" fill="none" xmlns="http://www.w3.org/2000/svg">
<path d="M0 10C0 4.47715 4.47715 0 10 0H50C55.5228 0 60 4.47715 60 10V50C60 55.5228 55.5228 60 50 60H10C4.47715 60 0 55.5228 0 50V10Z" fill="url(#paint0_linear_300_6)"/>
<path d="M17 24.4444V31.1111H24.5833C24.5816 32.584 24.0104 33.996 22.9949 35.0375C21.9795 36.079 20.6027 36.6649 19.1667 36.6667V40C21.4644 39.9974 23.6673 39.06 25.2921 37.3936C26.9168 35.7272 27.8308 33.4678 27.8333 31.1111V20H21.3333C20.1841 20 19.0819 20.4683 18.2692 21.3017C17.4565 22.1352 17 23.2657 17 24.4444Z" fill="white"/>
<path d="M36.5 20C35.3507 20 34.2485 20.4683 33.4359 21.3017C32.6232 22.1352 32.1667 23.2657 32.1667 24.4444V31.1111H39.75C39.7483 32.584 39.177 33.996 38.1616 35.0375C37.1462 36.079 35.7694 36.6649 34.3333 36.6667V40C36.6311 39.9974 38.834 39.06 40.4587 37.3936C42.0835 35.7272 42.9974 33.4678 43 31.1111V20H36.5Z" fill="white"/>
<defs>
<linearGradient id="paint0_linear_300_6" x1="0" y1="0" x2="60" y2="60" gradientUnits="userSpaceOnUse">
<stop stop-color="#166AFF"/>
<stop offset="1" stop-color="#2ED0FA"/>
</linearGradient>
</defs>
</svg>
