<svg width="62" height="61" viewBox="0 0 62 61" fill="none" xmlns="http://www.w3.org/2000/svg">
<path d="M61.4356 47.4686L57.8953 37.1654C59.6018 33.6769 60.5037 29.7972 60.5097 25.8935C60.5202 19.106 57.8941 12.6882 53.1151 7.82248C48.3351 2.95583 41.9655 0.216304 35.1795 0.108799C28.1429 -0.00239642 21.5288 2.67415 16.5563 7.64652C11.7615 12.4411 9.10214 18.762 9.01797 25.5166C4.29227 29.0746 1.50298 34.6219 1.51215 40.5471C1.51655 43.3198 2.14063 46.076 3.32318 48.5684L0.884618 55.6649C0.465432 56.8848 0.771636 58.2094 1.68382 59.1216C2.32575 59.7637 3.1721 60.1055 4.0425 60.1055C4.40871 60.1055 4.7792 60.045 5.14053 59.9208L12.2372 57.4823C14.7295 58.6648 17.4857 59.2889 20.2585 59.2933C20.2685 59.2933 20.278 59.2933 20.288 59.2933C26.3014 59.293 31.8909 56.4318 35.436 51.5903C39.1251 51.4932 42.7751 50.6002 46.0749 48.9859L56.3782 52.5263C56.8075 52.6738 57.2478 52.7457 57.6829 52.7457C58.7173 52.7457 59.723 52.3395 60.486 51.5764C61.5699 50.4924 61.9337 48.9184 61.4356 47.4686ZM20.2878 55.665C20.28 55.665 20.2718 55.665 20.2641 55.665C17.8099 55.6613 15.3728 55.0563 13.2166 53.9155C12.7733 53.6811 12.2528 53.6405 11.7787 53.8034L4.50181 56.3039L7.00228 49.0271C7.16514 48.5529 7.12466 48.0324 6.89013 47.5892C5.74936 45.4329 5.14434 42.9959 5.14053 40.5416C5.13445 36.5939 6.67012 32.8522 9.3556 30.0504C10.2328 35.3978 12.7814 40.3254 16.7318 44.2056C20.653 48.0571 25.5821 50.5093 30.9004 51.311C28.0922 54.0789 24.3068 55.665 20.2878 55.665ZM57.9202 49.0108C57.817 49.114 57.6946 49.1421 57.557 49.0947L46.5269 45.3046C46.3354 45.2387 46.1361 45.2061 45.9375 45.2061C45.6448 45.2061 45.3531 45.2769 45.0891 45.4167C41.9398 47.0827 38.3811 47.9663 34.7974 47.9718C34.7856 47.9718 34.7749 47.9718 34.7631 47.9718C22.755 47.9718 12.8364 38.2173 12.6461 26.2121C12.5503 20.166 14.8501 14.4837 19.1219 10.212C23.3936 5.94026 29.0769 3.64122 35.1221 3.73646C47.1389 3.92707 56.9 13.8641 56.8815 25.8878C56.8759 29.4716 55.9924 33.0304 54.3265 36.1795C54.0919 36.6227 54.0515 37.1432 54.2143 37.6174L58.0044 48.6474C58.0516 48.7855 58.0233 48.9078 57.9202 49.0108Z" fill="url(#paint0_linear_98_21)"/>
<path d="M45.5701 16.2373H35.9548C34.9529 16.2373 34.1407 17.0496 34.1407 18.0514C34.1407 19.0534 34.953 19.8655 35.9548 19.8655H45.5701C46.5721 19.8655 47.3842 19.0532 47.3842 18.0514C47.3842 17.0496 46.5721 16.2373 45.5701 16.2373Z" fill="url(#paint1_linear_98_21)"/>
<path d="M45.5701 23.6985H23.9548C22.9529 23.6985 22.1407 24.5108 22.1407 25.5126C22.1407 26.5144 22.953 27.3267 23.9548 27.3267H45.5701C46.5721 27.3267 47.3842 26.5144 47.3842 25.5126C47.3842 24.5108 46.5721 23.6985 45.5701 23.6985Z" fill="url(#paint2_linear_98_21)"/>
<path d="M37.2497 31.1594H23.9547C22.9528 31.1594 22.1406 31.9717 22.1406 32.9735C22.1406 33.9755 22.9529 34.7877 23.9547 34.7877H37.2496C38.2516 34.7877 39.0637 33.9754 39.0637 32.9735C39.0637 31.9717 38.2517 31.1594 37.2497 31.1594Z" fill="url(#paint3_linear_98_21)"/>
<defs>
<linearGradient id="paint0_linear_98_21" x1="31.1775" y1="0.105469" x2="31.1775" y2="60.1055" gradientUnits="userSpaceOnUse">
<stop stop-color="#166AFF"/>
<stop offset="1" stop-color="#2ED0FA"/>
</linearGradient>
<linearGradient id="paint1_linear_98_21" x1="31.1775" y1="0.105469" x2="31.1775" y2="60.1055" gradientUnits="userSpaceOnUse">
<stop stop-color="#166AFF"/>
<stop offset="1" stop-color="#2ED0FA"/>
</linearGradient>
<linearGradient id="paint2_linear_98_21" x1="31.1775" y1="0.105469" x2="31.1775" y2="60.1055" gradientUnits="userSpaceOnUse">
<stop stop-color="#166AFF"/>
<stop offset="1" stop-color="#2ED0FA"/>
</linearGradient>
<linearGradient id="paint3_linear_98_21" x1="31.1775" y1="0.105469" x2="31.1775" y2="60.1055" gradientUnits="userSpaceOnUse">
<stop stop-color="#166AFF"/>
<stop offset="1" stop-color="#2ED0FA"/>
</linearGradient>
</defs>
</svg>
