<svg width="62" height="61" viewBox="0 0 62 61" fill="none" xmlns="http://www.w3.org/2000/svg">
<path d="M61.0405 47.4686L57.5002 37.1654C59.2067 33.6769 60.1086 29.7972 60.1146 25.8935C60.1251 19.106 57.499 12.6882 52.72 7.82248C47.94 2.95583 41.5705 0.216304 34.7844 0.108799C27.7478 -0.00239643 21.1337 2.67415 16.1612 7.64652C11.3665 12.4411 8.70706 18.762 8.62288 25.5166C3.89719 29.0746 1.1079 34.6219 1.11707 40.5471C1.12147 43.3198 1.74555 46.076 2.9281 48.5684L0.489537 55.6649C0.0703513 56.8848 0.376556 58.2094 1.28874 59.1216C1.93067 59.7637 2.77702 60.1055 3.64742 60.1055C4.01363 60.1055 4.38412 60.045 4.74545 59.9208L11.8421 57.4823C14.3345 58.6648 17.0907 59.2889 19.8634 59.2933C19.8734 59.2933 19.8829 59.2933 19.8929 59.2933C25.9063 59.293 31.4958 56.4318 35.0409 51.5903C38.73 51.4932 42.38 50.6002 45.6798 48.9859L55.9831 52.5263C56.4124 52.6738 56.8527 52.7457 57.2878 52.7457C58.3222 52.7457 59.3279 52.3395 60.091 51.5764C61.1748 50.4924 61.5386 48.9184 61.0405 47.4686ZM19.8927 55.665C19.8849 55.665 19.8767 55.665 19.869 55.665C17.4148 55.6613 14.9777 55.0563 12.8215 53.9155C12.3782 53.6811 11.8577 53.6405 11.3836 53.8034L4.10673 56.3039L6.6072 49.0271C6.77006 48.5529 6.72958 48.0324 6.49505 47.5892C5.35428 45.4329 4.74926 42.9959 4.74545 40.5416C4.73937 36.5939 6.27504 32.8522 8.96052 30.0504C9.8377 35.3978 12.3863 40.3254 16.3367 44.2056C20.2579 48.0571 25.187 50.5093 30.5053 51.311C27.6971 54.0789 23.9117 55.665 19.8927 55.665ZM57.5251 49.0108C57.4219 49.114 57.2995 49.1421 57.1619 49.0947L46.1319 45.3046C45.9403 45.2387 45.741 45.2061 45.5424 45.2061C45.2497 45.2061 44.958 45.2769 44.6941 45.4167C41.5447 47.0827 37.986 47.9663 34.4023 47.9718C34.3905 47.9718 34.3798 47.9718 34.368 47.9718C22.3599 47.9718 12.4413 38.2173 12.251 26.2121C12.1552 20.166 14.4551 14.4837 18.7268 10.212C22.9985 5.94026 28.6818 3.64122 34.7271 3.73646C46.7438 3.92707 56.505 13.8641 56.4864 25.8878C56.4808 29.4716 55.5973 33.0304 53.9314 36.1795C53.6968 36.6227 53.6564 37.1432 53.8192 37.6174L57.6093 48.6474C57.6566 48.7855 57.6282 48.9078 57.5251 49.0108Z" fill="url(#paint0_linear_98_20)"/>
<path d="M45.175 16.2373H23.5598C22.5578 16.2373 21.7456 17.0496 21.7456 18.0514C21.7456 19.0534 22.5579 19.8655 23.5598 19.8655H45.175C46.177 19.8655 46.9892 19.0532 46.9892 18.0514C46.9892 17.0496 46.177 16.2373 45.175 16.2373Z" fill="url(#paint1_linear_98_20)"/>
<path d="M45.175 23.6985H23.5598C22.5578 23.6985 21.7456 24.5108 21.7456 25.5126C21.7456 26.5144 22.5579 27.3267 23.5598 27.3267H45.175C46.177 27.3267 46.9892 26.5144 46.9892 25.5126C46.9892 24.5108 46.177 23.6985 45.175 23.6985Z" fill="url(#paint2_linear_98_20)"/>
<path d="M36.8547 31.1594H23.5596C22.5577 31.1594 21.7455 31.9717 21.7455 32.9735C21.7455 33.9755 22.5578 34.7877 23.5596 34.7877H36.8545C37.8565 34.7877 38.6687 33.9754 38.6687 32.9735C38.6687 31.9717 37.8566 31.1594 36.8547 31.1594Z" fill="url(#paint3_linear_98_20)"/>
<defs>
<linearGradient id="paint0_linear_98_20" x1="30.7824" y1="0.105469" x2="30.7824" y2="60.1055" gradientUnits="userSpaceOnUse">
<stop stop-color="#166AFF"/>
<stop offset="1" stop-color="#2ED0FA"/>
</linearGradient>
<linearGradient id="paint1_linear_98_20" x1="30.7824" y1="0.105469" x2="30.7824" y2="60.1055" gradientUnits="userSpaceOnUse">
<stop stop-color="#166AFF"/>
<stop offset="1" stop-color="#2ED0FA"/>
</linearGradient>
<linearGradient id="paint2_linear_98_20" x1="30.7824" y1="0.105469" x2="30.7824" y2="60.1055" gradientUnits="userSpaceOnUse">
<stop stop-color="#166AFF"/>
<stop offset="1" stop-color="#2ED0FA"/>
</linearGradient>
<linearGradient id="paint3_linear_98_20" x1="30.7824" y1="0.105469" x2="30.7824" y2="60.1055" gradientUnits="userSpaceOnUse">
<stop stop-color="#166AFF"/>
<stop offset="1" stop-color="#2ED0FA"/>
</linearGradient>
</defs>
</svg>
