<svg width="70" height="60" viewBox="0 0 70 60" fill="none" xmlns="http://www.w3.org/2000/svg">
<path d="M6.92308 46.1538H25.3846C25.9967 46.1538 26.5836 45.9107 27.0164 45.4779C27.4492 45.0452 27.6923 44.4582 27.6923 43.8461C27.6923 43.2341 27.4492 42.6471 27.0164 42.2144C26.5836 41.7816 25.9967 41.5385 25.3846 41.5385H6.92308C6.31121 41.5379 5.72456 41.2946 5.2919 40.8619C4.85924 40.4293 4.61593 39.8426 4.61538 39.2308V10.9415L26.5048 23.7136C27.5654 24.3249 28.768 24.6466 29.9922 24.6466C31.2163 24.6466 32.4189 24.3249 33.4795 23.7136L55.3846 10.9322V16.1538C55.3846 16.7659 55.6277 17.3529 56.0605 17.7856C56.4933 18.2184 57.0803 18.4615 57.6923 18.4615C58.3043 18.4615 58.8913 18.2184 59.3241 17.7856C59.7569 17.3529 60 16.7659 60 16.1538V6.92308C59.998 5.08758 59.2679 3.32784 57.97 2.02995C56.6722 0.732056 54.9124 0.00201572 53.0769 0H6.92308C5.09826 0.0360742 3.35823 0.777049 2.06764 2.06764C0.777049 3.35823 0.0360742 5.09826 0 6.92308V39.2308C0.00201572 41.0663 0.732056 42.826 2.02995 44.1239C3.32784 45.4218 5.08758 46.1518 6.92308 46.1538ZM6.92308 4.61538H53.0769C53.4789 4.62002 53.8725 4.73096 54.2178 4.93694C54.563 5.14292 54.8476 5.4366 55.0426 5.78815L31.1538 19.7268C30.8012 19.9323 30.4003 20.0406 29.9922 20.0406C29.584 20.0406 29.1831 19.9323 28.8305 19.7268L4.95277 5.79462C5.14745 5.44128 5.43242 5.14594 5.77858 4.93876C6.12474 4.73158 6.51968 4.61999 6.92308 4.61538Z" fill="url(#paint0_linear_115_11546)"/>
<path d="M50.7692 23.0771C47.1179 23.0771 43.5485 24.1599 40.5125 26.1885C37.4766 28.2171 35.1103 31.1004 33.713 34.4738C32.3157 37.8472 31.9501 41.5592 32.6624 45.1404C33.3748 48.7215 35.1331 52.0111 37.7149 54.593C40.2968 57.1749 43.5864 58.9331 47.1676 59.6455C50.7487 60.3578 54.4607 59.9922 57.8341 58.5949C61.2076 57.1976 64.0908 54.8313 66.1194 51.7954C68.148 48.7594 69.2308 45.19 69.2308 41.5387C69.2251 36.6441 67.2783 31.9516 63.8173 28.4906C60.3563 25.0296 55.6638 23.0828 50.7692 23.0771ZM50.7692 55.3848C48.0307 55.3848 45.3537 54.5728 43.0767 53.0513C40.7997 51.5299 39.025 49.3674 37.977 46.8374C36.9291 44.3073 36.6549 41.5233 37.1891 38.8374C37.7234 36.1515 39.0421 33.6844 40.9785 31.748C42.9149 29.8116 45.3821 28.4928 48.068 27.9586C50.7539 27.4243 53.5379 27.6985 56.0679 28.7465C58.598 29.7945 60.7604 31.5692 62.2819 33.8462C63.8033 36.1232 64.6154 38.8002 64.6154 41.5387C64.6113 45.2097 63.1513 48.7292 60.5555 51.3249C57.9597 53.9207 54.4402 55.3808 50.7692 55.3848Z" fill="#FF8033"/>
<path d="M57.6923 39.231H53.0769V34.6156C53.0769 34.0036 52.8338 33.4166 52.401 32.9838C51.9682 32.551 51.3813 32.3079 50.7692 32.3079C50.1572 32.3079 49.5702 32.551 49.1374 32.9838C48.7047 33.4166 48.4615 34.0036 48.4615 34.6156V41.5387C48.4615 42.1507 48.7047 42.7377 49.1374 43.1705C49.5702 43.6032 50.1572 43.8464 50.7692 43.8464H57.6923C58.3043 43.8464 58.8913 43.6032 59.3241 43.1705C59.7569 42.7377 60 42.1507 60 41.5387C60 40.9266 59.7569 40.3397 59.3241 39.9069C58.8913 39.4741 58.3043 39.231 57.6923 39.231Z" fill="#FF8033"/>
<defs>
<linearGradient id="paint0_linear_115_11546" x1="30" y1="0" x2="30" y2="46.1538" gradientUnits="userSpaceOnUse">
<stop stop-color="#166AFF"/>
<stop offset="1" stop-color="#2ED0FA"/>
</linearGradient>
</defs>
</svg>
