<svg width="16" height="16" viewBox="0 0 16 16" fill="none" xmlns="http://www.w3.org/2000/svg">
<path d="M12.4373 0.619999L4.30933 8.74799C3.99889 9.05675 3.75278 9.42403 3.58525 9.82855C3.41772 10.2331 3.33209 10.6668 3.33333 11.1047V12C3.33333 12.1768 3.40357 12.3464 3.52859 12.4714C3.65362 12.5964 3.82319 12.6667 4 12.6667H4.89533C5.33317 12.6679 5.76691 12.5823 6.17143 12.4147C6.57596 12.2472 6.94323 12.0011 7.25199 11.6907L15.38 3.56266C15.7696 3.17211 15.9884 2.64298 15.9884 2.09133C15.9884 1.53968 15.7696 1.01055 15.38 0.619999C14.9838 0.241262 14.4568 0.0298996 13.9087 0.0298996C13.3605 0.0298996 12.8335 0.241262 12.4373 0.619999ZM14.4373 2.62L6.30933 10.748C5.93341 11.1216 5.42533 11.3319 4.89533 11.3333H4.66666V11.1047C4.66805 10.5747 4.87837 10.0666 5.252 9.69066L13.38 1.56267C13.5224 1.42664 13.7117 1.35073 13.9087 1.35073C14.1056 1.35073 14.2949 1.42664 14.4373 1.56267C14.5773 1.70301 14.6559 1.89313 14.6559 2.09133C14.6559 2.28954 14.5773 2.47965 14.4373 2.62Z" fill="#24A5FC"/>
<path d="M15.3333 5.98599C15.1565 5.98599 14.9869 6.05623 14.8619 6.18126C14.7369 6.30628 14.6667 6.47585 14.6667 6.65266V9.99999H12C11.4696 9.99999 10.9608 10.2107 10.5858 10.5858C10.2107 10.9608 9.99999 11.4696 9.99999 12V14.6667H3.33333C2.8029 14.6667 2.29419 14.4559 1.91912 14.0809C1.54405 13.7058 1.33333 13.1971 1.33333 12.6667V3.33333C1.33333 2.8029 1.54405 2.29419 1.91912 1.91912C2.29419 1.54405 2.8029 1.33333 3.33333 1.33333H9.36133C9.53814 1.33333 9.70771 1.26309 9.83273 1.13807C9.95775 1.01305 10.028 0.843477 10.028 0.666666C10.028 0.489855 9.95775 0.320286 9.83273 0.195262C9.70771 0.0702379 9.53814 0 9.36133 0H3.33333C2.4496 0.00105857 1.60237 0.352588 0.977479 0.977479C0.352588 1.60237 0.00105857 2.4496 0 3.33333V12.6667C0.00105857 13.5504 0.352588 14.3976 0.977479 15.0225C1.60237 15.6474 2.4496 15.9989 3.33333 16H10.8953C11.3333 16.0012 11.7671 15.9156 12.1717 15.7481C12.5764 15.5806 12.9438 15.3344 13.2527 15.024L15.0233 13.252C15.3338 12.9432 15.58 12.576 15.7477 12.1715C15.9153 11.7669 16.0011 11.3332 16 10.8953V6.65266C16 6.47585 15.9297 6.30628 15.8047 6.18126C15.6797 6.05623 15.5101 5.98599 15.3333 5.98599ZM12.31 14.0813C12.042 14.3487 11.7031 14.5337 11.3333 14.6147V12C11.3333 11.8232 11.4036 11.6536 11.5286 11.5286C11.6536 11.4036 11.8232 11.3333 12 11.3333H14.6167C14.5342 11.7023 14.3493 12.0406 14.0833 12.3093L12.31 14.0813Z" fill="#24A5FC"/>
</svg>
