<svg width="116" height="151" viewBox="0 0 116 151" fill="none" xmlns="http://www.w3.org/2000/svg">
<path opacity="0.7" d="M71.91 125.737L68.91 127.627L64.12 123.177L71.91 125.737Z" fill="#8B7BC8"/>
<path d="M27.64 20.4972L20.98 10.0372C20.77 9.70719 20.6 9.37719 20.44 9.03719C20.37 8.89719 20.3 8.75719 20.24 8.61719C20.13 8.34719 20.03 8.08718 19.94 7.81718C19.9 7.69718 19.85 7.57718 19.82 7.45718C19.71 7.07718 19.63 6.68718 19.57 6.31718C19.57 6.30718 19.57 6.29719 19.57 6.28719C19.52 5.92719 19.51 5.56719 19.51 5.22719C19.51 5.11719 19.53 5.00719 19.53 4.89719C19.55 4.65719 19.57 4.42718 19.62 4.20718C19.64 4.08718 19.67 3.96718 19.7 3.85718C19.76 3.61718 19.84 3.37718 19.94 3.15718C19.96 3.11718 19.97 3.06719 19.99 3.02719C20.12 2.76719 20.28 2.52719 20.45 2.30719C20.49 2.25719 20.53 2.21719 20.57 2.16719C20.76 1.95719 20.98 1.75718 21.22 1.59718L12.43 7.09718C12.18 7.25718 11.97 7.45719 11.78 7.66719C11.74 7.71719 11.69 7.75719 11.66 7.80719C11.48 8.02719 11.32 8.26719 11.2 8.52719C11.18 8.56719 11.17 8.61718 11.15 8.65718C11.09 8.78718 11.03 8.91719 10.98 9.05719C10.95 9.14719 10.94 9.25718 10.91 9.35718C10.88 9.47718 10.85 9.58718 10.83 9.70718C10.79 9.92718 10.76 10.1672 10.74 10.3972C10.73 10.5072 10.72 10.6172 10.72 10.7272C10.71 11.0672 10.73 11.4272 10.78 11.7872C10.78 11.7972 10.78 11.8072 10.78 11.8172C10.83 12.1572 10.89 12.4972 10.99 12.8372C11 12.8772 11.02 12.9172 11.03 12.9572C11.06 13.0772 11.11 13.1972 11.15 13.3172C11.24 13.5872 11.33 13.8472 11.45 14.1172C11.51 14.2572 11.58 14.3972 11.65 14.5372C11.71 14.6572 11.76 14.7872 11.82 14.9072C11.93 15.1172 12.06 15.3272 12.19 15.5372L18.85 25.9972L22.88 72.2872L33.85 71.3272L31.67 66.7772L27.64 20.4972Z" fill="url(#paint0_linear_15_711)"/>
<path d="M113.81 87.5272C111.05 83.1872 106.43 81.2172 103.48 83.1272L105.48 81.8272C108.67 79.7572 108.84 74.2672 105.86 69.5772C102.87 64.8772 97.85 62.7472 94.66 64.8072L95.73 64.1072C99.06 61.9572 99.23 56.2272 96.11 51.3272C93 46.4372 87.77 44.2072 84.44 46.3672L85.48 45.6972C88.94 43.4572 89.12 37.5172 85.88 32.4272C82.64 27.3372 77.22 25.0272 73.76 27.2672L51.27 41.8272C49.74 32.0072 45.86 21.9472 40.07 12.8472L37.21 8.35718C32.95 1.65718 25.79 -1.39281 21.23 1.55719C19.03 2.98719 18.91 6.76719 20.97 10.0072L27.63 20.4672L31.66 66.7572C31.73 67.5872 32.04 68.4772 32.54 69.2672L67.17 123.707C68.44 125.697 70.55 126.597 71.9 125.717L113.46 98.8072C116.42 96.9172 116.57 91.8672 113.81 87.5272Z" fill="url(#paint1_linear_15_711)"/>
<path d="M55.9 144.497L47.11 149.997C45.91 150.777 44.26 150.497 42.79 149.447L51.58 143.947C53.05 144.997 54.7 145.267 55.9 144.497Z" fill="#003B64"/>
<path d="M51.58 143.947L42.79 149.447C42.05 148.917 41.37 148.197 40.8 147.317L49.59 141.817C50.16 142.697 50.84 143.417 51.58 143.947Z" fill="#003D68"/>
<path d="M70.2 128.467L67.18 123.727L32.55 69.2872L30.6 66.2172C28.92 63.5772 26.09 62.3672 24.29 63.5372L10.2 72.6572C8.40002 73.8172 8.31003 76.9172 9.99003 79.5572L49.59 141.807C51.27 144.447 54.1 145.657 55.9 144.487L69.99 135.367C71.79 134.207 71.88 131.117 70.2 128.467Z" fill="url(#paint2_linear_15_711)"/>
<path opacity="0.7" d="M113.81 87.5272C111.05 83.1872 106.43 81.2172 103.48 83.1272L105.48 81.8272C108.67 79.7572 108.84 74.2672 105.86 69.5772C102.87 64.8772 97.85 62.7472 94.66 64.8072L95.73 64.1072C99.06 61.9572 99.23 56.2272 96.11 51.3272C93 46.4372 87.77 44.2072 84.44 46.3672L84.61 46.6272C85.4 46.1172 86.32 45.8572 87.34 45.8572C90.33 45.8572 93.67 48.0672 95.85 51.4972C98.87 56.2472 98.74 61.7872 95.56 63.8472L94.48 64.5472L94.82 65.0672C95.58 64.5772 96.46 64.3272 97.44 64.3272C100.3 64.3272 103.5 66.4472 105.59 69.7372C108.48 74.2872 108.35 79.5872 105.31 81.5672L103.31 82.8672L103.65 83.3872C104.35 82.9372 105.15 82.7072 106.05 82.7072C108.68 82.7072 111.62 84.6672 113.55 87.6872C116.21 91.8672 116.1 96.7472 113.3 98.5572L71.74 125.467C71.45 125.657 71.11 125.747 70.73 125.747C69.58 125.747 68.03 125.047 67.18 123.707L69.94 128.617C71.53 131.117 71.48 134.017 69.82 135.087L55.73 144.207C55.33 144.467 54.86 144.597 54.33 144.597C52.76 144.597 51.01 143.427 49.85 141.617L10.25 79.3672C8.66001 76.8672 8.71002 73.9672 10.37 72.8972L24.46 63.7772C24.86 63.5172 25.33 63.3872 25.86 63.3872C27.43 63.3872 29.18 64.5572 30.34 66.3672L32.55 69.2672C32.07 68.5172 32.04 67.5172 31.98 66.7372L27.94 20.3672L21.24 9.83719C19.27 6.74719 19.35 3.14719 21.4 1.80719C22.5 1.09719 23.78 0.727192 25.2 0.727192C29.33 0.727192 33.94 3.77719 36.94 8.50719L39.8 12.9972C45.57 22.0772 49.43 32.0572 50.96 41.8572L51.03 42.3272L73.92 27.5072C74.75 26.9672 75.7 26.6972 76.77 26.6972C79.87 26.6972 83.35 28.9972 85.62 32.5672C88.76 37.5072 88.62 43.2672 85.31 45.4072L84.27 46.0772L84.44 46.3372L85.48 45.6672C88.94 43.4272 89.12 37.4872 85.88 32.3972C82.64 27.3072 77.22 24.9972 73.76 27.2372L51.27 41.7972C49.74 31.9772 45.86 21.9172 40.07 12.8172L37.21 8.32718C32.95 1.62718 25.79 -1.4228 21.23 1.5272C19.03 2.9572 18.91 6.73719 20.97 9.97719L27.63 20.4372L31.66 66.7272C31.73 67.5572 32.04 68.4472 32.54 69.2372L30.59 66.1672C28.91 63.5272 26.08 62.3172 24.28 63.4872L10.19 72.6072C8.39002 73.7672 8.30001 76.8672 9.98001 79.5072L49.58 141.757C51.26 144.397 54.09 145.607 55.89 144.437L69.98 135.317C71.78 134.157 71.87 131.057 70.19 128.417L67.17 123.677C68.44 125.667 70.55 126.567 71.9 125.687L113.46 98.7772C116.42 96.9172 116.57 91.8672 113.81 87.5272Z" fill="url(#paint3_linear_15_711)"/>
<path d="M49.59 141.817L9.99001 79.5672C9.82001 79.2972 9.68 79.0272 9.55 78.7472C9.49 78.6372 9.44 78.5172 9.39 78.4072C9.3 78.1872 9.22001 77.9772 9.15001 77.7572C9.12001 77.6572 9.08 77.5572 9.05 77.4672C8.96 77.1572 8.89001 76.8472 8.85001 76.5372C8.85001 76.5272 8.85001 76.5172 8.85001 76.5072C8.81001 76.2172 8.8 75.9272 8.8 75.6472C8.8 75.5572 8.81001 75.4672 8.82001 75.3772C8.83001 75.1872 8.85 74.9972 8.89 74.8072C8.91 74.7072 8.93001 74.6172 8.96001 74.5172C9.01001 74.3172 9.07001 74.1272 9.15001 73.9472C9.17001 73.9172 9.18 73.8772 9.19 73.8472C9.29 73.6372 9.42001 73.4372 9.57001 73.2572C9.60001 73.2172 9.64 73.1772 9.67 73.1372C9.83 72.9572 10 72.7972 10.2 72.6672L24.29 63.5472L15.5 69.0472L1.41 78.1672C1.21 78.2972 1.04 78.4572 0.880005 78.6372C0.850005 78.6772 0.809999 78.7172 0.779999 78.7572C0.629999 78.9372 0.510009 79.1272 0.400009 79.3472C0.380009 79.3772 0.370001 79.4172 0.360001 79.4472C0.310001 79.5572 0.260001 79.6572 0.220001 79.7772C0.190001 79.8572 0.180004 79.9372 0.160004 80.0172C0.130004 80.1072 0.109996 80.2072 0.0899963 80.3072C0.0499963 80.4872 0.0300043 80.6772 0.0200043 80.8772C0.0100043 80.9672 0 81.0572 0 81.1472C0 81.4272 0.0100031 81.7172 0.0500031 82.0172C0.0500031 82.0272 0.0500031 82.0372 0.0500031 82.0472C0.0900031 82.3172 0.140001 82.5972 0.220001 82.8872C0.230001 82.9172 0.24 82.9472 0.25 82.9772C0.28 83.0772 0.320006 83.1772 0.350006 83.2672C0.420006 83.4872 0.499996 83.7072 0.589996 83.9172C0.639996 84.0372 0.69 84.1472 0.75 84.2572C0.8 84.3572 0.839999 84.4572 0.889999 84.5572C0.979999 84.7272 1.08 84.8972 1.19 85.0672L40.79 147.317C42.47 149.957 45.3 151.167 47.1 149.997L55.89 144.497C54.1 145.657 51.28 144.457 49.59 141.817Z" fill="url(#paint4_linear_15_711)"/>
<defs>
<linearGradient id="paint0_linear_15_711" x1="7.47023" y1="9.59808" x2="77.0444" y2="139.967" gradientUnits="userSpaceOnUse">
<stop offset="0.00217948" stop-color="#E0D4FF"/>
<stop offset="0.0147" stop-color="#CEC0F7"/>
<stop offset="0.0292" stop-color="#C0B1F0"/>
<stop offset="0.0406" stop-color="#BBABEE"/>
<stop offset="0.0986" stop-color="#BAA9EC"/>
<stop offset="0.1195" stop-color="#B5A3E5"/>
<stop offset="0.1344" stop-color="#AC99DA"/>
<stop offset="0.1383" stop-color="#A995D5"/>
<stop offset="0.2654" stop-color="#A793D4"/>
<stop offset="0.33" stop-color="#9F8CD1"/>
<stop offset="0.3806" stop-color="#9281CB"/>
<stop offset="0.4236" stop-color="#7F70C3"/>
<stop offset="0.4561" stop-color="#6B5FBA"/>
<stop offset="0.6741" stop-color="#6D61BB"/>
<stop offset="0.7526" stop-color="#7468BF"/>
<stop offset="0.8086" stop-color="#7F73C6"/>
<stop offset="0.8539" stop-color="#9084D0"/>
<stop offset="0.8926" stop-color="#A69ADD"/>
<stop offset="0.9263" stop-color="#C1B5ED"/>
<stop offset="0.9563" stop-color="#E0D4FF"/>
</linearGradient>
<linearGradient id="paint1_linear_15_711" x1="81.9145" y1="28.8248" x2="10.4481" y2="134.144" gradientUnits="userSpaceOnUse">
<stop stop-color="#F2F9FF"/>
<stop offset="0.9569" stop-color="#D0BCFF"/>
<stop offset="1" stop-color="#CEB9FF"/>
</linearGradient>
<linearGradient id="paint2_linear_15_711" x1="-17.3553" y1="177.41" x2="54.9471" y2="85.0463" gradientUnits="userSpaceOnUse">
<stop offset="0.1295" stop-color="#0047A1"/>
<stop offset="0.2617" stop-color="#004AA7"/>
<stop offset="0.4295" stop-color="#0053B6"/>
<stop offset="0.5287" stop-color="#005BC3"/>
<stop offset="0.6256" stop-color="#0461C7"/>
<stop offset="0.7488" stop-color="#0E70D3"/>
<stop offset="0.8857" stop-color="#208AE7"/>
<stop offset="0.998" stop-color="#32A5FC"/>
</linearGradient>
<linearGradient id="paint3_linear_15_711" x1="79.269" y1="17.1516" x2="35.3669" y2="140.261" gradientUnits="userSpaceOnUse">
<stop offset="0.0757" stop-color="white"/>
<stop offset="1" stop-color="white" stop-opacity="0"/>
</linearGradient>
<linearGradient id="paint4_linear_15_711" x1="9.7384" y1="70.3642" x2="60.3081" y2="148.099" gradientUnits="userSpaceOnUse">
<stop stop-color="#32A5FC"/>
<stop offset="0.0352" stop-color="#1E7FD7"/>
<stop offset="0.0704" stop-color="#0E61BA"/>
<stop offset="0.1003" stop-color="#044EA8"/>
<stop offset="0.1213" stop-color="#0047A1"/>
<stop offset="0.4074" stop-color="#003085"/>
<stop offset="0.6525" stop-color="#003287"/>
<stop offset="0.7767" stop-color="#00388F"/>
<stop offset="0.8736" stop-color="#00439C"/>
<stop offset="0.8986" stop-color="#0047A1"/>
<stop offset="0.9094" stop-color="#034DA6"/>
<stop offset="0.9231" stop-color="#0B5CB6"/>
<stop offset="0.9385" stop-color="#1976CF"/>
<stop offset="0.9548" stop-color="#2C9AF2"/>
<stop offset="0.9591" stop-color="#32A5FC"/>
</linearGradient>
</defs>
</svg>
