<svg width="175" height="158" viewBox="0 0 175 158" fill="none" xmlns="http://www.w3.org/2000/svg">
<path d="M17.263 79.8217L1.27302 107.772C-1.47698 112.572 0.413024 117.992 5.49302 119.882L100.423 155.182C105.493 157.072 111.823 154.702 114.573 149.902L130.563 121.952L17.263 79.8217Z" fill="url(#paint0_linear_15_146)"/>
<path d="M168.603 35.9517C173.673 37.8417 175.553 43.2617 172.813 48.0617L130.563 121.942L17.2729 79.8117L59.5229 5.9317C62.2729 1.1317 68.603 -1.2283 73.683 0.651705L168.603 35.9517Z" fill="url(#paint1_linear_15_146)"/>
<path d="M168.603 35.9517L73.673 0.651704C68.593 -1.2383 62.263 1.1217 59.513 5.9317L17.263 79.8117L17.713 80.0017L17.253 79.8317L1.26301 107.782C-1.48699 112.582 0.403014 118.002 5.48301 119.892L100.413 155.192C105.483 157.082 111.813 154.712 114.563 149.912L130.553 121.962L130.403 121.902L130.563 121.942L172.813 48.0617C175.563 43.2617 173.673 37.8417 168.603 35.9517ZM172.543 47.9117L130.293 121.792L130.443 121.732L130.363 122.002L130.293 121.812L114.303 149.762C112.293 153.272 108.303 155.532 104.123 155.532C102.863 155.532 101.653 155.322 100.533 154.902L5.60301 119.592C3.27301 118.722 1.563 117.062 0.783002 114.912C-0.0269982 112.692 0.253021 110.212 1.55302 107.932L17.403 80.2117L17.613 80.2917L17.843 79.7117L17.723 79.6617L59.803 6.09171C61.803 2.58171 65.803 0.321687 69.983 0.321687C71.243 0.321687 72.453 0.531692 73.583 0.951692L168.513 36.2517C170.843 37.1217 172.553 38.7817 173.333 40.9317C174.123 43.1517 173.853 45.6317 172.543 47.9117Z" fill="url(#paint2_linear_15_146)"/>
<g opacity="0.8">
<path opacity="0.01" d="M115.543 39.9017C100.753 34.4017 82.253 41.3017 74.243 55.3117C66.223 69.3317 71.7229 85.1517 86.5229 90.6517C101.323 96.1517 119.823 89.2517 127.843 75.2417C135.853 61.2317 130.343 45.4017 115.543 39.9017Z" fill="#D6C7FE"/>
<path opacity="0.0127" d="M115.533 39.8717C100.743 34.3717 82.2429 41.2717 74.2329 55.2817C66.2129 69.3017 71.7129 85.1217 86.5129 90.6217C101.313 96.1217 119.813 89.2217 127.833 75.2117C135.833 61.2017 130.333 45.3817 115.533 39.8717Z" fill="#D5C6FE"/>
<path opacity="0.0191" d="M115.513 39.8517C100.723 34.3517 82.223 41.2517 74.213 55.2617C66.193 69.2817 71.693 85.1017 86.493 90.6017C101.293 96.1017 119.793 89.2017 127.813 75.1917C135.813 61.1817 130.313 45.3617 115.513 39.8517Z" fill="#D4C6FD"/>
<path opacity="0.0255" d="M115.493 39.8317C100.703 34.3317 82.203 41.2317 74.193 55.2417C66.173 69.2617 71.6729 85.0817 86.4729 90.5817C101.273 96.0817 119.773 89.1817 127.793 75.1717C135.793 61.1617 130.293 45.3317 115.493 39.8317Z" fill="#D3C5FC"/>
<path opacity="0.0318" d="M115.473 39.8017C100.683 34.3017 82.183 41.2017 74.173 55.2117C66.153 69.2317 71.6529 85.0517 86.4529 90.5517C101.253 96.0517 119.753 89.1517 127.773 75.1417C135.783 61.1317 130.283 45.3117 115.473 39.8017Z" fill="#D2C4FB"/>
<path opacity="0.0382" d="M115.463 39.7817C100.673 34.2817 82.173 41.1817 74.163 55.1917C66.143 69.2117 71.643 85.0317 86.443 90.5317C101.243 96.0317 119.743 89.1317 127.763 75.1217C135.763 61.1117 130.263 45.2817 115.463 39.7817Z" fill="#D1C3FB"/>
<path opacity="0.0446" d="M115.443 39.7617C100.653 34.2617 82.153 41.1617 74.143 55.1717C66.123 69.1917 71.623 85.0117 86.423 90.5117C101.223 96.0117 119.723 89.1117 127.743 75.1017C135.743 61.0917 130.243 45.2617 115.443 39.7617Z" fill="#D0C3FA"/>
<path opacity="0.051" d="M115.423 39.7317C100.633 34.2317 82.133 41.1317 74.123 55.1417C66.103 69.1617 71.6029 84.9817 86.4029 90.4817C101.203 95.9817 119.703 89.0817 127.723 75.0717C135.733 61.0617 130.233 45.2417 115.423 39.7317Z" fill="#CFC2F9"/>
<path opacity="0.0573" d="M115.413 39.7117C100.623 34.2117 82.123 41.1117 74.113 55.1217C66.093 69.1417 71.5929 84.9617 86.3929 90.4617C101.193 95.9617 119.693 89.0617 127.713 75.0517C135.713 61.0417 130.213 45.2117 115.413 39.7117Z" fill="#CEC1F9"/>
<path opacity="0.0637" d="M115.393 39.6817C100.603 34.1817 82.103 41.0817 74.093 55.0917C66.073 69.1117 71.573 84.9317 86.373 90.4317C101.173 95.9317 119.673 89.0317 127.693 75.0217C135.693 61.0117 130.193 45.1917 115.393 39.6817Z" fill="#CDC0F8"/>
<path opacity="0.0701" d="M115.373 39.6617C100.583 34.1617 82.083 41.0617 74.073 55.0717C66.053 69.0917 71.553 84.9117 86.353 90.4117C101.153 95.9117 119.653 89.0117 127.673 75.0017C135.683 60.9917 130.173 45.1717 115.373 39.6617Z" fill="#CCC0F7"/>
<path opacity="0.0764" d="M115.363 39.6417C100.573 34.1417 82.073 41.0417 74.063 55.0517C66.043 69.0717 71.5429 84.8917 86.3429 90.3917C101.143 95.8917 119.643 88.9917 127.663 74.9817C135.663 60.9717 130.163 45.1417 115.363 39.6417Z" fill="#CBBFF6"/>
<path opacity="0.0828" d="M115.343 39.6117C100.553 34.1117 82.0529 41.0117 74.0429 55.0217C66.0229 69.0417 71.5229 84.8617 86.3229 90.3617C101.123 95.8617 119.623 88.9617 127.643 74.9517C135.643 60.9417 130.143 45.1217 115.343 39.6117Z" fill="#CABEF6"/>
<path opacity="0.0892" d="M115.323 39.5917C100.533 34.0917 82.033 40.9917 74.023 55.0017C66.003 69.0217 71.503 84.8417 86.303 90.3417C101.103 95.8417 119.603 88.9417 127.623 74.9317C135.623 60.9217 130.123 45.0917 115.323 39.5917Z" fill="#C9BDF5"/>
<path opacity="0.0955" d="M115.303 39.5717C100.513 34.0717 82.013 40.9717 74.003 54.9817C65.983 69.0017 71.4829 84.8217 86.2829 90.3217C101.083 95.8217 119.583 88.9217 127.603 74.9117C135.613 60.9017 130.113 45.0717 115.303 39.5717Z" fill="#C8BDF4"/>
<path opacity="0.1019" d="M115.293 39.5417C100.503 34.0417 82.003 40.9417 73.993 54.9517C65.973 68.9717 71.4729 84.7917 86.2729 90.2917C101.073 95.7917 119.573 88.8917 127.593 74.8817C135.593 60.8717 130.093 45.0517 115.293 39.5417Z" fill="#C7BCF3"/>
<path opacity="0.1083" d="M115.273 39.5217C100.483 34.0217 81.983 40.9217 73.973 54.9317C65.953 68.9517 71.453 84.7717 86.253 90.2717C101.053 95.7717 119.553 88.8717 127.573 74.8617C135.573 60.8517 130.073 45.0217 115.273 39.5217Z" fill="#C6BBF3"/>
<path opacity="0.1146" d="M115.253 39.4917C100.463 33.9917 81.963 40.8917 73.953 54.9017C65.933 68.9217 71.433 84.7417 86.233 90.2417C101.033 95.7417 119.533 88.8417 127.553 74.8317C135.563 60.8217 130.063 45.0017 115.253 39.4917Z" fill="#C5BAF2"/>
<path opacity="0.121" d="M115.243 39.4717C100.453 33.9717 81.953 40.8717 73.943 54.8817C65.923 68.9017 71.4229 84.7217 86.2229 90.2217C101.023 95.7217 119.523 88.8217 127.543 74.8117C135.543 60.8017 130.043 44.9817 115.243 39.4717Z" fill="#C4B9F1"/>
<path opacity="0.1274" d="M115.223 39.4517C100.433 33.9517 81.933 40.8517 73.923 54.8617C65.903 68.8817 71.4029 84.7017 86.2029 90.2017C101.003 95.7017 119.503 88.8017 127.523 74.7917C135.523 60.7817 130.023 44.9517 115.223 39.4517Z" fill="#C3B9F1"/>
<path opacity="0.1338" d="M115.203 39.4217C100.413 33.9217 81.913 40.8217 73.903 54.8317C65.883 68.8517 71.383 84.6717 86.183 90.1717C100.983 95.6717 119.483 88.7717 127.503 74.7617C135.513 60.7517 130.003 44.9317 115.203 39.4217Z" fill="#C2B8F0"/>
<path opacity="0.1401" d="M115.183 39.4017C100.393 33.9017 81.893 40.8017 73.883 54.8117C65.863 68.8317 71.3629 84.6517 86.1629 90.1517C100.963 95.6517 119.463 88.7517 127.483 74.7417C135.493 60.7317 129.993 44.9017 115.183 39.4017Z" fill="#C1B7EF"/>
<path opacity="0.1465" d="M115.173 39.3817C100.383 33.8817 81.883 40.7817 73.873 54.7917C65.853 68.8117 71.3529 84.6317 86.1529 90.1317C100.953 95.6317 119.453 88.7317 127.473 74.7217C135.473 60.7117 129.973 44.8817 115.173 39.3817Z" fill="#C0B6EE"/>
<path opacity="0.1529" d="M115.153 39.3517C100.363 33.8517 81.863 40.7517 73.853 54.7617C65.833 68.7817 71.333 84.6017 86.133 90.1017C100.933 95.6017 119.433 88.7017 127.453 74.6917C135.453 60.6817 129.953 44.8617 115.153 39.3517Z" fill="#BFB6EE"/>
<path opacity="0.1592" d="M115.133 39.3317C100.343 33.8317 81.843 40.7317 73.833 54.7417C65.813 68.7617 71.313 84.5817 86.113 90.0817C100.913 95.5817 119.413 88.6817 127.433 74.6717C135.443 60.6617 129.943 44.8317 115.133 39.3317Z" fill="#BEB5ED"/>
<path opacity="0.1656" d="M115.123 39.3017C100.333 33.8017 81.833 40.7017 73.823 54.7117C65.803 68.7317 71.303 84.5517 86.103 90.0517C100.903 95.5517 119.403 88.6517 127.423 74.6417C135.423 60.6317 129.923 44.8117 115.123 39.3017Z" fill="#BDB4EC"/>
<path opacity="0.172" d="M115.103 39.2817C100.313 33.7817 81.813 40.6817 73.803 54.6917C65.783 68.7117 71.2829 84.5317 86.0829 90.0317C100.883 95.5317 119.383 88.6317 127.403 74.6217C135.403 60.6117 129.903 44.7917 115.103 39.2817Z" fill="#BCB3EC"/>
<path opacity="0.1783" d="M115.083 39.2617C100.293 33.7617 81.793 40.6617 73.783 54.6717C65.763 68.6917 71.263 84.5117 86.063 90.0117C100.863 95.5117 119.363 88.6117 127.383 74.6017C135.393 60.5917 129.893 44.7617 115.083 39.2617Z" fill="#BBB3EB"/>
<path opacity="0.1847" d="M115.073 39.2317C100.283 33.7317 81.783 40.6317 73.773 54.6417C65.753 68.6617 71.253 84.4817 86.053 89.9817C100.853 95.4817 119.353 88.5817 127.373 74.5717C135.373 60.5617 129.873 44.7417 115.073 39.2317Z" fill="#BAB2EA"/>
<path opacity="0.1911" d="M115.053 39.2117C100.263 33.7117 81.763 40.6117 73.753 54.6217C65.733 68.6417 71.2329 84.4617 86.0329 89.9617C100.833 95.4617 119.333 88.5617 127.353 74.5517C135.353 60.5417 129.853 44.7217 115.053 39.2117Z" fill="#B9B1E9"/>
<path opacity="0.1975" d="M115.033 39.1917C100.243 33.6917 81.7429 40.5917 73.7329 54.6017C65.7129 68.6217 71.2129 84.4417 86.0129 89.9417C100.813 95.4417 119.313 88.5417 127.333 74.5317C135.333 60.5217 129.833 44.6917 115.033 39.1917Z" fill="#B8B0E9"/>
<path opacity="0.2038" d="M115.013 39.1617C100.223 33.6617 81.723 40.5617 73.713 54.5717C65.693 68.5917 71.193 84.4117 85.993 89.9117C100.793 95.4117 119.293 88.5117 127.313 74.5017C135.323 60.4917 129.823 44.6717 115.013 39.1617Z" fill="#B7B0E8"/>
<path opacity="0.2102" d="M115.003 39.1417C100.213 33.6417 81.713 40.5417 73.703 54.5517C65.683 68.5717 71.183 84.3917 85.983 89.8917C100.783 95.3917 119.283 88.4917 127.303 74.4817C135.303 60.4717 129.803 44.6417 115.003 39.1417Z" fill="#B6AFE7"/>
<path opacity="0.2166" d="M114.983 39.1117C100.193 33.6117 81.693 40.5117 73.683 54.5217C65.663 68.5417 71.1629 84.3617 85.9629 89.8617C100.763 95.3617 119.263 88.4617 127.283 74.4517C135.283 60.4517 129.783 44.6217 114.983 39.1117Z" fill="#B5AEE7"/>
<path opacity="0.2229" d="M114.963 39.0917C100.173 33.5917 81.673 40.4917 73.663 54.5017C65.643 68.5217 71.143 84.3417 85.943 89.8417C100.743 95.3417 119.243 88.4417 127.263 74.4317C135.273 60.4217 129.773 44.6017 114.963 39.0917Z" fill="#B4ADE6"/>
<path opacity="0.2293" d="M114.953 39.0717C100.163 33.5717 81.663 40.4717 73.653 54.4817C65.633 68.5017 71.133 84.3217 85.933 89.8217C100.733 95.3217 119.233 88.4217 127.253 74.4117C135.253 60.4017 129.753 44.5717 114.953 39.0717Z" fill="#B3ACE5"/>
<path opacity="0.2357" d="M114.933 39.0417C100.143 33.5417 81.643 40.4417 73.633 54.4517C65.613 68.4717 71.1129 84.2917 85.9129 89.7917C100.713 95.2917 119.213 88.3917 127.233 74.3817C135.233 60.3717 129.733 44.5517 114.933 39.0417Z" fill="#B2ACE4"/>
<path opacity="0.242" d="M114.913 39.0217C100.123 33.5217 81.623 40.4217 73.613 54.4317C65.593 68.4517 71.0929 84.2717 85.8929 89.7717C100.693 95.2717 119.193 88.3717 127.213 74.3617C135.223 60.3517 129.713 44.5317 114.913 39.0217Z" fill="#B1ABE4"/>
<path opacity="0.2484" d="M114.903 39.0017C100.113 33.5017 81.613 40.4017 73.603 54.4117C65.583 68.4317 71.083 84.2517 85.883 89.7517C100.683 95.2517 119.183 88.3517 127.203 74.3417C135.203 60.3317 129.703 44.5017 114.903 39.0017Z" fill="#B0AAE3"/>
<path opacity="0.2548" d="M114.883 38.9717C100.093 33.4717 81.593 40.3717 73.583 54.3817C65.563 68.4017 71.063 84.2217 85.863 89.7217C100.663 95.2217 119.163 88.3217 127.183 74.3117C135.183 60.3017 129.683 44.4817 114.883 38.9717Z" fill="#AFA9E2"/>
<path opacity="0.2611" d="M114.863 38.9517C100.073 33.4517 81.573 40.3517 73.563 54.3617C65.543 68.3817 71.0429 84.2017 85.8429 89.7017C100.643 95.2017 119.143 88.3017 127.163 74.2917C135.163 60.2817 129.663 44.4517 114.863 38.9517Z" fill="#AEA9E1"/>
<path opacity="0.2675" d="M114.843 38.9317C100.053 33.4317 81.5529 40.3317 73.5429 54.3417C65.5229 68.3617 71.0229 84.1817 85.8229 89.6817C100.623 95.1817 119.123 88.2817 127.143 74.2717C135.153 60.2617 129.653 44.4317 114.843 38.9317Z" fill="#ADA8E1"/>
<path opacity="0.2739" d="M114.833 38.9017C100.043 33.4017 81.543 40.3017 73.533 54.3117C65.513 68.3317 71.013 84.1517 85.813 89.6517C100.613 95.1517 119.113 88.2517 127.133 74.2417C135.133 60.2317 129.633 44.4117 114.833 38.9017Z" fill="#ACA7E0"/>
<path opacity="0.2803" d="M114.813 38.8817C100.023 33.3817 81.523 40.2817 73.513 54.2917C65.493 68.3117 70.993 84.1317 85.793 89.6317C100.593 95.1317 119.093 88.2317 127.113 74.2217C135.113 60.2117 129.613 44.3817 114.813 38.8817Z" fill="#ABA6DF"/>
<path opacity="0.2866" d="M114.793 38.8517C100.003 33.3517 81.503 40.2517 73.493 54.2617C65.473 68.2817 70.9729 84.1017 85.7729 89.6017C100.573 95.1017 119.073 88.2017 127.093 74.1917C135.103 60.1817 129.603 44.3617 114.793 38.8517Z" fill="#AAA6DF"/>
<path opacity="0.293" d="M114.783 38.8317C99.9929 33.3317 81.4929 40.2317 73.4829 54.2417C65.4629 68.2617 70.9629 84.0817 85.7629 89.5817C100.563 95.0817 119.063 88.1817 127.083 74.1717C135.083 60.1617 129.583 44.3417 114.783 38.8317Z" fill="#A9A5DE"/>
<path opacity="0.2994" d="M114.763 38.8117C99.973 33.3117 81.473 40.2117 73.463 54.2217C65.443 68.2417 70.943 84.0617 85.743 89.5617C100.543 95.0617 119.043 88.1617 127.063 74.1517C135.063 60.1417 129.563 44.3117 114.763 38.8117Z" fill="#A8A4DD"/>
<path opacity="0.3057" d="M114.743 38.7817C99.953 33.2817 81.453 40.1817 73.443 54.1917C65.423 68.2117 70.9229 84.0317 85.7229 89.5317C100.523 95.0317 119.023 88.1317 127.043 74.1217C135.053 60.1117 129.543 44.2917 114.743 38.7817Z" fill="#A7A3DC"/>
<path opacity="0.3121" d="M114.723 38.7617C99.9329 33.2617 81.433 40.1617 73.423 54.1717C65.403 68.1917 70.9029 84.0117 85.7029 89.5117C100.503 95.0117 119.003 88.1117 127.023 74.1017C135.033 60.0917 129.533 44.2617 114.723 38.7617Z" fill="#A6A3DC"/>
<path opacity="0.3185" d="M114.713 38.7417C99.923 33.2417 81.423 40.1417 73.413 54.1517C65.393 68.1717 70.893 83.9917 85.693 89.4917C100.493 94.9917 118.993 88.0917 127.013 74.0817C135.013 60.0717 129.513 44.2417 114.713 38.7417Z" fill="#A5A2DB"/>
<path opacity="0.3248" d="M114.693 38.7117C99.903 33.2117 81.403 40.1117 73.393 54.1217C65.373 68.1417 70.873 83.9617 85.673 89.4617C100.473 94.9617 118.973 88.0617 126.993 74.0517C134.993 60.0417 129.493 44.2217 114.693 38.7117Z" fill="#A4A1DA"/>
<path opacity="0.3312" d="M114.673 38.6917C99.8829 33.1917 81.383 40.0917 73.373 54.1017C65.353 68.1217 70.8529 83.9417 85.6529 89.4417C100.453 94.9417 118.953 88.0417 126.973 74.0317C134.983 60.0217 129.483 44.1917 114.673 38.6917Z" fill="#A3A0DA"/>
<path opacity="0.3376" d="M114.663 38.6617C99.8729 33.1617 81.373 40.0617 73.363 54.0717C65.343 68.0917 70.8429 83.9117 85.6429 89.4117C100.443 94.9117 118.943 88.0117 126.963 74.0017C134.963 59.9917 129.463 44.1717 114.663 38.6617Z" fill="#A29FD9"/>
<path opacity="0.3439" d="M114.643 38.6417C99.853 33.1417 81.353 40.0417 73.343 54.0517C65.323 68.0717 70.823 83.8917 85.623 89.3917C100.423 94.8917 118.923 87.9917 126.943 73.9817C134.943 59.9717 129.443 44.1517 114.643 38.6417Z" fill="#A19FD8"/>
<path opacity="0.3503" d="M114.623 38.6217C99.833 33.1217 81.333 40.0217 73.323 54.0317C65.303 68.0517 70.803 83.8717 85.603 89.3717C100.403 94.8717 118.903 87.9717 126.923 73.9617C134.933 59.9517 129.433 44.1217 114.623 38.6217Z" fill="#A09ED7"/>
<path opacity="0.3567" d="M114.613 38.5917C99.823 33.0917 81.323 39.9917 73.313 54.0017C65.293 68.0217 70.7929 83.8417 85.5929 89.3417C100.393 94.8417 118.893 87.9417 126.913 73.9317C134.913 59.9217 129.413 44.1017 114.613 38.5917Z" fill="#9F9DD7"/>
<path opacity="0.3631" d="M114.593 38.5717C99.8029 33.0717 81.3029 39.9717 73.2929 53.9817C65.2729 68.0017 70.7729 83.8217 85.5729 89.3217C100.373 94.8217 118.873 87.9217 126.893 73.9117C134.893 59.9017 129.393 44.0717 114.593 38.5717Z" fill="#9E9CD6"/>
<path opacity="0.3694" d="M114.573 38.5517C99.783 33.0517 81.283 39.9517 73.273 53.9617C65.253 67.9817 70.753 83.8017 85.553 89.3017C100.353 94.8017 118.853 87.9017 126.873 73.8917C134.873 59.8817 129.373 44.0517 114.573 38.5517Z" fill="#9D9CD5"/>
<path opacity="0.3758" d="M114.553 38.5217C99.763 33.0217 81.263 39.9217 73.253 53.9317C65.233 67.9517 70.7329 83.7717 85.5329 89.2717C100.333 94.7717 118.833 87.8717 126.853 73.8617C134.863 59.8517 129.363 44.0317 114.553 38.5217Z" fill="#9C9BD5"/>
<path opacity="0.3822" d="M114.543 38.5017C99.7529 33.0017 81.253 39.9017 73.243 53.9117C65.223 67.9317 70.7229 83.7517 85.5229 89.2517C100.323 94.7517 118.823 87.8517 126.843 73.8417C134.843 59.8317 129.343 44.0017 114.543 38.5017Z" fill="#9B9AD4"/>
<path opacity="0.3885" d="M114.523 38.4717C99.733 32.9717 81.233 39.8717 73.223 53.8817C65.203 67.9017 70.703 83.7217 85.503 89.2217C100.303 94.7217 118.803 87.8217 126.823 73.8117C134.823 59.8017 129.323 43.9817 114.523 38.4717Z" fill="#9A99D3"/>
<path opacity="0.3949" d="M114.503 38.4517C99.713 32.9517 81.213 39.8517 73.203 53.8617C65.183 67.8817 70.683 83.7017 85.483 89.2017C100.283 94.7017 118.783 87.8017 126.803 73.7917C134.813 59.7817 129.313 43.9617 114.503 38.4517Z" fill="#9999D2"/>
<path opacity="0.4013" d="M114.493 38.4317C99.703 32.9317 81.203 39.8317 73.193 53.8417C65.173 67.8617 70.6729 83.6817 85.4729 89.1817C100.273 94.6817 118.773 87.7817 126.793 73.7717C134.793 59.7617 129.293 43.9317 114.493 38.4317Z" fill="#9898D2"/>
<path opacity="0.4076" d="M114.473 38.4017C99.6829 32.9017 81.183 39.8017 73.173 53.8117C65.153 67.8317 70.6529 83.6517 85.4529 89.1517C100.253 94.6517 118.753 87.7517 126.773 73.7417C134.773 59.7317 129.273 43.9117 114.473 38.4017Z" fill="#9797D1"/>
<path opacity="0.414" d="M114.453 38.3817C99.663 32.8817 81.163 39.7817 73.153 53.7917C65.133 67.8117 70.633 83.6317 85.433 89.1317C100.233 94.6317 118.733 87.7317 126.753 73.7217C134.763 59.7117 129.263 43.8817 114.453 38.3817Z" fill="#9696D0"/>
<path opacity="0.4204" d="M114.443 38.3617C99.653 32.8617 81.153 39.7617 73.143 53.7717C65.123 67.7917 70.623 83.6117 85.423 89.1117C100.223 94.6117 118.723 87.7117 126.743 73.7017C134.743 59.6917 129.243 43.8617 114.443 38.3617Z" fill="#9596CF"/>
<path opacity="0.4268" d="M114.423 38.3317C99.6329 32.8317 81.133 39.7317 73.123 53.7417C65.103 67.7617 70.6029 83.5817 85.4029 89.0817C100.203 94.5817 118.703 87.6817 126.723 73.6717C134.723 59.6617 129.223 43.8417 114.423 38.3317Z" fill="#9495CF"/>
<path opacity="0.4331" d="M114.403 38.3117C99.613 32.8117 81.113 39.7117 73.103 53.7217C65.083 67.7417 70.583 83.5617 85.383 89.0617C100.183 94.5617 118.683 87.6617 126.703 73.6517C134.703 59.6417 129.203 43.8117 114.403 38.3117Z" fill="#9394CE"/>
<path opacity="0.4395" d="M114.383 38.2817C99.593 32.7817 81.093 39.6817 73.083 53.6917C65.063 67.7117 70.563 83.5317 85.363 89.0317C100.163 94.5317 118.663 87.6317 126.683 73.6217C134.693 59.6117 129.193 43.7917 114.383 38.2817Z" fill="#9293CD"/>
<path opacity="0.4459" d="M114.373 38.2617C99.583 32.7617 81.083 39.6617 73.073 53.6717C65.053 67.6917 70.553 83.5117 85.353 89.0117C100.153 94.5117 118.653 87.6117 126.673 73.6017C134.673 59.5917 129.173 43.7717 114.373 38.2617Z" fill="#9192CD"/>
<path opacity="0.4522" d="M114.353 38.2417C99.5629 32.7417 81.063 39.6417 73.053 53.6517C65.033 67.6717 70.5329 83.4917 85.3329 88.9917C100.133 94.4917 118.633 87.5917 126.653 73.5817C134.653 59.5717 129.153 43.7417 114.353 38.2417Z" fill="#9092CC"/>
<path opacity="0.4586" d="M114.333 38.2117C99.543 32.7117 81.043 39.6117 73.033 53.6217C65.013 67.6417 70.513 83.4617 85.313 88.9617C100.113 94.4617 118.613 87.5617 126.633 73.5517C134.643 59.5417 129.143 43.7217 114.333 38.2117Z" fill="#8F91CB"/>
<path opacity="0.465" d="M114.323 38.1917C99.533 32.6917 81.033 39.5917 73.023 53.6017C65.003 67.6217 70.503 83.4417 85.303 88.9417C100.103 94.4417 118.603 87.5417 126.623 73.5317C134.623 59.5217 129.123 43.6917 114.323 38.1917Z" fill="#8E90CA"/>
<path opacity="0.4713" d="M114.303 38.1717C99.513 32.6717 81.013 39.5717 73.003 53.5817C64.983 67.6017 70.4829 83.4217 85.2829 88.9217C100.083 94.4217 118.583 87.5217 126.603 73.5117C134.603 59.5017 129.103 43.6717 114.303 38.1717Z" fill="#8D8FCA"/>
<path opacity="0.4777" d="M114.283 38.1417C99.4929 32.6417 80.9929 39.5417 72.9829 53.5517C64.9629 67.5717 70.4629 83.3917 85.2629 88.8917C100.063 94.3917 118.563 87.4917 126.583 73.4817C134.593 59.4717 129.083 43.6517 114.283 38.1417Z" fill="#8C8FC9"/>
<path opacity="0.4841" d="M114.273 38.1217C99.483 32.6217 80.983 39.5217 72.973 53.5317C64.953 67.5517 70.453 83.3717 85.253 88.8717C100.053 94.3717 118.553 87.4717 126.573 73.4617C134.573 59.4517 129.073 43.6217 114.273 38.1217Z" fill="#8B8EC8"/>
<path opacity="0.4904" d="M114.253 38.0917C99.463 32.5917 80.963 39.4917 72.953 53.5017C64.933 67.5217 70.433 83.3417 85.233 88.8417C100.033 94.3417 118.533 87.4417 126.553 73.4317C134.553 59.4217 129.053 43.6017 114.253 38.0917Z" fill="#8A8DC8"/>
<path opacity="0.4968" d="M114.233 38.0717C99.4429 32.5717 80.943 39.4717 72.933 53.4817C64.913 67.5017 70.4129 83.3217 85.2129 88.8217C100.013 94.3217 118.513 87.4217 126.533 73.4117C134.533 59.4017 129.033 43.5817 114.233 38.0717Z" fill="#898CC7"/>
<path opacity="0.5032" d="M114.213 38.0517C99.423 32.5517 80.923 39.4517 72.913 53.4617C64.893 67.4817 70.393 83.3017 85.193 88.8017C99.993 94.3017 118.493 87.4017 126.513 73.3917C134.523 59.3817 129.023 43.5517 114.213 38.0517Z" fill="#888CC6"/>
<path opacity="0.5096" d="M114.203 38.0217C99.413 32.5217 80.913 39.4217 72.903 53.4317C64.883 67.4517 70.383 83.2717 85.183 88.7717C99.983 94.2717 118.483 87.3717 126.503 73.3617C134.503 59.3517 129.003 43.5317 114.203 38.0217Z" fill="#878BC5"/>
<path opacity="0.5159" d="M114.183 38.0017C99.393 32.5017 80.893 39.4017 72.883 53.4117C64.863 67.4317 70.3629 83.2517 85.1629 88.7517C99.9629 94.2517 118.463 87.3517 126.483 73.3417C134.483 59.3317 128.983 43.5017 114.183 38.0017Z" fill="#868AC5"/>
<path opacity="0.5223" d="M114.163 37.9817C99.3729 32.4817 80.873 39.3817 72.863 53.3917C64.843 67.4117 70.3429 83.2317 85.1429 88.7317C99.9429 94.2317 118.443 87.3317 126.463 73.3217C134.473 59.3117 128.973 43.4817 114.163 37.9817Z" fill="#8589C4"/>
<path opacity="0.5287" d="M114.153 37.9517C99.363 32.4517 80.863 39.3517 72.853 53.3617C64.833 67.3817 70.333 83.2017 85.133 88.7017C99.933 94.2017 118.433 87.3017 126.453 73.2917C134.453 59.2817 128.953 43.4617 114.153 37.9517Z" fill="#8489C3"/>
<path opacity="0.535" d="M114.133 37.9317C99.343 32.4317 80.843 39.3317 72.833 53.3417C64.813 67.3617 70.313 83.1817 85.113 88.6817C99.913 94.1817 118.413 87.2817 126.433 73.2717C134.433 59.2617 128.933 43.4317 114.133 37.9317Z" fill="#8388C3"/>
<path opacity="0.5414" d="M114.113 37.9017C99.323 32.4017 80.823 39.3017 72.813 53.3117C64.793 67.3317 70.2929 83.1517 85.0929 88.6517C99.8929 94.1517 118.393 87.2517 126.413 73.2417C134.423 59.2317 128.913 43.4117 114.113 37.9017Z" fill="#8287C2"/>
<path opacity="0.5478" d="M114.093 37.8817C99.3029 32.3817 80.8029 39.2817 72.7929 53.2917C64.7729 67.3117 70.2729 83.1317 85.0729 88.6317C99.8729 94.1317 118.373 87.2317 126.393 73.2217C134.403 59.2117 128.903 43.3917 114.093 37.8817Z" fill="#8186C1"/>
<path opacity="0.5541" d="M114.083 37.8617C99.293 32.3617 80.793 39.2617 72.783 53.2717C64.763 67.2917 70.263 83.1117 85.063 88.6117C99.863 94.1117 118.363 87.2117 126.383 73.2017C134.383 59.1917 128.883 43.3617 114.083 37.8617Z" fill="#8086C0"/>
<path opacity="0.5605" d="M114.063 37.8317C99.273 32.3317 80.773 39.2317 72.763 53.2417C64.743 67.2617 70.243 83.0817 85.043 88.5817C99.843 94.0817 118.343 87.1817 126.363 73.1717C134.363 59.1617 128.863 43.3417 114.063 37.8317Z" fill="#7F85C0"/>
<path opacity="0.5669" d="M114.043 37.8117C99.2529 32.3117 80.753 39.2117 72.743 53.2217C64.723 67.2417 70.2229 83.0617 85.0229 88.5617C99.8229 94.0617 118.323 87.1617 126.343 73.1517C134.353 59.1417 128.853 43.3117 114.043 37.8117Z" fill="#7E84BF"/>
<path opacity="0.5732" d="M114.033 37.7917C99.2429 32.2917 80.7429 39.1917 72.7329 53.2017C64.7129 67.2217 70.2129 83.0417 85.0129 88.5417C99.8129 94.0417 118.313 87.1417 126.333 73.1317C134.333 59.1217 128.833 43.2917 114.033 37.7917Z" fill="#7D83BE"/>
<path opacity="0.5796" d="M114.013 37.7617C99.223 32.2617 80.723 39.1617 72.713 53.1717C64.693 67.1917 70.193 83.0117 84.993 88.5117C99.793 94.0117 118.293 87.1117 126.313 73.1017C134.313 59.0917 128.813 43.2717 114.013 37.7617Z" fill="#7C82BE"/>
<path opacity="0.586" d="M113.993 37.7417C99.203 32.2417 80.703 39.1417 72.693 53.1517C64.673 67.1717 70.1729 82.9917 84.9729 88.4917C99.7729 93.9917 118.273 87.0917 126.293 73.0817C134.303 59.0717 128.803 43.2417 113.993 37.7417Z" fill="#7B82BD"/>
<path opacity="0.5924" d="M113.983 37.7117C99.1929 32.2117 80.693 39.1117 72.683 53.1217C64.663 67.1417 70.1629 82.9617 84.9629 88.4617C99.7629 93.9617 118.263 87.0617 126.283 73.0517C134.283 59.0417 128.783 43.2217 113.983 37.7117Z" fill="#7A81BC"/>
<path opacity="0.5987" d="M113.963 37.6917C99.173 32.1917 80.673 39.0917 72.663 53.1017C64.643 67.1217 70.143 82.9417 84.943 88.4417C99.743 93.9417 118.243 87.0417 126.263 73.0317C134.263 59.0217 128.763 43.2017 113.963 37.6917Z" fill="#7980BB"/>
<path opacity="0.6051" d="M113.943 37.6717C99.153 32.1717 80.653 39.0717 72.643 53.0817C64.623 67.1017 70.123 82.9217 84.923 88.4217C99.723 93.9217 118.223 87.0217 126.243 73.0117C134.243 59.0017 128.743 43.1717 113.943 37.6717Z" fill="#787FBB"/>
<path opacity="0.6115" d="M113.923 37.6417C99.1329 32.1417 80.633 39.0417 72.623 53.0517C64.603 67.0717 70.1029 82.8917 84.9029 88.3917C99.7029 93.8917 118.203 86.9917 126.223 72.9817C134.233 58.9717 128.733 43.1517 113.923 37.6417Z" fill="#777FBA"/>
<path opacity="0.6178" d="M113.913 37.6217C99.1229 32.1217 80.623 39.0217 72.613 53.0317C64.593 67.0517 70.0929 82.8717 84.8929 88.3717C99.6929 93.8717 118.193 86.9717 126.213 72.9617C134.213 58.9517 128.713 43.1317 113.913 37.6217Z" fill="#767EB9"/>
<path opacity="0.6242" d="M113.893 37.6017C99.103 32.1017 80.603 39.0017 72.593 53.0117C64.573 67.0317 70.073 82.8517 84.873 88.3517C99.673 93.8517 118.173 86.9517 126.193 72.9417C134.193 58.9317 128.693 43.1017 113.893 37.6017Z" fill="#757DB8"/>
<path opacity="0.6306" d="M113.873 37.5717C99.083 32.0717 80.583 38.9717 72.573 52.9817C64.553 67.0017 70.053 82.8217 84.853 88.3217C99.653 93.8217 118.153 86.9217 126.173 72.9117C134.183 58.9017 128.683 43.0817 113.873 37.5717Z" fill="#747CB8"/>
<path opacity="0.6369" d="M113.863 37.5517C99.073 32.0517 80.573 38.9517 72.563 52.9617C64.543 66.9817 70.0429 82.8017 84.8429 88.3017C99.6429 93.8017 118.143 86.9017 126.163 72.8917C134.163 58.8817 128.663 43.0517 113.863 37.5517Z" fill="#737CB7"/>
<path opacity="0.6433" d="M113.843 37.5217C99.0529 32.0217 80.5529 38.9217 72.5429 52.9317C64.5229 66.9517 70.0229 82.7717 84.8229 88.2717C99.6229 93.7717 118.123 86.8717 126.143 72.8617C134.143 58.8517 128.643 43.0317 113.843 37.5217Z" fill="#727BB6"/>
<path opacity="0.6497" d="M113.823 37.5017C99.033 32.0017 80.533 38.9017 72.523 52.9117C64.503 66.9317 70.003 82.7517 84.803 88.2517C99.603 93.7517 118.103 86.8517 126.123 72.8417C134.133 58.8317 128.623 43.0117 113.823 37.5017Z" fill="#717AB6"/>
<path opacity="0.6561" d="M113.813 37.4817C99.023 31.9817 80.523 38.8817 72.513 52.8917C64.493 66.9117 69.993 82.7317 84.793 88.2317C99.593 93.7317 118.093 86.8317 126.113 72.8217C134.113 58.8117 128.613 42.9817 113.813 37.4817Z" fill="#7079B5"/>
<path opacity="0.6624" d="M113.793 37.4517C99.0029 31.9517 80.503 38.8517 72.493 52.8617C64.473 66.8817 69.9729 82.7017 84.7729 88.2017C99.5729 93.7017 118.073 86.8017 126.093 72.7917C134.093 58.7817 128.593 42.9617 113.793 37.4517Z" fill="#6F79B4"/>
<path opacity="0.6688" d="M113.773 37.4317C98.983 31.9317 80.483 38.8317 72.473 52.8417C64.453 66.8617 69.953 82.6817 84.753 88.1817C99.553 93.6817 118.053 86.7817 126.073 72.7717C134.073 58.7617 128.573 42.9417 113.773 37.4317Z" fill="#6E78B3"/>
<path opacity="0.6752" d="M113.753 37.4117C98.963 31.9117 80.463 38.8117 72.453 52.8217C64.433 66.8417 69.933 82.6617 84.733 88.1617C99.533 93.6617 118.033 86.7617 126.053 72.7517C134.063 58.7417 128.563 42.9117 113.753 37.4117Z" fill="#6D77B3"/>
<path opacity="0.6815" d="M113.743 37.3817C98.953 31.8817 80.453 38.7817 72.443 52.7917C64.423 66.8117 69.9229 82.6317 84.7229 88.1317C99.5229 93.6317 118.023 86.7317 126.043 72.7217C134.043 58.7117 128.543 42.8917 113.743 37.3817Z" fill="#6C76B2"/>
<path opacity="0.6879" d="M113.723 37.3617C98.9329 31.8617 80.433 38.7617 72.423 52.7717C64.403 66.7917 69.9029 82.6117 84.7029 88.1117C99.5029 93.6117 118.003 86.7117 126.023 72.7017C134.023 58.6917 128.523 42.8617 113.723 37.3617Z" fill="#6B75B1"/>
<path opacity="0.6943" d="M113.703 37.3417C98.913 31.8417 80.413 38.7417 72.403 52.7517C64.383 66.7717 69.883 82.5917 84.683 88.0917C99.483 93.5917 117.983 86.6917 126.003 72.6817C134.013 58.6717 128.513 42.8417 113.703 37.3417Z" fill="#6A75B1"/>
<path opacity="0.7006" d="M113.693 37.3117C98.903 31.8117 80.403 38.7117 72.393 52.7217C64.373 66.7417 69.873 82.5617 84.673 88.0617C99.473 93.5617 117.973 86.6617 125.993 72.6517C133.993 58.6417 128.493 42.8217 113.693 37.3117Z" fill="#6974B0"/>
<path opacity="0.707" d="M113.673 37.2917C98.8829 31.7917 80.383 38.6917 72.373 52.7017C64.353 66.7217 69.8529 82.5417 84.6529 88.0417C99.4529 93.5417 117.953 86.6417 125.973 72.6317C133.973 58.6217 128.473 42.7917 113.673 37.2917Z" fill="#6873AF"/>
<path opacity="0.7134" d="M113.653 37.2617C98.863 31.7617 80.363 38.6617 72.353 52.6717C64.333 66.6917 69.833 82.5117 84.633 88.0117C99.433 93.5117 117.933 86.6117 125.953 72.6017C133.963 58.5917 128.453 42.7717 113.653 37.2617Z" fill="#6772AE"/>
<path opacity="0.7197" d="M113.643 37.2417C98.853 31.7417 80.353 38.6417 72.343 52.6517C64.323 66.6717 69.823 82.4917 84.623 87.9917C99.423 93.4917 117.923 86.5917 125.943 72.5817C133.943 58.5717 128.443 42.7517 113.643 37.2417Z" fill="#6672AE"/>
<path opacity="0.7261" d="M113.623 37.2217C98.833 31.7217 80.333 38.6217 72.323 52.6317C64.303 66.6517 69.803 82.4717 84.603 87.9717C99.403 93.4717 117.903 86.5717 125.923 72.5617C133.923 58.5517 128.423 42.7217 113.623 37.2217Z" fill="#6571AD"/>
<path opacity="0.7325" d="M113.603 37.1917C98.8129 31.6917 80.313 38.5917 72.303 52.6017C64.283 66.6217 69.7829 82.4417 84.5829 87.9417C99.3829 93.4417 117.883 86.5417 125.903 72.5317C133.903 58.5217 128.403 42.7017 113.603 37.1917Z" fill="#6470AC"/>
<path opacity="0.7389" d="M113.583 37.1717C98.793 31.6717 80.293 38.5717 72.283 52.5817C64.263 66.6017 69.763 82.4217 84.563 87.9217C99.363 93.4217 117.863 86.5217 125.883 72.5117C133.893 58.5017 128.393 42.6717 113.583 37.1717Z" fill="#636FAC"/>
<path opacity="0.7452" d="M113.573 37.1517C98.783 31.6517 80.283 38.5517 72.273 52.5617C64.253 66.5817 69.753 82.4017 84.553 87.9017C99.353 93.4017 117.853 86.5017 125.873 72.4917C133.873 58.4817 128.373 42.6517 113.573 37.1517Z" fill="#626FAB"/>
<path opacity="0.7516" d="M113.553 37.1217C98.763 31.6217 80.263 38.5217 72.253 52.5317C64.233 66.5517 69.7329 82.3717 84.5329 87.8717C99.3329 93.3717 117.833 86.4717 125.853 72.4617C133.853 58.4517 128.353 42.6317 113.553 37.1217Z" fill="#616EAA"/>
<path opacity="0.758" d="M113.533 37.1017C98.7429 31.6017 80.2429 38.5017 72.2329 52.5117C64.2129 66.5317 69.7129 82.3517 84.5129 87.8517C99.3129 93.3517 117.813 86.4517 125.833 72.4417C133.843 58.4317 128.343 42.6017 113.533 37.1017Z" fill="#606DA9"/>
<path opacity="0.7643" d="M113.523 37.0717C98.733 31.5717 80.233 38.4717 72.223 52.4817C64.203 66.5017 69.703 82.3217 84.503 87.8217C99.303 93.3217 117.803 86.4217 125.823 72.4117C133.823 58.4017 128.323 42.5817 113.523 37.0717Z" fill="#5F6CA9"/>
<path opacity="0.7707" d="M113.503 37.0517C98.713 31.5517 80.213 38.4517 72.203 52.4617C64.183 66.4817 69.683 82.3017 84.483 87.8017C99.283 93.3017 117.783 86.4017 125.803 72.3917C133.803 58.3817 128.303 42.5617 113.503 37.0517Z" fill="#5E6CA8"/>
<path opacity="0.7771" d="M113.483 37.0317C98.6929 31.5317 80.193 38.4317 72.183 52.4417C64.163 66.4617 69.6629 82.2817 84.4629 87.7817C99.2629 93.2817 117.763 86.3817 125.783 72.3717C133.783 58.3617 128.283 42.5317 113.483 37.0317Z" fill="#5D6BA7"/>
<path opacity="0.7834" d="M113.463 37.0017C98.673 31.5017 80.173 38.4017 72.163 52.4117C64.143 66.4317 69.643 82.2517 84.443 87.7517C99.243 93.2517 117.743 86.3517 125.763 72.3417C133.773 58.3317 128.273 42.5117 113.463 37.0017Z" fill="#5C6AA6"/>
<path opacity="0.7898" d="M113.453 36.9817C98.663 31.4817 80.163 38.3817 72.153 52.3917C64.133 66.4117 69.633 82.2317 84.433 87.7317C99.233 93.2317 117.733 86.3317 125.753 72.3217C133.753 58.3117 128.253 42.4817 113.453 36.9817Z" fill="#5B69A6"/>
<path opacity="0.7962" d="M113.433 36.9617C98.643 31.4617 80.143 38.3617 72.133 52.3717C64.113 66.3917 69.6129 82.2117 84.4129 87.7117C99.2129 93.2117 117.713 86.3117 125.733 72.3017C133.733 58.2917 128.233 42.4617 113.433 36.9617Z" fill="#5A68A5"/>
<path opacity="0.8025" d="M113.413 36.9317C98.6229 31.4317 80.123 38.3317 72.113 52.3417C64.093 66.3617 69.5929 82.1817 84.3929 87.6817C99.1929 93.1817 117.693 86.2817 125.713 72.2717C133.723 58.2617 128.223 42.4417 113.413 36.9317Z" fill="#5968A4"/>
<path opacity="0.8089" d="M113.403 36.9117C98.613 31.4117 80.113 38.3117 72.103 52.3217C64.083 66.3417 69.583 82.1617 84.383 87.6617C99.183 93.1617 117.683 86.2617 125.703 72.2517C133.703 58.2417 128.203 42.4117 113.403 36.9117Z" fill="#5867A4"/>
<path opacity="0.8153" d="M113.383 36.8817C98.593 31.3817 80.093 38.2817 72.083 52.2917C64.063 66.3117 69.563 82.1317 84.363 87.6317C99.163 93.1317 117.663 86.2317 125.683 72.2217C133.683 58.2117 128.183 42.3917 113.383 36.8817Z" fill="#5766A3"/>
<path opacity="0.8217" d="M113.363 36.8617C98.573 31.3617 80.073 38.2617 72.063 52.2717C64.043 66.2917 69.5429 82.1117 84.3429 87.6117C99.1429 93.1117 117.643 86.2117 125.663 72.2017C133.673 58.1917 128.173 42.3717 113.363 36.8617Z" fill="#5665A2"/>
<path opacity="0.828" d="M113.353 36.8417C98.5629 31.3417 80.063 38.2417 72.053 52.2517C64.033 66.2717 69.5329 82.0917 84.3329 87.5917C99.1329 93.0917 117.633 86.1917 125.653 72.1817C133.653 58.1717 128.153 42.3417 113.353 36.8417Z" fill="#5565A1"/>
<path opacity="0.8344" d="M113.333 36.8117C98.543 31.3117 80.043 38.2117 72.033 52.2217C64.013 66.2417 69.513 82.0617 84.313 87.5617C99.113 93.0617 117.613 86.1617 125.633 72.1517C133.633 58.1417 128.133 42.3217 113.333 36.8117Z" fill="#5464A1"/>
<path opacity="0.8408" d="M113.313 36.7917C98.523 31.2917 80.023 38.1917 72.013 52.2017C63.993 66.2217 69.493 82.0417 84.293 87.5417C99.093 93.0417 117.593 86.1417 125.613 72.1317C133.613 58.1217 128.113 42.2917 113.313 36.7917Z" fill="#5363A0"/>
<path opacity="0.8471" d="M113.293 36.7717C98.5029 31.2717 80.003 38.1717 71.993 52.1817C63.973 66.2017 69.4729 82.0217 84.2729 87.5217C99.0729 93.0217 117.573 86.1217 125.593 72.1117C133.603 58.1017 128.103 42.2717 113.293 36.7717Z" fill="#52629F"/>
<path opacity="0.8535" d="M113.283 36.7417C98.4929 31.2417 79.9929 38.1417 71.9829 52.1517C63.9629 66.1717 69.4629 81.9917 84.2629 87.4917C99.0629 92.9917 117.563 86.0917 125.583 72.0817C133.583 58.0717 128.083 42.2517 113.283 36.7417Z" fill="#51629F"/>
<path opacity="0.8599" d="M113.263 36.7217C98.473 31.2217 79.973 38.1217 71.963 52.1317C63.943 66.1517 69.443 81.9717 84.243 87.4717C99.043 92.9717 117.543 86.0717 125.563 72.0617C133.563 58.0517 128.063 42.2217 113.263 36.7217Z" fill="#50619E"/>
<path opacity="0.8662" d="M113.243 36.6917C98.453 31.1917 79.953 38.0917 71.943 52.1017C63.923 66.1217 69.4229 81.9417 84.2229 87.4417C99.0229 92.9417 117.523 86.0417 125.543 72.0317C133.553 58.0217 128.053 42.2017 113.243 36.6917Z" fill="#4F609D"/>
<path opacity="0.8726" d="M113.233 36.6717C98.4429 31.1717 79.943 38.0717 71.933 52.0817C63.913 66.1017 69.4129 81.9217 84.2129 87.4217C99.0129 92.9217 117.513 86.0217 125.533 72.0117C133.533 58.0017 128.033 42.1817 113.233 36.6717Z" fill="#4E5F9C"/>
<path opacity="0.879" d="M113.213 36.6517C98.423 31.1517 79.923 38.0517 71.913 52.0617C63.893 66.0817 69.393 81.9017 84.193 87.4017C98.993 92.9017 117.493 86.0017 125.513 71.9917C133.513 57.9817 128.013 42.1517 113.213 36.6517Z" fill="#4D5F9C"/>
<path opacity="0.8854" d="M113.193 36.6217C98.403 31.1217 79.903 38.0217 71.893 52.0317C63.873 66.0517 69.373 81.8717 84.173 87.3717C98.973 92.8717 117.473 85.9717 125.493 71.9617C133.503 57.9517 127.993 42.1317 113.193 36.6217Z" fill="#4C5E9B"/>
<path opacity="0.8917" d="M113.183 36.6017C98.393 31.1017 79.893 38.0017 71.883 52.0117C63.863 66.0317 69.3629 81.8517 84.1629 87.3517C98.9629 92.8517 117.463 85.9517 125.483 71.9417C133.483 57.9317 127.983 42.1017 113.183 36.6017Z" fill="#4B5D9A"/>
<path opacity="0.8981" d="M113.163 36.5817C98.3729 31.0817 79.873 37.9817 71.863 51.9917C63.843 66.0117 69.3429 81.8317 84.1429 87.3317C98.9429 92.8317 117.443 85.9317 125.463 71.9217C133.463 57.9117 127.963 42.0817 113.163 36.5817Z" fill="#4A5C9A"/>
<path opacity="0.9045" d="M113.143 36.5517C98.353 31.0517 79.853 37.9517 71.843 51.9617C63.823 65.9817 69.323 81.8017 84.123 87.3017C98.923 92.8017 117.423 85.9017 125.443 71.8917C133.443 57.8817 127.943 42.0617 113.143 36.5517Z" fill="#495B99"/>
<path opacity="0.9108" d="M113.123 36.5317C98.333 31.0317 79.833 37.9317 71.823 51.9417C63.803 65.9617 69.303 81.7817 84.103 87.2817C98.903 92.7817 117.403 85.8817 125.423 71.8717C133.433 57.8617 127.933 42.0317 113.123 36.5317Z" fill="#485B98"/>
<path opacity="0.9172" d="M113.113 36.5017C98.323 31.0017 79.823 37.9017 71.813 51.9117C63.793 65.9317 69.2929 81.7517 84.0929 87.2517C98.8929 92.7517 117.393 85.8517 125.413 71.8417C133.413 57.8317 127.913 42.0117 113.113 36.5017Z" fill="#475A97"/>
<path opacity="0.9236" d="M113.093 36.4817C98.3029 30.9817 79.8029 37.8817 71.7929 51.8917C63.7729 65.9117 69.2729 81.7317 84.0729 87.2317C98.8729 92.7317 117.373 85.8317 125.393 71.8217C133.393 57.8117 127.893 41.9917 113.093 36.4817Z" fill="#465997"/>
<path opacity="0.9299" d="M113.073 36.4617C98.283 30.9617 79.783 37.8617 71.773 51.8717C63.753 65.8917 69.253 81.7117 84.053 87.2117C98.853 92.7117 117.353 85.8117 125.373 71.8017C133.383 57.7917 127.883 41.9617 113.073 36.4617Z" fill="#455896"/>
<path opacity="0.9363" d="M113.063 36.4317C98.273 30.9317 79.773 37.8317 71.763 51.8417C63.743 65.8617 69.243 81.6817 84.043 87.1817C98.843 92.6817 117.343 85.7817 125.363 71.7717C133.363 57.7617 127.863 41.9417 113.063 36.4317Z" fill="#445895"/>
<path opacity="0.9427" d="M113.043 36.4117C98.2529 30.9117 79.753 37.8117 71.743 51.8217C63.723 65.8417 69.2229 81.6617 84.0229 87.1617C98.8229 92.6617 117.323 85.7617 125.343 71.7517C133.343 57.7417 127.843 41.9117 113.043 36.4117Z" fill="#435794"/>
<path opacity="0.949" d="M113.023 36.3917C98.233 30.8917 79.733 37.7917 71.723 51.8017C63.703 65.8217 69.203 81.6417 84.003 87.1417C98.803 92.6417 117.303 85.7417 125.323 71.7317C133.333 57.7217 127.823 41.8917 113.023 36.3917Z" fill="#425694"/>
<path opacity="0.9554" d="M113.003 36.3617C98.213 30.8617 79.713 37.7617 71.703 51.7717C63.683 65.7917 69.183 81.6117 83.983 87.1117C98.783 92.6117 117.283 85.7117 125.303 71.7017C133.313 57.6917 127.813 41.8717 113.003 36.3617Z" fill="#415593"/>
<path opacity="0.9618" d="M112.993 36.3417C98.203 30.8417 79.703 37.7417 71.693 51.7517C63.673 65.7717 69.1729 81.5917 83.9729 87.0917C98.7729 92.5917 117.273 85.6917 125.293 71.6817C133.293 57.6717 127.793 41.8417 112.993 36.3417Z" fill="#405592"/>
<path opacity="0.9682" d="M112.973 36.3117C98.1829 30.8117 79.683 37.7117 71.673 51.7217C63.653 65.7417 69.1529 81.5617 83.9529 87.0617C98.7529 92.5617 117.253 85.6617 125.273 71.6517C133.273 57.6417 127.773 41.8217 112.973 36.3117Z" fill="#3F5492"/>
<path opacity="0.9745" d="M112.953 36.2917C98.163 30.7917 79.663 37.6917 71.653 51.7017C63.633 65.7217 69.133 81.5417 83.933 87.0417C98.733 92.5417 117.233 85.6417 125.253 71.6317C133.263 57.6217 127.763 41.8017 112.953 36.2917Z" fill="#3E5391"/>
<path opacity="0.9809" d="M112.943 36.2717C98.153 30.7717 79.653 37.6717 71.643 51.6817C63.623 65.7017 69.123 81.5217 83.923 87.0217C98.723 92.5217 117.223 85.6217 125.243 71.6117C133.243 57.6017 127.743 41.7717 112.943 36.2717Z" fill="#3D5290"/>
<path opacity="0.9873" d="M112.923 36.2417C98.1329 30.7417 79.633 37.6417 71.623 51.6517C63.603 65.6717 69.1029 81.4917 83.9029 86.9917C98.7029 92.4917 117.203 85.5917 125.223 71.5817C133.223 57.5717 127.723 41.7517 112.923 36.2417Z" fill="#3C528F"/>
<path opacity="0.9936" d="M112.903 36.2217C98.113 30.7217 79.613 37.6217 71.603 51.6317C63.583 65.6517 69.083 81.4717 83.883 86.9717C98.683 92.4717 117.183 85.5717 125.203 71.5617C133.213 57.5517 127.713 41.7217 112.903 36.2217Z" fill="#3B518F"/>
<path d="M112.893 36.2017C98.103 30.7017 79.603 37.6017 71.593 51.6117C63.573 65.6317 69.073 81.4517 83.873 86.9517C98.673 92.4517 117.173 85.5517 125.193 71.5417C133.193 57.5317 127.693 41.7017 112.893 36.2017Z" fill="#3A508E"/>
</g>
<path d="M97.553 46.1717L98.4431 48.1817C98.3431 48.0417 98.203 47.9517 98.053 47.8917C97.863 47.8217 97.643 47.8117 97.433 47.8517L96.543 45.8417C96.753 45.8017 96.973 45.8117 97.163 45.8817C97.313 45.9417 97.453 46.0417 97.553 46.1717Z" fill="#70166B"/>
<path d="M96.543 45.8517L97.433 47.8617C97.383 47.8717 97.323 47.8917 97.273 47.9017L96.3831 45.8917C96.4431 45.8717 96.493 45.8617 96.543 45.8517Z" fill="#74176F"/>
<path d="M96.393 45.8917L97.283 47.9017C97.243 47.9117 97.203 47.9317 97.163 47.9517L96.273 45.9417C96.303 45.9217 96.343 45.9117 96.393 45.8917Z" fill="#781873"/>
<path d="M96.263 45.9417L97.153 47.9517C97.113 47.9717 97.083 47.9917 97.043 48.0117L96.153 46.0017C96.193 45.9817 96.223 45.9617 96.263 45.9417Z" fill="#7D1977"/>
<path d="M96.153 46.0017L97.043 48.0117C97.013 48.0317 96.9731 48.0517 96.9431 48.0817L96.053 46.0717C96.093 46.0417 96.123 46.0217 96.153 46.0017Z" fill="#811A7B"/>
<path d="M96.053 46.0717L96.9431 48.0817C96.9131 48.1017 96.883 48.1317 96.853 48.1617L95.963 46.1517C95.993 46.1117 96.023 46.0917 96.053 46.0717Z" fill="#851B7F"/>
<path d="M95.963 46.1417L96.853 48.1517C96.823 48.1817 96.793 48.2117 96.763 48.2417L95.873 46.2317C95.903 46.2017 95.933 46.1717 95.963 46.1417Z" fill="#8A1C83"/>
<path d="M95.873 46.2417L96.763 48.2517C96.723 48.2917 96.693 48.3417 96.663 48.3817L95.773 46.3717C95.803 46.3217 95.833 46.2817 95.873 46.2417Z" fill="#8E1C87"/>
<path d="M95.773 46.3717L96.663 48.3817C96.653 48.3917 96.6431 48.4117 96.6331 48.4217L95.743 46.4117C95.753 46.4017 95.763 46.3817 95.773 46.3717Z" fill="#921D8B"/>
<path d="M126.083 47.0217L126.973 49.0317C124.493 43.3917 119.673 38.7317 112.933 36.2317C107.293 34.1317 101.113 33.8417 95.193 35.0517L94.303 33.0417C100.233 31.8317 106.413 32.1217 112.043 34.2217C118.783 36.7217 123.593 41.3717 126.083 47.0217Z" fill="#616B85"/>
<path d="M94.293 33.0317L95.183 35.0417C93.623 35.3617 92.0829 35.7817 90.5729 36.3117L89.683 34.3017C91.193 33.7817 92.733 33.3517 94.293 33.0317Z" fill="#656F8A"/>
<path d="M89.683 34.3017L90.5729 36.3117C89.3229 36.7417 88.0929 37.2417 86.8929 37.8117L86.003 35.8017C87.203 35.2317 88.433 34.7317 89.683 34.3017Z" fill="#69738F"/>
<path d="M86.003 35.8017L86.8929 37.8117C85.8029 38.3317 84.733 38.9017 83.693 39.5217L82.803 37.5117C83.843 36.8817 84.913 36.3117 86.003 35.8017Z" fill="#6C7794"/>
<path d="M82.803 37.5017L83.693 39.5117C82.683 40.1117 81.7129 40.7617 80.7629 41.4617L79.873 39.4517C80.813 38.7517 81.793 38.1017 82.803 37.5017Z" fill="#707B99"/>
<path d="M79.873 39.4517L80.7629 41.4617C79.8029 42.1717 78.883 42.9317 77.993 43.7317L77.103 41.7217C77.993 40.9217 78.913 40.1617 79.873 39.4517Z" fill="#747F9E"/>
<path d="M77.103 41.7217L77.993 43.7317C77.033 44.6117 76.1229 45.5317 75.2629 46.5217L74.373 44.5117C75.233 43.5317 76.143 42.6017 77.103 41.7217Z" fill="#7883A3"/>
<path d="M74.383 44.5117L75.2729 46.5217C74.2229 47.7317 73.2629 49.0117 72.3929 50.3617L71.503 48.3517C72.363 47.0017 73.333 45.7117 74.383 44.5117Z" fill="#7B87A8"/>
<path d="M71.503 48.3517L72.3929 50.3617C72.1229 50.7817 71.873 51.2017 71.623 51.6317C68.713 56.7117 67.5829 62.0417 68.0329 67.0217L67.1429 65.0117C66.6929 60.0317 67.8229 54.7117 70.7329 49.6217C70.9829 49.1917 71.233 48.7717 71.503 48.3517Z" fill="#7F8BAD"/>
<path d="M67.1429 65.0117L68.033 67.0217C68.163 68.4617 68.423 69.8717 68.813 71.2417L67.923 69.2317C67.533 67.8617 67.2729 66.4517 67.1429 65.0117Z" fill="#7B87A8"/>
<path d="M67.923 69.2317L68.813 71.2417C69.093 72.2417 69.453 73.2317 69.873 74.1817L68.983 72.1717C68.563 71.2217 68.213 70.2317 67.923 69.2317Z" fill="#7883A3"/>
<path d="M67.923 69.2317L68.813 71.2417C69.093 72.2417 69.453 73.2317 69.873 74.1817L68.983 72.1717C68.563 71.2217 68.213 70.2317 67.923 69.2317Z" fill="#7883A3"/>
<path d="M95.743 46.4117L96.633 48.4317L84.8329 69.0617L83.943 67.0417L95.743 46.4117Z" fill="#9D1F95"/>
<path d="M83.943 67.0417L84.833 69.0517C84.733 69.2317 84.693 69.4117 84.713 69.5817L83.823 67.5717C83.813 67.4017 83.843 67.2217 83.943 67.0417Z" fill="#921D8B"/>
<path d="M83.823 67.5717L84.713 69.5817C84.713 69.6317 84.723 69.6817 84.743 69.7217L83.853 67.7117C83.833 67.6717 83.833 67.6217 83.823 67.5717Z" fill="#8E1C87"/>
<path d="M83.853 67.7117L84.743 69.7217C84.753 69.7517 84.763 69.7917 84.783 69.8217L83.893 67.8117C83.873 67.7817 83.863 67.7517 83.853 67.7117Z" fill="#8A1C83"/>
<path d="M84.893 68.3117L85.783 70.3217C85.583 70.3517 85.4131 70.3317 85.2531 70.2717C85.0331 70.1917 84.863 70.0317 84.773 69.8317L83.8831 67.8217C83.9731 68.0217 84.143 68.1817 84.363 68.2617C84.523 68.3117 84.703 68.3417 84.893 68.3117Z" fill="#767385"/>
<path d="M110.523 63.5117L111.413 65.5217L98.443 48.1917L97.553 46.1717L110.523 63.5117Z" fill="#6C1667"/>
<path d="M110.613 63.6617L111.503 65.6717C111.483 65.6217 111.453 65.5717 111.413 65.5217L110.523 63.5117C110.563 63.5617 110.593 63.6117 110.613 63.6617Z" fill="#70166B"/>
<path d="M109.663 65.0217L110.553 67.0317L85.783 70.3217L84.8929 68.3117L109.663 65.0217Z" fill="#7C798C"/>
<path d="M110.613 63.6617L111.503 65.6717C111.513 65.7017 111.533 65.7417 111.543 65.7717L110.653 63.7617C110.643 63.7317 110.633 63.6917 110.613 63.6617Z" fill="#918DA3"/>
<path d="M110.653 63.7617L111.543 65.7717C111.553 65.8217 111.563 65.8617 111.573 65.9117L110.683 63.9017C110.673 63.8517 110.663 63.8117 110.653 63.7617Z" fill="#9592A8"/>
<path d="M110.673 63.9017L111.563 65.9117C111.583 66.1017 111.523 66.3017 111.413 66.4817L110.523 64.4717C110.643 64.3017 110.693 64.1017 110.673 63.9017Z" fill="#9A96AD"/>
<path d="M110.523 64.4717L111.413 66.4817C111.383 66.5317 111.353 66.5717 111.313 66.6217L110.423 64.6117C110.463 64.5717 110.493 64.5217 110.523 64.4717Z" fill="#9592A8"/>
<path d="M110.423 64.6117L111.313 66.6217C111.283 66.6517 111.253 66.6917 111.223 66.7217L110.333 64.7117C110.363 64.6717 110.393 64.6417 110.423 64.6117Z" fill="#918DA3"/>
<path d="M110.333 64.7117L111.223 66.7217C111.193 66.7517 111.163 66.7717 111.123 66.8017L110.233 64.7917C110.263 64.7617 110.303 64.7317 110.333 64.7117Z" fill="#8C899E"/>
<path d="M110.233 64.7817L111.123 66.7917C111.093 66.8117 111.053 66.8417 111.023 66.8617L110.133 64.8517C110.173 64.8317 110.203 64.8117 110.233 64.7817Z" fill="#888599"/>
<path d="M110.133 64.8517L111.023 66.8617C110.993 66.8817 110.953 66.9017 110.913 66.9217L110.023 64.9117C110.063 64.8917 110.103 64.8717 110.133 64.8517Z" fill="#838094"/>
<path d="M110.023 64.9117L110.913 66.9217C110.873 66.9417 110.833 66.9617 110.793 66.9717L109.903 64.9617C109.943 64.9517 109.983 64.9317 110.023 64.9117Z" fill="#7F7C8F"/>
<path d="M109.903 64.9617L110.793 66.9717C110.743 66.9917 110.683 67.0017 110.633 67.0117L109.743 65.0017C109.793 64.9917 109.843 64.9817 109.903 64.9617Z" fill="#7A778A"/>
<path d="M109.733 65.0017L110.623 67.0117C110.603 67.0217 110.573 67.0217 110.553 67.0217L109.663 65.0117C109.683 65.0117 109.713 65.0117 109.733 65.0017Z" fill="#767385"/>
<path d="M126.363 69.3317C126.563 68.9017 126.753 68.4717 126.923 68.0417C126.993 67.8717 127.063 67.7017 127.133 67.5217C127.353 66.9417 127.563 66.3717 127.743 65.7917C127.743 65.7917 127.743 65.7817 127.753 65.7817C127.933 65.2017 128.083 64.6117 128.223 64.0317C128.263 63.8617 128.303 63.6817 128.333 63.5117C128.423 63.0817 128.503 62.6517 128.573 62.2217C128.603 62.0517 128.633 61.8817 128.653 61.7017C128.733 61.1317 128.803 60.5617 128.833 59.9917C128.833 59.9817 128.833 59.9717 128.833 59.9617C128.873 59.3817 128.883 58.8117 128.883 58.2417C128.883 58.0717 128.873 57.9017 128.873 57.7417C128.863 57.3217 128.843 56.9017 128.813 56.4917C128.803 56.3917 128.803 56.2817 128.793 56.1817C128.783 56.1217 128.773 56.0717 128.773 56.0117C128.713 55.3817 128.633 54.7617 128.523 54.1517C128.503 54.0417 128.473 53.9317 128.453 53.8217C128.343 53.2817 128.223 52.7417 128.073 52.2117C128.053 52.1317 128.043 52.0517 128.013 51.9717C127.993 51.9217 127.973 51.8717 127.963 51.8117C127.873 51.4917 127.763 51.1817 127.663 50.8617C127.613 50.7117 127.563 50.5517 127.513 50.4017C127.343 49.9417 127.163 49.4817 126.963 49.0317C126.963 49.0317 126.963 49.0317 126.963 49.0217L126.073 47.0117C126.273 47.4617 126.453 47.9217 126.623 48.3817C126.683 48.5317 126.723 48.6917 126.773 48.8417C126.883 49.1517 126.983 49.4717 127.073 49.7917C127.113 49.9217 127.143 50.0617 127.183 50.1917C127.323 50.7217 127.453 51.2617 127.563 51.8017C127.583 51.9117 127.613 52.0217 127.633 52.1317C127.743 52.7417 127.823 53.3717 127.883 53.9917C127.903 54.1517 127.913 54.3117 127.923 54.4717C127.953 54.8917 127.973 55.3017 127.983 55.7217C127.983 55.8917 127.993 56.0617 127.993 56.2217C127.993 56.7917 127.983 57.3617 127.943 57.9417C127.943 57.9517 127.943 57.9617 127.943 57.9717C127.903 58.5417 127.833 59.1117 127.763 59.6717C127.743 59.8417 127.713 60.0117 127.683 60.1917C127.613 60.6217 127.533 61.0517 127.443 61.4817C127.403 61.6517 127.373 61.8317 127.333 62.0017C127.193 62.5817 127.043 63.1717 126.863 63.7517C126.863 63.7517 126.863 63.7617 126.853 63.7617C126.673 64.3417 126.463 64.9117 126.243 65.4917C126.173 65.6617 126.103 65.8317 126.033 66.0117C125.863 66.4417 125.673 66.8717 125.473 67.3017C125.393 67.4717 125.313 67.6417 125.233 67.8217C124.953 68.4017 124.653 68.9717 124.323 69.5517C124.073 69.9817 123.813 70.4117 123.553 70.8317C123.163 71.4317 122.753 72.0217 122.333 72.5917C122.243 72.7117 122.153 72.8417 122.053 72.9617C121.633 73.5217 121.193 74.0617 120.733 74.5917C120.643 74.7017 120.543 74.8017 120.443 74.9117C120.143 75.2417 119.843 75.5717 119.533 75.8917C119.403 76.0317 119.263 76.1717 119.133 76.3017C118.823 76.6117 118.513 76.9117 118.193 77.2117C118.073 77.3217 117.953 77.4417 117.833 77.5517C117.453 77.8917 117.073 78.2217 116.683 78.5417C116.643 78.5717 116.613 78.6017 116.573 78.6317C116.143 78.9817 115.703 79.3217 115.263 79.6517C115.123 79.7617 114.973 79.8617 114.833 79.9617C114.533 80.1817 114.233 80.3917 113.923 80.6017C113.753 80.7217 113.573 80.8317 113.403 80.9417C113.113 81.1317 112.823 81.3117 112.533 81.4917C112.353 81.6017 112.173 81.7117 111.993 81.8117C111.673 82.0017 111.343 82.1817 111.013 82.3617C110.843 82.4517 110.683 82.5417 110.513 82.6317C110.103 82.8517 109.683 83.0517 109.273 83.2517C109.183 83.2917 109.103 83.3417 109.023 83.3817C108.483 83.6317 107.943 83.8717 107.393 84.1017C107.233 84.1617 107.083 84.2217 106.923 84.2917C106.513 84.4517 106.103 84.6117 105.683 84.7617C105.523 84.8217 105.353 84.8817 105.193 84.9317C104.533 85.1517 103.873 85.3617 103.203 85.5517C103.093 85.5817 102.983 85.6117 102.873 85.6417C102.253 85.8117 101.633 85.9517 101.003 86.0917C100.893 86.1117 100.783 86.1417 100.663 86.1617C100.013 86.2917 99.363 86.4017 98.713 86.5017C98.563 86.5217 98.4129 86.5417 98.2729 86.5617C97.6929 86.6417 97.1029 86.7017 96.5229 86.7517C96.4229 86.7617 96.313 86.7717 96.213 86.7817C95.553 86.8317 94.893 86.8517 94.243 86.8617C94.093 86.8617 93.933 86.8617 93.783 86.8617C93.183 86.8617 92.583 86.8417 91.983 86.8117C91.903 86.8117 91.823 86.8017 91.743 86.8017C91.083 86.7617 90.433 86.6917 89.783 86.6117C89.623 86.5917 89.473 86.5717 89.313 86.5517C88.693 86.4617 88.073 86.3617 87.463 86.2417C87.413 86.2317 87.3729 86.2217 87.3229 86.2117C86.6729 86.0817 86.033 85.9117 85.403 85.7417C85.243 85.7017 85.093 85.6517 84.943 85.6117C84.303 85.4217 83.663 85.2217 83.043 84.9817C77.993 83.1017 74.023 80.0217 71.303 76.2117C70.393 74.9417 69.6329 73.5917 69.0129 72.1817L69.903 74.1917C72.383 79.8317 77.193 84.4817 83.933 86.9917C84.563 87.2217 85.1929 87.4317 85.8329 87.6217C85.9829 87.6717 86.143 87.7117 86.293 87.7517C86.933 87.9317 87.573 88.0917 88.213 88.2217C88.263 88.2317 88.303 88.2417 88.353 88.2517C88.963 88.3717 89.5829 88.4817 90.2029 88.5617C90.3629 88.5817 90.513 88.6017 90.673 88.6217C91.323 88.7017 91.983 88.7717 92.633 88.8117C92.713 88.8217 92.793 88.8217 92.873 88.8217C93.473 88.8517 94.073 88.8717 94.673 88.8717C94.833 88.8717 94.9829 88.8717 95.1429 88.8717C95.8029 88.8617 96.463 88.8417 97.113 88.7917C97.213 88.7817 97.323 88.7717 97.423 88.7617C98.003 88.7117 98.593 88.6517 99.173 88.5717C99.323 88.5517 99.473 88.5317 99.623 88.5117C100.273 88.4217 100.923 88.3117 101.573 88.1717C101.613 88.1617 101.643 88.1617 101.683 88.1517C101.763 88.1317 101.833 88.1117 101.913 88.0917C102.533 87.9617 103.163 87.8117 103.773 87.6417C103.883 87.6117 103.993 87.5817 104.103 87.5517C104.773 87.3617 105.433 87.1617 106.093 86.9317C106.153 86.9117 106.223 86.8917 106.283 86.8717C106.383 86.8417 106.483 86.7917 106.583 86.7617C107.003 86.6117 107.413 86.4617 107.823 86.2917C107.983 86.2317 108.133 86.1717 108.293 86.1017C108.843 85.8717 109.393 85.6417 109.923 85.3817C109.933 85.3717 109.943 85.3717 109.953 85.3717C110.023 85.3317 110.103 85.2917 110.173 85.2617C110.593 85.0617 111.003 84.8517 111.413 84.6417C111.583 84.5517 111.743 84.4617 111.913 84.3717C112.243 84.1917 112.563 84.0117 112.893 83.8217C112.983 83.7717 113.073 83.7217 113.153 83.6717C113.243 83.6117 113.343 83.5517 113.433 83.4917C113.723 83.3117 114.013 83.1317 114.303 82.9417C114.473 82.8317 114.653 82.7117 114.823 82.6017C115.133 82.3917 115.433 82.1817 115.733 81.9617C115.843 81.8817 115.963 81.8017 116.073 81.7217C116.103 81.7017 116.133 81.6717 116.163 81.6517C116.603 81.3217 117.043 80.9817 117.473 80.6317C117.513 80.6017 117.543 80.5717 117.583 80.5417C117.973 80.2217 118.353 79.8917 118.733 79.5517C118.773 79.5217 118.803 79.4917 118.843 79.4517C118.933 79.3717 119.003 79.2917 119.093 79.2117C119.413 78.9117 119.723 78.6117 120.033 78.3017C120.173 78.1617 120.303 78.0317 120.433 77.8917C120.743 77.5717 121.043 77.2417 121.343 76.9117C121.413 76.8317 121.493 76.7517 121.573 76.6617C121.593 76.6417 121.613 76.6117 121.633 76.5817C122.093 76.0517 122.523 75.5117 122.953 74.9517C123.043 74.8317 123.133 74.7017 123.233 74.5817C123.653 74.0017 124.073 73.4217 124.453 72.8217C124.453 72.8217 124.453 72.8117 124.463 72.8117C124.733 72.3917 124.983 71.9717 125.233 71.5417C125.563 70.9717 125.853 70.3917 126.143 69.8117C126.203 69.6717 126.283 69.5017 126.363 69.3317Z" fill="url(#paint3_linear_15_146)"/>
<path d="M112.043 34.2117C97.253 28.7117 78.753 35.6117 70.743 49.6217C62.723 63.6417 68.223 79.4617 83.023 84.9617C97.823 90.4617 116.323 83.5617 124.343 69.5517C132.343 55.5417 126.843 39.7217 112.043 34.2117Z" fill="url(#paint4_radial_15_146)"/>
<path d="M112.043 34.2117C97.253 28.7117 78.753 35.6117 70.743 49.6217C62.723 63.6417 68.223 79.4617 83.023 84.9617C97.823 90.4617 116.323 83.5617 124.343 69.5517C132.343 55.5417 126.843 39.7217 112.043 34.2117ZM124.063 69.4017C118.103 79.8217 106.233 86.5517 93.813 86.5517C90.073 86.5517 86.473 85.9217 83.123 84.6817C76.163 82.0917 71.053 77.1217 68.713 70.6717C66.303 64.0117 67.113 56.5917 71.003 49.7817C76.963 39.3617 88.833 32.6317 101.253 32.6317C104.993 32.6317 108.583 33.2617 111.933 34.5017C118.893 37.0917 124.013 42.0717 126.353 48.5217C128.763 55.1817 127.953 62.6017 124.063 69.4017Z" fill="url(#paint5_linear_15_146)"/>
<path d="M97.1629 45.8917C97.3129 45.9517 97.453 46.0417 97.553 46.1817L110.523 63.5117C110.943 64.0717 110.463 64.9017 109.663 65.0217L84.8929 68.3117C84.6929 68.3417 84.5229 68.3217 84.3629 68.2617C83.8829 68.0817 83.653 67.5517 83.943 67.0517L95.743 46.4217C96.033 45.9117 96.6829 45.7117 97.1629 45.8917Z" fill="url(#paint6_linear_15_146)"/>
<path d="M174.683 47.6417C174.713 47.5217 174.743 47.4017 174.773 47.2917C174.853 46.8917 174.923 46.5017 174.953 46.1117V46.1017C174.983 45.7117 174.973 45.3217 174.943 44.9317C174.943 44.8917 174.943 44.8417 174.943 44.8017C174.933 44.6417 174.903 44.4717 174.873 44.3117C174.863 44.2517 174.863 44.1817 174.843 44.1217C174.793 43.8617 174.743 43.6017 174.673 43.3517C174.663 43.3317 174.663 43.3117 174.653 43.3017C174.563 42.9817 174.443 42.6617 174.313 42.3517L173.423 40.3417C173.563 40.6517 173.673 40.9717 173.763 41.2917C173.843 41.5617 173.903 41.8317 173.953 42.1117C173.963 42.1717 173.973 42.2417 173.983 42.3017C174.013 42.5017 174.033 42.7117 174.053 42.9217C174.083 43.3117 174.093 43.7017 174.063 44.0917V44.1017C174.033 44.4917 173.973 44.8917 173.883 45.2817C173.863 45.4017 173.823 45.5217 173.793 45.6317C173.713 45.9317 173.623 46.2217 173.523 46.5217C173.483 46.6417 173.443 46.7617 173.393 46.8817C173.233 47.2817 173.043 47.6817 172.823 48.0717L130.573 121.952L131.463 123.962L173.713 50.0817C173.933 49.6917 174.123 49.2917 174.283 48.8917C174.333 48.7717 174.373 48.6517 174.413 48.5417C174.513 48.2317 174.603 47.9417 174.683 47.6417Z" fill="url(#paint7_linear_15_146)"/>
<path opacity="0.0294" d="M85.153 134.372L42.753 118.602C41.203 118.022 39.263 118.752 38.423 120.222C37.583 121.682 38.163 123.342 39.713 123.922L82.113 139.692C83.663 140.272 85.603 139.542 86.443 138.082C87.283 136.612 86.703 134.952 85.153 134.372Z" fill="#012B7E"/>
<path opacity="0.0588" d="M85.1231 134.282L42.723 118.512C41.173 117.932 39.233 118.662 38.393 120.132C37.553 121.592 38.1331 123.252 39.6831 123.832L82.083 139.602C83.633 140.182 85.573 139.452 86.413 137.992C87.253 136.512 86.6731 134.852 85.1231 134.282Z" fill="#012B7E"/>
<path opacity="0.0882" d="M85.093 134.182L42.693 118.412C41.143 117.832 39.203 118.562 38.363 120.032C37.523 121.492 38.103 123.152 39.653 123.732L82.053 139.502C83.603 140.082 85.543 139.352 86.383 137.892C87.223 136.422 86.653 134.762 85.093 134.182Z" fill="#012B7E"/>
<path opacity="0.1176" d="M85.073 134.082L42.6731 118.312C41.1231 117.732 39.183 118.462 38.343 119.932C37.503 121.392 38.0831 123.052 39.6331 123.632L82.033 139.402C83.583 139.982 85.5231 139.252 86.3631 137.792C87.2031 136.322 86.623 134.662 85.073 134.082Z" fill="#012B7E"/>
<path opacity="0.1471" d="M85.043 133.992L42.643 118.222C41.093 117.642 39.153 118.372 38.313 119.842C37.473 121.302 38.053 122.962 39.603 123.542L82.003 139.312C83.553 139.892 85.493 139.162 86.333 137.702C87.173 136.232 86.593 134.572 85.043 133.992Z" fill="#012B7E"/>
<path opacity="0.1765" d="M85.013 133.892L42.613 118.122C41.063 117.542 39.123 118.272 38.283 119.742C37.443 121.202 38.023 122.862 39.573 123.442L81.973 139.212C83.523 139.792 85.463 139.062 86.303 137.602C87.143 136.132 86.573 134.472 85.013 133.892Z" fill="#012B7E"/>
<path opacity="0.2059" d="M84.983 133.802L42.583 118.032C41.033 117.452 39.093 118.182 38.253 119.652C37.413 121.112 37.993 122.772 39.543 123.352L81.943 139.122C83.493 139.702 85.433 138.972 86.273 137.512C87.123 136.032 86.543 134.382 84.983 133.802Z" fill="#012B7E"/>
<path opacity="0.2353" d="M84.963 133.702L42.563 117.932C41.013 117.352 39.073 118.082 38.233 119.552C37.393 121.012 37.973 122.672 39.523 123.252L81.923 139.022C83.473 139.602 85.413 138.872 86.253 137.412C87.093 135.942 86.513 134.282 84.963 133.702Z" fill="#012B7E"/>
<path opacity="0.2647" d="M84.9331 133.612L42.533 117.842C40.983 117.262 39.043 117.992 38.203 119.462C37.363 120.922 37.9431 122.582 39.4931 123.162L81.893 138.932C83.443 139.512 85.383 138.782 86.223 137.322C87.063 135.842 86.4831 134.182 84.9331 133.612Z" fill="#012B7E"/>
<path opacity="0.2941" d="M84.903 133.512L42.503 117.742C40.953 117.162 39.013 117.892 38.173 119.362C37.333 120.822 37.913 122.482 39.463 123.062L81.863 138.832C83.413 139.412 85.353 138.682 86.193 137.222C87.033 135.752 86.463 134.092 84.903 133.512Z" fill="#012B7E"/>
<path opacity="0.3235" d="M84.8831 133.422L42.4831 117.652C40.9331 117.072 38.993 117.802 38.153 119.272C37.313 120.732 37.8931 122.392 39.4431 122.972L81.843 138.742C83.393 139.322 85.3331 138.592 86.1731 137.132C87.0131 135.652 86.4331 133.992 84.8831 133.422Z" fill="#012B7E"/>
<path opacity="0.3529" d="M84.853 133.322L42.453 117.552C40.903 116.972 38.963 117.702 38.123 119.172C37.283 120.632 37.863 122.292 39.413 122.872L81.813 138.642C83.363 139.222 85.303 138.492 86.143 137.032C86.983 135.562 86.403 133.902 84.853 133.322Z" fill="#012B7E"/>
<path opacity="0.3824" d="M84.823 133.222L42.4231 117.452C40.8731 116.872 38.933 117.602 38.093 119.072C37.253 120.532 37.8331 122.192 39.3831 122.772L81.783 138.542C83.333 139.122 85.2731 138.392 86.1131 136.932C86.9531 135.462 86.383 133.802 84.823 133.222Z" fill="#012B7E"/>
<path opacity="0.4118" d="M84.8031 133.132L42.403 117.362C40.853 116.782 38.913 117.512 38.073 118.982C37.233 120.442 37.8131 122.102 39.3631 122.682L81.763 138.452C83.313 139.032 85.253 138.302 86.093 136.842C86.933 135.372 86.3531 133.712 84.8031 133.132Z" fill="#012B7E"/>
<path opacity="0.4412" d="M84.773 133.032L42.373 117.272C40.823 116.692 38.883 117.422 38.043 118.892C37.203 120.352 37.783 122.012 39.333 122.592L81.733 138.362C83.283 138.942 85.223 138.212 86.063 136.752C86.903 135.272 86.323 133.612 84.773 133.032Z" fill="#012B7E"/>
<path opacity="0.4706" d="M84.7431 132.942L42.343 117.172C40.793 116.592 38.853 117.322 38.013 118.792C37.173 120.252 37.7531 121.912 39.3031 122.492L81.703 138.262C83.253 138.842 85.193 138.112 86.033 136.652C86.873 135.172 86.3031 133.522 84.7431 132.942Z" fill="#012B7E"/>
<path opacity="0.5" d="M84.713 132.842L42.313 117.072C40.763 116.492 38.823 117.222 37.983 118.692C37.143 120.152 37.723 121.812 39.273 122.392L81.673 138.162C83.223 138.742 85.163 138.012 86.003 136.552C86.843 135.082 86.273 133.422 84.713 132.842Z" fill="#012B7E"/>
<path opacity="0.5294" d="M84.6931 132.752L42.2931 116.982C40.7431 116.402 38.803 117.132 37.963 118.602C37.123 120.062 37.7031 121.722 39.2531 122.302L81.653 138.072C83.203 138.652 85.1431 137.922 85.9831 136.462C86.8231 134.982 86.2431 133.322 84.6931 132.752Z" fill="#012B7E"/>
<path opacity="0.5588" d="M84.663 132.652L42.263 116.882C40.713 116.302 38.773 117.032 37.933 118.502C37.093 119.962 37.673 121.622 39.223 122.202L81.623 137.972C83.173 138.552 85.113 137.822 85.953 136.362C86.793 134.892 86.213 133.232 84.663 132.652Z" fill="#012B7E"/>
<path opacity="0.5882" d="M84.6331 132.562L42.2331 116.792C40.6831 116.212 38.743 116.942 37.903 118.412C37.063 119.872 37.6431 121.532 39.1931 122.112L81.593 137.882C83.143 138.462 85.0831 137.732 85.9231 136.272C86.7631 134.792 86.1931 133.132 84.6331 132.562Z" fill="#012B7E"/>
<path opacity="0.6176" d="M84.613 132.462L42.213 116.692C40.663 116.112 38.723 116.842 37.883 118.312C37.043 119.772 37.623 121.432 39.173 122.012L81.573 137.782C83.123 138.362 85.063 137.632 85.903 136.172C86.743 134.702 86.163 133.042 84.613 132.462Z" fill="#012B7E"/>
<path opacity="0.6471" d="M84.583 132.362L42.183 116.592C40.633 116.012 38.693 116.742 37.853 118.212C37.013 119.672 37.593 121.332 39.143 121.912L81.543 137.682C83.093 138.262 85.033 137.532 85.873 136.072C86.713 134.602 86.133 132.942 84.583 132.362Z" fill="#012B7E"/>
<path opacity="0.6765" d="M84.5531 132.272L42.153 116.502C40.603 115.922 38.663 116.652 37.823 118.122C36.983 119.582 37.5631 121.242 39.1131 121.822L81.513 137.592C83.063 138.172 85.003 137.442 85.843 135.982C86.683 134.502 86.1131 132.852 84.5531 132.272Z" fill="#012B7E"/>
<path opacity="0.7059" d="M84.523 132.172L42.123 116.402C40.573 115.822 38.633 116.552 37.793 118.022C36.953 119.482 37.533 121.142 39.083 121.722L81.483 137.492C83.033 138.072 84.973 137.342 85.813 135.882C86.663 134.412 86.083 132.752 84.523 132.172Z" fill="#012B7E"/>
<path opacity="0.7353" d="M84.5031 132.082L42.1031 116.312C40.5531 115.732 38.613 116.462 37.773 117.932C36.933 119.392 37.5131 121.052 39.0631 121.632L81.463 137.402C83.013 137.982 84.9531 137.252 85.7931 135.792C86.6331 134.312 86.0531 132.662 84.5031 132.082Z" fill="#012B7E"/>
<path opacity="0.7647" d="M84.473 131.982L42.073 116.212C40.523 115.632 38.583 116.362 37.743 117.832C36.903 119.292 37.483 120.952 39.033 121.532L81.433 137.302C82.983 137.882 84.923 137.152 85.763 135.692C86.603 134.222 86.023 132.562 84.473 131.982Z" fill="#012B7E"/>
<path opacity="0.7941" d="M84.4431 131.892L42.0431 116.122C40.4931 115.542 38.553 116.272 37.713 117.742C36.873 119.202 37.4531 120.862 39.0031 121.442L81.403 137.212C82.953 137.792 84.8931 137.062 85.7331 135.602C86.5731 134.122 86.0031 132.462 84.4431 131.892Z" fill="#012B7E"/>
<path opacity="0.8235" d="M84.423 131.792L42.023 116.022C40.473 115.442 38.533 116.172 37.693 117.642C36.853 119.102 37.433 120.762 38.983 121.342L81.383 137.112C82.933 137.692 84.873 136.962 85.713 135.502C86.553 134.032 85.973 132.372 84.423 131.792Z" fill="#012B7E"/>
<path opacity="0.8529" d="M84.393 131.692L41.993 115.922C40.443 115.342 38.503 116.072 37.663 117.542C36.823 119.002 37.403 120.662 38.953 121.242L81.353 137.012C82.903 137.592 84.843 136.862 85.683 135.402C86.523 133.932 85.943 132.272 84.393 131.692Z" fill="#012B7E"/>
<path opacity="0.8824" d="M84.363 131.602L41.963 115.832C40.413 115.252 38.473 115.982 37.633 117.452C36.793 118.912 37.373 120.572 38.923 121.152L81.323 136.922C82.873 137.502 84.813 136.772 85.653 135.312C86.493 133.842 85.923 132.182 84.363 131.602Z" fill="#012B7E"/>
<path opacity="0.9118" d="M84.343 131.502L41.943 115.732C40.393 115.152 38.453 115.882 37.613 117.352C36.773 118.812 37.353 120.472 38.903 121.052L81.303 136.822C82.853 137.402 84.793 136.672 85.633 135.212C86.473 133.742 85.893 132.082 84.343 131.502Z" fill="#012B7E"/>
<path opacity="0.9412" d="M84.3131 131.412L41.913 115.642C40.363 115.062 38.423 115.792 37.583 117.262C36.743 118.722 37.3231 120.382 38.8731 120.962L81.273 136.732C82.823 137.312 84.7631 136.582 85.6031 135.122C86.4431 133.642 85.8631 131.992 84.3131 131.412Z" fill="#012B7E"/>
<path opacity="0.9706" d="M84.283 131.312L41.883 115.542C40.333 114.962 38.393 115.692 37.553 117.162C36.713 118.622 37.293 120.282 38.843 120.862L81.243 136.632C82.793 137.212 84.733 136.482 85.573 135.022C86.413 133.552 85.843 131.892 84.283 131.312Z" fill="#012B7E"/>
<path d="M84.2531 131.222L41.8531 115.452C40.3031 114.872 38.363 115.602 37.523 117.072C36.683 118.532 37.2631 120.192 38.8131 120.772L81.213 136.542C82.763 137.122 84.7031 136.392 85.5431 134.932C86.3831 133.452 85.8131 131.792 84.2531 131.222Z" fill="#012B7E"/>
<path d="M85.953 133.762C85.963 133.622 85.963 133.492 85.953 133.362C85.953 133.322 85.933 133.282 85.933 133.242C85.923 133.182 85.913 133.132 85.903 133.072C85.893 133.022 85.893 132.962 85.873 132.912C85.843 132.802 85.803 132.702 85.763 132.602L84.873 130.592C84.943 130.742 84.983 130.902 85.013 131.062C85.023 131.122 85.033 131.172 85.043 131.232C85.063 131.402 85.083 131.572 85.073 131.742C85.063 131.922 85.023 132.102 84.973 132.282C84.963 132.332 84.943 132.372 84.933 132.422C84.873 132.602 84.8031 132.782 84.6931 132.962C84.6031 133.122 84.493 133.272 84.373 133.422C84.353 133.442 84.343 133.462 84.323 133.482C84.203 133.622 84.063 133.752 83.923 133.872C83.893 133.892 83.863 133.922 83.833 133.942C83.693 134.052 83.5431 134.162 83.3831 134.252C83.3631 134.262 83.333 134.282 83.303 134.292C83.163 134.372 83.013 134.442 82.853 134.502C82.823 134.512 82.7831 134.532 82.7531 134.542C82.5731 134.612 82.383 134.662 82.203 134.702C82.173 134.712 82.153 134.712 82.123 134.712C81.963 134.742 81.803 134.762 81.643 134.762C81.583 134.762 81.523 134.762 81.473 134.762C81.333 134.762 81.203 134.752 81.073 134.732C81.013 134.722 80.963 134.722 80.903 134.712C80.723 134.682 80.533 134.632 80.363 134.572L37.963 118.802C37.433 118.602 37.013 118.282 36.733 117.882C36.633 117.752 36.553 117.612 36.493 117.462L37.3831 119.472C37.6431 120.062 38.153 120.552 38.853 120.812L81.2531 136.582C81.4331 136.652 81.613 136.692 81.793 136.722C81.853 136.732 81.903 136.742 81.963 136.742C82.093 136.762 82.233 136.772 82.363 136.772C82.423 136.772 82.483 136.772 82.543 136.772C82.703 136.762 82.863 136.752 83.023 136.722C83.053 136.722 83.073 136.712 83.103 136.712C83.113 136.712 83.113 136.712 83.123 136.712C83.283 136.682 83.453 136.632 83.603 136.582C83.623 136.572 83.633 136.572 83.653 136.562C83.683 136.552 83.7231 136.532 83.7531 136.522C83.8331 136.492 83.913 136.462 83.983 136.432C84.053 136.402 84.1231 136.362 84.1931 136.322C84.2231 136.312 84.243 136.292 84.273 136.282C84.283 136.272 84.303 136.262 84.323 136.262C84.433 136.202 84.5331 136.132 84.6331 136.062C84.6631 136.042 84.693 136.012 84.733 135.982C84.763 135.962 84.793 135.932 84.823 135.912C84.863 135.882 84.893 135.852 84.933 135.822C85.033 135.732 85.133 135.632 85.213 135.532L85.223 135.522C85.243 135.502 85.253 135.482 85.273 135.462C85.363 135.362 85.443 135.252 85.513 135.132C85.543 135.092 85.563 135.042 85.593 135.002C85.693 134.822 85.773 134.642 85.833 134.462C85.853 134.412 85.863 134.372 85.873 134.322C85.903 134.122 85.943 133.942 85.953 133.762Z" fill="url(#paint8_linear_15_146)"/>
<path d="M83.4029 129.252L41.003 113.482C39.453 112.902 37.5129 113.632 36.6729 115.102C35.8329 116.562 36.4129 118.222 37.9629 118.802L80.363 134.572C81.913 135.152 83.853 134.422 84.693 132.962C85.533 131.492 84.9529 129.832 83.4029 129.252Z" fill="url(#paint9_linear_15_146)"/>
<path d="M83.4029 129.252L41.003 113.482C39.453 112.902 37.5129 113.632 36.6729 115.102C35.8329 116.562 36.4129 118.222 37.9629 118.802L80.363 134.572C81.913 135.152 83.853 134.422 84.693 132.962C85.533 131.492 84.9529 129.832 83.4029 129.252ZM84.4129 132.802C83.8429 133.792 82.6729 134.452 81.4829 134.452C81.1229 134.452 80.7729 134.392 80.4529 134.272L38.053 118.502C37.403 118.262 36.9229 117.792 36.7029 117.192C36.4829 116.572 36.5529 115.882 36.9229 115.242C37.4929 114.252 38.6729 113.582 39.8529 113.582C40.2129 113.582 40.553 113.642 40.873 113.762L83.2729 129.532C83.9229 129.772 84.403 130.242 84.623 130.832C84.863 131.472 84.7829 132.162 84.4129 132.802Z" fill="url(#paint10_linear_15_146)"/>
<path d="M130.553 121.952L114.563 149.902C114.453 150.102 114.323 150.282 114.203 150.472C113.933 150.872 113.653 151.262 113.333 151.632C113.283 151.682 113.233 151.732 113.193 151.782C112.973 152.032 112.733 152.272 112.493 152.492C112.393 152.582 112.293 152.672 112.183 152.762C112.003 152.922 111.813 153.082 111.613 153.222C111.503 153.312 111.383 153.392 111.273 153.482C111.073 153.622 110.873 153.762 110.663 153.892C110.553 153.962 110.443 154.032 110.333 154.102C110.033 154.272 109.733 154.432 109.423 154.582C109.383 154.602 109.353 154.622 109.323 154.632C108.953 154.802 108.573 154.952 108.193 155.092C108.103 155.122 108.003 155.152 107.903 155.182C107.473 155.322 107.043 155.442 106.603 155.542C106.553 155.552 106.503 155.572 106.453 155.582C106.003 155.672 105.553 155.732 105.103 155.772C104.993 155.782 104.883 155.792 104.773 155.792C104.343 155.822 103.913 155.822 103.483 155.802C103.453 155.802 103.413 155.802 103.383 155.802C102.933 155.772 102.483 155.712 102.043 155.622C101.933 155.602 101.823 155.582 101.723 155.552C101.273 155.452 100.833 155.332 100.403 155.172L5.47296 119.872C4.89296 119.652 4.35298 119.392 3.86298 119.092C2.38298 118.192 1.29295 116.932 0.652954 115.482L1.54297 117.492C2.39297 119.422 4.04298 121.022 6.36298 121.882L101.293 157.182C101.723 157.342 102.163 157.462 102.613 157.562C102.723 157.582 102.823 157.612 102.933 157.632C103.373 157.712 103.823 157.782 104.273 157.812C104.303 157.812 104.343 157.812 104.373 157.812C104.803 157.832 105.233 157.832 105.663 157.802C105.773 157.792 105.883 157.792 105.993 157.782C106.443 157.742 106.893 157.682 107.343 157.592C107.353 157.592 107.373 157.592 107.383 157.582C107.423 157.572 107.453 157.562 107.493 157.552C107.933 157.462 108.363 157.332 108.793 157.192C108.853 157.172 108.913 157.162 108.963 157.142C109.003 157.132 109.043 157.112 109.073 157.092C109.453 156.952 109.833 156.802 110.203 156.632H110.213C110.243 156.612 110.273 156.592 110.313 156.582C110.623 156.432 110.923 156.272 111.213 156.102C111.243 156.082 111.273 156.072 111.313 156.052C111.393 156.002 111.473 155.942 111.553 155.892C111.763 155.762 111.963 155.632 112.163 155.482C112.213 155.442 112.273 155.412 112.313 155.382C112.373 155.332 112.433 155.282 112.503 155.232C112.693 155.082 112.883 154.932 113.073 154.772C113.133 154.712 113.203 154.672 113.263 154.612C113.303 154.572 113.333 154.532 113.373 154.502C113.613 154.272 113.853 154.032 114.073 153.792C114.113 153.752 114.163 153.712 114.193 153.662C114.203 153.652 114.203 153.642 114.213 153.632C114.533 153.272 114.813 152.882 115.083 152.472C115.113 152.422 115.153 152.382 115.183 152.342C115.273 152.202 115.363 152.052 115.443 151.902L131.433 123.952L130.553 121.952Z" fill="url(#paint11_linear_15_146)"/>
<path opacity="0.0294" d="M108.893 131.612L29.813 102.102C28.263 101.522 26.3229 102.252 25.4829 103.722C24.6429 105.182 25.2229 106.842 26.7729 107.422L105.853 136.932C107.403 137.512 109.343 136.782 110.183 135.322C111.023 133.852 110.453 132.192 108.893 131.612Z" fill="#012B7E"/>
<path opacity="0.0588" d="M108.863 131.512L29.783 102.002C28.233 101.422 26.293 102.152 25.453 103.622C24.613 105.082 25.193 106.742 26.743 107.322L105.823 136.832C107.373 137.412 109.313 136.682 110.153 135.222C110.993 133.752 110.423 132.092 108.863 131.512Z" fill="#012B7E"/>
<path opacity="0.0882" d="M108.843 131.422L29.7629 101.912C28.2129 101.332 26.273 102.062 25.433 103.532C24.593 104.992 25.1729 106.652 26.7229 107.232L105.803 136.742C107.353 137.322 109.293 136.592 110.133 135.132C110.973 133.662 110.393 132.002 108.843 131.422Z" fill="#012B7E"/>
<path opacity="0.1176" d="M108.813 131.322L29.733 101.812C28.183 101.232 26.243 101.962 25.403 103.432C24.563 104.892 25.143 106.552 26.693 107.132L105.773 136.642C107.323 137.222 109.263 136.492 110.103 135.032C110.943 133.562 110.363 131.902 108.813 131.322Z" fill="#012B7E"/>
<path opacity="0.1471" d="M108.783 131.232L29.7029 101.722C28.1529 101.142 26.213 101.872 25.373 103.342C24.533 104.802 25.1129 106.462 26.6629 107.042L105.743 136.552C107.293 137.132 109.233 136.402 110.073 134.942C110.913 133.462 110.343 131.812 108.783 131.232Z" fill="#012B7E"/>
<path opacity="0.1765" d="M108.763 131.132L29.683 101.622C28.133 101.042 26.1929 101.772 25.3529 103.242C24.5129 104.702 25.0929 106.362 26.6429 106.942L105.723 136.452C107.273 137.032 109.213 136.302 110.053 134.842C110.893 133.372 110.313 131.712 108.763 131.132Z" fill="#012B7E"/>
<path opacity="0.2059" d="M108.733 131.042L29.653 101.532C28.103 100.952 26.163 101.682 25.323 103.152C24.483 104.612 25.063 106.272 26.613 106.852L105.693 136.362C107.243 136.942 109.183 136.212 110.023 134.752C110.863 133.272 110.283 131.612 108.733 131.042Z" fill="#012B7E"/>
<path opacity="0.2353" d="M108.703 130.942L29.623 101.432C28.073 100.852 26.1329 101.582 25.2929 103.052C24.4529 104.512 25.0329 106.172 26.5829 106.752L105.663 136.262C107.213 136.842 109.153 136.112 109.993 134.652C110.833 133.182 110.263 131.522 108.703 130.942Z" fill="#012B7E"/>
<path opacity="0.2647" d="M108.673 130.852L29.593 101.342C28.043 100.762 26.103 101.492 25.263 102.962C24.423 104.422 25.003 106.082 26.553 106.662L105.633 136.172C107.183 136.752 109.123 136.022 109.963 134.562C110.813 133.082 110.233 131.422 108.673 130.852Z" fill="#012B7E"/>
<path opacity="0.2941" d="M108.653 130.752L29.5729 101.242C28.0229 100.662 26.083 101.392 25.243 102.862C24.403 104.322 24.9829 105.982 26.5329 106.562L105.613 136.072C107.163 136.652 109.103 135.922 109.943 134.462C110.783 132.992 110.203 131.332 108.653 130.752Z" fill="#012B7E"/>
<path opacity="0.3235" d="M108.623 130.652L29.543 101.142C27.993 100.562 26.053 101.292 25.213 102.762C24.373 104.222 24.953 105.882 26.503 106.462L105.583 135.972C107.133 136.552 109.073 135.822 109.913 134.362C110.753 132.892 110.173 131.232 108.623 130.652Z" fill="#012B7E"/>
<path opacity="0.3529" d="M108.593 130.562L29.5129 101.052C27.9629 100.472 26.023 101.202 25.183 102.672C24.343 104.132 24.9229 105.792 26.4729 106.372L105.553 135.882C107.103 136.462 109.043 135.732 109.883 134.272C110.723 132.792 110.153 131.142 108.593 130.562Z" fill="#012B7E"/>
<path opacity="0.3824" d="M108.573 130.462L29.493 100.952C27.943 100.372 26.0029 101.102 25.1629 102.572C24.3229 104.032 24.9029 105.692 26.4529 106.272L105.533 135.782C107.083 136.362 109.023 135.632 109.863 134.172C110.703 132.702 110.123 131.042 108.573 130.462Z" fill="#012B7E"/>
<path opacity="0.4118" d="M108.543 130.372L29.4629 100.862C27.9129 100.282 25.973 101.012 25.133 102.482C24.293 103.942 24.8729 105.602 26.4229 106.182L105.503 135.692C107.053 136.272 108.993 135.542 109.833 134.082C110.673 132.602 110.093 130.952 108.543 130.372Z" fill="#012B7E"/>
<path opacity="0.4412" d="M108.513 130.272L29.433 100.762C27.883 100.182 25.9429 100.912 25.1029 102.382C24.2629 103.842 24.8429 105.502 26.3929 106.082L105.473 135.592C107.023 136.172 108.963 135.442 109.803 133.982C110.643 132.512 110.073 130.852 108.513 130.272Z" fill="#012B7E"/>
<path opacity="0.4706" d="M108.493 130.182L29.403 100.672C27.853 100.092 25.913 100.822 25.073 102.292C24.233 103.752 24.813 105.412 26.363 105.992L105.443 135.502C106.993 136.082 108.933 135.352 109.773 133.892C110.623 132.412 110.043 130.752 108.493 130.182Z" fill="#012B7E"/>
<path opacity="0.5" d="M108.463 130.082L29.383 100.572C27.833 99.9917 25.893 100.722 25.053 102.192C24.213 103.652 24.7929 105.312 26.3429 105.892L105.423 135.402C106.973 135.982 108.913 135.252 109.753 133.792C110.593 132.322 110.013 130.662 108.463 130.082Z" fill="#012B7E"/>
<path opacity="0.5294" d="M108.433 129.982L29.353 100.472C27.803 99.8917 25.863 100.622 25.023 102.092C24.183 103.552 24.763 105.212 26.313 105.792L105.393 135.302C106.943 135.882 108.883 135.152 109.723 133.692C110.563 132.222 109.993 130.562 108.433 129.982Z" fill="#012B7E"/>
<path opacity="0.5588" d="M108.403 129.892L29.3229 100.382C27.7729 99.8017 25.833 100.532 24.993 102.002C24.153 103.462 24.7329 105.122 26.2829 105.702L105.363 135.212C106.913 135.792 108.853 135.062 109.693 133.602C110.533 132.132 109.963 130.472 108.403 129.892Z" fill="#012B7E"/>
<path opacity="0.5882" d="M108.383 129.792L29.303 100.282C27.753 99.7017 25.8129 100.432 24.9729 101.902C24.1329 103.362 24.7129 105.022 26.2629 105.602L105.343 135.112C106.893 135.692 108.833 134.962 109.673 133.502C110.513 132.032 109.933 130.372 108.383 129.792Z" fill="#012B7E"/>
<path opacity="0.6176" d="M108.353 129.702L29.2729 100.192C27.7229 99.6117 25.783 100.342 24.943 101.812C24.103 103.272 24.6829 104.932 26.2329 105.512L105.313 135.022C106.863 135.602 108.803 134.872 109.643 133.412C110.483 131.932 109.903 130.282 108.353 129.702Z" fill="#012B7E"/>
<path opacity="0.6471" d="M108.323 129.602L29.243 100.092C27.693 99.5117 25.7529 100.242 24.9129 101.712C24.0729 103.172 24.6529 104.832 26.2029 105.412L105.283 134.922C106.833 135.502 108.773 134.772 109.613 133.312C110.453 131.842 109.883 130.182 108.323 129.602Z" fill="#012B7E"/>
<path opacity="0.6765" d="M108.303 129.512L29.223 100.002C27.673 99.4217 25.733 100.152 24.893 101.622C24.053 103.082 24.633 104.742 26.183 105.322L105.263 134.832C106.813 135.412 108.753 134.682 109.593 133.222C110.433 131.742 109.853 130.082 108.303 129.512Z" fill="#012B7E"/>
<path opacity="0.7059" d="M108.273 129.412L29.193 99.9017C27.643 99.3217 25.703 100.052 24.863 101.522C24.023 102.982 24.6029 104.642 26.1529 105.222L105.233 134.732C106.783 135.312 108.723 134.582 109.563 133.122C110.403 131.652 109.823 129.992 108.273 129.412Z" fill="#012B7E"/>
<path opacity="0.7353" d="M108.243 129.322L29.163 99.8117C27.613 99.2317 25.673 99.9617 24.833 101.432C23.993 102.892 24.573 104.552 26.123 105.132L105.203 134.642C106.753 135.222 108.693 134.492 109.533 133.032C110.373 131.552 109.803 129.892 108.243 129.322Z" fill="#012B7E"/>
<path opacity="0.7647" d="M108.213 129.222L29.133 99.7117C27.583 99.1317 25.643 99.8617 24.803 101.332C23.963 102.792 24.5429 104.452 26.0929 105.032L105.173 134.542C106.723 135.122 108.663 134.392 109.503 132.932C110.353 131.462 109.773 129.802 108.213 129.222Z" fill="#012B7E"/>
<path opacity="0.7941" d="M108.193 129.122L29.113 99.6117C27.563 99.0317 25.6229 99.7617 24.7829 101.232C23.9429 102.692 24.5229 104.352 26.0729 104.932L105.153 134.442C106.703 135.022 108.643 134.292 109.483 132.832C110.323 131.362 109.743 129.702 108.193 129.122Z" fill="#012B7E"/>
<path opacity="0.8235" d="M108.163 129.032L29.0829 99.5217C27.5329 98.9417 25.593 99.6717 24.753 101.142C23.913 102.602 24.4929 104.262 26.0429 104.842L105.123 134.352C106.673 134.932 108.613 134.202 109.453 132.742C110.293 131.272 109.713 129.612 108.163 129.032Z" fill="#012B7E"/>
<path opacity="0.8529" d="M108.133 128.932L29.053 99.4217C27.503 98.8417 25.5629 99.5717 24.7229 101.042C23.8829 102.502 24.4629 104.162 26.0129 104.742L105.093 134.252C106.643 134.832 108.583 134.102 109.423 132.642C110.263 131.172 109.693 129.512 108.133 128.932Z" fill="#012B7E"/>
<path opacity="0.8824" d="M108.113 128.842L29.033 99.3317C27.483 98.7517 25.543 99.4817 24.703 100.952C23.863 102.412 24.443 104.072 25.993 104.652L105.073 134.162C106.623 134.742 108.563 134.012 109.403 132.552C110.243 131.072 109.663 129.422 108.113 128.842Z" fill="#012B7E"/>
<path opacity="0.9118" d="M108.083 128.742L29.003 99.2317C27.453 98.6517 25.5129 99.3817 24.6729 100.852C23.8329 102.312 24.4129 103.972 25.9629 104.552L105.043 134.062C106.593 134.642 108.533 133.912 109.373 132.452C110.213 130.982 109.633 129.322 108.083 128.742Z" fill="#012B7E"/>
<path opacity="0.9412" d="M108.053 128.652L28.973 99.1417C27.423 98.5617 25.483 99.2917 24.643 100.762C23.803 102.222 24.383 103.882 25.933 104.462L105.013 133.972C106.563 134.552 108.503 133.822 109.343 132.362C110.183 130.882 109.613 129.222 108.053 128.652Z" fill="#012B7E"/>
<path opacity="0.9706" d="M108.033 128.552L28.9529 99.0417C27.4029 98.4617 25.463 99.1917 24.623 100.662C23.783 102.122 24.3629 103.782 25.9129 104.362L104.993 133.872C106.543 134.452 108.483 133.722 109.323 132.262C110.163 130.792 109.583 129.132 108.033 128.552Z" fill="#012B7E"/>
<path d="M108.003 128.462L28.923 98.9517C27.373 98.3717 25.433 99.1017 24.593 100.572C23.753 102.032 24.333 103.692 25.883 104.272L104.963 133.782C106.513 134.362 108.453 133.632 109.293 132.172C110.133 130.692 109.553 129.032 108.003 128.462Z" fill="#012B7E"/>
<path d="M109.823 130.952C109.833 130.812 109.833 130.682 109.823 130.552C109.823 130.512 109.803 130.472 109.803 130.432C109.793 130.372 109.783 130.322 109.773 130.262C109.763 130.212 109.763 130.152 109.743 130.102C109.713 129.992 109.673 129.892 109.633 129.792L108.743 127.782C108.813 127.932 108.853 128.092 108.883 128.252C108.893 128.312 108.903 128.362 108.913 128.422C108.933 128.592 108.953 128.762 108.943 128.932C108.933 129.112 108.893 129.292 108.843 129.472C108.833 129.522 108.813 129.562 108.803 129.602C108.743 129.782 108.663 129.962 108.563 130.142C108.473 130.302 108.363 130.452 108.243 130.602C108.223 130.622 108.213 130.652 108.193 130.672C108.073 130.812 107.933 130.942 107.793 131.062C107.763 131.082 107.733 131.112 107.703 131.132C107.563 131.242 107.413 131.352 107.253 131.442C107.233 131.452 107.203 131.472 107.183 131.482C107.043 131.562 106.893 131.632 106.733 131.692C106.703 131.702 106.663 131.722 106.633 131.732C106.453 131.802 106.263 131.852 106.073 131.892C106.043 131.892 106.023 131.902 105.993 131.902C105.833 131.932 105.673 131.952 105.513 131.952C105.453 131.952 105.393 131.952 105.343 131.952C105.203 131.952 105.073 131.942 104.943 131.922C104.883 131.912 104.833 131.912 104.773 131.902C104.593 131.872 104.403 131.822 104.233 131.762L25.113 102.332C24.763 102.202 24.463 102.012 24.213 101.782C23.963 101.552 23.7729 101.282 23.6429 100.992L24.533 103.002C24.793 103.592 25.293 104.082 26.003 104.342L105.123 133.772C105.303 133.842 105.483 133.882 105.663 133.912C105.723 133.922 105.773 133.932 105.833 133.932C105.963 133.952 106.103 133.962 106.233 133.962C106.293 133.962 106.353 133.962 106.403 133.962C106.563 133.952 106.723 133.942 106.883 133.912C106.913 133.912 106.933 133.902 106.963 133.902C106.973 133.902 106.973 133.902 106.983 133.902C107.143 133.872 107.313 133.822 107.463 133.772C107.483 133.762 107.503 133.752 107.513 133.752C107.543 133.742 107.583 133.722 107.613 133.712C107.693 133.682 107.763 133.652 107.843 133.622C107.913 133.582 107.993 133.542 108.063 133.502C108.083 133.492 108.113 133.472 108.143 133.462C108.153 133.452 108.173 133.452 108.183 133.442C108.293 133.382 108.393 133.312 108.493 133.242C108.523 133.212 108.563 133.192 108.593 133.162C108.623 133.142 108.653 133.112 108.683 133.092C108.713 133.062 108.753 133.032 108.783 133.002C108.883 132.912 108.983 132.812 109.073 132.712L109.083 132.702C109.103 132.682 109.113 132.652 109.133 132.632C109.223 132.532 109.303 132.422 109.373 132.312C109.403 132.272 109.423 132.222 109.453 132.182C109.553 132.002 109.633 131.822 109.693 131.642C109.713 131.592 109.723 131.552 109.733 131.502C109.773 131.312 109.813 131.132 109.823 130.952Z" fill="url(#paint12_linear_15_146)"/>
<path d="M107.263 126.452C108.813 127.032 109.393 128.692 108.553 130.162C107.713 131.632 105.773 132.352 104.223 131.782L25.103 102.352C23.553 101.782 22.983 100.122 23.823 98.6517C24.663 97.1817 26.603 96.4617 28.153 97.0317L107.263 126.452Z" fill="url(#paint13_linear_15_146)"/>
<path d="M107.263 126.452L28.1429 97.0217C26.5929 96.4517 24.663 97.1717 23.813 98.6417C22.973 100.112 23.5429 101.772 25.0929 102.352L104.213 131.782C105.763 132.362 107.703 131.632 108.543 130.162C109.393 128.682 108.823 127.022 107.263 126.452ZM108.283 130.002C107.713 130.992 106.533 131.662 105.353 131.662C104.993 131.662 104.653 131.602 104.333 131.482L25.2129 102.052C24.5629 101.812 24.093 101.352 23.873 100.752C23.643 100.132 23.7229 99.4317 24.0929 98.7917C24.6629 97.8017 25.8429 97.1317 27.0229 97.1317C27.3829 97.1317 27.7229 97.1917 28.0429 97.3117L107.163 126.742C107.813 126.982 108.293 127.452 108.513 128.042C108.733 128.662 108.653 129.362 108.283 130.002Z" fill="url(#paint14_linear_15_146)"/>
<defs>
<linearGradient id="paint0_linear_15_146" x1="77.4752" y1="181.613" x2="56.0862" y2="69.148" gradientUnits="userSpaceOnUse">
<stop offset="0.0666" stop-color="#005BC3"/>
<stop offset="0.2702" stop-color="#2075D1"/>
<stop offset="0.7144" stop-color="#6FB8F4"/>
<stop offset="0.8184" stop-color="#83C8FD"/>
</linearGradient>
<linearGradient id="paint1_linear_15_146" x1="65.1647" y1="5.0873" x2="127.796" y2="119.136" gradientUnits="userSpaceOnUse">
<stop stop-color="#F2F9FF"/>
<stop offset="0.2269" stop-color="#EEF1FF"/>
<stop offset="0.5763" stop-color="#E1DCFF"/>
<stop offset="0.9972" stop-color="#CEB9FF"/>
</linearGradient>
<linearGradient id="paint2_linear_15_146" x1="79.9888" y1="-3.151" x2="93.4433" y2="151.402" gradientUnits="userSpaceOnUse">
<stop offset="0.0757" stop-color="white"/>
<stop offset="1" stop-color="white" stop-opacity="0"/>
</linearGradient>
<linearGradient id="paint3_linear_15_146" x1="77.6918" y1="86.9567" x2="127.398" y2="53.5138" gradientUnits="userSpaceOnUse">
<stop stop-color="#A81C69"/>
<stop offset="0.0773" stop-color="#89125A"/>
<stop offset="0.128" stop-color="#7A0D52"/>
<stop offset="0.2843" stop-color="#700D52"/>
<stop offset="0.5839" stop-color="#610D52"/>
<stop offset="0.6597" stop-color="#670E53"/>
<stop offset="0.7561" stop-color="#761157"/>
<stop offset="0.8636" stop-color="#90155E"/>
<stop offset="0.9785" stop-color="#B41B67"/>
<stop offset="1" stop-color="#BC1C69"/>
</linearGradient>
<radialGradient id="paint4_radial_15_146" cx="0" cy="0" r="1" gradientUnits="userSpaceOnUse" gradientTransform="translate(104.675 122.588) scale(98.57 98.57)">
<stop offset="0.3422" stop-color="#DA334F"/>
<stop offset="0.6759" stop-color="#FF597D"/>
<stop offset="0.9892" stop-color="#FFA19A"/>
</radialGradient>
<linearGradient id="paint5_linear_15_146" x1="85.4919" y1="30.985" x2="107.33" y2="82.8792" gradientUnits="userSpaceOnUse">
<stop offset="0.0757" stop-color="white"/>
<stop offset="1" stop-color="white" stop-opacity="0"/>
</linearGradient>
<linearGradient id="paint6_linear_15_146" x1="85.7979" y1="48.5034" x2="109.514" y2="84.1955" gradientUnits="userSpaceOnUse">
<stop stop-color="#F2F9FF"/>
<stop offset="0.9569" stop-color="#D0BCFF"/>
<stop offset="1" stop-color="#CEB9FF"/>
</linearGradient>
<linearGradient id="paint7_linear_15_146" x1="184.3" y1="56.4579" x2="49.0663" y2="165.473" gradientUnits="userSpaceOnUse">
<stop offset="0.00217948" stop-color="#E0D4FF"/>
<stop offset="0.0164" stop-color="#C9BBF5"/>
<stop offset="0.0295" stop-color="#BBABEF"/>
<stop offset="0.0398" stop-color="#B6A5ED"/>
<stop offset="0.1763" stop-color="#A696E2"/>
<stop offset="0.4435" stop-color="#7B6EC5"/>
<stop offset="0.5341" stop-color="#6B5FBA"/>
<stop offset="0.7181" stop-color="#6D61BB"/>
<stop offset="0.7844" stop-color="#7468BF"/>
<stop offset="0.8316" stop-color="#7F73C6"/>
<stop offset="0.8698" stop-color="#9084D0"/>
<stop offset="0.9025" stop-color="#A69ADD"/>
<stop offset="0.931" stop-color="#C1B5ED"/>
<stop offset="0.9563" stop-color="#E0D4FF"/>
</linearGradient>
<linearGradient id="paint8_linear_15_146" x1="38.6581" y1="133.044" x2="83.5034" y2="120.412" gradientUnits="userSpaceOnUse">
<stop stop-color="#E07CEC"/>
<stop offset="0.0231" stop-color="#C86CDA"/>
<stop offset="0.0643" stop-color="#A453BF"/>
<stop offset="0.1028" stop-color="#8A41AC"/>
<stop offset="0.1372" stop-color="#7A36A0"/>
<stop offset="0.164" stop-color="#74329C"/>
<stop offset="0.615" stop-color="#74329C"/>
<stop offset="0.6892" stop-color="#74329C"/>
<stop offset="0.8029" stop-color="#74329C"/>
<stop offset="0.8216" stop-color="#74329C"/>
<stop offset="0.8528" stop-color="#79359F"/>
<stop offset="0.8884" stop-color="#863FAA"/>
<stop offset="0.9261" stop-color="#9D4EBB"/>
<stop offset="0.965" stop-color="#BD64D2"/>
<stop offset="1" stop-color="#E07CEC"/>
</linearGradient>
<linearGradient id="paint9_linear_15_146" x1="49.155" y1="170.123" x2="60.619" y2="124.267" gradientUnits="userSpaceOnUse">
<stop offset="0.2849" stop-color="#CB25DF"/>
<stop offset="0.9937" stop-color="#E07CEC"/>
</linearGradient>
<linearGradient id="paint10_linear_15_146" x1="63.7301" y1="111.558" x2="59.2829" y2="129.734" gradientUnits="userSpaceOnUse">
<stop offset="0.0757" stop-color="white"/>
<stop offset="1" stop-color="white" stop-opacity="0"/>
</linearGradient>
<linearGradient id="paint11_linear_15_146" x1="128.199" y1="99.155" x2="13.3197" y2="157.457" gradientUnits="userSpaceOnUse">
<stop stop-color="#32A5FC"/>
<stop offset="0.0191" stop-color="#2B97EE"/>
<stop offset="0.073" stop-color="#1874CD"/>
<stop offset="0.124" stop-color="#0B5BB5"/>
<stop offset="0.1704" stop-color="#034CA6"/>
<stop offset="0.2081" stop-color="#0047A1"/>
<stop offset="0.2507" stop-color="#00429B"/>
<stop offset="0.3047" stop-color="#00368C"/>
<stop offset="0.3456" stop-color="#00287B"/>
<stop offset="0.5052" stop-color="#002C81"/>
<stop offset="0.7077" stop-color="#003990"/>
<stop offset="0.8612" stop-color="#0047A1"/>
<stop offset="0.8856" stop-color="#034DA6"/>
<stop offset="0.9167" stop-color="#0B5CB6"/>
<stop offset="0.9514" stop-color="#1976CF"/>
<stop offset="0.9884" stop-color="#2C9AF2"/>
<stop offset="0.998" stop-color="#32A5FC"/>
</linearGradient>
<linearGradient id="paint12_linear_15_146" x1="25.7383" y1="126.604" x2="109.721" y2="107.195" gradientUnits="userSpaceOnUse">
<stop stop-color="#31FFAE"/>
<stop offset="0.0029074" stop-color="#2BF3A6"/>
<stop offset="0.0103" stop-color="#1EDA96"/>
<stop offset="0.0171" stop-color="#17CB8C"/>
<stop offset="0.0226" stop-color="#14C689"/>
<stop offset="0.0387" stop-color="#11BB84"/>
<stop offset="0.0793" stop-color="#0BA579"/>
<stop offset="0.1273" stop-color="#069471"/>
<stop offset="0.1866" stop-color="#02896B"/>
<stop offset="0.2698" stop-color="#018268"/>
<stop offset="0.5009" stop-color="#008067"/>
<stop offset="0.7995" stop-color="#008067"/>
<stop offset="0.842" stop-color="#008067"/>
<stop offset="0.8601" stop-color="#018569"/>
<stop offset="0.882" stop-color="#069471"/>
<stop offset="0.9059" stop-color="#0DAC7D"/>
<stop offset="0.9254" stop-color="#14C689"/>
<stop offset="0.9434" stop-color="#17CC8B"/>
<stop offset="0.9669" stop-color="#21DC92"/>
<stop offset="0.9934" stop-color="#31F79C"/>
<stop offset="1" stop-color="#36FF9F"/>
</linearGradient>
<linearGradient id="paint13_linear_15_146" x1="64.3806" y1="157.542" x2="67.4854" y2="83.3704" gradientUnits="userSpaceOnUse">
<stop offset="0.00023703" stop-color="#08BF8C"/>
<stop offset="0.4107" stop-color="#20E5A0"/>
<stop offset="0.6729" stop-color="#31FFAE"/>
<stop offset="0.9897" stop-color="#6EFFCD"/>
</linearGradient>
<linearGradient id="paint14_linear_15_146" x1="64.6338" y1="91.4496" x2="67.7275" y2="137.179" gradientUnits="userSpaceOnUse">
<stop offset="0.0757" stop-color="white"/>
<stop offset="1" stop-color="white" stop-opacity="0"/>
</linearGradient>
</defs>
</svg>
