<svg width="15" height="15" viewBox="0 0 15 15" fill="none" xmlns="http://www.w3.org/2000/svg">
<path opacity="0.72" d="M7.5 0C6.01664 0 4.56659 0.439867 3.33323 1.26398C2.09986 2.08809 1.13856 3.25943 0.570907 4.62987C0.00324964 6.00032 -0.145275 7.50832 0.144114 8.96318C0.433503 10.418 1.14781 11.7544 2.1967 12.8033C3.2456 13.8522 4.58197 14.5665 6.03683 14.8559C7.49168 15.1453 8.99968 14.9968 10.3701 14.4291C11.7406 13.8614 12.9119 12.9001 13.736 11.6668C14.5601 10.4334 15 8.98336 15 7.5C14.9979 5.51154 14.207 3.60513 12.8009 2.19907C11.3949 0.793017 9.48847 0.00215068 7.5 0V0ZM9.51375 4.375H5.48625C6.01673 3.32767 6.69491 2.36197 7.5 1.5075C8.30539 2.36173 8.9836 3.32747 9.51375 4.375ZM10.0138 5.625C10.2058 6.23167 10.3061 6.86366 10.3113 7.5C10.3061 8.13634 10.2058 8.76833 10.0138 9.375H4.985C4.79291 8.76833 4.69263 8.13634 4.6875 7.5C4.69263 6.86366 4.79291 6.23167 4.985 5.625H10.0138ZM5.875 1.4725C5.15479 2.35361 4.56037 3.33044 4.10875 4.375H2.09563C2.92429 2.94777 4.28229 1.90485 5.875 1.4725ZM1.25 7.5C1.24995 6.86397 1.34711 6.23167 1.53813 5.625H3.6875C3.52548 6.23696 3.44148 6.86696 3.4375 7.5C3.44148 8.13304 3.52548 8.76303 3.6875 9.375H1.53813C1.34711 8.76833 1.24995 8.13603 1.25 7.5ZM2.09563 10.625H4.10875C4.56037 11.6696 5.15479 12.6464 5.875 13.5275C4.28229 13.0952 2.92429 12.0522 2.09563 10.625ZM5.48625 10.625H9.51375C8.98327 11.6723 8.3051 12.638 7.5 13.4925C6.69461 12.6383 6.0164 11.6725 5.48625 10.625ZM9.12813 13.5275C9.84724 12.6462 10.4406 11.6694 10.8913 10.625H12.9044C12.0764 12.0516 10.7197 13.0944 9.12813 13.5275ZM13.75 7.5C13.7501 8.13603 13.6529 8.76833 13.4619 9.375H11.3125C11.4745 8.76303 11.5585 8.13304 11.5625 7.5C11.5585 6.86696 11.4745 6.23696 11.3125 5.625H13.4606C13.6521 6.2316 13.7497 6.8639 13.75 7.5ZM10.8913 4.375C10.4406 3.33061 9.84724 2.3538 9.12813 1.4725C10.7197 1.90558 12.0764 2.94842 12.9044 4.375H10.8913Z" fill="white"/>
</svg>
