<svg width="80" height="80" viewBox="0 0 80 80" fill="none" xmlns="http://www.w3.org/2000/svg">
<rect width="80" height="80" rx="40" fill="url(#paint0_linear_230_9)"/>
<path d="M50.1088 34.7712V33.275C50.1088 28.7125 46.3963 25 41.835 25H33.2738C28.7125 25 25 28.7125 25 33.275V46.725C25 51.2875 28.7125 55 33.2738 55H46.7262C51.2875 55 55 51.2875 55 46.725V38.165C55 35.4487 52.835 34.6575 50.1088 34.7712ZM53.125 46.725C53.125 50.2537 50.2537 53.125 46.7262 53.125H33.2738C29.7463 53.125 26.875 50.2537 26.875 46.725V33.275C26.875 29.7463 29.7463 26.875 33.2738 26.875H41.835C45.3625 26.875 48.2338 29.7463 48.2338 33.275C48.4487 35.5825 47.4963 36.7788 49.925 36.6575C51.6688 36.57 53.1262 36.6088 53.1262 38.1675V46.725H53.125Z" fill="white"/>
<path d="M35.1087 37.88H40C43.675 37.88 43.6688 32.3363 40 32.3363H35.1087C31.4337 32.3375 31.4387 37.88 35.1087 37.88ZM35.1087 34.2125H40C41.2013 34.2125 41.2025 36.0063 40 36.0063H35.1087C33.9075 36.005 33.9062 34.2125 35.1087 34.2125Z" fill="white"/>
<path d="M44.8913 42.12H35.1088C31.445 42.12 31.4388 47.6637 35.1088 47.6637H44.8913C48.555 47.6625 48.5613 42.12 44.8913 42.12ZM44.8913 45.7875H35.1088C33.9213 45.7875 33.9225 43.9937 35.1088 43.9937H44.8913C46.0788 43.995 46.0775 45.7875 44.8913 45.7875Z" fill="white"/>
<defs>
<linearGradient id="paint0_linear_230_9" x1="12.0105" y1="11.2791" x2="64.0544" y2="71.4625" gradientUnits="userSpaceOnUse">
<stop stop-color="#166AFF"/>
<stop offset="1" stop-color="#2ED0FA"/>
</linearGradient>
</defs>
</svg>
