<svg width="80" height="80" viewBox="0 0 80 80" fill="none" xmlns="http://www.w3.org/2000/svg">
<rect width="80" height="80" rx="40" fill="url(#paint0_linear_230_5)"/>
<g clip-path="url(#clip0_230_5)">
<path d="M37.2379 55V41.2008C37.2379 40.6945 36.8256 40.2822 36.3193 40.2822H32.902V36.9009H36.3193C36.8256 36.9009 37.2379 36.4887 37.2379 35.9823V32.1608C37.2379 30.5602 37.7516 26.8372 42.5079 26.8372H47.0657V30.1193H43.8145C42.7812 30.1193 41.5745 30.7315 41.5745 32.4577V35.95C41.5745 36.4563 41.9868 36.8686 42.4932 36.8686H47.0018L46.6586 40.2829H42.4924C41.9861 40.2829 41.5738 40.6952 41.5738 41.2016V55.0007H43.411V42.1194H47.4883C47.9623 42.1194 48.3547 41.7638 48.4025 41.2927L48.9309 36.0418C48.9566 35.7839 48.8721 35.5259 48.6979 35.3334C48.5237 35.1409 48.2761 35.0306 48.0166 35.0306H43.411V32.457C43.411 32.0058 43.5404 31.9558 43.8138 31.9558H47.9836C48.4899 31.9558 48.9022 31.5435 48.9022 31.0372V25.9186C48.9022 25.4123 48.4899 25 47.9836 25H42.5071C39.3272 25 37.6355 26.4037 36.7764 27.5817C35.5792 29.2227 35.4007 31.1548 35.4007 32.1608V35.0644H31.9834C31.477 35.0644 31.0648 35.4767 31.0648 35.983V41.2016C31.0648 41.7079 31.477 42.1202 31.9834 42.1202H35.4007V55.0007H37.2379V55Z" fill="white"/>
</g>
<defs>
<linearGradient id="paint0_linear_230_5" x1="12.0105" y1="11.2791" x2="64.0544" y2="71.4625" gradientUnits="userSpaceOnUse">
<stop stop-color="#166AFF"/>
<stop offset="1" stop-color="#2ED0FA"/>
</linearGradient>
<clipPath id="clip0_230_5">
<rect width="17.8705" height="30" fill="white" transform="translate(31.0648 25)"/>
</clipPath>
</defs>
</svg>
