<svg width="80" height="80" viewBox="0 0 80 80" fill="none" xmlns="http://www.w3.org/2000/svg">
<rect width="80" height="80" rx="40" fill="url(#paint0_linear_198_205)"/>
<path d="M40 27.7025C44.005 27.7025 44.48 27.7175 46.0613 27.79C47.6963 27.865 49.38 28.2375 50.5713 29.4288C51.7738 30.6312 52.135 32.2988 52.21 33.9388C52.2825 35.52 52.2975 35.995 52.2975 40C52.2975 44.005 52.2825 44.48 52.21 46.0613C52.1362 47.6875 51.755 49.3875 50.5713 50.5713C49.3688 51.7738 47.7025 52.135 46.0613 52.21C44.48 52.2825 44.005 52.2975 40 52.2975C35.995 52.2975 35.52 52.2825 33.9388 52.21C32.325 52.1362 30.6025 51.7463 29.4288 50.5713C28.2325 49.375 27.865 47.6913 27.79 46.0613C27.7175 44.48 27.7025 44.005 27.7025 40C27.7025 35.995 27.7175 35.52 27.79 33.9388C27.8638 32.3188 28.2487 30.6087 29.4288 29.4288C30.6287 28.2287 32.3025 27.865 33.9388 27.79C35.52 27.7175 35.995 27.7025 40 27.7025ZM40 25C35.9262 25 35.415 25.0175 33.815 25.09C31.4963 25.1963 29.1937 25.8412 27.5175 27.5175C25.835 29.2 25.1963 31.4975 25.09 33.815C25.0175 35.415 25 35.9262 25 40C25 44.0737 25.0175 44.585 25.09 46.185C25.1963 48.5013 25.8437 50.81 27.5175 52.4825C29.1988 54.1637 31.5 54.8037 33.815 54.91C35.415 54.9825 35.9262 55 40 55C44.0737 55 44.585 54.9825 46.185 54.91C48.5025 54.8037 50.8075 54.1575 52.4825 52.4825C54.1663 50.7987 54.8037 48.5025 54.91 46.185C54.9825 44.585 55 44.0737 55 40C55 35.9262 54.9825 35.415 54.91 33.815C54.8037 31.4963 54.1575 29.1925 52.4825 27.5175C50.8037 25.8387 48.4963 25.195 46.185 25.09C44.585 25.0175 44.0737 25 40 25Z" fill="white"/>
<path d="M40 32.2975C35.7462 32.2975 32.2975 35.7462 32.2975 40C32.2975 44.2537 35.7462 47.7025 40 47.7025C44.2537 47.7025 47.7025 44.2537 47.7025 40C47.7025 35.7462 44.2537 32.2975 40 32.2975ZM40 45C37.2387 45 35 42.7612 35 40C35 37.2387 37.2387 35 40 35C42.7612 35 45 37.2387 45 40C45 42.7612 42.7612 45 40 45Z" fill="white"/>
<path d="M48.0075 33.7925C49.0016 33.7925 49.8075 32.9866 49.8075 31.9925C49.8075 30.9984 49.0016 30.1925 48.0075 30.1925C47.0134 30.1925 46.2075 30.9984 46.2075 31.9925C46.2075 32.9866 47.0134 33.7925 48.0075 33.7925Z" fill="white"/>
<defs>
<linearGradient id="paint0_linear_198_205" x1="12.0105" y1="11.2791" x2="64.0544" y2="71.4625" gradientUnits="userSpaceOnUse">
<stop stop-color="#166AFF"/>
<stop offset="1" stop-color="#2ED0FA"/>
</linearGradient>
</defs>
</svg>
