<svg width="80" height="80" viewBox="0 0 80 80" fill="none" xmlns="http://www.w3.org/2000/svg">
<rect width="80" height="80" rx="40" fill="url(#paint0_linear_230_7)"/>
<path d="M31.998 34.4139H26.3496C25.8642 34.4139 25.4707 34.8076 25.4707 35.2928V54.1211C25.4707 54.6066 25.8642 55 26.3496 55H31.998C32.4834 55 32.8769 54.6066 32.8769 54.1211V35.2928C32.8769 34.8076 32.4834 34.4139 31.998 34.4139ZM31.119 53.2422H27.2285V36.1717H31.119V53.2422Z" fill="white"/>
<path d="M29.174 25C27.1319 25 25.4707 26.6612 25.4707 28.7029C25.4707 30.7449 27.1319 32.4059 29.174 32.4059C31.2159 32.4059 32.8769 30.7447 32.8769 28.7029C32.8769 26.6612 31.2159 25 29.174 25ZM29.174 30.6481C28.1012 30.6481 27.2285 29.7756 27.2285 28.7029C27.2285 27.6303 28.1012 26.7578 29.174 26.7578C30.2466 26.7578 31.119 27.6303 31.119 28.7029C31.119 29.7756 30.2466 30.6481 29.174 30.6481Z" fill="white"/>
<path d="M46.1197 34.2896C44.7838 34.2896 43.467 34.6117 42.2878 35.2141C42.2477 34.7657 41.8712 34.4139 41.4123 34.4139H35.7635C35.2783 34.4139 34.8846 34.8076 34.8846 35.2928V54.1211C34.8846 54.6066 35.2783 55 35.7635 55H41.4123C41.8978 55 42.2912 54.6066 42.2912 54.1211V43.7656C42.2912 42.4335 43.3752 41.3497 44.7073 41.3497C46.0394 41.3497 47.1229 42.4335 47.1229 43.7656V54.1211C47.1229 54.6066 47.5166 55 48.0018 55H53.6504C54.1359 55 54.5293 54.6066 54.5293 54.1211V42.6992C54.5293 38.0621 50.7569 34.2896 46.1197 34.2896ZM52.7715 53.2422H48.881V43.7656C48.881 41.4642 47.0087 39.5919 44.7075 39.5919C42.4059 39.5919 40.5334 41.4642 40.5334 43.7656V53.2422H36.6427V36.1717H40.5334V36.8211C40.5334 37.1591 40.7273 37.4672 41.0322 37.6134C41.3368 37.7597 41.6984 37.718 41.9623 37.5068C43.1525 36.5521 44.5903 36.0474 46.1197 36.0474C49.7876 36.0474 52.7715 39.0314 52.7715 42.6992V53.2422Z" fill="white"/>
<defs>
<linearGradient id="paint0_linear_230_7" x1="12.0105" y1="11.2791" x2="64.0544" y2="71.4625" gradientUnits="userSpaceOnUse">
<stop stop-color="#166AFF"/>
<stop offset="1" stop-color="#2ED0FA"/>
</linearGradient>
</defs>
</svg>
