<svg width="80" height="80" viewBox="0 0 80 80" fill="none" xmlns="http://www.w3.org/2000/svg">
<rect width="80" height="80" rx="40" fill="url(#paint0_linear_230_11)"/>
<path d="M42.4075 40C42.4075 47.323 36.5139 53.25 29.252 53.25C21.9921 53.25 16.0985 47.323 16.0985 40C16.0985 32.677 21.992 26.75 29.254 26.75C36.5139 26.75 42.4075 32.677 42.4075 40ZM57.6626 40C57.6626 43.5422 56.9037 46.7118 55.7132 48.9686C54.5047 51.2596 52.9646 52.4283 51.4609 52.4283C49.9573 52.4283 48.4171 51.2596 47.2086 48.9686C46.0181 46.7118 45.2592 43.5422 45.2592 40C45.2592 36.4578 46.0181 33.2882 47.2086 31.0314C48.4171 28.7404 49.9573 27.5717 51.4609 27.5717C52.9635 27.5717 54.5036 28.7403 55.7125 31.0314C56.9032 33.2883 57.6626 36.4578 57.6626 40ZM63.9015 40C63.9015 43.2249 63.6302 46.1236 63.2009 48.1971C62.985 49.24 62.737 50.0346 62.4846 50.5503C62.3759 50.7725 62.28 50.9144 62.2069 50.9977C62.1338 50.9144 62.0379 50.7726 61.9292 50.5505C61.6768 50.035 61.4288 49.2406 61.2129 48.1979C60.7836 46.1246 60.5123 43.226 60.5123 40C60.5123 36.774 60.7836 33.8754 61.2129 31.8021C61.4288 30.7594 61.6768 29.965 61.9292 29.4495C62.0379 29.2274 62.1338 29.0856 62.2069 29.0023C62.2799 29.0857 62.3759 29.2275 62.4846 29.4497C62.737 29.9654 62.985 30.76 63.2009 31.8029C63.6302 33.8764 63.9015 36.7751 63.9015 40ZM62.125 51.0746C62.1251 51.0745 62.1258 51.0741 62.1271 51.0734C62.1257 51.0743 62.125 51.0747 62.125 51.0746ZM62.2866 51.0734C62.288 51.0741 62.2887 51.0746 62.2887 51.0746C62.2886 51.0746 62.2879 51.0742 62.2866 51.0734ZM62.2887 28.9254C62.2887 28.9255 62.288 28.9259 62.2866 28.9266C62.288 28.9257 62.2887 28.9254 62.2887 28.9254ZM62.1271 28.9266C62.1257 28.9259 62.125 28.9254 62.125 28.9254C62.125 28.9254 62.1257 28.9257 62.1271 28.9266Z" stroke="white" stroke-width="1.5"/>
<defs>
<linearGradient id="paint0_linear_230_11" x1="12.0105" y1="11.2791" x2="64.0544" y2="71.4625" gradientUnits="userSpaceOnUse">
<stop stop-color="#166AFF"/>
<stop offset="1" stop-color="#2ED0FA"/>
</linearGradient>
</defs>
</svg>
