<svg width="80" height="80" viewBox="0 0 80 80" fill="none" xmlns="http://www.w3.org/2000/svg">
<rect width="80" height="80" rx="40" fill="url(#paint0_linear_230_8)"/>
<path d="M34.6743 44.7453C36.0054 44.7453 37.0844 43.6663 37.0844 42.3353C37.0844 41.0042 36.0054 39.9252 34.6743 39.9252C33.3433 39.9252 32.2642 41.0042 32.2642 42.3353C32.2642 43.6663 33.3433 44.7453 34.6743 44.7453Z" fill="white"/>
<path d="M57.8839 40.3854C57.8839 37.4074 55.5396 34.9849 52.658 34.9849C51.6468 34.9849 50.7081 35.291 49.9089 35.8034C47.4297 34.3637 44.3032 33.4692 40.8888 33.3468L42.8567 27.6969L46.9332 28.6729C46.9196 28.8078 46.8935 28.937 46.8935 29.0753C46.8935 31.3222 48.722 33.1507 50.97 33.1507C53.2146 33.1507 55.0465 31.3233 55.0465 29.0753C55.0465 26.8274 53.2157 25 50.97 25C49.5042 25 48.2301 25.7822 47.5125 26.9442L41.6834 25.5498L38.9627 33.3581C35.5642 33.5327 32.4705 34.4804 30.0378 35.9587C30.0865 35.9247 30.1285 35.8861 30.1772 35.8521C29.3588 35.3057 28.3872 34.9838 27.3421 34.9838C24.4593 34.9838 22.1161 37.4052 22.1161 40.3843C22.1161 42.3761 23.176 44.1037 24.737 45.0367C25.3764 50.605 32.0137 55 40.0964 55C48.2312 55 54.9025 50.546 55.4671 44.9267C56.9158 43.9711 57.8839 42.2944 57.8839 40.3854ZM50.9677 26.8161C52.2136 26.8161 53.2282 27.8306 53.2282 29.0776C53.2282 30.3235 52.2124 31.338 50.9677 31.338C49.7174 31.338 48.705 30.3235 48.705 29.0776C48.705 27.8295 49.7208 26.8161 50.9677 26.8161ZM27.3409 36.7987C27.7524 36.7987 28.1401 36.8882 28.5051 37.0288C26.5327 38.6102 25.2075 40.594 24.8084 42.7842C24.2632 42.1471 23.9265 41.3082 23.9265 40.3854C23.9265 38.4084 25.4591 36.7987 27.3409 36.7987ZM40.0941 53.1885C32.5884 53.1885 26.4839 49.1392 26.4839 44.1615C26.4839 39.1827 32.5884 35.1345 40.0941 35.1345C47.5986 35.1345 53.702 39.1838 53.702 44.1615C53.702 49.1381 47.5986 53.1885 40.0941 53.1885ZM55.3356 42.5869C54.89 40.4557 53.5683 38.5274 51.6264 36.9857C51.954 36.8746 52.2963 36.7987 52.658 36.7987C54.5386 36.7987 56.0701 38.4073 56.0701 40.3854C56.0679 41.2175 55.789 41.9782 55.3356 42.5869Z" fill="white"/>
<path d="M45.0378 44.7453C46.3688 44.7453 47.4479 43.6663 47.4479 42.3353C47.4479 41.0042 46.3688 39.9252 45.0378 39.9252C43.7067 39.9252 42.6277 41.0042 42.6277 42.3353C42.6277 43.6663 43.7067 44.7453 45.0378 44.7453Z" fill="white"/>
<path d="M44.6501 47.6929C39.5443 51.0631 35.4248 47.8878 35.2411 47.7439C34.85 47.4299 34.281 47.4922 33.9681 47.881C33.6552 48.2733 33.7142 48.8423 34.1041 49.1564C34.1381 49.1847 36.4915 51.0348 39.9094 51.0348C41.6087 51.0348 43.5732 50.5756 45.6477 49.2074C46.066 48.9308 46.1817 48.3685 45.9073 47.9525C45.6296 47.533 45.0673 47.4163 44.6501 47.6929Z" fill="white"/>
<defs>
<linearGradient id="paint0_linear_230_8" x1="12.0105" y1="11.2791" x2="64.0544" y2="71.4625" gradientUnits="userSpaceOnUse">
<stop stop-color="#166AFF"/>
<stop offset="1" stop-color="#2ED0FA"/>
</linearGradient>
</defs>
</svg>
