<svg width="80" height="80" viewBox="0 0 80 80" fill="none" xmlns="http://www.w3.org/2000/svg">
<rect width="80" height="80" rx="40" fill="url(#paint0_linear_230_6)"/>
<path d="M57.0907 30.1361C56.8868 29.8044 56.5137 29.6164 56.1254 29.6501L54.4058 29.7999L56.0494 26.4865C56.2452 26.0918 56.1679 25.6164 55.8572 25.3041C55.5464 24.9917 55.0714 24.9121 54.6759 25.1058L50.3256 27.2364C47.6379 25.8174 44.28 26.2386 41.9694 28.3434C40.041 30.1 39.0274 32.8015 39.2164 35.4954C34.1762 34.9903 29.9099 32.1054 27.3872 27.4439C27.2198 27.1347 26.906 26.9324 26.5553 26.9076C26.2039 26.8831 25.8653 27.0389 25.6561 27.3216C24.0915 29.4353 23.9817 32.3335 25.2083 34.7178C24.8702 34.6324 24.5103 34.5168 24.1113 34.3835C23.7695 34.2692 23.3926 34.3424 23.1183 34.5763C22.844 34.8102 22.7121 35.1706 22.7707 35.5263C23.2561 38.4689 24.9721 40.7305 27.6827 42.0691C27.3298 42.192 26.9696 42.2918 26.6034 42.3681C26.2396 42.444 25.945 42.7102 25.8328 43.0645C25.7207 43.4188 25.8084 43.8061 26.0623 44.0775C28.0143 46.164 30.8341 47.191 32.837 47.6837C30.5597 49.467 28.1014 49.7655 24.5293 49.6428C24.1158 49.6303 23.7348 49.8632 23.561 50.2381C23.3872 50.613 23.4546 51.0555 23.7323 51.3616C25.2214 53.003 30.6466 54.8538 36.3498 54.9926C36.5754 54.998 36.8054 55.001 37.0404 55.001C41.0447 55.0009 46.337 54.1425 50.1356 50.3439C53.0108 47.4687 54.8092 44.1588 55.4807 40.5064C56.023 37.5564 55.6803 35.1941 55.5156 34.0587C55.5035 33.9753 55.4905 33.8867 55.48 33.8093L57.0885 31.2167C57.2937 30.886 57.2946 30.4677 57.0907 30.1361ZM53.48 34.354C53.7852 36.4571 54.7137 42.857 48.6813 48.8895C45.1747 52.3959 40.0673 53.0256 36.3998 52.9365C33.2704 52.8603 30.4712 52.2618 28.4424 51.5792C29.2661 51.4782 30.0002 51.3223 30.6931 51.107C32.6032 50.5133 34.2169 49.4449 35.7713 47.7449C36.0305 47.4616 36.1101 47.0576 35.978 46.6971C35.8459 46.3366 35.5239 46.0797 35.1431 46.0309C34.1625 45.9053 31.2159 45.4093 28.8957 43.8088C29.5643 43.5353 30.2092 43.1931 30.8249 42.7846C31.1627 42.5604 31.3374 42.1589 31.2709 41.759C31.2044 41.3592 30.9093 41.0355 30.5172 40.9327C28.6181 40.4348 26.3261 39.3208 25.2692 36.8338C25.9441 36.9521 26.678 36.9807 27.4607 36.8052C27.8234 36.724 28.1141 36.4532 28.2208 36.0971C28.3276 35.7409 28.2338 35.3548 27.9756 35.0874C26.6605 33.7253 26.1688 31.7625 26.5907 30.0828C27.9724 32.1022 29.7229 33.8017 31.7285 35.0582C34.2942 36.6657 37.2887 37.554 40.3884 37.627C40.7039 37.6336 41.0064 37.496 41.2073 37.2516C41.408 37.0073 41.4852 36.6842 41.4166 36.3755C40.8832 33.978 41.6439 31.4221 43.3544 29.864C45.1286 28.2478 47.7507 28.0026 49.7307 29.2681C50.0331 29.4614 50.4145 29.483 50.7369 29.3251L52.8614 28.2846L51.7494 30.5263C51.5842 30.8593 51.6116 31.2557 51.8211 31.5627C52.0306 31.8698 52.389 32.0403 52.7599 32.0078L54.258 31.8773L53.5679 32.9897C53.3363 33.363 53.3843 33.6943 53.48 34.354Z" fill="white"/>
<defs>
<linearGradient id="paint0_linear_230_6" x1="12.0105" y1="11.2791" x2="64.0544" y2="71.4625" gradientUnits="userSpaceOnUse">
<stop stop-color="#166AFF"/>
<stop offset="1" stop-color="#2ED0FA"/>
</linearGradient>
</defs>
</svg>
