<svg width="80" height="80" viewBox="0 0 80 80" fill="none" xmlns="http://www.w3.org/2000/svg">
<rect width="80" height="80" rx="40" fill="url(#paint0_linear_230_10)"/>
<path d="M40 25.9C41.9037 25.9 43.75 26.2725 45.4875 27.0075C48.8263 28.42 51.58 31.1737 52.9912 34.5113C53.7275 36.25 54.1 38.0962 54.1 40C54.1 41.9037 53.7275 43.75 52.9925 45.4875C51.5975 48.7862 48.805 51.5887 45.4888 52.9912C43.75 53.7275 41.9037 54.1 40 54.1C38.0962 54.1 36.25 53.7275 34.5125 52.9925C31.215 51.5975 28.4112 48.8038 27.0087 45.4888C26.2725 43.75 25.9 41.9037 25.9 40C25.9 38.0962 26.2725 36.25 27.0075 34.5125C28.42 31.1737 31.175 28.4187 34.5125 27.0075C36.25 26.2725 38.0962 25.9 40 25.9ZM40 25C31.7163 25 25 31.7163 25 40C25 48.2838 31.7163 55 40 55C48.2838 55 55 48.2838 55 40C55 31.7163 48.2838 25 40 25Z" fill="white"/>
<path d="M27.5 40C27.5 44.9475 30.375 49.2238 34.545 51.25L28.5825 34.9125C27.8887 36.4675 27.5 38.1875 27.5 40ZM48.4388 39.3688C48.4388 37.8238 47.8838 36.7538 47.4088 35.9213C46.775 34.8913 46.1813 34.02 46.1813 32.99C46.1813 31.8413 47.0525 30.7713 48.28 30.7713C48.335 30.7713 48.3875 30.7775 48.4413 30.7813C46.2175 28.7438 43.2538 27.5 40 27.5C35.6325 27.5 31.7913 29.7413 29.5563 33.1338C29.85 33.1438 30.1263 33.1488 30.36 33.1488C31.6675 33.1488 33.6913 32.99 33.6913 32.99C34.365 32.95 34.4438 33.94 33.7713 34.02C33.7713 34.02 33.0938 34.0988 32.3413 34.1388L36.8925 47.6788L39.6288 39.475L37.6813 34.1388C37.0088 34.1 36.37 34.02 36.37 34.02C35.6963 33.98 35.7763 32.9513 36.45 32.99C36.45 32.99 38.5138 33.1488 39.7425 33.1488C41.05 33.1488 43.075 32.99 43.075 32.99C43.7488 32.95 43.8275 33.94 43.155 34.02C43.155 34.02 42.4775 34.0988 41.725 34.1388L46.2425 47.575L47.5325 43.4888C48.1025 41.7038 48.4388 40.4388 48.4388 39.3688ZM40.22 41.0925L36.4688 51.99C37.5888 52.32 38.7725 52.5 40 52.5C41.455 52.5 42.8525 52.2488 44.1513 51.7913C44.1175 51.7375 44.0875 51.6813 44.0613 51.6188L40.22 41.0925ZM50.9688 34.0025C51.0225 34.4 51.0525 34.8275 51.0525 35.2875C51.0525 36.555 50.815 37.9813 50.1013 39.765L46.2838 50.8038C50.0013 48.6375 52.5 44.6113 52.5 40C52.5 37.8263 51.945 35.7838 50.9688 34.0025Z" fill="white"/>
<defs>
<linearGradient id="paint0_linear_230_10" x1="12.0105" y1="11.2791" x2="64.0544" y2="71.4625" gradientUnits="userSpaceOnUse">
<stop stop-color="#166AFF"/>
<stop offset="1" stop-color="#2ED0FA"/>
</linearGradient>
</defs>
</svg>
