<svg width="11" height="16" viewBox="0 0 11 16" fill="none" xmlns="http://www.w3.org/2000/svg">
<path d="M7.33333 16H3.33333C1.49533 16 0 14.5047 0 12.6667V3.33333C0 1.49533 1.49533 0 3.33333 0H7.33333C9.17133 0 10.6667 1.49533 10.6667 3.33333V12.6667C10.6667 14.5047 9.17133 16 7.33333 16ZM3.33333 1.33333C2.23067 1.33333 1.33333 2.23067 1.33333 3.33333V12.6667C1.33333 13.7693 2.23067 14.6667 3.33333 14.6667H7.33333C8.436 14.6667 9.33333 13.7693 9.33333 12.6667V3.33333C9.33333 2.23067 8.436 1.33333 7.33333 1.33333H3.33333ZM6.66667 12.6667C6.66667 12.2987 6.368 12 6 12H4.66667C4.29867 12 4 12.2987 4 12.6667C4 13.0347 4.29867 13.3333 4.66667 13.3333H6C6.368 13.3333 6.66667 13.0347 6.66667 12.6667Z" fill="#0C2041"/>
</svg>
