<svg width="16" height="16" viewBox="0 0 16 16" fill="none" xmlns="http://www.w3.org/2000/svg">
<path d="M8 16C6.916 16 5.89333 15.524 5.19467 14.694C4.168 14.812 3.11 14.4233 2.34333 13.6573C1.57733 12.8907 1.19067 11.8307 1.28333 10.7493C0.476 10.1067 0 9.084 0 8C0 6.916 0.476 5.89333 1.30667 5.19467C1.19 4.17 1.57667 3.11 2.34333 2.34333C3.11 1.576 4.168 1.19 5.25067 1.28333C5.89333 0.476667 6.916 0 8 0C9.084 0 10.1067 0.476 10.8053 1.306C11.8333 1.18867 12.89 1.57667 13.6567 2.34267C14.4227 3.10933 14.8093 4.16933 14.7167 5.25067C15.524 5.89333 16 6.916 16 8C16 9.084 15.524 10.1067 14.6933 10.8053C14.81 11.83 14.4233 12.89 13.6567 13.6567C12.8893 14.4233 11.8293 14.8093 10.7493 14.7167C10.1067 15.5233 9.084 16 8 16ZM5.24867 13.384C5.62267 13.384 5.96933 13.5447 6.214 13.8347C6.65933 14.3633 7.31 14.6667 8 14.6667C8.69 14.6667 9.34067 14.3633 9.786 13.8347C10.0547 13.5153 10.446 13.354 10.8633 13.388C11.5527 13.446 12.226 13.2013 12.714 12.7133C13.2013 12.226 13.4473 11.5513 13.3887 10.8627C13.3527 10.4467 13.5153 10.054 13.8353 9.78467C14.3633 9.34 14.6667 8.68867 14.6667 7.99933C14.6667 7.31 14.3633 6.65867 13.8353 6.214C13.516 5.94533 13.3527 5.552 13.3887 5.136C13.4473 4.44733 13.202 3.77267 12.714 3.28533C12.226 2.798 11.5487 2.55467 10.864 2.61067C10.4467 2.64867 10.0547 2.48333 9.786 2.16467C9.34067 1.636 8.69 1.33267 8 1.33267C7.31 1.33267 6.65933 1.636 6.214 2.16467C5.94467 2.484 5.552 2.644 5.13667 2.61133C4.444 2.55133 3.774 2.798 3.286 3.286C2.79867 3.77333 2.55267 4.448 2.61133 5.13667C2.64733 5.55267 2.48467 5.94533 2.16467 6.21467C1.63667 6.65933 1.33333 7.31067 1.33333 8C1.33333 8.68933 1.63667 9.34067 2.16467 9.78533C2.484 10.054 2.64733 10.4473 2.61133 10.8633C2.55267 11.552 2.798 12.2267 3.286 12.714C3.774 13.202 4.45467 13.446 5.136 13.3887C5.174 13.3853 5.21133 13.384 5.24867 13.384ZM6 5.33333C5.632 5.33333 5.33333 5.632 5.33333 6C5.33333 6.368 5.632 6.66667 6 6.66667C6.368 6.66667 6.66667 6.368 6.66667 6C6.66667 5.632 6.368 5.33333 6 5.33333ZM10 9.33333C9.632 9.33333 9.33333 9.632 9.33333 10C9.33333 10.368 9.632 10.6667 10 10.6667C10.368 10.6667 10.6667 10.368 10.6667 10C10.6667 9.632 10.368 9.33333 10 9.33333ZM7.22133 10.37L9.888 6.37C10.0927 6.064 10.01 5.64933 9.70333 5.44533C9.396 5.24 8.98267 5.324 8.77867 5.63L6.112 9.63C5.90733 9.936 5.99 10.3507 6.29667 10.5547C6.41067 10.6307 6.53867 10.6667 6.666 10.6667C6.88133 10.6667 7.09333 10.5627 7.22133 10.37Z" fill="#0C2041"/>
</svg>
