<svg width="17" height="16" viewBox="0 0 17 16" fill="none" xmlns="http://www.w3.org/2000/svg">
<path d="M13.4583 0H3.54167C2.6027 0.00115481 1.70252 0.384641 1.03857 1.06634C0.374625 1.74804 0.00112473 2.67229 0 3.63636L0 12.3636C0.00112473 13.3277 0.374625 14.252 1.03857 14.9337C1.70252 15.6154 2.6027 15.9988 3.54167 16H13.4583C14.3973 15.9988 15.2975 15.6154 15.9614 14.9337C16.6254 14.252 16.9989 13.3277 17 12.3636V3.63636C16.9989 2.67229 16.6254 1.74804 15.9614 1.06634C15.2975 0.384641 14.3973 0.00115481 13.4583 0ZM3.54167 1.45455H13.4583C13.8825 1.4554 14.2967 1.58656 14.6476 1.83113C14.9985 2.0757 15.2701 2.42251 15.4275 2.82691L10.0031 8.39709C9.60389 8.80532 9.06342 9.03452 8.5 9.03452C7.93658 9.03452 7.39611 8.80532 6.99692 8.39709L1.5725 2.82691C1.72986 2.42251 2.00148 2.0757 2.35241 1.83113C2.70334 1.58656 3.11753 1.4554 3.54167 1.45455ZM13.4583 14.5455H3.54167C2.97808 14.5455 2.43758 14.3156 2.03906 13.9064C1.64055 13.4972 1.41667 12.9423 1.41667 12.3636V4.72727L5.99533 9.42546C6.66019 10.1064 7.56093 10.4888 8.5 10.4888C9.43907 10.4888 10.3398 10.1064 11.0047 9.42546L15.5833 4.72727V12.3636C15.5833 12.9423 15.3595 13.4972 14.9609 13.9064C14.5624 14.3156 14.0219 14.5455 13.4583 14.5455Z" fill="#0C2041"/>
</svg>
