<svg width="24" height="24" viewBox="0 0 24 24" fill="none" xmlns="http://www.w3.org/2000/svg">
<path d="M23.5 12.27C23.5 11.48 23.43 10.73 23.3099 10H12.0051V14.51H18.4779C18.1878 15.99 17.3374 17.24 16.0769 18.09V21.09H19.9385C22.1995 19 23.5 15.92 23.5 12.27Z" fill="#4285F4"/>
<path d="M12.0051 24C15.2465 24 17.9576 22.92 19.9385 21.09L16.0768 18.09C14.9964 18.81 13.6258 19.25 12.0051 19.25C8.87375 19.25 6.22263 17.14 5.27222 14.29H1.29053V17.38C3.26137 21.3 7.31309 24 12.0051 24Z" fill="#34A853"/>
<path d="M5.27224 14.29C5.02214 13.57 4.89208 12.8 4.89208 12C4.89208 11.2 5.03214 10.43 5.27224 9.71V6.62H1.29055C0.470199 8.24 0 10.06 0 12C0 13.94 0.470199 15.76 1.29055 17.38L5.27224 14.29Z" fill="#FBBC05"/>
<path d="M12.0051 4.75C13.7758 4.75 15.3565 5.36 16.607 6.55L20.0285 3.13C17.9576 1.19 15.2465 0 12.0051 0C7.31309 0 3.26137 2.7 1.29053 6.62L5.27222 9.71C6.22263 6.86 8.87376 4.75 12.0051 4.75Z" fill="#EA4335"/>
</svg>
