<svg width="14" height="20" viewBox="0 0 14 20" fill="none" xmlns="http://www.w3.org/2000/svg">
<path d="M1.04172 11.6667H4.72244L3.96255 18.8509C3.9592 18.8725 3.95828 18.9366 3.95828 18.9583C3.95828 19.5325 4.42581 20 5 20C5.32669 20 5.63828 19.8433 5.84503 19.5659L13.125 9.16672C13.2591 8.98743 13.3333 8.76587 13.3333 8.54172C13.3333 7.96753 12.8659 7.5 12.2917 7.5H7.78671L8.53668 1.16409C8.53912 1.13998 8.5408 1.06583 8.5408 1.04172C8.54172 0.467529 8.07419 0 7.5 0C7.17331 0 6.86172 0.156708 6.64841 0.442505L0.208282 10C0.0741577 10.1791 0 10.4008 0 10.625C0 11.1992 0.467529 11.6667 1.04172 11.6667Z" fill="url(#paint0_linear_207_3255)"/>
<defs>
<linearGradient id="paint0_linear_207_3255" x1="0" y1="0" x2="13" y2="20" gradientUnits="userSpaceOnUse">
<stop stop-color="#166AFF"/>
<stop offset="1" stop-color="#2ED0FA"/>
</linearGradient>
</defs>
</svg>
