<svg width="14" height="16" viewBox="0 0 14 16" fill="none" xmlns="http://www.w3.org/2000/svg">
<path d="M11.3333 5.616V4.66667C11.3333 3.42899 10.8417 2.242 9.9665 1.36684C9.09133 0.491665 7.90434 0 6.66667 0C5.42899 0 4.242 0.491665 3.36684 1.36684C2.49167 2.242 2 3.42899 2 4.66667V5.616C1.40624 5.87514 0.900862 6.30168 0.545666 6.84347C0.19047 7.38527 0.00085225 8.01882 0 8.66667V12.6667C0.00105857 13.5504 0.352588 14.3976 0.97748 15.0225C1.60237 15.6474 2.4496 15.9989 3.33333 16H10C10.8837 15.9989 11.731 15.6474 12.3559 15.0225C12.9807 14.3976 13.3323 13.5504 13.3333 12.6667V8.66667C13.3325 8.01882 13.1429 7.38527 12.7877 6.84347C12.4325 6.30168 11.9271 5.87514 11.3333 5.616ZM3.33333 4.66667C3.33333 3.78261 3.68452 2.93477 4.30964 2.30964C4.93477 1.68452 5.78261 1.33333 6.66667 1.33333C7.55072 1.33333 8.39857 1.68452 9.02369 2.30964C9.64881 2.93477 10 3.78261 10 4.66667V5.33333H3.33333V4.66667ZM12 12.6667C12 13.1971 11.7893 13.7058 11.4142 14.0809C11.0391 14.456 10.5304 14.6667 10 14.6667H3.33333C2.8029 14.6667 2.29419 14.456 1.91912 14.0809C1.54405 13.7058 1.33333 13.1971 1.33333 12.6667V8.66667C1.33333 8.13623 1.54405 7.62753 1.91912 7.25245C2.29419 6.87738 2.8029 6.66667 3.33333 6.66667H10C10.5304 6.66667 11.0391 6.87738 11.4142 7.25245C11.7893 7.62753 12 8.13623 12 8.66667V12.6667Z" fill="#0C2041"/>
<path d="M6.66667 9.33333C6.48986 9.33333 6.32029 9.40357 6.19526 9.52859C6.07024 9.65362 6 9.82319 6 10V11.3333C6 11.5101 6.07024 11.6797 6.19526 11.8047C6.32029 11.9298 6.48986 12 6.66667 12C6.84348 12 7.01305 11.9298 7.13807 11.8047C7.2631 11.6797 7.33333 11.5101 7.33333 11.3333V10C7.33333 9.82319 7.2631 9.65362 7.13807 9.52859C7.01305 9.40357 6.84348 9.33333 6.66667 9.33333Z" fill="#0C2041"/>
</svg>
