<svg width="45" height="46" viewBox="0 0 45 46" fill="none" xmlns="http://www.w3.org/2000/svg">
<rect y="0.576172" width="45" height="45" rx="22.5" fill="url(#paint0_linear_84_159)"/>
<path d="M17.955 32.0762C18.7669 32.0762 19.425 31.418 19.425 30.6062C19.425 29.7943 18.7669 29.1362 17.955 29.1362C17.1431 29.1362 16.485 29.7943 16.485 30.6062C16.485 31.418 17.1431 32.0762 17.955 32.0762Z" fill="white"/>
<path d="M25.305 32.0762C26.1169 32.0762 26.775 31.418 26.775 30.6062C26.775 29.7943 26.1169 29.1362 25.305 29.1362C24.4931 29.1362 23.835 29.7943 23.835 30.6062C23.835 31.418 24.4931 32.0762 25.305 32.0762Z" fill="white"/>
<path d="M27.0975 14.0762C24.2925 14.0762 22.0125 16.3562 22.0125 19.1612C22.0125 21.4187 23.49 23.3387 25.53 23.9987H16.7925L16.1025 18.1262H20.895C21.3 18.1262 21.63 17.7962 21.63 17.3912C21.63 16.9862 21.3 16.6562 20.895 16.6562H15.93L15.9 16.3937C15.7725 15.2912 14.8275 14.4512 13.7175 14.4512H13.5525C13.1475 14.4512 12.8175 14.7812 12.8175 15.1862C12.8175 15.5912 13.1475 15.9212 13.5525 15.9212H13.7175C14.0925 15.9212 14.4 16.1987 14.445 16.5662L15.4575 25.1612C15.675 27.0137 17.2425 28.4012 19.1025 28.4012H26.7675C27.1725 28.4012 27.5025 28.0712 27.5025 27.6662C27.5025 27.2612 27.1725 26.9312 26.7675 26.9312H19.1025C18.165 26.9312 17.34 26.3462 17.025 25.4612H25.785C26.985 25.4612 28.065 24.8837 28.74 23.9687C30.735 23.2862 32.1825 21.3887 32.1825 19.1537C32.1825 16.3562 29.895 14.0762 27.0975 14.0762ZM29.43 22.2587C28.9125 22.6487 28.2975 22.9187 27.6225 23.0087C27.45 23.0312 27.27 23.0462 27.09 23.0462C24.9525 23.0462 23.2125 21.3062 23.2125 19.1687C23.2125 17.0312 24.9525 15.2912 27.09 15.2912C29.2275 15.2912 30.9675 17.0312 30.9675 19.1687C30.975 20.4212 30.3675 21.5462 29.43 22.2587Z" fill="white"/>
<path d="M30.18 18.5912C30.1125 18.3962 29.8875 18.2912 29.7 18.3662L28.7025 18.7262C28.5375 18.7862 28.3875 18.7712 28.305 18.6887L27.195 17.5787C26.97 17.3537 26.64 17.2487 26.2875 17.3012C25.9725 17.3462 25.665 17.5037 25.4175 17.7512L24.0975 19.0712C24 19.1687 23.9625 19.3262 24.0075 19.4612C24.075 19.6562 24.2925 19.7612 24.4875 19.6937L25.5 19.3337C25.6575 19.2812 25.815 19.2887 25.89 19.3637L27.03 20.4587C27.2175 20.6387 27.4725 20.7362 27.75 20.7362C28.1175 20.7362 28.5 20.5712 28.7925 20.2712L30.0825 18.9812C30.195 18.8837 30.225 18.7337 30.18 18.5912ZM28.2675 19.7462C28.035 19.9787 27.705 20.0612 27.5625 19.9187L26.4225 18.8237C26.235 18.6437 25.98 18.5462 25.7025 18.5462H25.695L25.95 18.2912C26.07 18.1712 26.2125 18.0887 26.355 18.0587C26.4825 18.0362 26.595 18.0512 26.6625 18.1187L27.7725 19.2287C27.96 19.4162 28.215 19.5137 28.5 19.5212L28.2675 19.7462Z" fill="white"/>
<defs>
<linearGradient id="paint0_linear_84_159" x1="6.75588" y1="6.92064" x2="36.0306" y2="40.7738" gradientUnits="userSpaceOnUse">
<stop stop-color="#166AFF"/>
<stop offset="1" stop-color="#2ED0FA"/>
</linearGradient>
</defs>
</svg>
