<svg width="45" height="46" viewBox="0 0 45 46" fill="none" xmlns="http://www.w3.org/2000/svg">
<rect y="0.576172" width="45" height="45" rx="22.5" fill="url(#paint0_linear_237_18)"/>
<g clip-path="url(#clip0_237_18)">
<path d="M27.9998 25.0766C27.4327 25.0771 26.8743 25.2155 26.3726 25.48C25.871 25.7444 25.4413 26.127 25.1205 26.5946L20.2388 24.3904C20.5855 23.5531 20.5868 22.6126 20.2425 21.7744L25.1175 19.5589C25.5929 20.2464 26.299 20.7408 27.1077 20.9524C27.9164 21.164 28.7742 21.0787 29.5254 20.712C30.2766 20.3453 30.8715 19.7215 31.2021 18.9538C31.5328 18.1861 31.5774 17.3253 31.3278 16.5275C31.0782 15.7297 30.5509 15.0478 29.8416 14.6055C29.1322 14.1632 28.2879 13.9898 27.4617 14.1167C26.6354 14.2436 25.8821 14.6624 25.3382 15.2972C24.7943 15.932 24.496 16.7407 24.4973 17.5766C24.5004 17.7745 24.5205 17.9717 24.5573 18.1661L19.3748 20.5211C18.877 20.0548 18.2539 19.744 17.5819 19.6269C16.91 19.5099 16.2185 19.5916 15.5924 19.8622C14.9663 20.1328 14.4328 20.5803 14.0576 21.1499C13.6823 21.7194 13.4816 22.3862 13.4801 23.0683C13.4786 23.7504 13.6764 24.418 14.0491 24.9892C14.4219 25.5604 14.9533 26.0103 15.5783 26.2836C16.2032 26.5569 16.8943 26.6418 17.5668 26.5277C18.2392 26.4135 18.8637 26.1055 19.3635 25.6414L24.5595 27.9874C24.5234 28.1816 24.5036 28.3786 24.5003 28.5761C24.5001 29.2685 24.7053 29.9453 25.0898 30.521C25.4744 31.0968 26.0211 31.5455 26.6607 31.8105C27.3003 32.0755 28.0041 32.1449 28.6832 32.0099C29.3622 31.8749 29.986 31.5415 30.4756 31.0519C30.9651 30.5623 31.2985 29.9386 31.4335 29.2595C31.5686 28.5805 31.4992 27.8766 31.2342 27.237C30.9692 26.5974 30.5204 26.0507 29.9447 25.6662C29.369 25.2816 28.6921 25.0765 27.9998 25.0766ZM27.9998 15.5764C28.3954 15.5762 28.7822 15.6934 29.1112 15.9131C29.4403 16.1328 29.6968 16.4451 29.8483 16.8106C29.9998 17.1761 30.0395 17.5783 29.9624 17.9664C29.8853 18.3544 29.6949 18.7109 29.4152 18.9907C29.1355 19.2705 28.779 19.4611 28.391 19.5384C28.003 19.6156 27.6008 19.576 27.2352 19.4247C26.8697 19.2733 26.5572 19.0169 26.3374 18.688C26.1176 18.359 26.0003 17.9723 26.0003 17.5766C26.0007 17.0464 26.2114 16.5379 26.5863 16.1629C26.9612 15.7879 27.4695 15.577 27.9998 15.5764ZM17.0003 25.0766C16.6046 25.0768 16.2178 24.9596 15.8888 24.7399C15.5597 24.5202 15.3032 24.2078 15.1517 23.8423C15.0002 23.4769 14.9605 23.0746 15.0376 22.6866C15.1147 22.2985 15.3051 21.942 15.5849 21.6622C15.8646 21.3824 16.221 21.1918 16.609 21.1146C16.997 21.0374 17.3993 21.0769 17.7648 21.2283C18.1303 21.3797 18.4428 21.636 18.6626 21.965C18.8824 22.294 18.9998 22.6807 18.9998 23.0764C18.9992 23.6065 18.7883 24.1149 18.4135 24.4898C18.0387 24.8648 17.5304 25.0758 17.0003 25.0766ZM27.9998 30.5764C27.6041 30.5764 27.2174 30.459 26.8885 30.2393C26.5595 30.0195 26.3032 29.7071 26.1518 29.3416C26.0004 28.9761 25.9608 28.5739 26.0379 28.1859C26.1151 27.7979 26.3056 27.4415 26.5854 27.1617C26.8651 26.882 27.2215 26.6915 27.6095 26.6143C27.9975 26.5371 28.3997 26.5767 28.7652 26.7281C29.1307 26.8795 29.4431 27.1359 29.6629 27.4648C29.8827 27.7938 30 28.1805 30 28.5761C29.9996 29.1065 29.7887 29.615 29.4137 29.9901C29.0387 30.3651 28.5301 30.576 27.9998 30.5764Z" fill="white"/>
</g>
<defs>
<linearGradient id="paint0_linear_237_18" x1="6.75588" y1="6.92064" x2="36.0306" y2="40.7738" gradientUnits="userSpaceOnUse">
<stop stop-color="#166AFF"/>
<stop offset="1" stop-color="#2ED0FA"/>
</linearGradient>
<clipPath id="clip0_237_18">
<rect width="18" height="18" fill="white" transform="translate(13.5 14.0762)"/>
</clipPath>
</defs>
</svg>
