<svg width="45" height="46" viewBox="0 0 45 46" fill="none" xmlns="http://www.w3.org/2000/svg">
<rect y="0.576172" width="45" height="45" rx="22.5" fill="url(#paint0_linear_84_161)"/>
<g clip-path="url(#clip0_84_161)">
<path d="M28.5007 18.5762H27.7507V17.0762C27.7507 15.4217 26.4052 14.0762 24.7507 14.0762H18.7507C17.0962 14.0762 15.7507 15.4217 15.7507 17.0762V20.8262C15.7507 21.3804 15.9015 21.8994 16.1647 22.3449C14.6685 22.5122 13.5007 23.7849 13.5007 25.3262V29.0762C13.5007 30.7307 14.8462 32.0762 16.5007 32.0762H22.5007C24.1552 32.0762 25.5007 30.7307 25.5007 29.0762V28.3262H28.5007C30.1552 28.3262 31.5007 26.9807 31.5007 25.3262V21.5762C31.5007 19.9217 30.1552 18.5762 28.5007 18.5762ZM17.2507 17.0762C17.2507 16.2489 17.9235 15.5762 18.7507 15.5762H24.7507C25.578 15.5762 26.2507 16.2489 26.2507 17.0762V18.5762H22.5007C20.8462 18.5762 19.5007 19.9217 19.5007 21.5762V22.3262H18.7507C17.9235 22.3262 17.2507 21.6534 17.2507 20.8262V17.0762ZM22.5007 23.8262C22.635 23.8262 22.7655 23.8442 22.8892 23.8772L20.247 26.5187C19.8517 26.9139 19.1625 26.9139 18.7657 26.5187L16.1212 23.8742C16.242 23.8427 16.3695 23.8254 16.5 23.8254H22.5007V23.8262ZM24.0007 29.0762C24.0007 29.9034 23.328 30.5762 22.5007 30.5762H16.5007C15.6735 30.5762 15.0007 29.9034 15.0007 29.0762V25.3262C15.0007 25.1882 15.0195 25.0554 15.0547 24.9287L17.706 27.5799C18.1875 28.0614 18.8272 28.3262 19.5075 28.3262C20.1877 28.3262 20.8282 28.0607 21.309 27.5799L23.9505 24.9384C23.9835 25.0622 24.0015 25.1919 24.0015 25.3262V29.0762H24.0007ZM30.0007 25.3262C30.0007 26.1534 29.328 26.8262 28.5007 26.8262H25.5007V25.3262C25.5007 23.6717 24.1552 22.3262 22.5007 22.3262H21.0007V21.5762C21.0007 20.7489 21.6735 20.0762 22.5007 20.0762H28.5007C29.328 20.0762 30.0007 20.7489 30.0007 21.5762V25.3262ZM28.5007 22.3262C28.5007 22.7402 28.1647 23.0762 27.7507 23.0762C27.3367 23.0762 27.0007 22.7402 27.0007 22.3262C27.0007 21.9122 27.3367 21.5762 27.7507 21.5762C28.1647 21.5762 28.5007 21.9122 28.5007 22.3262Z" fill="white"/>
</g>
<defs>
<linearGradient id="paint0_linear_84_161" x1="6.75588" y1="6.92064" x2="36.0306" y2="40.7738" gradientUnits="userSpaceOnUse">
<stop stop-color="#166AFF"/>
<stop offset="1" stop-color="#2ED0FA"/>
</linearGradient>
<clipPath id="clip0_84_161">
<rect width="18" height="18" fill="white" transform="translate(13.5007 14.0762)"/>
</clipPath>
</defs>
</svg>
