<svg width="45" height="46" viewBox="0 0 45 46" fill="none" xmlns="http://www.w3.org/2000/svg">
<rect y="0.576172" width="45" height="45" rx="22.5" fill="url(#paint0_linear_84_162)"/>
<path d="M28.5001 14.0762H16.4999C15.7043 14.0762 14.9412 14.3922 14.3786 14.9549C13.816 15.5175 13.4999 16.2806 13.4999 17.0762V26.0763C13.4999 26.872 13.816 27.6351 14.3786 28.1977C14.9412 28.7603 15.7043 29.0764 16.4999 29.0764H18.675L22.0132 31.8987C22.1487 32.0133 22.3203 32.0762 22.4978 32.0762C22.6752 32.0762 22.8468 32.0133 22.9823 31.8987L26.3251 29.0764H28.5001C29.2958 29.0764 30.0588 28.7603 30.6214 28.1977C31.1841 27.6351 31.5001 26.872 31.5001 26.0763V17.0762C31.5001 16.2806 31.1841 15.5175 30.6214 14.9549C30.0588 14.3922 29.2958 14.0762 28.5001 14.0762ZM30.0001 26.0763C30.0001 26.4742 29.8421 26.8557 29.5608 27.137C29.2795 27.4183 28.8979 27.5764 28.5001 27.5764H26.3251C25.9705 27.5765 25.6275 27.7022 25.3568 27.9311L22.5 30.3439L19.6447 27.9311C19.3736 27.7018 19.03 27.5761 18.675 27.5764H16.4999C16.1021 27.5764 15.7206 27.4183 15.4392 27.137C15.1579 26.8557 14.9999 26.4742 14.9999 26.0763V17.0762C14.9999 16.6784 15.1579 16.2968 15.4392 16.0155C15.7206 15.7342 16.1021 15.5762 16.4999 15.5762H28.5001C28.8979 15.5762 29.2795 15.7342 29.5608 16.0155C29.8421 16.2968 30.0001 16.6784 30.0001 17.0762V26.0763Z" fill="white"/>
<path d="M18.75 19.3262H22.5C22.6989 19.3262 22.8897 19.2472 23.0303 19.1066C23.171 18.9659 23.25 18.7752 23.25 18.5762C23.25 18.3773 23.171 18.1866 23.0303 18.0459C22.8897 17.9052 22.6989 17.8262 22.5 17.8262H18.75C18.551 17.8262 18.3603 17.9052 18.2196 18.0459C18.079 18.1866 17.9999 18.3773 17.9999 18.5762C17.9999 18.7752 18.079 18.9659 18.2196 19.1066C18.3603 19.2472 18.551 19.3262 18.75 19.3262Z" fill="white"/>
<path d="M26.2501 20.8263H18.75C18.551 20.8263 18.3603 20.9053 18.2196 21.0459C18.079 21.1866 17.9999 21.3774 17.9999 21.5763C17.9999 21.7752 18.079 21.966 18.2196 22.1066C18.3603 22.2473 18.551 22.3263 18.75 22.3263H26.2501C26.449 22.3263 26.6397 22.2473 26.7804 22.1066C26.9211 21.966 27.0001 21.7752 27.0001 21.5763C27.0001 21.3774 26.9211 21.1866 26.7804 21.0459C26.6397 20.9053 26.449 20.8263 26.2501 20.8263Z" fill="white"/>
<path d="M26.2501 23.8263H18.75C18.551 23.8263 18.3603 23.9053 18.2196 24.046C18.079 24.1866 17.9999 24.3774 17.9999 24.5763C17.9999 24.7752 18.079 24.966 18.2196 25.1067C18.3603 25.2473 18.551 25.3263 18.75 25.3263H26.2501C26.449 25.3263 26.6397 25.2473 26.7804 25.1067C26.9211 24.966 27.0001 24.7752 27.0001 24.5763C27.0001 24.3774 26.9211 24.1866 26.7804 24.046C26.6397 23.9053 26.449 23.8263 26.2501 23.8263Z" fill="white"/>
<defs>
<linearGradient id="paint0_linear_84_162" x1="6.75588" y1="6.92064" x2="36.0306" y2="40.7738" gradientUnits="userSpaceOnUse">
<stop stop-color="#166AFF"/>
<stop offset="1" stop-color="#2ED0FA"/>
</linearGradient>
</defs>
</svg>
