<svg width="45" height="45" viewBox="0 0 45 45" fill="none" xmlns="http://www.w3.org/2000/svg">
<rect width="45" height="45" rx="22.5" fill="url(#paint0_linear_335_25)"/>
<path d="M17.7754 32C18.53 32 19.1418 31.3419 19.1418 30.53C19.1418 29.7181 18.53 29.06 17.7754 29.06C17.0207 29.06 16.409 29.7181 16.409 30.53C16.409 31.3419 17.0207 32 17.7754 32Z" fill="white"/>
<path d="M24.6073 32C25.3619 32 25.9737 31.3419 25.9737 30.53C25.9737 29.7181 25.3619 29.06 24.6073 29.06C23.8526 29.06 23.2409 29.7181 23.2409 30.53C23.2409 31.3419 23.8526 32 24.6073 32Z" fill="white"/>
<path d="M26.2734 14C23.6662 14 21.5469 16.28 21.5469 19.085C21.5469 21.3425 22.9202 23.2625 24.8164 23.9225H16.6948L16.0534 18.05H20.5081C20.8846 18.05 21.1913 17.72 21.1913 17.315C21.1913 16.91 20.8846 16.58 20.5081 16.58H15.8931L15.8652 16.3175C15.7467 15.215 14.8683 14.375 13.8366 14.375H13.6832C13.3067 14.375 13 14.705 13 15.11C13 15.515 13.3067 15.845 13.6832 15.845H13.8366C14.1851 15.845 14.471 16.1225 14.5128 16.49L15.4539 25.085C15.6561 26.9375 17.1131 28.325 18.842 28.325H25.9667C26.3431 28.325 26.6499 27.995 26.6499 27.59C26.6499 27.185 26.3431 26.855 25.9667 26.855H18.842C17.9706 26.855 17.2037 26.27 16.9109 25.385H25.0534C26.1689 25.385 27.1727 24.8075 27.8002 23.8925C29.6545 23.21 31 21.3125 31 19.0775C31 16.28 28.8737 14 26.2734 14ZM28.4415 22.1825C27.9605 22.5725 27.3888 22.8425 26.7614 22.9325C26.6011 22.955 26.4338 22.97 26.2665 22.97C24.2796 22.97 22.6623 21.23 22.6623 19.0925C22.6623 16.955 24.2796 15.215 26.2665 15.215C28.2533 15.215 29.8706 16.955 29.8706 19.0925C29.8776 20.345 29.3129 21.47 28.4415 22.1825Z" fill="white"/>
<path d="M29.1387 18.515C29.0759 18.32 28.8668 18.215 28.6925 18.29L27.7653 18.65C27.6119 18.71 27.4725 18.695 27.3958 18.6125L26.3641 17.5025C26.1549 17.2775 25.8482 17.1725 25.5205 17.225C25.2277 17.27 24.9419 17.4275 24.7119 17.675L23.4849 18.995C23.3943 19.0925 23.3594 19.25 23.4012 19.385C23.464 19.58 23.6662 19.685 23.8474 19.6175L24.7885 19.2575C24.9349 19.205 25.0813 19.2125 25.151 19.2875L26.2107 20.3825C26.385 20.5625 26.622 20.66 26.8799 20.66C27.2215 20.66 27.5771 20.495 27.849 20.195L29.048 18.905C29.1526 18.8075 29.1805 18.6575 29.1387 18.515ZM27.361 19.67C27.1448 19.9025 26.8381 19.985 26.7057 19.8425L25.646 18.7475C25.4717 18.5675 25.2347 18.47 24.9768 18.47H24.9698L25.2068 18.215C25.3184 18.095 25.4508 18.0125 25.5833 17.9825C25.7018 17.96 25.8064 17.975 25.8691 18.0425L26.9009 19.1525C27.0751 19.34 27.3122 19.4375 27.5771 19.445L27.361 19.67Z" fill="white"/>
<defs>
<linearGradient id="paint0_linear_335_25" x1="6.75588" y1="6.34447" x2="36.0306" y2="40.1977" gradientUnits="userSpaceOnUse">
<stop stop-color="#166AFF"/>
<stop offset="1" stop-color="#2ED0FA"/>
</linearGradient>
</defs>
</svg>
