<svg width="45" height="45" viewBox="0 0 45 45" fill="none" xmlns="http://www.w3.org/2000/svg">
<rect width="45" height="45" rx="22.5" fill="url(#paint0_linear_335_26)"/>
<path d="M27.4984 24.1365C27.4984 27.7949 24.522 30.7713 20.8636 30.7713C19.6177 30.7713 18.4035 30.4236 17.3518 29.766C17.2003 29.6714 17.0126 29.6459 16.8379 29.7021L14.5667 30.4334L15.298 28.1623C15.3533 27.9899 15.33 27.8019 15.2341 27.6484C14.5765 26.5966 14.2288 25.3824 14.2288 24.1365C14.2288 20.4782 17.2052 17.5017 20.8636 17.5017C21.4183 17.5017 21.9574 17.5705 22.4728 17.6995C22.5816 17.2941 22.7404 16.9089 22.9419 16.5507C22.2799 16.3701 21.5833 16.273 20.8636 16.273C16.5178 16.273 13.0001 19.7901 13.0001 24.1365C13.0001 25.5157 13.3598 26.8629 14.0429 28.0511L13.0296 31.1974C12.959 31.4167 13.017 31.6572 13.1798 31.82C13.3411 31.9813 13.581 32.0415 13.8024 31.9702L16.9487 30.9572C18.1372 31.6403 19.4844 32 20.8636 32C25.2094 32 28.7271 28.4829 28.7271 24.1365C28.7271 24.0155 28.724 23.8954 28.7185 23.7756C28.3287 23.8917 27.9192 23.9614 27.4963 23.9783C27.4975 24.0312 27.4984 24.0837 27.4984 24.1365Z" fill="white"/>
<path d="M23.9353 25.3345C24.3594 25.3345 24.7032 24.9907 24.7032 24.5666C24.7032 24.1424 24.3594 23.7986 23.9353 23.7986C23.5112 23.7986 23.1673 24.1424 23.1673 24.5666C23.1673 24.9907 23.5112 25.3345 23.9353 25.3345Z" fill="white"/>
<path d="M20.8636 25.3345C21.2877 25.3345 21.6315 24.9907 21.6315 24.5666C21.6315 24.1424 21.2877 23.7986 20.8636 23.7986C20.4395 23.7986 20.0957 24.1424 20.0957 24.5666C20.0957 24.9907 20.4395 25.3345 20.8636 25.3345Z" fill="white"/>
<path d="M17.7919 25.3345C18.216 25.3345 18.5598 24.9907 18.5598 24.5666C18.5598 24.1424 18.216 23.7986 17.7919 23.7986C17.3678 23.7986 17.024 24.1424 17.024 24.5666C17.024 24.9907 17.3678 25.3345 17.7919 25.3345Z" fill="white"/>
<path d="M27.2944 14C25.4281 14 23.7983 15.0296 22.9419 16.5507C22.7404 16.9089 22.5816 17.2941 22.4728 17.6995C22.3623 18.1117 22.303 18.5448 22.303 18.9915C22.303 21.7437 24.5422 23.9829 27.2944 23.9829C27.362 23.9829 27.4293 23.9808 27.4963 23.9783C27.9192 23.9614 28.3287 23.8917 28.7185 23.7756C30.7793 23.1613 32.2859 21.2495 32.2859 18.9918C32.2859 16.2392 30.0467 14 27.2944 14ZM28.5637 22.5337C28.1843 22.6701 27.777 22.7469 27.3528 22.7533C27.3335 22.7537 27.3138 22.754 27.2944 22.754C25.2195 22.754 23.5316 21.0661 23.5316 18.9912C23.5316 18.6877 23.5679 18.3922 23.6364 18.1093C23.7347 17.7014 23.8996 17.3192 24.1189 16.9749C24.787 15.9262 25.9607 15.2287 27.2944 15.2287C29.3694 15.2287 31.0572 16.9166 31.0572 18.9915C31.0572 20.621 30.0159 22.0118 28.5637 22.5337Z" fill="white"/>
<path d="M26.0179 20.75C25.9464 20.75 25.8839 20.7232 25.8304 20.6696C25.7768 20.6161 25.75 20.5536 25.75 20.4821V18.1161C25.75 18.0446 25.7768 17.9821 25.8304 17.9286C25.8839 17.875 25.9464 17.8482 26.0179 17.8482H26.5089C26.5089 17.6131 26.5878 17.4129 26.7455 17.2478C26.9033 17.0826 27.0997 17 27.3348 17C27.5699 17 27.7738 17.0826 27.9464 17.2478C28.119 17.4129 28.2054 17.6131 28.2054 17.8482H28.6964C28.7679 17.8482 28.8304 17.875 28.8839 17.9286C28.9375 17.9821 28.9643 18.0446 28.9643 18.1161V20.4821C28.9643 20.5536 28.9375 20.6161 28.8839 20.6696C28.8304 20.7232 28.7679 20.75 28.6964 20.75H26.0179ZM27.3571 19.1875C27.5923 19.1875 27.7961 19.1012 27.9688 18.9286C28.1414 18.756 28.2277 18.5521 28.2277 18.317H27.9598C27.9598 18.4807 27.9003 18.622 27.7812 18.7411C27.6622 18.8601 27.5208 18.9196 27.3571 18.9196C27.1935 18.9196 27.0521 18.8601 26.933 18.7411C26.814 18.622 26.7545 18.4807 26.7545 18.317H26.4866C26.4866 18.5521 26.5729 18.756 26.7455 18.9286C26.9182 19.1012 27.122 19.1875 27.3571 19.1875ZM26.7768 17.8482H27.9375C27.9375 17.6845 27.8817 17.5469 27.7701 17.4353C27.6585 17.3237 27.5208 17.2679 27.3571 17.2679C27.1935 17.2679 27.0558 17.3237 26.9442 17.4353C26.8326 17.5469 26.7768 17.6845 26.7768 17.8482Z" fill="white"/>
<defs>
<linearGradient id="paint0_linear_335_26" x1="6.75588" y1="6.34447" x2="36.0306" y2="40.1977" gradientUnits="userSpaceOnUse">
<stop stop-color="#166AFF"/>
<stop offset="1" stop-color="#2ED0FA"/>
</linearGradient>
</defs>
</svg>
