<svg width="45" height="45" viewBox="0 0 45 45" fill="none" xmlns="http://www.w3.org/2000/svg">
<rect width="45" height="45" rx="22.5" fill="url(#paint0_linear_335_27)"/>
<path d="M31.9999 21.5C32 21.4453 31.9939 21.3907 31.9819 21.3373L31.0069 16.9363C30.8258 16.101 30.3629 15.3533 29.696 14.8187C29.0291 14.2841 28.1987 13.9951 27.344 14.0001H18.656C17.8018 13.9958 16.972 14.2852 16.3057 14.8197C15.6394 15.3542 15.177 16.1015 14.996 16.9363L14.018 21.3373C14.006 21.3907 14 21.4453 14 21.5V22.25C13.9994 22.9802 14.2662 23.6854 14.75 24.2323V28.25C14.7512 29.2442 15.1467 30.1973 15.8497 30.9003C16.5527 31.6033 17.5058 31.9988 18.5 32H27.5C28.4941 31.9988 29.4473 31.6033 30.1503 30.9003C30.8533 30.1973 31.2487 29.2442 31.2499 28.25V24.2323C31.7337 23.6854 32.0005 22.9802 31.9999 22.25V21.5ZM15.5 21.5818L16.46 17.2618C16.5688 16.761 16.8463 16.3127 17.246 15.992C17.6457 15.6713 18.1435 15.4977 18.656 15.5001H19.25V17.75C19.25 17.949 19.329 18.1397 19.4697 18.2804C19.6103 18.421 19.8011 18.5 20 18.5C20.1989 18.5 20.3897 18.421 20.5303 18.2804C20.671 18.1397 20.75 17.949 20.75 17.75V15.5001H25.25V17.75C25.25 17.949 25.329 18.1397 25.4696 18.2804C25.6103 18.421 25.801 18.5 26 18.5C26.1989 18.5 26.3896 18.421 26.5303 18.2804C26.6709 18.1397 26.75 17.949 26.75 17.75V15.5001H27.344C27.8564 15.4977 28.3542 15.6713 28.7539 15.992C29.1537 16.3127 29.4312 16.761 29.5399 17.2618L30.4999 21.5818V22.25C30.4999 22.6479 30.3419 23.0294 30.0606 23.3107C29.7793 23.592 29.3978 23.75 28.9999 23.75H28.25C27.8521 23.75 27.4706 23.592 27.1893 23.3107C26.908 23.0294 26.75 22.6479 26.75 22.25C26.75 22.0511 26.6709 21.8604 26.5303 21.7197C26.3896 21.5791 26.1989 21.5 26 21.5C25.801 21.5 25.6103 21.5791 25.4696 21.7197C25.329 21.8604 25.25 22.0511 25.25 22.25C25.25 22.6479 25.0919 23.0294 24.8106 23.3107C24.5293 23.592 24.1478 23.75 23.75 23.75H22.25C21.8521 23.75 21.4706 23.592 21.1893 23.3107C20.908 23.0294 20.75 22.6479 20.75 22.25C20.75 22.0511 20.671 21.8604 20.5303 21.7197C20.3897 21.5791 20.1989 21.5 20 21.5C19.8011 21.5 19.6103 21.5791 19.4697 21.7197C19.329 21.8604 19.25 22.0511 19.25 22.25C19.25 22.6479 19.0919 23.0294 18.8106 23.3107C18.5293 23.592 18.1478 23.75 17.75 23.75H17C16.6022 23.75 16.2206 23.592 15.9393 23.3107C15.658 23.0294 15.5 22.6479 15.5 22.25V21.5818ZM27.5 30.5H18.5C17.9032 30.5 17.331 30.263 16.909 29.841C16.487 29.419 16.25 28.8467 16.25 28.25V25.1548C16.4949 25.2182 16.747 25.2502 17 25.25H17.75C18.1758 25.2502 18.5969 25.1596 18.9849 24.9841C19.3729 24.8086 19.719 24.5522 20 24.2323C20.281 24.5522 20.6271 24.8086 21.0151 24.9841C21.4031 25.1596 21.8241 25.2502 22.25 25.25H23.75C24.1758 25.2502 24.5968 25.1596 24.9848 24.9841C25.3729 24.8086 25.7189 24.5522 26 24.2323C26.281 24.5522 26.6271 24.8086 27.0151 24.9841C27.4031 25.1596 27.8241 25.2502 28.25 25.25H28.9999C29.253 25.2502 29.505 25.2182 29.7499 25.1548V28.25C29.7499 28.8467 29.5129 29.419 29.0909 29.841C28.669 30.263 28.0967 30.5 27.5 30.5Z" fill="white"/>
<defs>
<linearGradient id="paint0_linear_335_27" x1="6.75588" y1="6.34447" x2="36.0306" y2="40.1977" gradientUnits="userSpaceOnUse">
<stop stop-color="#166AFF"/>
<stop offset="1" stop-color="#2ED0FA"/>
</linearGradient>
</defs>
</svg>
