<svg width="45" height="46" viewBox="0 0 45 46" fill="none" xmlns="http://www.w3.org/2000/svg">
<rect y="0.576172" width="45" height="45" rx="22.5" fill="url(#paint0_linear_384_2)"/>
<path d="M28.2273 14.0762H16.7728C15.6882 14.0775 14.6484 14.5089 13.8815 15.2758C13.1146 16.0427 12.6832 17.0825 12.6819 18.1671V27.9853C12.6832 29.0698 13.1146 30.1096 13.8815 30.8765C14.6484 31.6434 15.6882 32.0749 16.7728 32.0762H28.2273C29.3119 32.0749 30.3517 31.6434 31.1186 30.8765C31.8855 30.1096 32.3169 29.0698 32.3182 27.9853V18.1671C32.3169 17.0825 31.8855 16.0427 31.1186 15.2758C30.3517 14.5089 29.3119 14.0775 28.2273 14.0762ZM16.7728 15.7125H28.2273C28.7173 15.7135 29.1957 15.861 29.601 16.1362C30.0064 16.4113 30.3201 16.8015 30.5019 17.2564L24.2362 23.5229C23.7751 23.9822 23.1509 24.24 22.5001 24.24C21.8493 24.24 21.225 23.9822 20.7639 23.5229L14.4982 17.2564C14.68 16.8015 14.9938 16.4113 15.3991 16.1362C15.8045 15.861 16.2829 15.7135 16.7728 15.7125ZM28.2273 30.4398H16.7728C16.1218 30.4398 15.4975 30.1812 15.0372 29.7209C14.5769 29.2606 14.3182 28.6362 14.3182 27.9853V19.3944L19.607 24.6798C20.3749 25.4458 21.4154 25.876 22.5001 25.876C23.5848 25.876 24.6252 25.4458 25.3932 24.6798L30.6819 19.3944V27.9853C30.6819 28.6362 30.4233 29.2606 29.963 29.7209C29.5026 30.1812 28.8783 30.4398 28.2273 30.4398Z" fill="white"/>
<defs>
<linearGradient id="paint0_linear_384_2" x1="6.75588" y1="6.92064" x2="36.0306" y2="40.7738" gradientUnits="userSpaceOnUse">
<stop stop-color="#166AFF"/>
<stop offset="1" stop-color="#2ED0FA"/>
</linearGradient>
</defs>
</svg>
