<svg width="45" height="46" viewBox="0 0 45 46" fill="none" xmlns="http://www.w3.org/2000/svg">
<rect y="0.576172" width="45" height="45" rx="22.5" fill="url(#paint0_linear_84_160)"/>
<path d="M19.7039 32V23.7205C19.7039 23.4167 19.4565 23.1693 19.1527 23.1693H17.1023V21.1406H19.1527C19.4565 21.1406 19.7039 20.8932 19.7039 20.5894V18.2965C19.7039 17.3361 20.0121 15.1023 22.8659 15.1023H25.6006V17.0716H23.6498C23.0299 17.0716 22.3059 17.4389 22.3059 18.4746V20.57C22.3059 20.8738 22.5532 21.1212 22.857 21.1212H25.5622L25.3563 23.1698H22.8566C22.5528 23.1698 22.3054 23.4171 22.3054 23.7209V32.0004H23.4078V24.2717H25.8541C26.1385 24.2717 26.374 24.0583 26.4026 23.7756L26.7197 20.6251C26.7351 20.4703 26.6844 20.3156 26.5799 20.2C26.4754 20.0845 26.3268 20.0184 26.1711 20.0184H23.4078V18.4742C23.4078 18.2035 23.4854 18.1735 23.6494 18.1735H26.1513C26.4551 18.1735 26.7025 17.9261 26.7025 17.6223V14.5512C26.7025 14.2474 26.4551 14 26.1513 14H22.8654C20.9575 14 19.9424 14.8422 19.427 15.549C18.7087 16.5336 18.6015 17.6929 18.6015 18.2965V20.0387H16.5512C16.2474 20.0387 16 20.286 16 20.5898V23.7209C16 24.0247 16.2474 24.2721 16.5512 24.2721H18.6015V32.0004H19.7039V32Z" fill="white"/>
<defs>
<linearGradient id="paint0_linear_84_160" x1="6.75588" y1="6.92064" x2="36.0306" y2="40.7738" gradientUnits="userSpaceOnUse">
<stop stop-color="#166AFF"/>
<stop offset="1" stop-color="#2ED0FA"/>
</linearGradient>
</defs>
</svg>
