<svg width="45" height="46" viewBox="0 0 45 46" fill="none" xmlns="http://www.w3.org/2000/svg">
<rect y="0.576172" width="45" height="45" rx="22.5" fill="url(#paint0_linear_84_161)"/>
<path d="M29.188 16.5582C27.217 14.6243 24.505 13.7203 21.7412 14.076C17.8215 14.5798 14.5983 17.7956 14.0796 21.7154C13.761 24.1383 14.4056 26.5168 15.8876 28.4211V30.4662C15.8876 30.9997 16.1617 31.4887 16.6137 31.7703C16.8583 31.9185 17.1324 32 17.4214 32C17.6585 32 17.8956 31.9407 18.1105 31.837L19.4739 31.1553C20.941 31.7703 22.5415 31.9852 24.1197 31.7777C28.1284 31.2442 31.359 27.9469 31.8036 23.9457C32.1148 21.1819 31.1589 18.4921 29.188 16.5582ZM30.3291 23.7827C29.9586 27.117 27.2614 29.8586 23.9197 30.3106C22.5044 30.4958 21.067 30.2735 19.7628 29.666C19.5554 29.5696 19.3183 29.5696 19.1182 29.6734L17.4436 30.5107C17.4288 30.5181 17.414 30.5181 17.3917 30.5107C17.3695 30.4958 17.3695 30.481 17.3695 30.4662V28.1618C17.3695 27.9914 17.3102 27.8209 17.1991 27.6876C15.8579 26.0723 15.2726 24.0198 15.5467 21.9154C15.9765 18.6478 18.6662 15.9729 21.9339 15.5505C22.2673 15.4986 22.5933 15.4764 22.9268 15.4764C24.8829 15.4764 26.7502 16.2322 28.1506 17.6104C29.7956 19.2257 30.5884 21.4782 30.3291 23.7827Z" fill="white"/>
<path d="M26.7279 20.3964L24.3716 22.0636C24.2679 22.1228 24.1419 22.1154 24.0456 22.0487L22.1043 20.589C21.9857 20.5001 21.8301 20.4705 21.6893 20.5001C21.5411 20.5298 21.4226 20.6187 21.3485 20.7372L18.4513 24.8644C18.3327 25.0645 18.3624 25.3016 18.5254 25.472C18.6217 25.5758 18.7551 25.635 18.8885 25.635C18.97 25.635 19.0589 25.6128 19.1478 25.5683L21.5189 23.753C21.6078 23.7085 21.719 23.7159 21.8005 23.7678L24.3865 25.3164C24.505 25.3905 24.6532 25.4127 24.794 25.3683C24.9348 25.3312 25.0459 25.2349 25.1052 25.1089L27.4467 21.0633C27.5504 20.8558 27.5059 20.6187 27.3355 20.4557C27.1651 20.2927 26.928 20.2704 26.7279 20.3964ZM18.5402 25.2942C18.4883 25.183 18.4809 25.0497 18.555 24.9163C18.4735 25.0497 18.4809 25.183 18.5402 25.2942Z" fill="white"/>
<defs>
<linearGradient id="paint0_linear_84_161" x1="6.75588" y1="6.92064" x2="36.0306" y2="40.7738" gradientUnits="userSpaceOnUse">
<stop stop-color="#166AFF"/>
<stop offset="1" stop-color="#2ED0FA"/>
</linearGradient>
</defs>
</svg>
