<svg width="45" height="46" viewBox="0 0 45 46" fill="none" xmlns="http://www.w3.org/2000/svg">
<rect y="0.576172" width="45" height="45" rx="22.5" fill="url(#paint0_linear_84_162)"/>
<path d="M23 15.6215C25.403 15.6215 25.688 15.6305 26.6368 15.674C27.6178 15.719 28.628 15.9425 29.3428 16.6572C30.0643 17.3787 30.281 18.3793 30.326 19.3633C30.3695 20.312 30.3785 20.597 30.3785 23C30.3785 25.403 30.3695 25.688 30.326 26.6368C30.2818 27.6125 30.053 28.6325 29.3428 29.3428C28.6213 30.0643 27.6215 30.281 26.6368 30.326C25.688 30.3695 25.403 30.3785 23 30.3785C20.597 30.3785 20.312 30.3695 19.3633 30.326C18.395 30.2818 17.3615 30.0478 16.6572 29.3428C15.9395 28.625 15.719 27.6148 15.674 26.6368C15.6305 25.688 15.6215 25.403 15.6215 23C15.6215 20.597 15.6305 20.312 15.674 19.3633C15.7183 18.3913 15.9492 17.3653 16.6572 16.6572C17.3772 15.9373 18.3815 15.719 19.3633 15.674C20.312 15.6305 20.597 15.6215 23 15.6215ZM23 14C20.5557 14 20.249 14.0105 19.289 14.054C17.8978 14.1178 16.5162 14.5047 15.5105 15.5105C14.501 16.52 14.1178 17.8985 14.054 19.289C14.0105 20.249 14 20.5557 14 23C14 25.4443 14.0105 25.751 14.054 26.711C14.1178 28.1008 14.5062 29.486 15.5105 30.4895C16.5192 31.4983 17.9 31.8822 19.289 31.946C20.249 31.9895 20.5557 32 23 32C25.4443 32 25.751 31.9895 26.711 31.946C28.1015 31.8822 29.4845 31.4945 30.4895 30.4895C31.4998 29.4793 31.8822 28.1015 31.946 26.711C31.9895 25.751 32 25.4443 32 23C32 20.5557 31.9895 20.249 31.946 19.289C31.8822 17.8978 31.4945 16.5155 30.4895 15.5105C29.4822 14.5032 28.0978 14.117 26.711 14.054C25.751 14.0105 25.4443 14 23 14Z" fill="white"/>
<path d="M23 18.3785C20.4477 18.3785 18.3785 20.4477 18.3785 23C18.3785 25.5522 20.4477 27.6215 23 27.6215C25.5522 27.6215 27.6215 25.5522 27.6215 23C27.6215 20.4477 25.5522 18.3785 23 18.3785ZM23 26C21.3432 26 20 24.6567 20 23C20 21.3432 21.3432 20 23 20C24.6567 20 26 21.3432 26 23C26 24.6567 24.6567 26 23 26Z" fill="white"/>
<path d="M27.8045 19.2755C28.401 19.2755 28.8845 18.792 28.8845 18.1955C28.8845 17.599 28.401 17.1155 27.8045 17.1155C27.208 17.1155 26.7245 17.599 26.7245 18.1955C26.7245 18.792 27.208 19.2755 27.8045 19.2755Z" fill="white"/>
<defs>
<linearGradient id="paint0_linear_84_162" x1="6.75588" y1="6.92064" x2="36.0306" y2="40.7738" gradientUnits="userSpaceOnUse">
<stop stop-color="#166AFF"/>
<stop offset="1" stop-color="#2ED0FA"/>
</linearGradient>
</defs>
</svg>
