<svg width="45" height="46" viewBox="0 0 45 46" fill="none" xmlns="http://www.w3.org/2000/svg">
<rect y="0.576172" width="45" height="45" rx="22.5" fill="url(#paint0_linear_84_163)"/>
<path d="M31.2172 28.032L30.205 25.0908C30.6964 24.0639 30.9531 22.9124 30.9531 21.7682C30.9531 19.7218 30.161 17.7928 28.7234 16.3259C27.2858 14.8589 25.3641 14.0375 23.3178 14.0008C21.1907 13.9714 19.203 14.7709 17.7068 16.2745C16.2985 17.6901 15.499 19.5604 15.4477 21.5555C14.0614 22.6337 13.24 24.3133 13.24 26.0663C13.24 26.8804 13.4233 27.6946 13.7534 28.428L13.0639 30.4304C12.9172 30.8631 13.0273 31.3325 13.35 31.6553C13.5774 31.8826 13.8707 32 14.1861 32C14.3182 32 14.4502 31.978 14.5749 31.934L16.5772 31.2445C17.318 31.5819 18.1322 31.758 18.9537 31.758C20.7286 31.758 22.4229 30.9145 23.5011 29.4916C24.55 29.4475 25.5915 29.1908 26.5303 28.7434L29.4789 29.7556C29.9776 29.9243 30.5277 29.7996 30.8945 29.4255C31.2612 29.0735 31.3859 28.5307 31.2172 28.032ZM23.3031 15.4677C26.721 15.5191 29.4935 18.3502 29.4862 21.7682C29.4862 22.7877 29.2368 23.7999 28.7601 24.6947C28.6647 24.8707 28.6501 25.0834 28.7161 25.2741L29.7649 28.318L26.721 27.2692C26.6477 27.2398 26.567 27.2325 26.479 27.2325C26.3616 27.2325 26.2443 27.2618 26.1343 27.3205C25.2394 27.7972 24.2273 28.0466 23.2004 28.0466C19.7898 28.0466 16.966 25.2741 16.9146 21.8635C16.8853 20.1472 17.5381 18.5263 18.7556 17.316C19.9658 16.0985 21.5721 15.4457 23.3031 15.4677ZM18.9537 30.5037L18.9463 30.2984C18.2569 30.2984 17.5747 30.1297 16.9733 29.8069C16.8633 29.7483 16.7459 29.7189 16.6286 29.7189C16.5479 29.7189 16.4672 29.7336 16.3939 29.7556L14.6482 30.357L15.2497 28.6114C15.3157 28.4207 15.301 28.208 15.2057 28.032C14.8829 27.4305 14.7142 26.7484 14.7142 26.0589C14.7142 25.0981 15.037 24.1739 15.6311 23.4258C15.9538 24.8854 16.6872 26.213 17.7728 27.2765C18.851 28.3327 20.1785 29.0441 21.6308 29.3449C20.8753 29.961 19.9438 30.291 18.961 30.291V30.5037H18.9537Z" fill="white"/>
<path d="M20.0319 20.1994H26.3764C26.7798 20.1994 27.1099 19.8693 27.1099 19.4659C27.1099 19.0625 26.7798 18.7324 26.3764 18.7324H20.0319C19.6285 18.7324 19.2985 19.0625 19.2985 19.4659C19.2985 19.8693 19.6285 20.1994 20.0319 20.1994Z" fill="white"/>
<path d="M20.0319 22.3912H26.3764C26.7798 22.3912 27.1099 22.0612 27.1099 21.6578C27.1099 21.2544 26.7798 20.9243 26.3764 20.9243H20.0319C19.6285 20.9243 19.2985 21.2544 19.2985 21.6578C19.2985 22.0612 19.6285 22.3912 20.0319 22.3912Z" fill="white"/>
<path d="M20.0319 24.5768H23.934C24.3374 24.5768 24.6674 24.2467 24.6674 23.8433C24.6674 23.4399 24.3374 23.1099 23.934 23.1099H20.0319C19.6285 23.1099 19.2985 23.4399 19.2985 23.8433C19.2985 24.2467 19.6285 24.5768 20.0319 24.5768Z" fill="white"/>
<defs>
<linearGradient id="paint0_linear_84_163" x1="6.75588" y1="6.92064" x2="36.0306" y2="40.7738" gradientUnits="userSpaceOnUse">
<stop stop-color="#166AFF"/>
<stop offset="1" stop-color="#2ED0FA"/>
</linearGradient>
</defs>
</svg>
