<svg width="45" height="45" viewBox="0 0 45 45" fill="none" xmlns="http://www.w3.org/2000/svg">
<rect width="45" height="45" rx="22.5" fill="url(#paint0_linear_395_4)"/>
<path d="M16.9925 18.7759H13.1049C12.7708 18.7759 12.5 19.0384 12.5 19.3619V31.9141C12.5 32.2377 12.7708 32.5 13.1049 32.5H16.9925C17.3266 32.5 17.5974 32.2377 17.5974 31.9141V19.3619C17.5974 19.0384 17.3266 18.7759 16.9925 18.7759ZM16.3876 31.3281H13.7098V19.9478H16.3876V31.3281Z" fill="white"/>
<path d="M15.0489 12.5C13.6434 12.5 12.5 13.6075 12.5 14.9686C12.5 16.33 13.6434 17.4373 15.0489 17.4373C16.4542 17.4373 17.5974 16.3298 17.5974 14.9686C17.5974 13.6075 16.4542 12.5 15.0489 12.5ZM15.0489 16.2654C14.3105 16.2654 13.7098 15.6837 13.7098 14.9686C13.7098 14.2535 14.3105 13.6719 15.0489 13.6719C15.787 13.6719 16.3876 14.2535 16.3876 14.9686C16.3876 15.6837 15.787 16.2654 15.0489 16.2654Z" fill="white"/>
<path d="M26.712 18.6931C25.7925 18.6931 24.8862 18.9078 24.0746 19.3094C24.047 19.0105 23.7879 18.7759 23.472 18.7759H19.5842C19.2502 18.7759 18.9793 19.0384 18.9793 19.3619V31.9141C18.9793 32.2377 19.2502 32.5 19.5842 32.5H23.472C23.8062 32.5 24.077 32.2377 24.077 31.9141V25.0104C24.077 24.1223 24.823 23.3998 25.7399 23.3998C26.6567 23.3998 27.4024 24.1223 27.4024 25.0104V31.9141C27.4024 32.2377 27.6734 32.5 28.0074 32.5H31.8951C32.2292 32.5 32.5 32.2377 32.5 31.9141V24.2995C32.5 21.208 29.9036 18.6931 26.712 18.6931ZM31.2902 31.3281H28.6124V25.0104C28.6124 23.4761 27.3238 22.2279 25.74 22.2279C24.1559 22.2279 22.8671 23.4761 22.8671 25.0104V31.3281H20.1893V19.9478H22.8671V20.3807C22.8671 20.6061 23.0006 20.8115 23.2104 20.909C23.4201 21.0065 23.669 20.9787 23.8506 20.8379C24.6698 20.2014 25.6594 19.865 26.712 19.865C29.2364 19.865 31.2902 21.8542 31.2902 24.2995V31.3281Z" fill="white"/>
<defs>
<linearGradient id="paint0_linear_395_4" x1="0" y1="0" x2="45" y2="45" gradientUnits="userSpaceOnUse">
<stop stop-color="#166AFF"/>
<stop offset="1" stop-color="#2ED0FA"/>
</linearGradient>
</defs>
</svg>
