<svg width="45" height="45" viewBox="0 0 45 45" fill="none" xmlns="http://www.w3.org/2000/svg">
<rect width="45" height="45" rx="22.5" fill="url(#paint0_linear_395_6)"/>
<path d="M17.806 32.5C18.6444 32.5 19.3242 31.7687 19.3242 30.8667C19.3242 29.9646 18.6444 29.2333 17.806 29.2333C16.9675 29.2333 16.2878 29.9646 16.2878 30.8667C16.2878 31.7687 16.9675 32.5 17.806 32.5Z" fill="white"/>
<path d="M25.397 32.5C26.2355 32.5 26.9152 31.7687 26.9152 30.8667C26.9152 29.9646 26.2355 29.2333 25.397 29.2333C24.5585 29.2333 23.8788 29.9646 23.8788 30.8667C23.8788 31.7687 24.5585 32.5 25.397 32.5Z" fill="white"/>
<path d="M27.2483 12.5C24.3513 12.5 21.9965 15.0333 21.9965 18.15C21.9965 20.6583 23.5225 22.7917 25.6294 23.525H16.6053L15.8927 17H20.8424C21.2607 17 21.6015 16.6333 21.6015 16.1833C21.6015 15.7333 21.2607 15.3667 20.8424 15.3667H15.7146L15.6836 15.075C15.5519 13.85 14.5759 12.9167 13.4295 12.9167H13.2591C12.8408 12.9167 12.5 13.2833 12.5 13.7333C12.5 14.1833 12.8408 14.55 13.2591 14.55H13.4295C13.8168 14.55 14.1344 14.8583 14.1809 15.2667L15.2266 24.8167C15.4512 26.875 17.0701 28.4167 18.9911 28.4167H26.9074C27.3257 28.4167 27.6665 28.05 27.6665 27.6C27.6665 27.15 27.3257 26.7833 26.9074 26.7833H18.9911C18.0229 26.7833 17.1708 26.1333 16.8455 25.15H25.8927C27.1321 25.15 28.2475 24.5083 28.9446 23.4917C31.005 22.7333 32.5 20.625 32.5 18.1417C32.5 15.0333 30.1375 12.5 27.2483 12.5ZM29.6572 21.5917C29.1228 22.025 28.4876 22.325 27.7905 22.425C27.6123 22.45 27.4264 22.4667 27.2405 22.4667C25.0329 22.4667 23.2359 20.5333 23.2359 18.1583C23.2359 15.7833 25.0329 13.85 27.2405 13.85C29.4481 13.85 31.2452 15.7833 31.2452 18.1583C31.2529 19.55 30.6255 20.8 29.6572 21.5917Z" fill="white"/>
<path d="M30.4318 17.5167C30.3621 17.3 30.1297 17.1833 29.9361 17.2667L28.9059 17.6667C28.7355 17.7333 28.5806 17.7167 28.4954 17.625L27.349 16.3917C27.1166 16.1417 26.7758 16.025 26.4117 16.0833C26.0864 16.1333 25.7688 16.3083 25.5132 16.5833L24.1499 18.05C24.0492 18.1583 24.0105 18.3333 24.0569 18.4833C24.1266 18.7 24.3513 18.8167 24.5527 18.7417L25.5984 18.3417C25.761 18.2833 25.9237 18.2917 26.0012 18.375L27.1785 19.5917C27.3722 19.7917 27.6356 19.9 27.9222 19.9C28.3017 19.9 28.6967 19.7167 28.9988 19.3833L30.3311 17.95C30.4473 17.8417 30.4783 17.675 30.4318 17.5167ZM28.4566 18.8C28.2165 19.0583 27.8757 19.15 27.7285 18.9917L26.5511 17.775C26.3575 17.575 26.0941 17.4667 25.8075 17.4667H25.7998L26.0631 17.1833C26.1871 17.05 26.3342 16.9583 26.4814 16.925C26.6131 16.9 26.7293 16.9167 26.799 16.9917L27.9454 18.225C28.139 18.4333 28.4024 18.5417 28.6967 18.55L28.4566 18.8Z" fill="white"/>
<defs>
<linearGradient id="paint0_linear_395_6" x1="0" y1="0" x2="45" y2="45" gradientUnits="userSpaceOnUse">
<stop stop-color="#166AFF"/>
<stop offset="1" stop-color="#2ED0FA"/>
</linearGradient>
</defs>
</svg>
