<svg width="25" height="13" viewBox="0 0 25 13" fill="none" xmlns="http://www.w3.org/2000/svg">
<g clip-path="url(#clip0_86_996)">
<path d="M0.402974 5.15487L5.30559 0.471941C5.7841 0.0148742 6.57322 -0.0532848 7.07692 0.379726C7.61419 0.840801 7.63098 1.63064 7.12728 2.11578L4.90684 4.23673C4.65499 4.47729 4.83548 4.88624 5.18806 4.88624H13.1968C13.8768 4.88624 14.4812 5.37137 14.519 6.01688C14.5568 6.70649 13.9817 7.27582 13.2682 7.27582H5.18387C4.82708 7.27582 4.65079 7.68477 4.90264 7.92533L7.07272 10.0022C7.55123 10.4592 7.62258 11.213 7.16926 11.6941C6.68655 12.2073 5.85966 12.2234 5.35176 11.7422L0.398776 7.0112C-0.134299 6.498 -0.134299 5.66807 0.402974 5.15487Z" fill="url(#paint0_linear_86_996)"/>
<path d="M17.9063 4.89014H19.3502C20.0428 4.89014 20.6011 5.42739 20.6011 6.08492C20.6011 6.74246 20.0386 7.27971 19.3502 7.27971H17.9063C17.2137 7.27971 16.6555 6.74246 16.6555 6.08492C16.6555 5.42739 17.2137 4.89014 17.9063 4.89014Z" fill="url(#paint1_linear_86_996)"/>
<path d="M23.6148 4.89014H23.7492C24.4417 4.89014 25 5.42338 25 6.08492C25 6.74647 24.4417 7.27971 23.7492 7.27971H23.6148C22.9223 7.27971 22.364 6.74246 22.364 6.08492C22.364 5.42739 22.9223 4.89014 23.6148 4.89014Z" fill="url(#paint2_linear_86_996)"/>
</g>
<defs>
<linearGradient id="paint0_linear_86_996" x1="7.26012" y1="0.0893555" x2="7.26012" y2="12.0914" gradientUnits="userSpaceOnUse">
<stop stop-color="#166AFF"/>
<stop offset="1" stop-color="#2ED0FA"/>
</linearGradient>
<linearGradient id="paint1_linear_86_996" x1="18.6283" y1="4.89014" x2="18.6283" y2="7.27971" gradientUnits="userSpaceOnUse">
<stop stop-color="#166AFF"/>
<stop offset="1" stop-color="#2ED0FA"/>
</linearGradient>
<linearGradient id="paint2_linear_86_996" x1="23.682" y1="4.89014" x2="23.682" y2="7.27971" gradientUnits="userSpaceOnUse">
<stop stop-color="#166AFF"/>
<stop offset="1" stop-color="#2ED0FA"/>
</linearGradient>
<clipPath id="clip0_86_996">
<rect width="25" height="12" fill="white" transform="matrix(-1 0 0 1 25 0.0908203)"/>
</clipPath>
</defs>
</svg>
