<svg width="295" height="200" viewBox="0 0 295 200" fill="none" xmlns="http://www.w3.org/2000/svg">
<path d="M159.696 195.765C190.74 178.782 211.799 145.79 211.799 107.871C211.799 52.5935 167.051 7.7832 111.85 7.7832C56.6491 7.7832 11.9011 52.5935 11.9011 107.871C11.9011 145.79 32.9597 178.782 64.0034 195.765H159.696Z" fill="#ECF3FE"/>
<path d="M144.655 195.765H224.615C253.282 181.159 272.922 151.337 272.922 116.92C272.922 68.0922 233.394 28.5088 184.634 28.5088C135.874 28.5088 96.3474 68.0922 96.3474 116.92C96.3474 151.337 115.988 181.159 144.655 195.765Z" fill="#ECF3FE"/>
<path opacity="0.2" d="M256.604 107.972C256.385 107.467 256.094 106.879 255.711 106.165C254.274 103.49 253.552 102.781 253.265 102.594C253.166 102.528 253.118 102.525 253.112 102.525L253.255 102.371C249.877 96.5497 244.789 92.2257 243.041 92.0252C241.296 91.8265 240.652 91.4828 237.983 90.3172C235.315 89.1532 235.174 90.3172 235.174 90.3172C234.92 90.1555 234.706 90.0392 234.575 89.9365C234.336 89.7495 234.159 89.1178 234.021 88.4137C233.885 87.7281 233.784 86.9735 233.7 86.485C234.42 85.4187 234.847 84.1015 234.847 82.6764C234.847 82.358 234.824 82.0447 234.782 81.7381C235.574 81.5663 236.333 80.6281 236.259 79.5989C236.132 77.8487 235.734 76.0126 233.9 74.8099C232.068 73.6072 230.886 72.7818 229.419 72.8829C227.952 72.9839 222.241 72.9418 222.226 77.3164C222.226 77.4225 221.382 79.9475 222.1 81.2446C222.448 81.8746 222.731 81.9386 223 81.8409C222.968 82.1155 222.944 82.3934 222.944 82.6764C222.944 85.0195 224.097 87.0645 225.816 88.1964C225.883 88.8247 225.957 89.635 225.929 89.9213C225.917 90.0409 225.841 90.2548 225.733 90.5041C225.638 90.7315 225.515 90.991 225.39 91.2436C224.983 91.0196 224.437 91.6193 223.876 92.256C223.2 93.0207 222.228 91.8972 221.577 92.5929C220.924 93.2903 219.723 93.4671 219.723 93.4671C215.094 94.5031 211.556 98.2611 211.351 98.849C211.148 99.4352 209.804 100.281 209.429 100.571C209.106 100.822 209.092 101.172 209.095 101.261C208.359 101.588 207.132 102.225 206.266 103.166C204.952 104.59 203.153 104.219 202.682 104.199C202.211 104.177 198.274 106.286 198.017 108.23C197.763 110.17 197.618 113.442 200.357 115.599C201.423 116.438 202.142 116.635 202.621 116.568L202.623 116.566C203.375 116.455 203.543 115.684 203.543 115.684C203.543 115.684 203.655 113.447 202.653 112.03C201.65 110.613 202.207 109.456 203.809 109.082C205.41 108.71 205.597 108.981 205.879 108.483C206.086 108.122 209.708 106.471 211.659 105.604C211.76 105.76 211.837 105.875 211.886 105.936C212.275 106.422 212.672 106.059 213.686 105.824C214.697 105.594 215.597 106.158 216.389 105.525C217.181 104.895 218.007 104.836 218.007 104.836C219.797 106.881 221.286 117.375 221.323 120.505V120.54C221.33 122.026 220.672 124.488 220.603 126.522C220.542 128.368 220.968 129.858 222.823 129.939C222.317 132.18 220.796 139.992 222.149 147.963C223.75 157.406 224.448 160.966 228.176 166.147C228.933 167.198 229.848 168.537 230.84 170.003C230.961 170.185 231.086 170.367 231.21 170.554C231.046 171.206 230.871 171.847 230.684 172.476C230.684 172.476 230.65 172.688 230.595 173.058C230.218 175.472 228.829 184.585 229.192 185.345C229.333 185.638 229.7 185.982 230.186 186.307L230.065 187.518C229.974 187.624 229.905 187.639 229.851 187.841V187.843C229.787 188.082 229.745 188.584 229.707 189.805C229.617 192.708 230.324 194.044 231.419 194.687C232.511 195.327 235.608 195.268 236.39 194.982C236.73 194.857 236.92 194.387 236.977 193.801C237.049 193.036 236.894 192.074 236.544 191.428C236.311 190.995 236.094 190.378 235.9 189.706C235.744 189.17 235.602 188.598 235.476 188.057L235.544 187.336C235.967 187.166 236.321 186.703 236.775 185.49C237.022 184.833 237.515 182.973 238.105 180.495C238.635 181.193 239.12 181.789 239.537 182.252C240.163 182.95 240.635 183.339 240.896 183.298C240.948 183.29 241.007 183.275 241.069 183.255C241.37 183.878 241.732 184.729 241.892 185.901C242.037 186.959 242.166 188.22 242.26 189.295C242.371 190.537 242.44 191.532 242.444 191.674C242.449 191.805 242.462 192.501 242.661 193.078C242.859 193.661 243.243 194.124 243.988 193.764C245.466 193.046 247.625 191.431 248.091 189.829C248.555 188.225 248.464 186.187 249.702 184.073C250.94 181.963 251.668 179.672 250.77 179.333C250.617 179.276 250.395 179.182 250.134 179.067C249.384 178.739 248.296 178.243 247.46 177.928C247.606 177.66 247.662 177.44 247.589 177.293C247.371 176.84 244.673 173.458 241.587 169.391C241.31 169.021 241.024 168.645 240.738 168.264C241.611 163.733 242.264 159.611 242.233 157.779C242.17 153.815 244.711 135.213 244.196 128.398C244.489 128.395 244.799 128.349 245.12 128.246C245.665 128.07 246.24 127.729 246.809 127.17C248.622 125.383 249.406 124.104 249.554 123.22C249.702 122.334 250.372 121.621 251.204 120.727C252.034 119.832 255.891 115.8 256.569 112.997C257.115 110.736 257.509 110.076 256.604 107.972ZM232.215 154.925C232.168 154.738 232.127 154.551 232.095 154.366C231.256 149.922 233.399 145.938 233.399 145.938L233.681 145.745C233.681 145.745 233.747 149.009 233.5 153.616C233.439 154.772 233.359 156.012 233.249 157.305C232.728 156.347 232.363 155.535 232.215 154.925ZM243.278 123.003C243.249 122.92 243.219 122.836 243.192 122.762C242.792 121.706 243 120.781 243.074 120.521C243.074 120.521 243.076 120.52 243.074 120.516C243.088 120.471 243.098 120.447 243.098 120.447C244.454 116.728 243.362 104.986 243.362 104.986C246.81 104.197 248.935 106.99 248.935 106.99L249.063 106.854C249.063 106.857 249.066 107.196 249.675 107.73C250.028 108.034 250.585 108.407 251.465 108.818C251.465 108.818 252.649 109.252 251.342 112.015C251.342 112.015 251.16 112.561 251.147 113.521C251.135 114.483 249.386 118.084 247.598 119.678C246.457 120.697 244.528 121.857 243.278 123.003Z" fill="#4076A3"/>
<path d="M207.857 187.774L199.087 173.965C199.087 173.965 212.206 185.577 212.206 185.36C212.206 185.143 222.191 163.005 222.191 163.005C222.191 163.005 217.134 183.763 217.279 186.812C217.279 186.812 222.342 182.197 224.739 181.819C227.136 181.442 221.446 186.153 221.452 188.918H208.381L207.857 187.774Z" fill="#B7CAE5"/>
<path d="M147.393 200C209.329 200 259.537 196.907 259.537 193.092C259.537 189.277 209.329 186.184 147.393 186.184C85.4578 186.184 35.2491 189.277 35.2491 193.092C35.2491 196.907 85.4578 200 147.393 200Z" fill="#B7CAE5"/>
<path d="M67.0386 76.8907C69.9702 72.8557 62.6904 62.5493 50.7786 53.8707C38.8668 45.1922 26.8338 41.4279 23.9022 45.4629C20.9706 49.498 28.2504 59.8044 40.1622 68.4829C52.074 77.1615 64.107 80.9258 67.0386 76.8907Z" fill="#166AFF"/>
<path d="M94.2967 73.0348C101.15 59.9764 103.129 47.5086 98.7181 45.1872C94.307 42.8658 85.1756 51.5698 78.3225 64.6282C71.4695 77.6865 69.49 90.1544 73.9011 92.4758C78.3123 94.7972 87.4437 86.0932 94.2967 73.0348Z" fill="#166AFF"/>
<path d="M74.7754 111.324C77.426 107.098 69.4621 97.312 56.9876 89.4654C44.513 81.6189 32.2517 78.6836 29.6011 82.9093C26.9505 87.135 34.9144 96.9214 47.389 104.768C59.8635 112.615 72.1248 115.55 74.7754 111.324Z" fill="#166AFF"/>
<path d="M59.1118 46.8003C59.1118 46.8003 85.4237 130.407 74.875 192.248H92.6316C92.6316 192.248 79.6355 77.8401 59.1118 46.8003Z" fill="white"/>
<path d="M204.798 116.137V187.166C204.798 187.252 204.794 187.34 204.789 187.429C204.789 187.469 204.786 187.511 204.781 187.552C204.781 187.589 204.777 187.629 204.772 187.671C204.772 187.688 204.769 187.705 204.769 187.72C204.766 187.749 204.761 187.774 204.757 187.798C204.754 187.86 204.74 187.921 204.732 187.983C204.724 188.04 204.712 188.103 204.698 188.16C204.695 188.189 204.687 188.217 204.678 188.246C204.678 188.266 204.675 188.291 204.666 188.312C204.663 188.34 204.655 188.369 204.646 188.397C204.634 188.451 204.618 188.505 204.606 188.554C204.606 188.563 204.602 188.574 204.597 188.583C204.569 188.674 204.544 188.763 204.512 188.851C204.512 188.854 204.512 188.859 204.508 188.862C204.491 188.908 204.475 188.953 204.459 188.994C204.443 189.034 204.426 189.071 204.414 189.108C204.411 189.12 204.402 189.134 204.402 189.142C204.354 189.253 204.303 189.368 204.246 189.476C204.229 189.509 204.209 189.55 204.189 189.587C204.168 189.624 204.148 189.657 204.126 189.695C204.106 189.728 204.089 189.765 204.064 189.797C204.024 189.868 203.978 189.937 203.933 190.003C203.904 190.048 203.876 190.085 203.851 190.126C203.78 190.217 203.714 190.306 203.64 190.394C203.586 190.459 203.533 190.522 203.48 190.579C203.427 190.641 203.369 190.698 203.312 190.756C203.287 190.784 203.258 190.81 203.23 190.838C203.205 190.864 203.181 190.887 203.152 190.907C203.124 190.936 203.09 190.965 203.058 190.993C203.05 191.002 203.038 191.01 203.03 191.019C202.952 191.088 202.87 191.155 202.787 191.216C202.779 191.219 202.771 191.227 202.762 191.236C202.697 191.281 202.631 191.33 202.56 191.376C202.535 191.392 202.515 191.409 202.495 191.421C202.458 191.446 202.421 191.47 202.384 191.492C202.355 191.512 202.327 191.529 202.293 191.546C202.259 191.566 202.227 191.586 202.194 191.603C201.963 191.734 201.721 191.846 201.47 191.937C201.454 191.94 201.442 191.948 201.425 191.953C201.408 191.957 201.388 191.965 201.371 191.97C201.314 191.99 201.257 192.011 201.194 192.028C201.092 192.061 200.989 192.085 200.887 192.11C200.833 192.122 200.779 192.135 200.727 192.147C200.693 192.156 200.656 192.159 200.624 192.164C200.584 192.172 200.538 192.181 200.496 192.189C200.488 192.189 200.485 192.189 200.48 192.193C200.446 192.196 200.414 192.201 200.377 192.204C200.36 192.204 200.343 192.208 200.328 192.208C200.3 192.211 200.266 192.216 200.237 192.22C200.221 192.22 200.204 192.223 200.184 192.223C200.121 192.226 200.056 192.231 199.995 192.235C199.904 192.238 199.815 192.243 199.724 192.243H74.4091C74.3182 192.243 74.2291 192.24 74.1382 192.235C74.076 192.231 74.0104 192.226 73.9498 192.223C73.8792 192.22 73.8102 192.211 73.7396 192.198C73.6992 192.194 73.6571 192.189 73.6201 192.181C73.5209 192.169 73.4233 192.147 73.3291 192.127C73.3005 192.124 73.2753 192.115 73.2467 192.107C73.1441 192.081 73.0415 192.058 72.9389 192.024C72.8766 192.004 72.8194 191.987 72.7623 191.967C72.4864 191.873 72.2206 191.753 71.9649 191.617C71.9027 191.579 71.8421 191.542 71.7799 191.505C71.7092 191.465 71.6403 191.419 71.5747 191.374C71.1676 191.098 70.8059 190.769 70.4947 190.39C70.4207 190.304 70.3518 190.213 70.2845 190.119C70.0591 189.806 69.869 189.469 69.721 189.107C69.6873 189.024 69.6554 188.933 69.6217 188.847C69.5881 188.761 69.5645 188.67 69.5359 188.579C69.5107 188.488 69.4871 188.399 69.4653 188.308C69.4451 188.222 69.4283 188.14 69.4115 188.054C69.4081 188.042 69.4081 188.025 69.403 188.013C69.3913 187.931 69.3778 187.845 69.3694 187.762C69.366 187.759 69.366 187.751 69.366 187.742C69.3576 187.677 69.3543 187.614 69.3492 187.548C69.3374 187.42 69.3324 187.294 69.3324 187.161V116.137C69.3324 115.527 69.4401 114.944 69.6369 114.4C69.9497 113.54 70.488 112.787 71.1811 112.216C71.1895 112.207 71.2012 112.199 71.2147 112.19L71.4771 111.988C72.303 111.4 73.314 111.053 74.4074 111.053H199.721C199.844 111.053 199.963 111.057 200.083 111.07C200.103 111.067 200.128 111.07 200.148 111.073C200.263 111.082 200.382 111.094 200.493 111.11C200.518 111.114 200.547 111.119 200.57 111.122C200.67 111.139 200.767 111.159 200.861 111.185C200.887 111.188 200.91 111.193 200.935 111.201C201.055 111.23 201.169 111.264 201.285 111.301C201.393 111.335 201.502 111.375 201.607 111.415C201.755 111.473 201.898 111.543 202.037 111.618C202.115 111.655 202.194 111.695 202.268 111.74C202.399 111.815 202.527 111.897 202.646 111.988C202.65 111.983 202.65 111.988 202.65 111.988L202.912 112.19C202.924 112.199 202.937 112.207 202.946 112.216C203.016 112.269 203.077 112.327 203.139 112.384C203.188 112.424 203.233 112.47 203.279 112.515C203.418 112.652 203.549 112.795 203.674 112.952C203.731 113.022 203.785 113.091 203.834 113.162C204.047 113.454 204.229 113.772 204.372 114.109C204.412 114.2 204.449 114.294 204.486 114.388C204.486 114.392 204.49 114.397 204.49 114.4C204.547 114.552 204.592 114.709 204.633 114.865C204.653 114.943 204.67 115.017 204.687 115.096C204.698 115.158 204.712 115.216 204.72 115.276C204.732 115.339 204.74 115.399 204.749 115.461C204.761 115.536 204.769 115.61 204.774 115.684C204.782 115.746 204.786 115.812 204.786 115.872C204.794 115.96 204.798 116.051 204.798 116.137Z" fill="#DFE5EA"/>
<path d="M204.495 114.4H69.6385C69.9514 113.539 70.4897 112.786 71.1827 112.215C71.1912 112.207 71.2029 112.198 71.2164 112.19L71.4788 111.988L133.956 64.4942C135.793 63.0944 138.337 63.0944 140.174 64.4942L202.648 111.988C202.651 111.983 202.651 111.988 202.651 111.988L202.914 112.19C202.925 112.198 202.939 112.207 202.947 112.215C203.018 112.269 203.078 112.326 203.141 112.384C203.19 112.424 203.235 112.47 203.28 112.515C203.42 112.652 203.551 112.795 203.676 112.951C203.733 113.022 203.787 113.091 203.835 113.162C204.049 113.453 204.231 113.772 204.374 114.109C204.414 114.2 204.451 114.294 204.488 114.388C204.49 114.392 204.495 114.397 204.495 114.4Z" fill="#5B97EF"/>
<path d="M195.072 188.551H77.3882V81.6206C77.3882 76.5958 81.4556 72.5244 86.4717 72.5244H185.986C191.004 72.5244 195.07 76.5975 195.07 81.6206V188.551H195.072Z" fill="white"/>
<path d="M179.466 98.1973H92.9932C91.7821 98.1973 90.7913 97.2052 90.7913 95.9923V95.0541C90.7913 93.8413 91.7821 92.8491 92.9932 92.8491H179.466C180.678 92.8491 181.668 93.8413 181.668 95.0541V95.9923C181.67 97.2052 180.679 98.1973 179.466 98.1973Z" fill="#E4ECF9"/>
<path d="M179.466 109.627H92.9932C91.7821 109.627 90.7913 108.634 90.7913 107.422V106.483C90.7913 105.27 91.7821 104.278 92.9932 104.278H179.466C180.678 104.278 181.668 105.27 181.668 106.483V107.422C181.67 108.633 180.679 109.627 179.466 109.627Z" fill="#E4ECF9"/>
<path d="M179.466 121.054H92.9932C91.7821 121.054 90.7913 120.062 90.7913 118.849V117.911C90.7913 116.698 91.7821 115.706 92.9932 115.706H179.466C180.678 115.706 181.668 116.698 181.668 117.911V118.849C181.67 120.06 180.679 121.054 179.466 121.054Z" fill="#E4ECF9"/>
<path d="M179.466 132.482H92.9932C91.7821 132.482 90.7913 131.489 90.7913 130.277V129.338C90.7913 128.125 91.7821 127.133 92.9932 127.133H179.466C180.678 127.133 181.668 128.125 181.668 129.338V130.277C181.67 131.489 180.679 132.482 179.466 132.482Z" fill="#E4ECF9"/>
<path d="M179.466 143.909H92.9932C91.7821 143.909 90.7913 142.917 90.7913 141.704V140.766C90.7913 139.553 91.7821 138.561 92.9932 138.561H179.466C180.678 138.561 181.668 139.553 181.668 140.766V141.704C181.67 142.917 180.679 143.909 179.466 143.909Z" fill="#E4ECF9"/>
<path d="M137.068 153.556V153.559C136.872 153.773 136.638 153.97 136.37 154.135L74.6883 192.246H74.4091C73.896 192.246 73.4031 192.172 72.9389 192.029C72.8733 192.009 72.8077 191.989 72.7454 191.967C71.9363 191.687 71.2164 191.205 70.6545 190.581C70.6007 190.523 70.5469 190.461 70.4947 190.395C70.3383 190.21 70.1987 190.008 70.0708 189.799C70.0254 189.728 69.9884 189.659 69.948 189.588C69.911 189.514 69.8707 189.44 69.837 189.366C69.5157 188.699 69.3358 187.954 69.3358 187.164V116.137C69.3358 115.527 69.4434 114.944 69.6402 114.4C69.9531 113.54 70.4914 112.787 71.1844 112.216C71.1928 112.207 71.2046 112.199 71.2181 112.19L71.4805 111.988C72.3064 111.4 73.3174 111.053 74.4107 111.053H75.5697L80.9862 114.399L130.912 145.248L132.789 146.409L136.372 148.622C136.639 148.787 136.873 148.984 137.07 149.198V149.201C138.182 150.426 138.182 152.338 137.068 153.556Z" fill="#3D83FF"/>
<path d="M204.798 116.137V187.166C204.798 187.252 204.794 187.34 204.789 187.429C204.789 187.47 204.786 187.512 204.781 187.552C204.781 187.589 204.777 187.63 204.772 187.672C204.772 187.689 204.769 187.705 204.769 187.721C204.766 187.749 204.761 187.774 204.757 187.798C204.754 187.86 204.74 187.921 204.732 187.983C204.724 188.041 204.712 188.103 204.698 188.16C204.698 188.169 204.695 188.18 204.695 188.189C204.692 188.206 204.687 188.226 204.678 188.246C204.678 188.266 204.675 188.292 204.666 188.312C204.663 188.34 204.655 188.369 204.646 188.398C204.634 188.452 204.621 188.501 204.606 188.554C204.606 188.563 204.602 188.575 204.597 188.583C204.572 188.674 204.544 188.763 204.512 188.851C204.512 188.854 204.512 188.859 204.508 188.863C204.491 188.908 204.48 188.949 204.459 188.994C204.448 189.031 204.431 189.068 204.414 189.109C204.411 189.117 204.406 189.129 204.402 189.142C204.354 189.253 204.303 189.368 204.246 189.476C204.229 189.509 204.209 189.55 204.189 189.587C204.168 189.624 204.148 189.658 204.126 189.695C204.106 189.728 204.089 189.766 204.064 189.798C204.024 189.868 203.978 189.937 203.933 190.003C203.904 190.049 203.876 190.086 203.851 190.126C203.78 190.22 203.711 190.306 203.64 190.394C203.586 190.46 203.533 190.522 203.48 190.579C203.427 190.641 203.369 190.699 203.312 190.756C203.287 190.785 203.258 190.81 203.23 190.839C203.205 190.864 203.181 190.887 203.152 190.908C203.124 190.936 203.09 190.965 203.058 190.994C203.05 191.002 203.038 191.01 203.03 191.019C202.952 191.088 202.87 191.155 202.787 191.216C202.779 191.219 202.771 191.228 202.762 191.236C202.697 191.282 202.631 191.33 202.56 191.376C202.535 191.393 202.515 191.41 202.495 191.421C202.458 191.447 202.421 191.47 202.384 191.492C202.355 191.512 202.327 191.529 202.293 191.546C202.259 191.566 202.227 191.586 202.194 191.603C201.963 191.735 201.721 191.846 201.47 191.937C201.454 191.94 201.437 191.949 201.425 191.954C201.408 191.957 201.388 191.965 201.371 191.971C201.314 191.991 201.257 192.011 201.194 192.028C201.092 192.061 200.989 192.085 200.887 192.11C200.833 192.122 200.779 192.136 200.727 192.147C200.693 192.156 200.656 192.159 200.624 192.164C200.584 192.173 200.538 192.181 200.496 192.189H200.485C200.448 192.193 200.411 192.201 200.377 192.206C200.36 192.206 200.343 192.21 200.328 192.21C200.3 192.213 200.271 192.218 200.237 192.222C200.221 192.222 200.204 192.225 200.184 192.225C200.121 192.228 200.056 192.233 199.995 192.237C199.904 192.24 199.815 192.245 199.724 192.245H199.445L137.763 154.137C137.496 153.972 137.262 153.775 137.068 153.561V153.558C135.951 152.335 135.951 150.43 137.068 149.203V149.2C137.262 148.986 137.496 148.789 137.763 148.624L141.343 146.411L143.22 145.25L193.149 114.401L198.565 111.055H199.724C199.847 111.055 199.967 111.059 200.086 111.072C200.106 111.069 200.131 111.072 200.152 111.075C200.266 111.084 200.385 111.096 200.496 111.112C200.522 111.116 200.55 111.121 200.574 111.124C200.673 111.141 200.771 111.161 200.865 111.187C200.89 111.19 200.914 111.195 200.939 111.203C201.058 111.232 201.173 111.266 201.289 111.303C201.396 111.336 201.506 111.377 201.61 111.417C201.758 111.475 201.901 111.545 202.041 111.619C202.118 111.657 202.197 111.697 202.271 111.742C202.402 111.817 202.53 111.899 202.65 111.99C202.653 111.985 202.653 111.99 202.653 111.99L202.915 112.192C202.927 112.201 202.941 112.209 202.949 112.217C203.02 112.271 203.08 112.329 203.142 112.386C203.191 112.426 203.237 112.472 203.282 112.517C203.422 112.654 203.553 112.797 203.677 112.954C203.734 113.024 203.788 113.093 203.837 113.164C204.051 113.456 204.232 113.774 204.375 114.111C204.416 114.202 204.453 114.296 204.49 114.39C204.49 114.394 204.493 114.399 204.493 114.402C204.55 114.554 204.596 114.71 204.636 114.867C204.656 114.945 204.673 115.019 204.69 115.098C204.702 115.16 204.715 115.218 204.724 115.278C204.735 115.34 204.744 115.401 204.752 115.463C204.764 115.538 204.772 115.612 204.777 115.686C204.786 115.748 204.789 115.814 204.789 115.874C204.794 115.96 204.798 116.051 204.798 116.137Z" fill="#3D83FF"/>
<path opacity="0.2" d="M204.798 186.204V186.943C204.798 189.873 202.525 192.248 199.723 192.248H74.4091C71.6067 192.248 69.3341 189.873 69.3341 186.943V186.204L133.788 143.738C135.79 142.419 138.337 142.419 140.338 143.738L204.798 186.204Z" fill="white"/>
<path d="M204.798 186.459V187.166C204.798 189.972 202.525 192.248 199.723 192.248H74.4091C71.6067 192.248 69.3341 189.972 69.3341 187.166V186.459L133.79 145.775C135.792 144.512 138.338 144.512 140.34 145.775L204.798 186.459Z" fill="#166AFF"/>
<path d="M130.707 86.7701H92.9932C91.7821 86.7701 90.7913 85.7779 90.7913 84.5651V83.6268C90.7913 82.414 91.7821 81.4219 92.9932 81.4219H130.707C131.918 81.4219 132.908 82.414 132.908 83.6268V84.5651C132.908 85.7779 131.918 86.7701 130.707 86.7701Z" fill="#3B82F4"/>
<path d="M228.864 183.606L228.59 186.342L233.983 187.199L234.289 183.883L228.864 183.606Z" fill="#FDC8AA"/>
<path d="M235.596 191.706C235.539 192.292 235.348 192.762 235.009 192.887C234.226 193.173 231.13 193.232 230.038 192.592C228.945 191.95 228.236 190.613 228.326 187.71C228.363 186.489 228.406 185.987 228.47 185.748V185.746C228.558 185.418 228.682 185.583 228.882 185.052L229.093 184.742C229.093 184.742 229.103 184.665 229.128 184.539C229.241 183.957 229.696 182.325 231.165 182.325C232.953 182.325 233.478 183.085 233.759 184.412C233.934 185.236 234.198 186.499 234.521 187.609C234.714 188.281 234.931 188.898 235.165 189.331C235.512 189.979 235.668 190.941 235.596 191.706Z" fill="#ECF3FE"/>
<path d="M235.596 191.706C235.539 192.292 235.348 192.762 235.009 192.886C234.226 193.173 231.13 193.232 230.038 192.592C228.945 191.95 228.236 190.612 228.326 187.71C228.363 186.489 228.406 185.987 228.47 185.748C228.527 187.282 228.78 190.456 229.9 191.539C231.057 192.659 234.23 192.041 235.596 191.706Z" fill="#9FB8D6"/>
<path d="M234.519 187.611C233.121 187.928 231.138 187.753 230.307 187.347C229.611 187.006 229.273 185.719 229.126 184.539C229.239 183.957 229.695 182.325 231.163 182.325C232.952 182.325 233.476 183.085 233.757 184.412C233.932 185.238 234.196 186.501 234.519 187.611Z" fill="#D7E3F4"/>
<path d="M239.515 181.205C239.256 181.245 238.782 180.854 238.156 180.159C237.739 179.695 237.254 179.099 236.724 178.402C235.902 177.32 234.963 176 233.983 174.583C233.032 173.208 232.041 171.741 231.079 170.313C230.655 169.683 230.238 169.061 229.829 168.457C229.705 168.27 229.579 168.088 229.459 167.906C228.467 166.439 227.552 165.101 226.795 164.05C223.067 158.869 222.369 155.309 220.768 145.866C219.166 136.425 221.595 127.205 221.595 127.205L231.342 125.472L231.93 141.894L232.087 142.627L232.302 143.648L232.019 143.841C232.019 143.841 229.876 147.825 230.716 152.269C230.749 152.456 230.788 152.643 230.837 152.828C230.985 153.438 231.352 154.25 231.871 155.206C232.603 156.551 233.643 158.178 234.834 159.915C235.912 161.483 237.11 163.14 238.314 164.768C238.662 165.239 239.012 165.707 239.359 166.171C239.645 166.551 239.929 166.927 240.208 167.298C243.293 171.364 245.991 174.746 246.21 175.199C246.718 176.247 240.908 180.987 239.515 181.205Z" fill="#15315E"/>
<path d="M240.205 167.298C239.688 170.624 238.701 176.768 238.156 180.159C237.739 179.695 237.254 179.099 236.724 178.402C235.902 177.32 234.963 176 233.983 174.583C235.113 171.31 237.143 165.453 237.355 165.03C237.454 164.835 237.841 164.768 238.312 164.768C238.661 165.239 239.01 165.708 239.357 166.171C239.641 166.551 239.927 166.927 240.205 167.298Z" fill="#122C51"/>
<path d="M236.765 154.495C236.741 154.6 235.931 156.864 234.83 159.914C233.7 163.051 232.269 167.018 231.079 170.313C229.766 173.943 228.746 176.759 228.746 176.759L229.214 170.961C229.271 170.591 229.303 170.378 229.303 170.378C229.49 169.75 229.665 169.108 229.83 168.456C229.705 168.269 229.579 168.087 229.459 167.906L230.714 152.267C230.748 152.454 230.787 152.641 230.835 152.826C230.983 153.436 231.35 154.248 231.87 155.205C231.978 153.911 232.058 152.671 232.121 151.516C233.88 152.533 236.819 154.266 236.765 154.495Z" fill="#122C51"/>
<path d="M240.851 155.684C240.881 157.517 240.228 161.637 239.355 166.17C238.541 170.4 237.54 174.988 236.723 178.401C236.134 180.879 235.64 182.739 235.392 183.396C234.442 185.929 233.932 185.195 232.306 185.336C230.679 185.476 228.23 184.127 227.809 183.249C227.446 182.489 228.835 173.376 229.212 170.963C229.269 170.592 229.301 170.38 229.301 170.38C229.488 169.751 229.663 169.11 229.828 168.458C230.909 164.157 231.523 159.397 231.868 155.208C231.976 153.914 232.057 152.674 232.119 151.519C232.366 146.912 232.301 143.647 232.301 143.647L232.1 143.346L232.087 142.628L231.735 126.026C231.735 126.026 239.596 122.876 242.048 123.821C244.498 124.763 240.773 150.899 240.851 155.684Z" fill="#1F3A6F"/>
<path d="M248.319 181.979C247.081 184.093 247.174 186.132 246.708 187.735C246.24 189.336 244.084 190.951 242.605 191.67C241.86 192.032 241.475 191.569 241.278 190.985C241.079 190.407 241.066 189.711 241.061 189.58C241.056 189.438 240.989 188.444 240.878 187.201C240.783 186.127 240.654 184.867 240.509 183.807C240.2 181.528 239.123 180.458 239.222 179.931C239.318 179.404 241.481 179.128 242.602 178.863C243.058 178.755 243.522 178.189 243.912 177.558C244.282 176.963 244.585 176.306 244.753 175.917C244.859 175.671 245.128 175.536 245.387 175.605C246.202 175.823 247.768 176.544 248.75 176.973C249.012 177.089 249.233 177.184 249.387 177.239C250.287 177.576 249.557 179.867 248.319 181.979Z" fill="#ECF3FE"/>
<path d="M232.275 143.223L230.398 140.351L229.392 125.472L232.275 124.844V143.223Z" fill="#122C51"/>
<path d="M211.503 102.969C211.503 102.969 204.781 105.893 204.498 106.389C204.216 106.887 204.029 106.616 202.428 106.988C200.826 107.362 200.269 108.518 201.272 109.936C202.274 111.353 202.162 113.59 202.162 113.59C202.162 113.59 201.994 114.361 201.242 114.472L201.24 114.474C200.761 114.543 200.042 114.344 198.976 113.505C196.237 111.348 196.382 108.076 196.636 106.136C196.893 104.192 200.829 102.083 201.3 102.105C201.771 102.127 203.571 102.497 204.885 101.072C206.199 99.6456 208.347 98.9111 208.347 98.9111L211.069 102.411L211.503 102.969Z" fill="#FDC8AA"/>
<path d="M211.503 102.969C211.503 102.969 204.781 105.893 204.498 106.388C204.216 106.887 204.029 106.616 202.428 106.988C200.826 107.362 200.269 108.518 201.272 109.936C202.275 111.353 202.162 113.59 202.162 113.59C202.162 113.59 201.994 114.361 201.242 114.472C201.958 114.174 201.822 112.092 201.036 110.872C200.251 109.651 200.369 108.157 200.486 107.407C200.604 106.66 203.316 106.422 204.416 105.44C205.218 104.724 208.828 103.297 211.069 102.41L211.503 102.969Z" fill="#FBB188"/>
<path d="M236.136 92.9632C236.294 96.9369 227.411 98.709 225.722 97.4507C224.031 96.189 223.4 90.3237 223.4 90.3237C223.4 90.3237 224.026 89.1833 224.352 88.4101C224.462 88.1591 224.536 87.9469 224.548 87.8273C224.596 87.3337 224.342 85.2888 224.342 85.2888L232.205 83.9092C232.312 84.1282 232.435 85.3006 232.639 86.318C232.778 87.0221 232.955 87.6554 233.192 87.8407C233.774 88.2989 235.979 88.9862 236.136 92.9632Z" fill="#FDC8AA"/>
<path d="M234.082 88.3394C233.934 88.5465 231.135 94.4793 226.712 94.2434C222.29 94.0076 231.754 97.2839 232.018 97.107C232.284 96.9302 237.855 92.03 237.884 91.8228C237.914 91.6157 236.881 88.6645 236.676 88.7083C236.471 88.7521 234.082 88.3394 234.082 88.3394Z" fill="#EFA57F"/>
<path d="M251.874 100.274L247.554 104.893C247.554 104.893 245.43 102.1 241.981 102.888C241.981 102.888 243.073 114.629 241.717 118.35C241.717 118.35 241.707 118.374 241.694 118.419C241.695 118.421 241.694 118.424 241.694 118.424C241.621 118.684 241.411 119.61 241.811 120.665C241.969 121.077 242.141 121.647 242.299 122.228C242.622 123.402 242.896 124.608 242.896 124.608C242.896 124.608 229.022 126.154 222.99 127.654C219.811 128.442 219.146 126.703 219.222 124.426C219.291 122.393 219.949 119.93 219.942 118.445V118.409C219.905 115.279 218.416 104.785 216.626 102.74C216.626 102.74 215.8 102.799 215.008 103.429C214.216 104.062 213.318 103.498 212.305 103.729C211.291 103.963 210.895 104.327 210.505 103.84C210.117 103.353 207.716 99.191 207.716 99.191C207.716 99.191 207.676 98.7682 208.049 98.4784C208.424 98.1887 209.768 97.3431 209.972 96.7569C210.177 96.169 213.715 92.411 218.344 91.375C218.344 91.375 219.545 91.1982 220.198 90.5008C220.849 89.8034 221.821 90.9286 222.497 90.1639C223.172 89.3991 223.824 88.6832 224.24 89.3924C224.65 90.1016 225.239 93.0241 228.985 94.2336C229.074 94.2622 234.038 91.3363 233.796 88.2234C233.796 88.2234 233.937 87.0594 236.605 88.2234C239.275 89.3873 239.919 89.7327 241.663 89.9314C243.408 90.1302 248.498 94.4542 251.874 100.274Z" fill="#2ED0FA"/>
<path d="M232.64 86.318C231.527 87.8323 229.185 89.3719 224.354 88.4101C224.463 88.1591 224.537 87.9469 224.549 87.8273C224.598 87.3337 224.344 85.2888 224.344 85.2888L232.206 83.9092C232.314 84.1282 232.437 85.3006 232.64 86.318Z" fill="#FBB188"/>
<path d="M233.466 80.5826C233.466 82.5467 232.66 84.3069 231.384 85.4877C230.344 86.458 228.992 87.0408 227.517 87.0408C224.23 87.0408 221.567 84.1503 221.567 80.5826C221.567 77.0165 224.23 74.126 227.517 74.126C228.847 74.126 230.075 74.601 231.066 75.4011C232.523 76.5769 233.466 78.4618 233.466 80.5826Z" fill="#FDC8AA"/>
<path d="M233.466 80.5826C233.466 82.5467 232.66 84.307 231.384 85.4878C234.438 79.4287 227.658 76.2383 227.658 76.2383C227.658 76.2383 229.185 75.861 231.066 75.4028C232.522 76.5769 233.466 78.4618 233.466 80.5826Z" fill="#FBB188"/>
<path d="M220.847 75.2207C220.847 75.3268 220.004 77.8519 220.721 79.1489C221.439 80.4459 221.878 79.3527 222.497 79.3527C223.116 79.3527 224.206 76.9624 224.944 77.0214C225.681 77.0804 231.194 76.5497 231.961 78.6452C232.728 80.7407 235.004 79.2533 234.879 77.5032C234.753 75.753 234.354 73.9169 232.521 72.7142C230.689 71.5115 229.506 70.6861 228.04 70.7872C226.573 70.8882 220.862 70.8461 220.847 75.2207Z" fill="#15315E"/>
<path d="M242.299 122.228C232.067 122.944 226.315 121.992 233.757 121.578C238.097 121.337 240.428 119.925 241.693 118.423C241.621 118.682 241.411 119.609 241.811 120.663C241.969 121.078 242.141 121.647 242.299 122.228Z" fill="#58DDFF"/>
<path d="M219.222 124.426C219.291 122.393 219.949 119.93 219.942 118.445C221.481 117.033 223.531 114.584 225.74 110.007C229.638 101.937 225.607 118.209 219.222 124.426Z" fill="#58DDFF"/>
<path d="M255.187 110.901C254.508 113.704 250.652 117.735 249.823 118.631C248.991 119.526 248.321 120.24 248.173 121.124C248.025 122.01 247.241 123.287 245.428 125.074C244.859 125.634 244.284 125.974 243.739 126.151C242.546 126.537 241.497 126.141 240.968 125.587C240.198 124.776 240.698 122.814 240.698 122.814C240.698 121.123 244.43 119.175 246.218 117.58C248.006 115.987 249.756 112.385 249.768 111.423C249.781 110.462 249.963 109.918 249.963 109.918C251.27 107.155 250.086 106.72 250.086 106.72C249.206 106.309 248.649 105.937 248.296 105.632C247.683 105.097 247.683 104.756 247.683 104.756L251.732 100.427C251.739 100.427 251.786 100.429 251.885 100.496C252.173 100.683 252.895 101.391 254.331 104.067C254.716 104.78 255.006 105.368 255.224 105.873C256.128 107.977 255.734 108.639 255.187 110.901Z" fill="#FDC8AA"/>
<path d="M255.187 110.901C254.508 113.704 250.652 117.735 249.823 118.631C248.991 119.526 248.321 120.24 248.173 121.124C248.025 122.01 247.241 123.287 245.428 125.074C244.859 125.634 244.284 125.974 243.739 126.151C244.585 125.17 246.9 123.178 247.064 121.931C247.275 120.338 250.091 117.681 253.115 113.588C255.087 110.921 255.309 107.758 255.223 105.873C256.128 107.977 255.734 108.639 255.187 110.901Z" fill="#FBB188"/>
<path d="M251.884 100.496C251.162 101.859 249.741 104.337 248.294 105.632C247.682 105.097 247.682 104.756 247.682 104.756L251.731 100.427C251.737 100.427 251.785 100.431 251.884 100.496Z" fill="#EFA57F"/>
<path d="M248.319 181.979C247.081 184.093 247.174 186.132 246.708 187.735C246.24 189.336 244.084 190.951 242.605 191.67C241.86 192.032 241.475 191.569 241.278 190.985C243.177 190.375 245.246 188.289 245.726 187.584C246.287 186.757 245.815 184.632 247.287 182.18C248.22 180.628 248.6 178.398 248.752 176.973C249.014 177.089 249.234 177.184 249.389 177.239C250.287 177.576 249.557 179.867 248.319 181.979Z" fill="#9FB8D6"/>
<path d="M240.878 187.199C240.783 186.125 240.654 184.865 240.509 183.805C240.2 181.526 239.123 180.456 239.222 179.929C239.318 179.402 241.481 179.126 242.602 178.861C243.058 178.753 243.522 178.187 243.912 177.556C244.44 179.985 244.948 184.991 240.878 187.199Z" fill="#D7E3F4"/>
<path opacity="0.2" d="M106.01 99.4652L45.0811 99.3237C44.2132 99.322 43.5016 100.031 43.4999 100.9L43.4428 125.684C43.4411 126.553 44.1492 127.266 45.0172 127.267L105.946 127.409C106.814 127.411 107.525 126.701 107.527 125.832L107.584 101.049C107.586 100.179 106.878 99.4686 106.01 99.4652Z" fill="#4076A3"/>
<path d="M101.981 123.668L41.0525 123.527C40.1845 123.525 39.4763 122.813 39.478 121.943L39.5352 97.1597C39.5369 96.2905 40.2484 95.5813 41.1164 95.583L102.045 95.7245C102.913 95.7262 103.621 96.4387 103.619 97.3079L103.562 122.092C103.56 122.961 102.849 123.67 101.981 123.668Z" fill="#2ED0FA"/>
<path d="M53.7997 121.203C60.208 121.203 65.403 116.001 65.403 109.584C65.403 103.167 60.208 97.9644 53.7997 97.9644C47.3913 97.9644 42.1964 103.167 42.1964 109.584C42.1964 116.001 47.3913 121.203 53.7997 121.203Z" fill="white"/>
<path d="M53.6298 120.087C53.5625 120.087 53.4986 120.087 53.4364 120.08H53.433C51.4363 120.016 49.5961 119.357 48.0637 118.283C48.7399 116.935 49.9678 115.902 51.4397 115.485H51.4431C51.687 115.414 51.9376 115.362 52.1916 115.331C52.4237 115.299 52.6643 115.283 52.9082 115.284L54.8729 115.289C55.1135 115.289 55.3523 115.308 55.5861 115.34H55.5895C55.8435 115.372 56.0941 115.426 56.3364 115.497C57.3726 115.796 58.2893 116.394 58.9723 117.203C59.233 117.508 59.4584 117.846 59.6468 118.205C58.1547 119.283 56.3549 119.957 54.4036 120.073C54.3161 120.08 54.227 120.083 54.1361 120.083C54.1227 120.087 54.1075 120.087 54.0941 120.087H54.0907C54.0739 120.09 54.0554 120.09 54.0335 120.087C54.0201 120.09 54.0016 120.09 53.9848 120.087C53.9175 120.093 53.8468 120.093 53.7762 120.093H53.7274H53.6668H53.65L53.6298 120.087Z" fill="#166AFF"/>
<path d="M48.7499 107.588C48.7499 107.588 48.1494 100.929 51.7845 100.806C55.4196 100.683 56.9066 99.7638 57.7762 100.074C58.6459 100.384 59.2986 106.433 59.0647 107.612C58.8292 108.789 48.7499 107.588 48.7499 107.588Z" fill="#166AFF"/>
<path d="M55.5878 114.358L55.5828 116.221C55.5811 117.011 54.8157 117.654 53.8821 117.653C52.9486 117.651 52.1866 117.002 52.1882 116.212L52.1933 114.349C52.1933 114.024 52.3245 113.723 52.5448 113.482C52.5953 113.425 52.6508 113.372 52.7114 113.323C52.8258 113.229 52.957 113.148 53.1 113.084C53.3371 112.976 53.608 112.917 53.8956 112.917C54.1816 112.917 54.4524 112.98 54.6896 113.088C54.8309 113.152 54.9621 113.232 55.0748 113.328C55.0798 113.334 55.0865 113.339 55.0933 113.344C55.1471 113.389 55.1959 113.438 55.243 113.489C55.46 113.731 55.5895 114.033 55.5878 114.358Z" fill="#F4CB95"/>
<path d="M58.5147 107.871L58.508 110.583C58.5029 112.49 57.2834 114.121 55.5878 114.739L55.5861 115.455C55.1118 115.628 54.6004 115.723 54.0689 115.721L53.7055 115.719C53.174 115.718 52.6626 115.622 52.1899 115.447L52.1916 114.731C50.4994 114.104 49.2866 112.467 49.2899 110.56L49.2967 107.848C49.3051 106.574 49.8568 105.426 50.7281 104.622C51.5204 103.889 52.5768 103.443 53.7324 103.446L54.0958 103.448C55.1336 103.45 56.0908 103.815 56.8461 104.422C57.8587 105.235 58.5114 106.48 58.5147 107.871Z" fill="#83B0FF"/>
<path d="M58.5147 107.177L58.5063 110.585C58.5046 111.437 58.2607 112.237 57.8368 112.913C57.7712 113.019 57.6972 113.122 57.6232 113.219C57.5323 113.342 57.4381 113.457 57.3355 113.568C56.8595 114.088 56.2606 114.493 55.5878 114.74C55.1117 114.912 54.6004 115.008 54.0671 115.008H53.7072C53.1756 115.006 52.6626 114.907 52.1933 114.734C50.4993 114.107 49.2865 112.468 49.2916 110.565L49.3 107.03C49.3404 105.744 49.9358 104.585 50.856 103.798C51.004 103.672 51.1554 103.557 51.3152 103.454C52.0116 102.996 52.8442 102.732 53.7374 102.733H54.0974C54.7888 102.735 55.4482 102.897 56.0336 103.193C56.1513 103.251 56.2674 103.308 56.3767 103.379C56.5113 103.461 56.6425 103.547 56.7686 103.646C57.8318 104.462 58.5181 105.742 58.5147 107.177Z" fill="#F4CB95"/>
<path d="M60.2842 108.974C60.2826 109.954 59.4852 110.748 58.5062 110.746L58.5146 107.195C58.7602 107.195 58.994 107.246 59.2077 107.338C59.2094 107.338 59.211 107.34 59.211 107.34C59.8435 107.611 60.2859 108.241 60.2842 108.974Z" fill="#EDC28E"/>
<path d="M59.6098 108.973C59.6081 109.579 59.1152 110.071 58.5096 110.07L58.5147 107.87C59.1203 107.873 59.6114 108.367 59.6098 108.973Z" fill="#166AFF"/>
<path d="M49.3 107.174L49.2916 110.725C48.3126 110.723 47.5203 109.926 47.5236 108.944C47.5253 108.1 48.1141 107.396 48.903 107.216C48.9299 107.209 48.9585 107.204 48.9854 107.199C49.0005 107.197 49.014 107.196 49.0308 107.192C49.1166 107.182 49.2074 107.174 49.3 107.174Z" fill="#EDC28E"/>
<path d="M48.1982 108.947C48.1965 109.554 48.6877 110.047 49.2933 110.049L49.2983 107.851C48.6911 107.849 48.1982 108.339 48.1982 108.947Z" fill="#166AFF"/>
<path d="M58.5147 107.177L58.5062 110.585C58.5046 111.437 58.2606 112.237 57.8368 112.913C57.7711 113.019 57.6971 113.121 57.6231 113.219C58.518 106.796 57.4431 105.861 55.9208 105.871C54.2824 105.876 53.9157 103.857 53.9157 103.857L56.3783 103.378C56.5129 103.461 56.6441 103.547 56.7703 103.646C57.8317 104.462 58.518 105.742 58.5147 107.177Z" fill="#E5B67F"/>
<path d="M55.5827 117.476L56.0117 118.215L54.4019 120.07C54.3144 120.077 54.2252 120.08 54.1344 120.08C54.121 120.083 54.1058 120.083 54.0924 120.083H54.089C54.0722 120.087 54.0537 120.087 54.0318 120.083L55.3405 116.952L55.3439 116.945L55.5609 116.43L55.5642 116.426L55.5861 116.374L55.5878 115.456L56.5264 117.055L55.6332 117.456L55.5827 117.476Z" fill="white"/>
<path d="M53.724 120.091H53.7728C53.8434 120.091 53.9141 120.091 53.9813 120.084C53.9982 120.087 54.0167 120.087 54.0301 120.084C54.052 120.087 54.0688 120.087 54.0873 120.084H54.0907L54.311 119.732L55.4801 117.83L55.4818 117.261L55.8922 116.867L55.6887 116.095C55.6887 116.095 55.6568 116.156 55.5861 116.257L55.5794 116.264V116.27C55.3876 116.56 54.9452 117.141 54.3178 117.468C54.1798 117.535 54.0385 117.598 53.8804 117.636C53.6651 117.576 53.4683 117.483 53.2917 117.374C52.7383 117.037 52.3581 116.52 52.1932 116.255L52.1899 116.248C52.1192 116.146 52.0873 116.085 52.0873 116.085L51.8804 116.855L52.2891 117.251L52.2874 117.82L53.2849 119.462L53.6617 120.086L53.6651 120.089L53.724 120.091Z" fill="white"/>
<path d="M55.6333 117.456L56.0117 118.215L54.1345 120.08C54.121 120.083 54.1059 120.083 54.0924 120.083H54.0891C54.0722 120.087 54.0537 120.087 54.0319 120.083C54.0184 120.087 53.9999 120.087 53.9831 120.083L55.243 117.08V117.077L55.5794 116.271V116.265L55.5862 116.258L55.5878 115.34L56.5265 117.056L55.5845 117.361L55.6333 117.456Z" fill="#83B0FF"/>
<path d="M53.6298 120.087C53.5625 120.087 53.4986 120.087 53.4364 120.081H53.433L51.7542 118.207L52.1865 117.47L52.1377 117.448L51.2462 117.043L52.1916 115.448L52.1899 116.25V116.366L52.1933 116.373L52.2033 116.402L52.2067 116.408L52.4271 116.942V116.946L53.7257 120.089H53.6651H53.6483L53.6298 120.087Z" fill="white"/>
<path d="M53.6298 120.087L51.7525 118.205L52.136 117.447L52.1848 117.351L51.2445 117.043L52.1899 115.332V115.448L52.1882 116.25L52.1915 116.256L52.528 117.07V117.073L53.7744 120.09H53.724H53.6651H53.6466L53.6298 120.087Z" fill="#83B0FF"/>
<path d="M56.6946 102.739C56.6946 102.739 54.4826 102.065 54.0536 102.063C53.6247 102.061 53.073 102.112 52.2218 102.316C51.3723 102.52 50.0905 103.439 50.0905 103.439L49.8483 103.896C49.7154 104.034 49.5775 104.192 49.5691 104.238C49.5624 104.28 49.5321 104.42 49.5035 104.546L49.305 104.923C49.3319 104.913 49.3992 104.893 49.4799 104.863L49.5926 105.225C49.6061 105.22 50.0283 104.583 50.8021 104.172C51.7693 103.828 53.0713 103.742 53.9914 104.421C55.6634 105.656 58.7872 104.945 58.7872 104.945L56.6946 102.739Z" fill="#166AFF"/>
<path d="M96.9042 102.585L70.3165 102.523C69.6302 102.521 69.07 101.959 69.0717 101.271V101.209C69.0734 100.522 69.6352 99.9607 70.3215 99.9624L96.9093 100.025C97.5956 100.026 98.1557 100.589 98.1541 101.276V101.339C98.1524 102.026 97.5905 102.587 96.9042 102.585Z" fill="white"/>
<path d="M96.8907 108.173L70.303 108.11C69.6167 108.109 69.0565 107.546 69.0582 106.859V106.796C69.0599 106.109 69.6217 105.548 70.3081 105.55L96.8958 105.612C97.5821 105.614 98.1422 106.176 98.1406 106.864V106.926C98.1406 107.613 97.577 108.173 96.8907 108.173Z" fill="white"/>
<path d="M96.879 113.758L70.2913 113.696C69.605 113.694 69.0448 113.132 69.0465 112.445V112.382C69.0482 111.695 69.61 111.134 70.2963 111.136L96.8841 111.198C97.5704 111.2 98.1305 111.762 98.1288 112.45V112.512C98.1272 113.199 97.5653 113.76 96.879 113.758Z" fill="white"/>
<path d="M96.8655 119.344L70.2778 119.282C69.5915 119.28 69.0313 118.718 69.033 118.031V117.968C69.0347 117.281 69.5965 116.72 70.2828 116.722L96.8706 116.784C97.5569 116.786 98.117 117.348 98.1154 118.036V118.098C98.1137 118.785 97.5518 119.346 96.8655 119.344Z" fill="white"/>
<path d="M176.212 106.153C176.018 106.153 175.823 106.089 175.661 105.956C174.427 104.945 173.261 103.845 172.2 102.686C171.875 102.333 171.899 101.782 172.252 101.455C172.605 101.13 173.155 101.154 173.481 101.507C174.487 102.606 175.592 103.647 176.763 104.605C177.135 104.91 177.191 105.457 176.886 105.831C176.713 106.044 176.464 106.153 176.212 106.153ZM169.967 99.3276C169.688 99.3276 169.414 99.1928 169.246 98.9435C168.349 97.6094 167.56 96.2096 166.901 94.7812C166.699 94.3449 166.889 93.8261 167.325 93.6256C167.76 93.4235 168.279 93.6138 168.479 94.0501C169.099 95.3943 169.843 96.7133 170.687 97.9699C170.955 98.3691 170.851 98.9098 170.452 99.1793C170.304 99.2787 170.136 99.3276 169.967 99.3276ZM183.498 92.2848C182.451 92.2848 181.414 92.2157 180.419 92.081C179.942 92.017 179.609 91.5773 179.673 91.1006C179.737 90.6239 180.175 90.2887 180.652 90.3544C182.072 90.5464 183.593 90.5919 185.103 90.4858C185.586 90.4521 185.998 90.8143 186.032 91.2926C186.065 91.7727 185.704 92.1888 185.226 92.2225C184.652 92.2646 184.07 92.2848 183.498 92.2848ZM189.734 91.451C189.352 91.451 189.002 91.1983 188.896 90.8109C188.769 90.3477 189.041 89.8676 189.504 89.7396C190.999 89.3269 192.377 88.7693 193.6 88.0837C194.019 87.8479 194.548 87.9978 194.784 88.4172C195.019 88.8367 194.87 89.3673 194.451 89.6031C193.105 90.3578 191.596 90.9692 189.966 91.419C189.887 91.4409 189.81 91.451 189.734 91.451ZM166.107 90.9254C165.723 90.9254 165.372 90.6694 165.268 90.2786C164.847 88.707 164.576 87.1135 164.464 85.5435C164.428 85.0635 164.79 84.6474 165.268 84.612C165.749 84.5767 166.162 84.9388 166.198 85.4172C166.304 86.8776 166.556 88.3617 166.948 89.8272C167.073 90.2921 166.797 90.7688 166.332 90.8934C166.257 90.917 166.181 90.9254 166.107 90.9254ZM176.07 90.8901C175.958 90.8901 175.843 90.8682 175.734 90.821C174.304 90.2179 172.893 89.4077 171.542 88.4139C171.155 88.1292 171.073 87.5834 171.357 87.196C171.641 86.8086 172.186 86.726 172.573 87.0107C173.813 87.9237 175.103 88.6665 176.408 89.2157C176.851 89.4027 177.059 89.9131 176.873 90.3561C176.733 90.6896 176.41 90.8901 176.07 90.8901ZM197.637 86.8372C197.435 86.8372 197.231 86.7665 197.065 86.6233C196.703 86.3066 196.665 85.7575 196.981 85.3936C197.812 84.4385 198.429 83.3756 198.816 82.2352C198.877 82.0567 198.932 81.8731 198.982 81.6895C199.109 81.2245 199.585 80.95 200.049 81.0763C200.513 81.2026 200.786 81.681 200.661 82.1443C200.602 82.3616 200.535 82.5806 200.464 82.7945C200.005 84.1505 199.275 85.4105 198.294 86.5374C198.121 86.7361 197.879 86.8372 197.637 86.8372ZM168.608 85.4879C168.376 85.4879 168.144 85.3953 167.972 85.2117C166.963 84.1286 166.004 82.9276 165.12 81.644C164.776 81.489 164.561 81.1218 164.617 80.7293C164.844 79.1038 165.256 77.5288 165.838 76.0465C166.014 75.5984 166.519 75.3794 166.967 75.5563C167.414 75.7332 167.633 76.2385 167.456 76.6866C166.985 77.8842 166.635 79.1526 166.416 80.4615C166.425 80.4733 166.433 80.4851 166.442 80.4969C167.308 81.772 168.252 82.9596 169.244 84.0258C169.572 84.3779 169.552 84.9287 169.202 85.2572C169.034 85.4105 168.82 85.4879 168.608 85.4879ZM200.064 78.1824C199.637 78.1824 199.265 77.8674 199.205 77.4328C199.011 76.0465 198.58 74.6416 197.928 73.2587C197.723 72.8241 197.908 72.3053 198.342 72.0998C198.776 71.8943 199.294 72.0795 199.499 72.5141C200.227 74.0571 200.707 75.6304 200.925 77.1902C200.993 77.6669 200.66 78.1066 200.185 78.174C200.145 78.1807 200.104 78.1824 200.064 78.1824ZM163.38 77.8489C163.061 77.8489 162.754 77.672 162.601 77.3671C161.9 75.9639 161.276 74.4934 160.746 72.9942C160.586 72.5411 160.823 72.0425 161.276 71.8825C161.728 71.7224 162.226 71.9599 162.386 72.4131C162.891 73.8432 163.486 75.248 164.156 76.5855C164.371 77.0151 164.198 77.5389 163.767 77.7545C163.644 77.8202 163.511 77.8489 163.38 77.8489ZM168.847 73.1576C168.676 73.1576 168.504 73.1071 168.353 73.0026C167.957 72.7281 167.86 72.1857 168.132 71.7915C169.036 70.486 170.077 69.2513 171.229 68.121C171.572 67.7841 172.122 67.7892 172.459 68.1328C172.795 68.4765 172.788 69.0273 172.445 69.3642C171.372 70.417 170.401 71.5675 169.56 72.782C169.394 73.0262 169.123 73.1576 168.847 73.1576ZM196.214 69.8577C195.965 69.8577 195.717 69.7516 195.546 69.5461C194.585 68.3956 193.5 67.3866 192.318 66.5427C191.926 66.2631 191.835 65.7207 192.114 65.3282C192.394 64.9357 192.937 64.8447 193.327 65.1244C194.631 66.0542 195.825 67.1659 196.88 68.4293C197.188 68.7982 197.139 69.3473 196.77 69.6556C196.609 69.7903 196.411 69.8577 196.214 69.8577ZM160.292 69.1132C159.893 69.1132 159.533 68.8369 159.444 68.4293C159.101 66.8712 158.855 65.2911 158.716 63.7313C158.672 63.2529 159.025 62.8284 159.505 62.7863C159.981 62.7425 160.406 63.0963 160.448 63.5763C160.581 65.062 160.815 66.5679 161.143 68.0537C161.247 68.5236 160.95 68.9885 160.482 69.0913C160.416 69.1064 160.352 69.1132 160.292 69.1132ZM175.45 66.7061C175.164 66.7061 174.884 66.5663 174.718 66.3069C174.457 65.9026 174.573 65.3636 174.977 65.1025C176.39 64.1878 177.853 63.4719 179.327 62.9733C179.783 62.82 180.276 63.0642 180.429 63.5191C180.582 63.9755 180.338 64.4691 179.882 64.6224C178.543 65.0755 177.211 65.7274 175.919 66.5646C175.776 66.6623 175.611 66.7061 175.45 66.7061ZM188.715 64.5853C188.622 64.5853 188.53 64.5702 188.437 64.5398C188.259 64.4809 188.079 64.4236 187.899 64.3714C186.681 64.0193 185.418 63.8492 184.166 63.8677C184.163 63.8677 184.158 63.8677 184.155 63.8677C183.68 63.8677 183.292 63.4854 183.285 63.0087C183.278 62.5269 183.662 62.1327 184.143 62.126C185.569 62.1058 187.001 62.2978 188.383 62.6987C188.587 62.7577 188.79 62.8217 188.992 62.8891C189.448 63.0424 189.694 63.5359 189.541 63.9924C189.416 64.3546 189.078 64.5853 188.715 64.5853ZM159.478 59.884C159.464 59.884 159.451 59.884 159.436 59.8823C158.956 59.8587 158.586 59.4511 158.608 58.971C158.684 57.3589 158.879 55.7654 159.187 54.2342C159.281 53.7626 159.74 53.4577 160.211 53.552C160.682 53.6464 160.987 54.1062 160.892 54.5779C160.601 56.0231 160.418 57.5291 160.346 59.0535C160.324 59.5201 159.939 59.884 159.478 59.884ZM161.325 50.8198C161.22 50.8198 161.116 50.8013 161.013 50.7625C160.564 50.5907 160.341 50.0871 160.512 49.6373C160.995 48.3773 161.57 47.1527 162.225 45.9972C162.352 45.7715 162.482 45.5491 162.615 45.3301C162.864 44.9191 163.399 44.7877 163.809 45.037C164.22 45.2863 164.351 45.822 164.102 46.233C163.977 46.4368 163.856 46.6457 163.737 46.8563C163.125 47.936 162.586 49.0814 162.135 50.2606C162.004 50.6076 161.675 50.8198 161.325 50.8198ZM166.114 42.9281C165.908 42.9281 165.702 42.8556 165.535 42.7074C165.177 42.3873 165.145 41.8365 165.464 41.4777C166.507 40.307 167.678 39.2037 168.946 38.1981C169.323 37.8999 169.87 37.9622 170.168 38.3396C170.465 38.7169 170.403 39.2643 170.026 39.5625C168.837 40.5075 167.739 41.5417 166.761 42.6366C166.591 42.8304 166.353 42.9281 166.114 42.9281ZM173.333 37.1604C173.031 37.1604 172.738 37.0021 172.576 36.7208C172.339 36.303 172.484 35.7707 172.901 35.5332C174.238 34.7702 175.678 34.0711 177.177 33.4596C177.621 33.2777 178.129 33.4916 178.311 33.9363C178.492 34.381 178.279 34.8898 177.833 35.0717C176.403 35.6562 175.034 36.3199 173.761 37.0459C173.628 37.1234 173.48 37.1604 173.333 37.1604ZM181.897 33.6315C181.517 33.6315 181.169 33.3805 181.061 32.9964C180.932 32.5332 181.201 32.0531 181.663 31.9217C183.169 31.4972 184.721 31.1469 186.279 30.8773C186.753 30.7965 187.203 31.1132 187.285 31.5882C187.367 32.0615 187.049 32.513 186.575 32.5938C185.075 32.8532 183.581 33.1918 182.134 33.5994C182.055 33.6213 181.976 33.6315 181.897 33.6315Z" fill="#2ED0FA"/>
<path opacity="0.2" d="M210.669 55.608C221.493 49.9324 225.673 36.5457 220.005 25.708C214.338 14.8703 200.97 10.6856 190.146 16.3611C179.323 22.0367 175.143 35.4234 180.81 46.2611C186.477 57.0988 199.846 61.2835 210.669 55.608Z" fill="#4076A3"/>
<path d="M213.064 46.9922C221.703 38.3412 221.703 24.3151 213.064 15.6641C204.426 7.01308 190.419 7.01308 181.78 15.6641C173.141 24.3151 173.141 38.3412 181.78 46.9922C190.419 55.6432 204.425 55.6432 213.064 46.9922Z" fill="#2ED0FA"/>
<path d="M201.364 24.9077L201.888 23.1676L206.086 23.4675L202.858 34.7147C202.658 35.4256 202.55 35.8989 202.533 36.133C202.517 36.3773 202.564 36.5727 202.676 36.7192C202.787 36.8658 202.929 36.9449 203.099 36.9567C203.672 36.9972 204.438 36.6754 205.396 35.9915C206.357 35.3076 207.218 34.3441 207.984 33.1027C208.749 31.8612 209.185 30.4749 209.294 28.9454C209.385 27.6719 209.228 26.454 208.826 25.2951C208.424 24.1345 207.797 23.1087 206.942 22.2159C206.089 21.3231 205.01 20.5954 203.701 20.0328C202.392 19.4702 200.89 19.1283 199.194 19.007C197.465 18.884 195.866 18.9969 194.39 19.3456C192.917 19.6943 191.603 20.2518 190.451 21.0183C189.298 21.7847 188.313 22.7634 187.494 23.9526C186.77 24.9886 186.192 26.1542 185.759 27.4462C185.327 28.7382 185.061 30.0706 184.964 31.4401C184.834 33.2661 185.078 34.9623 185.697 36.5272C186.316 38.0921 187.28 39.4363 188.592 40.5598C189.902 41.6834 191.524 42.529 193.455 43.1C195.386 43.6694 197.596 43.9153 200.084 43.8361C202.062 43.7418 203.756 43.415 205.166 42.8541C206.576 42.2931 207.793 41.4509 208.821 40.3291L212.209 40.5699C211.577 41.6665 210.786 42.63 209.837 43.4588C208.889 44.2876 207.799 44.9647 206.567 45.4903C205.336 46.0158 203.972 46.3864 202.476 46.5987C200.979 46.8126 199.363 46.8564 197.623 46.7334C195.014 46.5481 192.691 46.0377 190.651 45.2039C188.61 44.3701 186.923 43.2567 185.589 41.8653C184.255 40.4739 183.285 38.8568 182.681 37.0157C182.075 35.1746 181.85 33.1717 182.005 31.0055C182.166 28.7432 182.693 26.6579 183.584 24.746C184.477 22.8358 185.682 21.2052 187.201 19.8576C188.72 18.5084 190.528 17.4994 192.627 16.8273C194.727 16.1552 197.006 15.9076 199.465 16.0827C201.48 16.2259 203.307 16.6521 204.946 17.3613C206.584 18.0704 207.963 19.0205 209.084 20.2097C210.204 21.3989 211.025 22.7735 211.548 24.3316C212.071 25.8897 212.268 27.581 212.138 29.4086C212.038 30.832 211.684 32.2065 211.077 33.5356C210.471 34.8629 209.656 36.0387 208.63 37.0578C207.603 38.0786 206.426 38.8585 205.099 39.3992C203.772 39.9399 202.365 40.1572 200.88 40.0511C200.02 39.9905 199.363 39.7968 198.907 39.47C198.451 39.1449 198.165 38.6564 198.052 38.0078C197.065 38.8551 195.963 39.3554 194.749 39.5087C193.534 39.662 192.38 39.4683 191.288 38.9259C190.197 38.3835 189.344 37.5412 188.727 36.3992C188.109 35.2554 187.859 33.8826 187.971 32.279C188.089 30.6113 188.565 28.9976 189.394 27.4344C190.225 25.8712 191.337 24.6213 192.73 23.6865C194.123 22.7516 195.652 22.3422 197.317 22.4602C199.226 22.5949 200.575 23.4119 201.364 24.9077ZM192.077 32.5384C191.987 33.8118 192.182 34.8073 192.664 35.5249C193.147 36.2425 193.817 36.6316 194.676 36.6923C195.672 36.763 196.579 36.4278 197.393 35.685C198.207 34.9421 198.855 33.9786 199.332 32.7893C199.81 31.6018 200.091 30.4395 200.172 29.3042C200.212 28.7416 200.182 28.2295 200.081 27.7696C199.98 27.3098 199.812 26.8987 199.576 26.54C199.341 26.1828 199.046 25.9015 198.693 25.7011C198.34 25.499 197.929 25.3827 197.464 25.349C196.53 25.2833 195.664 25.5865 194.865 26.2603C194.066 26.9341 193.423 27.8387 192.937 28.9723C192.452 30.1077 192.167 31.2952 192.077 32.5384Z" fill="white"/>
<path opacity="0.2" d="M122.382 135.806L61.8554 135.796C60.9942 135.796 60.2877 136.502 60.2877 137.365L60.2843 161.985C60.2843 162.847 60.9891 163.555 61.8504 163.555L122.377 163.565C123.238 163.565 123.944 162.859 123.944 161.997L123.948 137.376C123.95 136.514 123.245 135.808 122.382 135.806Z" fill="#4076A3"/>
<path d="M118.308 159.107L57.7813 159.097C56.92 159.097 56.2135 158.392 56.2152 157.527L56.2186 132.907C56.2186 132.045 56.9234 131.337 57.7863 131.339L118.313 131.349C119.174 131.349 119.88 132.055 119.879 132.919L119.875 157.539C119.875 158.402 119.169 159.107 118.308 159.107Z" fill="white"/>
<path d="M113.219 138.426L86.8064 138.421C86.1251 138.421 85.5667 137.861 85.5667 137.179V137.117C85.5667 136.435 86.1251 135.875 86.8064 135.875L113.219 135.881C113.9 135.881 114.459 136.44 114.459 137.122V137.184C114.459 137.868 113.9 138.426 113.219 138.426Z" fill="#2ED0FA"/>
<path d="M113.217 143.976L86.8047 143.971C86.1234 143.971 85.5649 143.412 85.5649 142.73V142.667C85.5649 141.985 86.1234 141.426 86.8047 141.426L113.217 141.431C113.899 141.431 114.457 141.99 114.457 142.672V142.735C114.457 143.417 113.9 143.976 113.217 143.976Z" fill="#ECF3FE"/>
<path d="M113.217 149.525L86.8047 149.52C86.1234 149.52 85.5649 148.961 85.5649 148.278V148.216C85.5649 147.534 86.1234 146.975 86.8047 146.975L113.217 146.98C113.899 146.98 114.457 147.539 114.457 148.221V148.283C114.457 148.967 113.899 149.525 113.217 149.525Z" fill="#ECF3FE"/>
<path d="M113.216 155.073L86.803 155.068C86.1218 155.068 85.5633 154.509 85.5633 153.827V153.764C85.5633 153.082 86.1218 152.523 86.803 152.523L113.216 152.528C113.897 152.528 114.456 153.087 114.456 153.769V153.832C114.456 154.516 113.899 155.073 113.216 155.073Z" fill="#ECF3FE"/>
<path d="M78.7437 153.458C83.2868 148.908 83.2868 141.532 78.7437 136.983C74.2005 132.433 66.8346 132.433 62.2914 136.983C57.7483 141.532 57.7483 148.908 62.2914 153.458C66.8346 158.007 74.2005 158.007 78.7437 153.458Z" fill="#ECF3FE"/>
<path d="M76.1719 152.769C75.5411 153.257 74.8464 153.663 74.1012 153.977C73.7244 154.137 73.3325 154.271 72.9321 154.378C72.5082 154.494 72.0709 154.578 71.6251 154.63C71.2618 154.674 70.8917 154.696 70.5166 154.696C70.1415 154.696 69.7714 154.674 69.4064 154.629C67.7074 154.426 66.1481 153.763 64.8613 152.765C65.5392 151.511 66.7049 150.555 68.101 150.158H68.1027C68.1044 150.156 68.1044 150.156 68.1061 150.156C68.345 150.087 68.5905 150.037 68.8445 150.003C68.8546 150.001 68.8647 150 68.8748 149.998C69.0969 149.969 69.3223 149.954 69.551 149.954H71.4872C71.7159 149.954 71.9413 149.969 72.1634 149.998C72.1735 149.998 72.1836 150 72.1937 150.003C72.446 150.035 72.6916 150.087 72.9321 150.156H72.9338V150.158C74.3283 150.557 75.4957 151.514 76.1719 152.769Z" fill="#2ED0FA"/>
<path d="M75.9365 141.222L75.9348 147.468C75.9348 148.844 74.8212 149.959 73.4469 149.959L67.5847 149.958C66.2121 149.958 65.0985 148.843 65.0985 147.465L65.1002 141.219C65.1019 135.672 70.52 135.923 70.52 135.923C70.52 135.923 71.9296 135.859 73.3123 136.532C74.5487 137.134 75.7632 138.33 75.9196 140.691C75.9314 140.862 75.9365 141.038 75.9365 141.222Z" fill="#15315E"/>
<path d="M72.192 149.039V150.875C72.192 151.654 71.4384 152.292 70.5183 152.29C69.5981 152.29 68.8445 151.652 68.8445 150.874V149.038C68.8445 148.716 68.9724 148.419 69.1894 148.18C69.2398 148.125 69.2937 148.072 69.3542 148.023C69.4669 147.929 69.5965 147.85 69.7361 147.788C69.9699 147.682 70.2373 147.623 70.5199 147.623C70.8025 147.623 71.07 147.682 71.3038 147.788C71.4434 147.852 71.573 147.931 71.6857 148.023C71.6907 148.027 71.6974 148.034 71.7025 148.037C71.7546 148.082 71.8051 148.13 71.8505 148.18C72.0641 148.421 72.192 148.717 72.192 149.039Z" fill="#F4B698"/>
<path opacity="0.28" d="M75.0635 142.635V145.31C75.0635 147.19 73.8625 148.8 72.1921 149.415V150.121C71.7245 150.293 71.2215 150.387 70.6967 150.387H70.3384C69.8136 150.387 69.3089 150.293 68.843 150.121V149.415C67.1726 148.8 65.9733 147.188 65.9733 145.308V142.633C65.9783 141.379 66.52 140.243 67.3795 139.45C68.16 138.726 69.1996 138.283 70.3401 138.284H70.6984C71.7228 138.284 72.6665 138.643 73.4116 139.239C74.4125 140.038 75.0568 141.264 75.0635 142.635Z" fill="black"/>
<path d="M75.0635 141.951V145.312C75.0635 146.231 74.7758 147.085 74.2897 147.79C74.288 147.791 74.2863 147.793 74.2863 147.793C74.1719 147.956 74.0475 148.111 73.9146 148.258C73.6538 148.543 73.3578 148.794 73.0314 149.001C72.769 149.168 72.4898 149.307 72.1937 149.417C71.7261 149.589 71.2215 149.681 70.6983 149.681H70.34C69.8152 149.681 69.3123 149.589 68.8463 149.415C67.176 148.8 65.9749 147.188 65.9749 145.308V141.966C65.9749 141.919 65.9766 141.874 65.9783 141.827C66.0136 140.551 66.599 139.411 67.504 138.633C67.647 138.51 67.7967 138.395 67.9565 138.291C68.6428 137.839 69.462 137.577 70.3417 137.577H70.7C71.6874 137.577 72.6025 137.912 73.3359 138.473C73.7262 138.771 74.066 139.133 74.3368 139.544C74.4495 139.713 74.547 139.888 74.6362 140.07C74.9104 140.641 75.0635 141.277 75.0635 141.951Z" fill="#F4B698"/>
<path d="M76.8128 143.72C76.8128 144.687 76.029 145.471 75.0634 145.47V141.968C75.3056 141.968 75.5361 142.017 75.7464 142.108C75.748 142.108 75.7497 142.109 75.7497 142.109C76.3738 142.375 76.8128 142.997 76.8128 143.72Z" fill="#F4B698"/>
<path d="M76.1467 143.72C76.1467 144.318 75.6623 144.805 75.0634 144.805V142.635C75.6606 142.637 76.1467 143.122 76.1467 143.72Z" fill="#E29586"/>
<path d="M72.9339 150.16L71.6269 154.63C71.2635 154.674 70.8935 154.696 70.5184 154.696C70.1432 154.696 69.7732 154.674 69.4081 154.629L68.1011 150.158V150.156H69.0246L69.0566 150.19L70.515 151.701L71.9768 150.192L72.0087 150.158L72.9339 150.16Z" fill="#15315E"/>
<path d="M65.9749 141.968V145.47C65.0094 145.47 64.2272 144.685 64.2272 143.718C64.2272 142.886 64.8058 142.19 65.583 142.012C65.6099 142.005 65.6368 142 65.6654 141.995C65.6788 141.993 65.694 141.991 65.7091 141.988C65.7949 141.976 65.8824 141.968 65.9749 141.968Z" fill="#F4B698"/>
<path d="M64.8915 143.718C64.8915 144.316 65.376 144.803 65.9748 144.803V142.633C65.376 142.635 64.8915 143.12 64.8915 143.718Z" fill="#E29586"/>
<path d="M74.1013 153.977C73.7245 154.137 73.3325 154.271 72.9322 154.377V153.977H74.1013Z" fill="#15315E"/>
<path opacity="0.2" d="M70.5167 151.704L71.8153 152.626L72.9339 150.16L70.5167 151.704Z" fill="#363636"/>
<path d="M72.9339 150.16L71.7934 152.54L70.5167 151.705L72.0104 150.16L72.2038 149.959L72.9339 150.16Z" fill="#EEEEEE"/>
<path opacity="0.2" d="M68.1011 150.158L69.2063 152.625L70.5167 151.704L68.1011 150.158Z" fill="#363636"/>
<path d="M70.5167 151.704L69.2416 152.54L68.1011 150.158L68.8312 149.958L69.0263 150.16L70.5167 151.704Z" fill="#EEEEEE"/>
<path d="M75.9364 141.105C72.6781 141.339 72.9893 138.388 73.3291 136.946C74.5654 137.546 75.7799 138.742 75.9364 141.105Z" fill="#15315E"/>
<path d="M74.2728 138.54C74.1601 138.72 73.0365 140.744 71.0162 140.744C68.9943 140.744 65.7848 141.958 65.6873 143.974C65.588 145.991 63.1573 137.819 69.2954 137.183C75.4335 136.546 74.2728 138.54 74.2728 138.54Z" fill="#15315E"/>
<path d="M275.472 46.2928C278.012 45.239 279.219 42.3222 278.166 39.7781C277.114 37.2339 274.201 36.0258 271.661 37.0796C269.12 38.1335 267.914 41.0502 268.966 43.5944C270.018 46.1386 272.931 47.3467 275.472 46.2928Z" fill="#2ED0FA"/>
<path d="M35.2491 150.889C37.999 150.889 40.2282 148.657 40.2282 145.903C40.2282 143.149 37.999 140.917 35.2491 140.917C32.4992 140.917 30.27 143.149 30.27 145.903C30.27 148.657 32.4992 150.889 35.2491 150.889Z" fill="#B7CAE5"/>
<path d="M130.309 34.6425C131.137 31.1278 128.964 27.6058 125.454 26.7759C121.944 25.946 118.427 28.1224 117.599 31.6371C116.77 35.1518 118.943 38.6738 122.453 39.5037C125.963 40.3336 129.48 38.1572 130.309 34.6425Z" fill="#F4B545"/>
<path d="M4.61757 68.0705C7.16771 68.0705 9.23501 66.0003 9.23501 63.4466C9.23501 60.8929 7.16771 58.8228 4.61757 58.8228C2.06742 58.8228 0.00012207 60.8929 0.00012207 63.4466C0.00012207 66.0003 2.06742 68.0705 4.61757 68.0705Z" fill="#F4B545"/>
<path d="M288.018 168.576C291.874 168.576 295 165.445 295 161.584C295 157.722 291.874 154.591 288.018 154.591C284.161 154.591 281.035 157.722 281.035 161.584C281.035 165.445 284.161 168.576 288.018 168.576Z" fill="#B7CAE5"/>
</svg>
