<svg width="227" height="200" viewBox="0 0 227 200" fill="none" xmlns="http://www.w3.org/2000/svg">
<path d="M52.2753 195.948C52.2753 195.948 4.44624 179.621 16.151 147.672C27.8558 115.722 43.3952 101.083 27.0481 74.8342C10.701 48.5858 47.6516 29.1726 102.938 29.5765C158.224 29.9804 247.615 87.2038 176.988 195.949H52.2753V195.948Z" fill="#ECF3FE"/>
<path d="M57.5646 193.378L66.5307 179.252C66.5307 179.252 53.1188 191.131 53.1188 190.908C53.1188 190.686 42.9103 168.04 42.9103 168.04C42.9103 168.04 48.0805 189.274 47.9313 192.392C47.9313 192.392 42.7554 187.671 40.3051 187.285C37.8548 186.898 43.6721 191.718 43.6663 194.545H57.0295L57.5646 193.378Z" fill="#B7CAE5"/>
<path d="M49.9656 97.2717L48.6486 92.6185L58.4884 87.2582L67.3513 117.123C67.9208 119.006 68.3555 120.221 68.6539 120.77C68.9638 121.342 69.3497 121.713 69.8131 121.88C70.2736 122.048 70.7025 122.025 71.1013 121.808C72.4441 121.076 73.7008 119.255 74.8728 116.343C76.0463 113.43 76.6001 110.031 76.5369 106.147C76.4738 102.263 75.4682 98.5266 73.5229 94.9415C71.9018 91.9544 69.8102 89.4475 67.248 87.4249C64.6858 85.4009 61.8095 84.0008 58.6176 83.2232C55.427 82.4455 51.9625 82.365 48.2254 82.9802C44.4869 83.5983 40.6293 84.9884 36.6541 87.1532C32.6028 89.3598 29.1756 91.9127 26.3695 94.8107C23.5649 97.7101 21.4188 100.847 19.934 104.22C18.4478 107.593 17.6387 111.205 17.5053 115.05C17.3675 118.416 17.7377 121.858 18.6185 125.38C19.4979 128.901 20.8091 132.267 22.5521 135.479C24.8761 139.761 27.8515 143.214 31.4781 145.834C35.1047 148.456 39.1919 150.083 43.7395 150.72C48.2857 151.357 53.1303 150.927 58.2747 149.432C63.4191 147.936 68.7242 145.312 74.19 141.561C78.4894 138.509 81.8176 135.341 84.1732 132.057C86.5274 128.774 88.0552 125.136 88.7539 121.143L96.6928 116.819C96.8463 120.187 96.4518 123.481 95.5122 126.703C94.5725 129.926 93.0978 133.009 91.0937 135.957C89.0867 138.906 86.5589 141.693 83.5105 144.322C80.462 146.95 76.8999 149.375 72.8242 151.594C66.7115 154.923 60.7723 157.12 55.0067 158.179C49.2397 159.24 43.8643 159.168 38.8806 157.964C33.8968 156.759 29.4094 154.525 25.4199 151.264C21.4288 148.002 18.0547 143.833 15.2989 138.753C12.4211 133.45 10.6164 128.014 9.88044 122.446C9.14737 116.88 9.51606 111.493 10.9894 106.286C12.4627 101.081 15.0708 96.218 18.8136 91.6928C22.5579 87.1705 27.3106 83.3396 33.0762 80.1987C37.7974 77.627 42.5029 75.9595 47.1911 75.1948C51.8779 74.4315 56.3294 74.5796 60.5428 75.639C64.7561 76.6999 68.565 78.6002 71.9678 81.3429C75.3706 84.0842 78.2355 87.5974 80.5581 91.8811C82.3685 95.2175 83.5435 98.8098 84.0872 102.661C84.6294 106.509 84.4817 110.317 83.6424 114.08C82.8032 117.845 81.2811 121.285 79.079 124.404C76.877 127.525 74.035 130.032 70.5576 131.925C68.5449 133.022 66.7933 133.532 65.3042 133.456C63.8151 133.381 62.478 132.697 61.2945 131.406C60.2946 134.727 58.543 137.431 56.0382 139.519C53.5348 141.609 50.6714 142.83 47.4493 143.182C44.2287 143.534 41.107 142.87 38.0901 141.193C35.0717 139.515 32.5411 136.797 30.5012 133.036C28.3808 129.126 27.1327 124.822 26.7555 120.125C26.3796 115.427 27.084 111.027 28.8672 106.926C30.6503 102.826 33.4923 99.7125 37.3943 97.5865C41.8616 95.1528 46.0549 95.0465 49.9656 97.2717ZM40.0727 127.725C41.6938 130.712 43.5573 132.665 45.6647 133.581C47.7721 134.498 49.8322 134.408 51.8449 133.311C54.179 132.039 55.7297 129.985 56.4929 127.15C57.2561 124.315 57.325 121.222 56.6967 117.869C56.0683 114.519 55.0325 111.51 53.5865 108.846C52.8706 107.527 52.0701 106.423 51.1864 105.533C50.3027 104.645 49.3387 103.967 48.2972 103.5C47.2557 103.036 46.1955 102.832 45.1167 102.888C44.0365 102.944 42.949 103.27 41.8559 103.865C39.6681 105.057 38.1618 106.982 37.3369 109.643C36.5092 112.302 36.3629 115.252 36.8994 118.493C37.4345 121.733 38.4918 124.811 40.0727 127.725Z" fill="#2ED0FA"/>
<path d="M160.341 159.795L156.535 165.641C158.11 167.138 160.302 167.968 162.633 167.74C164.744 167.534 166.573 166.498 167.834 164.988C168.049 165.694 168.284 166.473 168.535 167.3C169.42 170.214 170.482 173.72 171.369 176.664C169.122 186.164 167.173 194.519 167.173 194.88C167.173 195.73 182.379 194.88 182.379 194.88C182.379 194.88 182.131 190.65 181.801 184.849L186.811 179.427L187.714 178.451C187.717 178.448 187.717 178.445 187.717 178.445C189.265 180.081 191.695 180.502 193.688 179.523L191.856 175.836L196.464 175.948C196.756 174.542 196.461 173.018 195.524 171.782C193.807 169.519 190.588 169.08 188.328 170.8C186.478 172.209 185.852 174.627 186.627 176.701C186.509 176.783 186.387 176.868 186.261 176.953C184.956 177.85 183.174 179.01 181.533 180.058C181.27 175.328 180.989 170.117 180.755 165.477C180.668 163.721 180.586 162.042 180.516 160.504C182.271 161.445 184.277 161.978 186.405 161.978C192.481 161.978 197.546 157.643 198.679 151.887L188.84 150.006L195.851 141.224C193.56 138.579 190.176 136.907 186.403 136.907C179.496 136.907 173.896 142.521 173.896 149.444C173.896 152.103 174.724 154.572 176.137 156.602C175.956 157.363 175.766 158.165 175.566 159.001C174.846 162.016 174.027 165.457 173.186 168.992C172.077 167.14 170.915 165.211 169.924 163.575C169.689 163.182 169.458 162.806 169.244 162.451C169.58 161.448 169.719 160.361 169.61 159.24C169.195 154.962 165.398 151.83 161.133 152.245C157.379 152.612 154.509 155.593 154.152 159.218L160.341 159.795Z" fill="#B7CAE5"/>
<path d="M175.566 159.004C176.748 161.304 179.071 163.821 180.754 165.481C180.666 163.725 180.584 162.046 180.514 160.508C177.546 158.796 176.378 156.719 176.136 156.606C175.957 157.365 175.766 158.168 175.566 159.004Z" fill="#92AFCC"/>
<path d="M167.832 164.99C168.048 165.696 168.283 166.475 168.534 167.302C169.036 166.411 169.71 165.033 169.924 163.579C169.689 163.185 169.458 162.81 169.244 162.455C169.244 162.455 168.733 163.929 167.832 164.99Z" fill="#92AFCC"/>
<path d="M186.26 176.958C186.363 177.615 186.601 178.629 186.811 179.43L187.714 178.454C187.717 178.451 187.717 178.448 187.717 178.448C187.136 177.824 186.626 176.706 186.626 176.706C186.508 176.787 186.387 176.873 186.26 176.958Z" fill="#92AFCC"/>
<path d="M162.53 80.3389C162.464 80.3389 162.4 80.3087 162.357 80.2527C162.285 80.1563 162.304 80.0198 162.4 79.9479C162.588 79.8056 162.78 79.6647 162.974 79.5267C163.071 79.4563 163.207 79.4793 163.276 79.577C163.347 79.6748 163.324 79.8113 163.226 79.8803C163.037 80.0155 162.846 80.1549 162.662 80.2943C162.621 80.3245 162.575 80.3389 162.53 80.3389Z" fill="#92AFCC"/>
<path d="M137.947 131.026C137.924 131.026 137.903 131.023 137.88 131.014C137.766 130.977 137.703 130.853 137.741 130.74C137.884 130.298 138.038 129.848 138.197 129.4C138.237 129.286 138.36 129.227 138.474 129.268C138.587 129.308 138.646 129.432 138.606 129.545C138.449 129.989 138.296 130.436 138.154 130.875C138.124 130.968 138.039 131.026 137.947 131.026ZM138.885 128.368C138.86 128.368 138.834 128.364 138.808 128.353C138.696 128.31 138.64 128.185 138.682 128.073C138.848 127.635 139.022 127.192 139.198 126.756C139.243 126.644 139.37 126.591 139.481 126.637C139.591 126.682 139.646 126.81 139.6 126.92C139.425 127.352 139.253 127.793 139.088 128.227C139.056 128.315 138.973 128.368 138.885 128.368ZM139.943 125.756C139.914 125.756 139.885 125.75 139.857 125.739C139.746 125.691 139.696 125.563 139.743 125.453C139.93 125.021 140.122 124.586 140.317 124.162C140.367 124.053 140.496 124.005 140.606 124.055C140.715 124.106 140.762 124.235 140.712 124.344C140.518 124.767 140.326 125.198 140.141 125.627C140.108 125.707 140.027 125.756 139.943 125.756ZM141.118 123.196C141.086 123.196 141.053 123.189 141.023 123.174C140.915 123.121 140.871 122.992 140.923 122.884C141.129 122.46 141.341 122.034 141.555 121.62C141.61 121.514 141.742 121.472 141.848 121.527C141.954 121.581 141.996 121.714 141.941 121.82C141.729 122.231 141.518 122.652 141.313 123.075C141.274 123.151 141.198 123.196 141.118 123.196ZM178.075 122.885C178.073 122.885 178.07 122.885 178.068 122.885C177.608 122.869 177.131 122.835 176.651 122.783C176.532 122.77 176.446 122.664 176.457 122.543C176.47 122.424 176.576 122.338 176.697 122.349C177.167 122.399 177.634 122.432 178.083 122.448C178.203 122.453 178.296 122.553 178.292 122.674C178.288 122.793 178.192 122.885 178.075 122.885ZM179.478 122.877C179.364 122.877 179.268 122.786 179.262 122.67C179.256 122.55 179.348 122.447 179.468 122.441C179.94 122.418 180.404 122.372 180.844 122.306C180.963 122.289 181.074 122.371 181.091 122.489C181.108 122.608 181.026 122.719 180.909 122.736C180.454 122.805 179.976 122.851 179.49 122.875C179.486 122.877 179.483 122.877 179.478 122.877ZM175.282 122.592C175.271 122.592 175.258 122.591 175.245 122.589C174.79 122.512 174.323 122.418 173.856 122.313C173.739 122.287 173.665 122.169 173.693 122.053C173.719 121.935 173.836 121.862 173.952 121.889C174.411 121.994 174.871 122.085 175.318 122.161C175.436 122.181 175.516 122.293 175.496 122.412C175.477 122.517 175.386 122.592 175.282 122.592ZM182.251 122.453C182.155 122.453 182.068 122.389 182.042 122.293C182.01 122.177 182.078 122.057 182.194 122.026C182.646 121.902 183.082 121.75 183.491 121.573C183.601 121.525 183.729 121.576 183.776 121.686C183.824 121.797 183.774 121.925 183.663 121.972C183.236 122.156 182.781 122.316 182.309 122.445C182.289 122.45 182.27 122.453 182.251 122.453ZM172.544 121.972C172.524 121.972 172.505 121.97 172.485 121.964C172.036 121.837 171.58 121.698 171.132 121.55C171.019 121.512 170.957 121.389 170.994 121.275C171.032 121.162 171.155 121.1 171.268 121.137C171.71 121.284 172.159 121.422 172.602 121.546C172.719 121.579 172.786 121.698 172.753 121.814C172.726 121.909 172.638 121.972 172.544 121.972ZM184.817 121.333C184.745 121.333 184.674 121.297 184.633 121.232C184.568 121.132 184.598 120.996 184.699 120.932C185.085 120.686 185.449 120.407 185.783 120.102C185.872 120.022 186.01 120.028 186.09 120.117C186.171 120.206 186.165 120.344 186.076 120.424C185.723 120.746 185.339 121.04 184.931 121.3C184.897 121.323 184.857 121.333 184.817 121.333ZM169.877 121.087C169.851 121.087 169.825 121.083 169.799 121.073C169.355 120.902 168.914 120.72 168.49 120.534C168.379 120.485 168.33 120.357 168.378 120.246C168.426 120.135 168.554 120.086 168.665 120.134C169.082 120.318 169.517 120.496 169.954 120.664C170.066 120.707 170.122 120.834 170.079 120.946C170.046 121.034 169.964 121.087 169.877 121.087ZM142.409 120.693C142.373 120.693 142.337 120.684 142.304 120.666C142.199 120.608 142.161 120.476 142.218 120.37C142.445 119.956 142.678 119.542 142.912 119.139C142.973 119.036 143.106 119 143.209 119.06C143.313 119.121 143.348 119.254 143.288 119.358C143.056 119.757 142.825 120.168 142.6 120.58C142.559 120.653 142.485 120.693 142.409 120.693ZM167.306 119.951C167.273 119.951 167.24 119.944 167.208 119.928C167.152 119.9 167.098 119.872 167.043 119.844C166.683 119.657 166.32 119.455 165.965 119.246C165.861 119.185 165.827 119.052 165.887 118.948C165.947 118.845 166.081 118.81 166.184 118.87C166.533 119.076 166.889 119.274 167.243 119.457C167.296 119.484 167.35 119.512 167.404 119.54C167.511 119.595 167.553 119.726 167.498 119.834C167.462 119.908 167.386 119.951 167.306 119.951ZM186.884 119.45C186.836 119.45 186.791 119.435 186.75 119.404C186.656 119.33 186.638 119.192 186.713 119.098C186.988 118.744 187.242 118.359 187.468 117.953C187.526 117.848 187.658 117.81 187.763 117.868C187.868 117.927 187.905 118.06 187.848 118.165C187.611 118.59 187.346 118.995 187.056 119.366C187.013 119.421 186.948 119.45 186.884 119.45ZM164.887 118.524C164.846 118.524 164.803 118.512 164.765 118.487C164.378 118.225 163.991 117.946 163.615 117.659C163.52 117.585 163.501 117.449 163.573 117.354C163.646 117.258 163.783 117.24 163.877 117.312C164.247 117.595 164.628 117.868 165.008 118.126C165.107 118.193 165.134 118.328 165.067 118.428C165.026 118.489 164.958 118.524 164.887 118.524ZM143.822 118.259C143.783 118.259 143.743 118.249 143.709 118.226C143.607 118.163 143.575 118.029 143.638 117.927C143.886 117.525 144.142 117.124 144.396 116.734C144.462 116.634 144.597 116.605 144.697 116.671C144.797 116.737 144.825 116.872 144.76 116.973C144.508 117.358 144.255 117.756 144.008 118.156C143.967 118.222 143.895 118.259 143.822 118.259ZM188.249 117.002C188.224 117.002 188.198 116.997 188.172 116.987C188.06 116.944 188.004 116.818 188.047 116.706C188.208 116.284 188.347 115.842 188.459 115.39C188.488 115.274 188.605 115.202 188.721 115.231C188.838 115.259 188.909 115.377 188.881 115.494C188.764 115.964 188.621 116.424 188.453 116.862C188.419 116.948 188.337 117.002 188.249 117.002ZM162.655 116.819C162.605 116.819 162.555 116.802 162.514 116.767C162.159 116.463 161.804 116.142 161.463 115.816C161.375 115.732 161.373 115.596 161.456 115.508C161.539 115.42 161.675 115.418 161.763 115.501C162.098 115.821 162.447 116.136 162.797 116.437C162.889 116.514 162.899 116.652 162.821 116.743C162.777 116.793 162.715 116.819 162.655 116.819ZM145.363 115.903C145.32 115.903 145.277 115.89 145.239 115.865C145.14 115.796 145.117 115.66 145.185 115.561C145.454 115.175 145.731 114.788 146.008 114.413C146.08 114.316 146.216 114.296 146.312 114.368C146.408 114.44 146.428 114.577 146.357 114.673C146.081 115.044 145.807 115.428 145.54 115.811C145.499 115.872 145.431 115.903 145.363 115.903ZM160.619 114.877C160.562 114.877 160.505 114.854 160.462 114.809C160.139 114.467 159.822 114.112 159.516 113.753C159.439 113.661 159.45 113.524 159.541 113.447C159.632 113.369 159.769 113.381 159.846 113.471C160.146 113.825 160.459 114.174 160.777 114.512C160.859 114.6 160.856 114.738 160.769 114.82C160.727 114.857 160.674 114.877 160.619 114.877ZM188.925 114.278C188.917 114.278 188.907 114.278 188.898 114.276C188.779 114.26 188.694 114.153 188.71 114.033C188.767 113.582 188.802 113.118 188.81 112.653C188.813 112.534 188.909 112.441 189.027 112.441C189.028 112.441 189.03 112.441 189.031 112.441C189.152 112.443 189.247 112.543 189.244 112.662C189.234 113.141 189.199 113.621 189.139 114.088C189.126 114.197 189.033 114.278 188.925 114.278ZM147.038 113.644C146.991 113.644 146.944 113.628 146.903 113.596C146.809 113.522 146.793 113.385 146.867 113.29C147.16 112.919 147.461 112.551 147.761 112.195C147.839 112.103 147.976 112.091 148.067 112.169C148.159 112.246 148.17 112.383 148.093 112.475C147.796 112.827 147.497 113.192 147.207 113.559C147.166 113.615 147.103 113.644 147.038 113.644ZM158.799 112.732C158.734 112.732 158.67 112.704 158.627 112.648C158.341 112.274 158.062 111.887 157.795 111.499C157.727 111.4 157.752 111.265 157.851 111.196C157.95 111.128 158.084 111.153 158.153 111.252C158.416 111.634 158.691 112.014 158.972 112.382C159.046 112.476 159.027 112.613 158.932 112.686C158.892 112.718 158.845 112.732 158.799 112.732ZM148.851 111.493C148.8 111.493 148.747 111.475 148.705 111.437C148.616 111.357 148.609 111.219 148.689 111.13C149.005 110.78 149.331 110.432 149.655 110.097C149.738 110.011 149.876 110.01 149.962 110.093C150.048 110.176 150.049 110.314 149.966 110.401C149.645 110.733 149.323 111.076 149.011 111.421C148.971 111.469 148.912 111.493 148.851 111.493ZM188.983 111.469C188.871 111.469 188.776 111.383 188.766 111.269C188.727 110.809 188.666 110.348 188.579 109.898C188.556 109.78 188.634 109.666 188.753 109.643C188.871 109.622 188.984 109.698 189.007 109.817C189.094 110.283 189.159 110.759 189.199 111.233C189.209 111.352 189.12 111.459 189.001 111.467C188.994 111.469 188.988 111.469 188.983 111.469ZM157.208 110.414C157.135 110.414 157.063 110.376 157.023 110.31C156.776 109.908 156.538 109.495 156.313 109.083C156.255 108.978 156.294 108.845 156.399 108.788C156.504 108.73 156.636 108.769 156.693 108.874C156.914 109.28 157.149 109.686 157.392 110.082C157.455 110.184 157.423 110.317 157.32 110.381C157.285 110.404 157.247 110.414 157.208 110.414ZM150.811 109.475C150.754 109.475 150.696 109.452 150.655 109.407C150.572 109.321 150.574 109.183 150.662 109.1C151.003 108.774 151.353 108.45 151.702 108.142C151.792 108.063 151.929 108.072 152.009 108.161C152.088 108.252 152.079 108.388 151.99 108.469C151.646 108.774 151.3 109.093 150.963 109.415C150.919 109.455 150.864 109.475 150.811 109.475ZM188.459 108.709C188.366 108.709 188.28 108.648 188.251 108.555C188.116 108.109 187.957 107.672 187.776 107.258C187.729 107.148 187.779 107.02 187.889 106.972C188 106.925 188.128 106.975 188.175 107.086C188.361 107.516 188.526 107.969 188.666 108.43C188.7 108.545 188.635 108.667 188.521 108.702C188.501 108.705 188.479 108.709 188.459 108.709ZM155.864 107.943C155.783 107.943 155.705 107.897 155.667 107.819C155.463 107.394 155.27 106.957 155.091 106.524C155.045 106.413 155.098 106.285 155.208 106.239C155.319 106.193 155.446 106.246 155.492 106.357C155.669 106.784 155.859 107.212 156.06 107.632C156.112 107.74 156.066 107.871 155.958 107.923C155.927 107.935 155.895 107.943 155.864 107.943ZM152.916 107.613C152.853 107.613 152.789 107.586 152.748 107.533C152.672 107.44 152.686 107.303 152.779 107.227C153.145 106.929 153.52 106.636 153.894 106.356C153.99 106.284 154.126 106.304 154.198 106.4C154.27 106.497 154.25 106.633 154.154 106.705C153.785 106.981 153.415 107.27 153.053 107.565C153.012 107.596 152.963 107.613 152.916 107.613ZM187.339 106.134C187.264 106.134 187.192 106.097 187.152 106.028C187.024 105.812 186.888 105.6 186.747 105.398C186.628 105.227 186.502 105.059 186.372 104.897C186.297 104.803 186.311 104.665 186.405 104.59C186.498 104.516 186.636 104.53 186.71 104.623C186.846 104.793 186.978 104.97 187.103 105.148C187.25 105.358 187.392 105.579 187.525 105.805C187.587 105.909 187.552 106.042 187.449 106.103C187.415 106.124 187.377 106.134 187.339 106.134ZM155.165 105.93C155.096 105.93 155.027 105.897 154.986 105.835C154.918 105.736 154.944 105.601 155.043 105.533C155.433 105.267 155.832 105.007 156.23 104.763C156.331 104.7 156.465 104.731 156.528 104.833C156.591 104.935 156.56 105.069 156.458 105.132C156.066 105.374 155.673 105.63 155.288 105.893C155.25 105.917 155.208 105.93 155.165 105.93ZM154.789 105.344C154.7 105.344 154.616 105.288 154.584 105.198C154.428 104.751 154.281 104.297 154.152 103.847C154.119 103.732 154.185 103.611 154.3 103.578C154.415 103.545 154.535 103.612 154.57 103.727C154.697 104.169 154.841 104.616 154.994 105.055C155.035 105.168 154.974 105.292 154.861 105.332C154.837 105.339 154.812 105.344 154.789 105.344ZM157.554 104.452C157.478 104.452 157.403 104.412 157.364 104.34C157.306 104.235 157.344 104.103 157.449 104.044C157.861 103.816 158.282 103.594 158.701 103.386C158.809 103.333 158.94 103.377 158.993 103.484C159.046 103.591 159.001 103.722 158.895 103.775C158.482 103.981 158.067 104.199 157.661 104.425C157.625 104.444 157.59 104.452 157.554 104.452ZM185.587 103.948C185.534 103.948 185.481 103.929 185.439 103.889C185.111 103.581 184.752 103.29 184.373 103.021C184.276 102.952 184.251 102.815 184.322 102.717C184.39 102.62 184.527 102.595 184.624 102.666C185.019 102.945 185.393 103.249 185.736 103.571C185.824 103.653 185.828 103.791 185.746 103.879C185.703 103.925 185.644 103.948 185.587 103.948ZM160.069 103.205C159.985 103.205 159.905 103.156 159.869 103.074C159.82 102.963 159.871 102.835 159.981 102.788C160.411 102.6 160.852 102.418 161.289 102.252C161.401 102.209 161.527 102.265 161.569 102.378C161.612 102.49 161.555 102.617 161.443 102.658C161.011 102.824 160.578 103.001 160.153 103.186C160.127 103.199 160.099 103.205 160.069 103.205ZM154.01 102.641C153.911 102.641 153.821 102.572 153.799 102.472C153.695 102.009 153.603 101.54 153.527 101.077C153.507 100.959 153.587 100.847 153.706 100.827C153.824 100.808 153.936 100.887 153.956 101.007C154.03 101.461 154.121 101.921 154.223 102.375C154.25 102.493 154.175 102.61 154.059 102.635C154.042 102.64 154.026 102.641 154.01 102.641ZM183.303 102.325C183.269 102.325 183.233 102.316 183.201 102.299C182.807 102.088 182.386 101.891 181.952 101.715C181.84 101.671 181.787 101.544 181.831 101.432C181.876 101.32 182.002 101.267 182.114 101.312C182.563 101.493 182.999 101.695 183.406 101.915C183.512 101.971 183.551 102.104 183.495 102.21C183.457 102.283 183.38 102.325 183.303 102.325ZM162.691 102.206C162.599 102.206 162.514 102.147 162.484 102.055C162.447 101.941 162.51 101.818 162.624 101.78C162.859 101.704 163.095 101.629 163.329 101.56C163.371 101.547 163.595 101.481 163.984 101.379C164.1 101.349 164.219 101.418 164.249 101.534C164.279 101.651 164.21 101.77 164.094 101.8C163.712 101.899 163.494 101.964 163.454 101.977C163.223 102.046 162.989 102.119 162.758 102.194C162.735 102.201 162.714 102.206 162.691 102.206ZM165.407 101.477C165.308 101.477 165.217 101.408 165.194 101.307C165.168 101.189 165.242 101.073 165.359 101.047C165.814 100.945 166.279 100.849 166.742 100.761C166.86 100.738 166.973 100.816 166.996 100.933C167.019 101.051 166.942 101.165 166.824 101.188C166.365 101.276 165.904 101.372 165.454 101.473C165.438 101.475 165.422 101.477 165.407 101.477ZM180.706 101.268C180.686 101.268 180.665 101.266 180.645 101.26C180.216 101.132 179.764 101.017 179.301 100.918C179.183 100.893 179.108 100.777 179.133 100.659C179.157 100.541 179.273 100.466 179.391 100.491C179.864 100.591 180.328 100.709 180.768 100.841C180.883 100.876 180.949 100.997 180.914 101.112C180.887 101.208 180.801 101.268 180.706 101.268ZM168.167 100.949C168.062 100.949 167.97 100.873 167.953 100.765C167.934 100.646 168.015 100.535 168.134 100.517C168.6 100.442 169.071 100.374 169.531 100.315C169.65 100.301 169.759 100.384 169.773 100.504C169.789 100.623 169.705 100.732 169.586 100.747C169.129 100.804 168.663 100.872 168.201 100.946C168.19 100.948 168.178 100.949 168.167 100.949ZM177.964 100.679C177.953 100.679 177.943 100.678 177.933 100.678C177.487 100.614 177.022 100.563 176.55 100.524C176.431 100.514 176.342 100.409 176.351 100.289C176.361 100.17 176.466 100.081 176.585 100.09C177.065 100.128 177.539 100.182 177.994 100.246C178.113 100.264 178.194 100.373 178.179 100.492C178.163 100.601 178.07 100.679 177.964 100.679ZM170.954 100.594C170.844 100.594 170.749 100.509 170.738 100.397C170.726 100.278 170.814 100.172 170.934 100.16C171.409 100.116 171.882 100.08 172.343 100.054C172.462 100.047 172.565 100.139 172.572 100.259C172.58 100.379 172.488 100.482 172.367 100.489C171.912 100.515 171.443 100.55 170.974 100.594C170.968 100.594 170.961 100.594 170.954 100.594ZM175.165 100.446C175.162 100.446 175.16 100.446 175.157 100.446C174.704 100.433 174.229 100.429 173.763 100.438C173.64 100.44 173.545 100.344 173.542 100.223C173.541 100.103 173.635 100.005 173.756 100.002C174.228 99.9948 174.71 99.9977 175.17 100.012C175.291 100.015 175.384 100.116 175.381 100.236C175.378 100.354 175.281 100.446 175.165 100.446ZM153.554 99.8654C153.444 99.8654 153.349 99.782 153.339 99.6699C153.292 99.1984 153.259 98.7212 153.241 98.2526C153.237 98.1318 153.33 98.0312 153.451 98.0269C153.571 98.0226 153.672 98.116 153.676 98.2367C153.693 98.6967 153.725 99.1639 153.772 99.6268C153.784 99.7461 153.698 99.8525 153.578 99.8654C153.57 99.8654 153.563 99.8654 153.554 99.8654ZM153.452 97.0551C153.451 97.0551 153.448 97.0551 153.446 97.0551C153.326 97.0523 153.233 96.9516 153.236 96.8309C153.25 96.358 153.279 95.8807 153.325 95.4121C153.336 95.2928 153.442 95.2051 153.561 95.2166C153.68 95.2281 153.768 95.3345 153.756 95.4538C153.712 95.9123 153.683 96.3795 153.67 96.8438C153.666 96.9617 153.57 97.0551 153.452 97.0551ZM153.723 94.2549C153.712 94.2549 153.699 94.2535 153.687 94.252C153.57 94.2319 153.49 94.1198 153.51 94.0019C153.587 93.5362 153.682 93.0661 153.792 92.6076C153.819 92.4911 153.937 92.4178 154.053 92.4466C154.17 92.4739 154.241 92.5917 154.214 92.7096C154.106 93.1581 154.015 93.6167 153.939 94.0738C153.92 94.1802 153.827 94.2549 153.723 94.2549ZM154.376 91.5208C154.355 91.5208 154.333 91.5179 154.312 91.5108C154.197 91.4748 154.134 91.3526 154.17 91.2376C154.31 90.7877 154.469 90.3363 154.643 89.8965C154.687 89.7843 154.812 89.7297 154.924 89.7743C155.036 89.8188 155.091 89.9439 155.046 90.056C154.877 90.4873 154.722 90.9286 154.583 91.3684C154.554 91.4604 154.468 91.5208 154.376 91.5208ZM155.402 88.9032C155.37 88.9032 155.339 88.896 155.309 88.8816C155.2 88.8299 155.154 88.7005 155.205 88.5912C155.406 88.1672 155.626 87.7417 155.857 87.3291C155.915 87.2242 156.047 87.1868 156.152 87.2457C156.257 87.3047 156.294 87.4369 156.235 87.5419C156.009 87.9472 155.793 88.3627 155.597 88.7781C155.561 88.8572 155.484 88.9032 155.402 88.9032ZM156.775 86.4494C156.735 86.4494 156.693 86.4379 156.657 86.4149C156.557 86.3488 156.528 86.2151 156.594 86.1144C156.849 85.722 157.122 85.3296 157.404 84.9486C157.476 84.8523 157.613 84.8322 157.709 84.9041C157.805 84.976 157.825 85.1125 157.753 85.2088C157.476 85.5826 157.208 85.9664 156.958 86.3516C156.915 86.4149 156.845 86.4494 156.775 86.4494ZM158.45 84.1925C158.402 84.1925 158.351 84.1753 158.31 84.1408C158.218 84.0632 158.206 83.9266 158.284 83.8346C158.585 83.4767 158.904 83.1202 159.229 82.7766C159.312 82.6889 159.449 82.686 159.536 82.768C159.624 82.8514 159.627 82.9879 159.545 83.0756C159.225 83.4134 158.912 83.7627 158.617 84.1149C158.574 84.1667 158.512 84.1925 158.45 84.1925ZM160.383 82.1513C160.325 82.1513 160.268 82.1283 160.225 82.0823C160.143 81.9946 160.147 81.8566 160.233 81.7747C160.575 81.4527 160.931 81.1364 161.292 80.8303C161.384 80.7526 161.52 80.7641 161.598 80.8561C161.675 80.9481 161.664 81.0847 161.572 81.1623C161.216 81.4627 160.866 81.7747 160.532 82.0909C160.489 82.1312 160.436 82.1513 160.383 82.1513Z" fill="#92AFCC"/>
<path d="M137.336 133.03C137.316 133.03 137.297 133.027 137.277 133.021C137.163 132.988 137.095 132.869 137.127 132.752C137.177 132.577 137.241 132.347 137.325 132.071C137.359 131.956 137.48 131.89 137.594 131.924C137.709 131.959 137.775 132.079 137.741 132.194C137.659 132.469 137.594 132.696 137.544 132.87C137.518 132.968 137.431 133.03 137.336 133.03Z" fill="#92AFCC"/>
<path d="M111.044 200C155.652 200 191.813 198.186 191.813 195.948C191.813 193.71 155.652 191.896 111.044 191.896C66.4372 191.896 30.2759 193.71 30.2759 195.948C30.2759 198.186 66.4372 200 111.044 200Z" fill="#B7CAE5"/>
<path opacity="0.2" d="M166.92 133.307C166.92 133.257 166.917 133.204 166.91 133.153C166.907 133.093 166.9 133.032 166.89 132.974C166.883 132.923 166.877 132.873 166.867 132.823C166.86 132.772 166.85 132.726 166.84 132.676C166.827 132.613 166.812 132.552 166.797 132.489C166.764 132.363 166.726 132.236 166.68 132.112C166.68 132.11 166.678 132.105 166.678 132.102C166.647 132.026 166.617 131.949 166.584 131.875C166.468 131.602 166.322 131.345 166.148 131.108C166.108 131.05 166.065 130.994 166.018 130.938C165.917 130.812 165.811 130.694 165.698 130.584C165.66 130.547 165.625 130.511 165.584 130.478C165.534 130.432 165.484 130.385 165.428 130.341C165.421 130.334 165.411 130.329 165.401 130.321L165.187 130.158C165.187 130.158 165.187 130.155 165.184 130.158L159.041 125.486V105.522C159.041 101.447 155.745 98.1433 151.678 98.1433H123.099L114.538 91.6315C113.049 90.4959 110.987 90.4959 109.498 91.6315L100.936 98.1433H71.0038C66.9367 98.1433 63.64 101.447 63.64 105.522V126.512L58.85 130.156L58.6362 130.32C58.6262 130.327 58.6161 130.333 58.609 130.34C58.0466 130.804 57.609 131.415 57.3566 132.112C57.1973 132.552 57.1098 133.027 57.1098 133.521V190.359V190.565V190.959V191.14C57.1098 191.202 57.1112 191.263 57.1141 191.324C57.1141 191.338 57.1155 191.353 57.1155 191.367C57.117 191.39 57.1184 191.412 57.1213 191.435C57.1256 191.486 57.1285 191.539 57.1342 191.591C57.1356 191.598 57.1356 191.604 57.1356 191.611C57.1356 191.611 57.1356 191.611 57.1356 191.613C57.1371 191.631 57.1414 191.649 57.1428 191.666C57.1485 191.708 57.1529 191.748 57.16 191.788C57.1615 191.803 57.1629 191.817 57.1658 191.831C57.1686 191.841 57.1686 191.854 57.1729 191.864C57.1758 191.879 57.1787 191.893 57.1815 191.907C57.1902 191.953 57.1988 191.998 57.2088 192.043C57.2131 192.06 57.2174 192.077 57.2203 192.096C57.2332 192.152 57.249 192.209 57.2647 192.264C57.2676 192.273 57.2691 192.281 57.2719 192.291C57.2748 192.301 57.2777 192.311 57.2805 192.321C57.2877 192.347 57.2963 192.375 57.3049 192.401C57.3092 192.415 57.315 192.431 57.3193 192.445C57.348 192.533 57.3795 192.619 57.4139 192.702C57.4154 192.708 57.4182 192.714 57.4197 192.718C57.4197 192.72 57.4211 192.72 57.4211 192.721C57.4469 192.783 57.4742 192.843 57.5029 192.904C57.5172 192.932 57.5316 192.961 57.5459 192.99C57.5646 193.029 57.5847 193.066 57.6047 193.105C57.609 193.114 57.6148 193.122 57.6191 193.129C57.6277 193.144 57.6363 193.158 57.6449 193.174C57.655 193.191 57.6664 193.21 57.6765 193.227C57.6923 193.253 57.7066 193.279 57.7224 193.305C57.7396 193.333 57.7582 193.361 57.7755 193.388C57.8013 193.427 57.8271 193.466 57.8544 193.505C57.8615 193.513 57.8673 193.523 57.873 193.532C57.8744 193.533 57.8759 193.536 57.8773 193.538C57.8802 193.542 57.8845 193.546 57.8874 193.551C57.9964 193.701 58.1155 193.845 58.2446 193.98C58.2446 193.98 58.2446 193.98 58.246 193.982C58.2776 194.016 58.3106 194.049 58.3436 194.082C58.3565 194.095 58.3694 194.107 58.3823 194.12C58.4225 194.159 58.4641 194.196 58.5057 194.233C58.5286 194.253 58.553 194.275 58.576 194.295C58.609 194.324 58.6434 194.351 58.6778 194.379C58.7051 194.4 58.7323 194.422 58.7596 194.443C58.8141 194.483 58.8686 194.522 58.9246 194.56C58.959 194.583 58.9949 194.604 59.0293 194.627C59.058 194.646 59.0881 194.665 59.1168 194.682C59.1412 194.696 59.167 194.712 59.1914 194.726C59.2072 194.736 59.223 194.745 59.2387 194.755C59.2531 194.762 59.2674 194.768 59.2818 194.777C59.2947 194.784 59.309 194.791 59.3234 194.798C59.3564 194.816 59.3894 194.833 59.4238 194.85C59.4884 194.882 59.5543 194.912 59.6203 194.939C59.6376 194.946 59.6562 194.954 59.6734 194.961C59.7308 194.984 59.7882 195.007 59.847 195.027C59.8556 195.03 59.8642 195.034 59.8728 195.037C59.89 195.043 59.9101 195.048 59.9288 195.054C59.9948 195.076 60.0608 195.096 60.1267 195.115C60.1368 195.117 60.1454 195.12 60.1554 195.123C60.1942 195.133 60.2329 195.143 60.2716 195.152C60.2917 195.156 60.3104 195.162 60.3305 195.166C60.3348 195.168 60.3391 195.169 60.3448 195.169C60.4194 195.185 60.4969 195.201 60.5729 195.211C60.5786 195.212 60.5844 195.212 60.5901 195.214C60.6145 195.218 60.6389 195.219 60.6647 195.224C60.669 195.224 60.6733 195.225 60.6791 195.225C60.6848 195.227 60.692 195.227 60.6977 195.228C60.7393 195.234 60.7823 195.24 60.8239 195.242C60.8326 195.242 60.8397 195.245 60.8483 195.245C60.8598 195.247 60.8727 195.247 60.8842 195.248C60.9072 195.25 60.9301 195.251 60.9516 195.253C61.0406 195.258 61.131 195.263 61.2213 195.263H61.448H162.583H162.81C162.905 195.263 162.998 195.258 163.091 195.253C163.123 195.251 163.154 195.248 163.184 195.247C163.202 195.247 163.214 195.244 163.227 195.244C163.25 195.241 163.278 195.237 163.301 195.234C163.313 195.234 163.328 195.231 163.341 195.231C163.371 195.228 163.397 195.224 163.424 195.221C163.427 195.218 163.431 195.218 163.437 195.218C163.453 195.215 163.47 195.211 163.487 195.208C163.519 195.202 163.55 195.196 163.58 195.191C163.595 195.189 163.609 195.188 163.622 195.184C163.628 195.182 163.632 195.181 163.638 195.179C163.718 195.163 163.797 195.143 163.874 195.122C163.886 195.119 163.896 195.116 163.907 195.113C163.988 195.09 164.068 195.066 164.147 195.038C164.16 195.035 164.176 195.028 164.189 195.025C164.201 195.023 164.212 195.015 164.226 195.012C164.234 195.01 164.242 195.005 164.25 195.002C164.323 194.975 164.395 194.945 164.467 194.913C164.501 194.899 164.534 194.883 164.569 194.867C164.649 194.83 164.728 194.788 164.804 194.747C164.807 194.745 164.81 194.744 164.814 194.742C164.838 194.731 164.863 194.715 164.887 194.699C164.912 194.685 164.937 194.67 164.962 194.655C164.963 194.653 164.966 194.652 164.968 194.65C164.998 194.633 165.028 194.613 165.058 194.593C165.067 194.587 165.077 194.58 165.085 194.574C165.12 194.551 165.153 194.528 165.187 194.504C165.216 194.483 165.246 194.462 165.275 194.442C165.282 194.435 165.287 194.429 165.295 194.425C165.303 194.419 165.31 194.412 165.318 194.406C165.376 194.361 165.432 194.315 165.488 194.266C165.49 194.265 165.49 194.265 165.491 194.265C165.498 194.258 165.508 194.252 165.514 194.245C165.517 194.242 165.52 194.241 165.523 194.238C165.559 194.206 165.594 194.173 165.629 194.141C165.638 194.134 165.646 194.127 165.655 194.118C165.666 194.107 165.675 194.097 165.686 194.087C165.813 193.963 165.93 193.832 166.039 193.693C166.061 193.666 166.082 193.638 166.102 193.611C166.105 193.607 166.108 193.604 166.111 193.599C166.127 193.579 166.141 193.559 166.157 193.539C166.17 193.517 166.184 193.496 166.2 193.474C166.25 193.401 166.299 193.325 166.345 193.249C166.358 193.229 166.368 193.208 166.379 193.188C166.396 193.158 166.412 193.131 166.429 193.102C166.447 193.072 166.462 193.039 166.477 193.011C166.49 192.988 166.5 192.964 166.513 192.94C166.517 192.931 166.521 192.922 166.526 192.914C166.553 192.856 166.579 192.797 166.604 192.741C166.607 192.731 166.612 192.721 166.614 192.714C166.625 192.685 166.637 192.656 166.65 192.623C166.65 192.622 166.652 192.62 166.652 192.619C166.66 192.6 166.668 192.582 166.675 192.563C166.68 192.549 166.685 192.536 166.689 192.521C166.69 192.518 166.69 192.517 166.692 192.514C166.695 192.511 166.695 192.508 166.695 192.507C166.699 192.494 166.703 192.48 166.709 192.465C166.718 192.442 166.725 192.419 166.734 192.395C166.742 192.369 166.749 192.343 166.758 192.317C166.761 192.307 166.764 192.297 166.767 192.287C166.769 192.28 166.774 192.27 166.774 192.264C166.777 192.251 166.781 192.238 166.784 192.225C166.797 192.181 166.808 192.135 166.818 192.089C166.82 192.081 166.822 192.074 166.822 192.067C166.822 192.066 166.822 192.064 166.822 192.064C166.83 192.034 166.837 192.005 166.843 191.975C166.843 191.972 166.844 191.969 166.845 191.968C166.845 191.965 166.847 191.961 166.847 191.956C166.851 191.935 166.854 191.913 166.858 191.892C166.864 191.861 166.871 191.831 166.876 191.801C166.877 191.794 166.878 191.785 166.878 191.778C166.88 191.768 166.881 191.758 166.883 191.746C166.887 191.723 166.888 191.701 166.891 191.677C166.893 191.666 166.894 191.653 166.896 191.642C166.898 191.624 166.901 191.607 166.904 191.587C166.904 191.574 166.907 191.56 166.907 191.547C166.91 191.524 166.91 191.502 166.911 191.481C166.921 191.367 166.927 191.252 166.927 191.136V190.954V190.561V190.355V133.517C166.927 133.451 166.924 133.377 166.92 133.307Z" fill="#4076A3"/>
<path d="M170.297 133.519V191.136C170.297 191.207 170.294 191.276 170.29 191.351C170.29 191.384 170.287 191.417 170.283 191.451C170.283 191.481 170.28 191.514 170.276 191.548C170.276 191.56 170.273 191.575 170.273 191.588C170.27 191.611 170.266 191.631 170.263 191.651C170.26 191.701 170.25 191.752 170.243 191.802C170.235 191.848 170.225 191.898 170.215 191.946C170.212 191.969 170.205 191.992 170.198 192.016C170.198 192.033 170.195 192.054 170.188 192.069C170.185 192.092 170.178 192.115 170.171 192.14C170.161 192.183 170.148 192.226 170.138 192.266C170.138 192.273 170.135 192.284 170.131 192.289C170.108 192.363 170.088 192.436 170.06 192.506C170.06 192.509 170.06 192.514 170.058 192.516C170.045 192.554 170.03 192.59 170.017 192.623C170.004 192.656 169.99 192.686 169.98 192.716C169.977 192.726 169.97 192.736 169.97 192.744C169.93 192.834 169.89 192.928 169.844 193.014C169.831 193.041 169.814 193.074 169.798 193.104C169.781 193.135 169.765 193.16 169.748 193.191C169.73 193.218 169.718 193.247 169.697 193.274C169.664 193.33 169.627 193.388 169.591 193.441C169.568 193.478 169.545 193.507 169.525 193.541C169.469 193.615 169.415 193.688 169.356 193.758C169.313 193.812 169.27 193.862 169.225 193.909C169.182 193.96 169.135 194.006 169.089 194.053C169.069 194.076 169.046 194.096 169.023 194.119C169.003 194.139 168.983 194.159 168.96 194.175C168.937 194.198 168.91 194.223 168.884 194.246C168.877 194.253 168.867 194.259 168.861 194.266C168.798 194.322 168.731 194.377 168.665 194.425C168.657 194.428 168.652 194.435 168.644 194.443C168.591 194.48 168.538 194.519 168.481 194.556C168.461 194.569 168.444 194.584 168.428 194.594C168.398 194.614 168.368 194.634 168.337 194.651C168.315 194.668 168.29 194.681 168.264 194.694C168.237 194.711 168.211 194.727 168.184 194.74C167.997 194.847 167.801 194.937 167.597 195.01C167.584 195.013 167.574 195.02 167.56 195.023C167.547 195.026 167.53 195.033 167.517 195.036C167.47 195.054 167.424 195.069 167.373 195.082C167.29 195.11 167.207 195.128 167.124 195.148C167.081 195.158 167.038 195.169 166.993 195.179C166.966 195.186 166.937 195.189 166.91 195.192C166.877 195.199 166.84 195.204 166.807 195.212C166.8 195.212 166.797 195.212 166.794 195.215C166.767 195.217 166.741 195.222 166.711 195.225C166.698 195.225 166.683 195.228 166.67 195.228C166.648 195.23 166.62 195.235 166.597 195.238C166.584 195.238 166.57 195.24 166.554 195.24C166.504 195.243 166.451 195.248 166.401 195.251C166.328 195.253 166.254 195.258 166.181 195.258H64.5955C64.5224 195.258 64.4492 195.255 64.376 195.251C64.3258 195.248 64.2727 195.243 64.2225 195.24C64.1666 195.238 64.1092 195.23 64.0533 195.22C64.0203 195.217 63.9873 195.213 63.9571 195.207C63.8768 195.197 63.7979 195.18 63.7204 195.164C63.6975 195.161 63.6774 195.154 63.6544 195.147C63.5712 195.127 63.488 195.107 63.4048 195.081C63.3546 195.064 63.3087 195.051 63.2614 195.035C63.0376 194.959 62.8209 194.861 62.6158 194.752C62.5656 194.722 62.5154 194.691 62.4652 194.661C62.4092 194.628 62.3518 194.591 62.2988 194.555C61.9688 194.33 61.6761 194.065 61.4222 193.757C61.362 193.687 61.306 193.613 61.2529 193.537C61.0693 193.284 60.9158 193.009 60.7967 192.716C60.7695 192.65 60.7437 192.575 60.7164 192.506C60.6892 192.436 60.6691 192.363 60.6461 192.289C60.626 192.216 60.6059 192.143 60.5902 192.069C60.573 191.999 60.56 191.933 60.5471 191.862C60.5443 191.852 60.5443 191.839 60.54 191.829C60.5299 191.763 60.5199 191.693 60.5127 191.625C60.5098 191.622 60.5098 191.615 60.5098 191.608C60.5027 191.555 60.4998 191.504 60.4969 191.451C60.4869 191.348 60.484 191.244 60.484 191.138V133.519C60.484 133.025 60.5701 132.552 60.7308 132.11C60.9832 131.413 61.4208 130.802 61.9832 130.338C61.9903 130.331 62.0004 130.325 62.0104 130.318L62.2242 130.154C62.8941 129.677 63.7133 129.396 64.5998 129.396H166.188C166.289 129.396 166.385 129.399 166.481 129.409C166.498 129.407 166.518 129.409 166.534 129.412C166.627 129.419 166.724 129.43 166.814 129.442C166.834 129.445 166.857 129.45 166.877 129.453C166.957 129.465 167.036 129.483 167.114 129.503C167.134 129.506 167.154 129.51 167.174 129.516C167.27 129.539 167.363 129.566 167.457 129.596C167.543 129.624 167.633 129.657 167.716 129.69C167.837 129.737 167.953 129.793 168.066 129.854C168.129 129.884 168.193 129.917 168.253 129.954C168.359 130.015 168.462 130.081 168.56 130.154C168.563 130.151 168.563 130.154 168.563 130.154L168.776 130.318C168.786 130.325 168.797 130.331 168.804 130.338C168.86 130.381 168.91 130.429 168.96 130.475C169 130.508 169.036 130.545 169.073 130.581C169.187 130.692 169.293 130.808 169.393 130.935C169.441 130.991 169.484 131.048 169.524 131.104C169.697 131.341 169.844 131.599 169.96 131.872C169.993 131.945 170.023 132.023 170.053 132.099C170.053 132.102 170.056 132.106 170.056 132.109C170.103 132.233 170.139 132.359 170.172 132.486C170.189 132.549 170.202 132.609 170.215 132.673C170.225 132.723 170.235 132.769 170.243 132.819C170.253 132.869 170.26 132.92 170.266 132.97C170.276 133.03 170.283 133.091 170.286 133.15C170.293 133.2 170.296 133.253 170.296 133.304C170.294 133.377 170.297 133.45 170.297 133.519Z" fill="#DFE5EA"/>
<path d="M170.05 132.112H60.7279C60.9804 131.415 61.4179 130.804 61.9803 130.34C61.9874 130.333 61.9975 130.327 62.0075 130.32L62.2213 130.156L112.871 91.63C114.36 90.4944 116.421 90.4944 117.91 91.63L168.557 130.156C168.56 130.153 168.56 130.156 168.56 130.156L168.774 130.32C168.784 130.327 168.794 130.333 168.801 130.34C168.857 130.383 168.907 130.431 168.957 130.477C168.997 130.51 169.033 130.547 169.07 130.583C169.184 130.694 169.29 130.81 169.39 130.937C169.438 130.993 169.481 131.05 169.521 131.106C169.695 131.343 169.841 131.601 169.957 131.874C169.99 131.947 170.02 132.025 170.05 132.101C170.047 132.105 170.05 132.108 170.05 132.112Z" fill="#3B77A8"/>
<path d="M162.413 192.26H67.0099V105.521C67.0099 101.446 70.3066 98.1426 74.3736 98.1426H155.047C159.115 98.1426 162.411 101.446 162.411 105.521V192.26H162.413Z" fill="white"/>
<path d="M149.762 118.968H79.6601C78.6774 118.968 77.874 118.163 77.874 117.178V116.418C77.874 115.433 78.6774 114.628 79.6601 114.628H149.762C150.745 114.628 151.548 115.433 151.548 116.418V117.178C151.548 118.163 150.744 118.968 149.762 118.968Z" fill="#E4ECF9"/>
<path d="M149.762 128.238H79.6601C78.6774 128.238 77.874 127.433 77.874 126.448V125.688C77.874 124.703 78.6774 123.898 79.6601 123.898H149.762C150.745 123.898 151.548 124.703 151.548 125.688V126.448C151.548 127.433 150.744 128.238 149.762 128.238Z" fill="#E4ECF9"/>
<path d="M149.762 137.509H79.6601C78.6774 137.509 77.874 136.704 77.874 135.72V134.959C77.874 133.974 78.6774 133.169 79.6601 133.169H149.762C150.745 133.169 151.548 133.974 151.548 134.959V135.72C151.548 136.704 150.744 137.509 149.762 137.509Z" fill="#E4ECF9"/>
<path d="M149.762 146.778H79.6601C78.6774 146.778 77.874 145.973 77.874 144.989V144.228C77.874 143.243 78.6774 142.438 79.6601 142.438H149.762C150.745 142.438 151.548 143.243 151.548 144.228V144.989C151.548 145.973 150.744 146.778 149.762 146.778Z" fill="#E4ECF9"/>
<path d="M149.762 156.049H79.6601C78.6774 156.049 77.874 155.244 77.874 154.259V153.499C77.874 152.514 78.6774 151.709 79.6601 151.709H149.762C150.745 151.709 151.548 152.514 151.548 153.499V154.259C151.548 155.242 150.744 156.049 149.762 156.049Z" fill="#E4ECF9"/>
<path d="M115.391 163.875V163.877C115.232 164.051 115.041 164.211 114.825 164.345L64.8207 195.259H64.5941C64.178 195.259 63.7778 195.199 63.4019 195.082C63.3489 195.065 63.2958 195.049 63.2456 195.032C62.59 194.805 62.0061 194.414 61.5499 193.908C61.5069 193.86 61.4638 193.812 61.4193 193.757C61.2931 193.607 61.1798 193.444 61.0765 193.273C61.0392 193.216 61.0105 193.159 60.9761 193.103C60.9459 193.043 60.9129 192.982 60.8857 192.923C60.626 192.383 60.4797 191.779 60.4797 191.138V133.519C60.4797 133.025 60.5658 132.552 60.7264 132.11C60.9789 131.413 61.4165 130.802 61.9788 130.338C61.986 130.331 61.996 130.325 62.0061 130.318L62.2198 130.154C62.8898 129.677 63.7089 129.396 64.5955 129.396H65.5352L69.925 132.11L110.397 157.134L111.92 158.076L114.825 159.871C115.041 160.005 115.231 160.164 115.391 160.338V160.341C116.294 161.335 116.294 162.886 115.391 163.875Z" fill="#3D83FF"/>
<path d="M170.297 133.519V191.136C170.297 191.207 170.294 191.276 170.29 191.351C170.29 191.384 170.287 191.417 170.283 191.451C170.283 191.481 170.28 191.514 170.276 191.548C170.276 191.56 170.273 191.575 170.273 191.588C170.27 191.611 170.266 191.631 170.263 191.651C170.26 191.701 170.25 191.752 170.243 191.802C170.235 191.848 170.225 191.898 170.215 191.946C170.215 191.953 170.212 191.963 170.212 191.969C170.21 191.982 170.205 191.999 170.2 192.016C170.2 192.033 170.197 192.054 170.189 192.069C170.187 192.092 170.179 192.115 170.172 192.14C170.162 192.183 170.152 192.223 170.139 192.266C170.139 192.273 170.136 192.284 170.132 192.289C170.112 192.363 170.089 192.436 170.062 192.506C170.062 192.509 170.062 192.514 170.059 192.516C170.046 192.554 170.036 192.587 170.019 192.623C170.009 192.653 169.996 192.683 169.981 192.716C169.979 192.723 169.974 192.733 169.971 192.744C169.931 192.834 169.891 192.928 169.845 193.014C169.832 193.041 169.815 193.074 169.799 193.104C169.782 193.135 169.766 193.16 169.749 193.191C169.732 193.218 169.719 193.247 169.699 193.274C169.666 193.33 169.629 193.388 169.593 193.441C169.57 193.478 169.547 193.507 169.527 193.541C169.471 193.618 169.413 193.688 169.357 193.758C169.314 193.812 169.271 193.862 169.227 193.909C169.184 193.96 169.137 194.006 169.091 194.053C169.071 194.076 169.048 194.096 169.025 194.119C169.005 194.139 168.984 194.159 168.961 194.175C168.939 194.198 168.911 194.223 168.885 194.246C168.878 194.253 168.868 194.259 168.863 194.266C168.799 194.322 168.732 194.377 168.666 194.425C168.659 194.428 168.653 194.435 168.646 194.443C168.593 194.48 168.54 194.519 168.482 194.556C168.462 194.569 168.445 194.584 168.429 194.594C168.399 194.614 168.369 194.634 168.339 194.651C168.316 194.668 168.292 194.681 168.266 194.694C168.238 194.711 168.213 194.727 168.185 194.74C167.999 194.847 167.802 194.937 167.599 195.01C167.586 195.013 167.571 195.02 167.561 195.023C167.548 195.026 167.531 195.033 167.518 195.036C167.471 195.054 167.425 195.069 167.375 195.082C167.292 195.11 167.208 195.128 167.125 195.148C167.082 195.158 167.039 195.169 166.995 195.179C166.967 195.186 166.939 195.189 166.911 195.192C166.878 195.199 166.841 195.204 166.808 195.212H166.798C166.768 195.215 166.738 195.222 166.712 195.225C166.699 195.225 166.685 195.228 166.672 195.228C166.649 195.23 166.626 195.235 166.599 195.238C166.586 195.238 166.571 195.24 166.556 195.24C166.505 195.243 166.452 195.248 166.402 195.251C166.329 195.253 166.256 195.258 166.183 195.258H165.956L115.952 164.343C115.736 164.209 115.546 164.05 115.39 163.876V163.873C114.483 162.881 114.483 161.336 115.39 160.341V160.338C115.546 160.164 115.736 160.005 115.952 159.871L118.853 158.076L120.375 157.134L160.852 132.11L165.242 129.396H166.181C166.282 129.396 166.378 129.399 166.474 129.409C166.491 129.407 166.511 129.409 166.527 129.412C166.62 129.419 166.716 129.43 166.807 129.442C166.827 129.445 166.85 129.45 166.87 129.453C166.95 129.465 167.029 129.483 167.107 129.503C167.127 129.506 167.147 129.51 167.167 129.516C167.263 129.539 167.356 129.566 167.449 129.596C167.536 129.624 167.626 129.657 167.709 129.69C167.83 129.737 167.946 129.793 168.059 129.854C168.122 129.884 168.185 129.917 168.246 129.954C168.352 130.015 168.455 130.081 168.553 130.154C168.556 130.151 168.556 130.154 168.556 130.154L168.769 130.318C168.779 130.325 168.789 130.331 168.797 130.338C168.852 130.381 168.903 130.429 168.953 130.475C168.993 130.508 169.029 130.545 169.066 130.581C169.18 130.692 169.286 130.808 169.386 130.935C169.433 130.991 169.477 131.048 169.517 131.104C169.69 131.341 169.837 131.599 169.953 131.872C169.986 131.945 170.016 132.023 170.046 132.099C170.046 132.102 170.049 132.106 170.049 132.109C170.096 132.233 170.132 132.359 170.165 132.486C170.182 132.549 170.195 132.609 170.208 132.673C170.218 132.723 170.228 132.769 170.235 132.819C170.245 132.869 170.253 132.92 170.258 132.97C170.268 133.03 170.276 133.091 170.278 133.15C170.286 133.2 170.288 133.253 170.288 133.304C170.294 133.377 170.297 133.45 170.297 133.519Z" fill="#3D83FF"/>
<path opacity="0.29" d="M170.297 190.357V190.957C170.297 193.333 168.455 195.259 166.183 195.259H64.5955C62.3231 195.259 60.4811 193.333 60.4811 190.957V190.357L112.733 155.91C114.355 154.84 116.421 154.84 118.042 155.91L170.297 190.357Z" fill="white"/>
<path d="M170.297 190.563V191.137C170.297 193.413 168.455 195.259 166.183 195.259H64.5955C62.3231 195.259 60.4811 193.413 60.4811 191.137V190.563L112.733 157.563C114.355 156.538 116.421 156.538 118.042 157.563L170.297 190.563Z" fill="#166AFF"/>
<path d="M110.232 109.699H79.6601C78.6774 109.699 77.874 108.894 77.874 107.909V107.149C77.874 106.164 78.6774 105.359 79.6601 105.359H110.232C111.215 105.359 112.019 106.164 112.019 107.149V107.909C112.019 108.894 111.215 109.699 110.232 109.699Z" fill="#5693DB"/>
<path opacity="0.2" d="M120.487 61.494C118.235 59.2372 114.827 59.3737 114.222 53.5792C113.618 47.7847 116.2 43.3788 108.672 42.3884C101.143 41.398 96.5279 43.9021 95.264 47.7704C95.1464 48.1326 93.9456 52.5198 96.129 57.0622C98.3139 61.6047 100.002 61.977 99.7973 64.4538C99.7958 64.4653 99.7973 64.4754 99.7973 64.4854C99.0714 65.1409 98.3297 66.1687 97.9022 67.7701C96.8578 71.68 96.6928 74.1022 97.6267 75.5339C97.9237 75.9896 98.2164 76.4453 98.4531 76.8967C98.8002 77.5593 99.0298 78.2091 98.9781 78.8329C98.958 79.1161 98.8777 79.3936 98.7256 79.6624C98.1748 80.6384 94.1981 85.3088 92.4034 87.4765L90.3118 78.1156L82.9438 78.1444L75.669 78.1731L73.5975 78.1818L69.3769 78.1976L69.42 78.3931L72.6593 92.8843L78.6659 92.8614C77.5325 93.6175 76.9142 95.5408 77.4594 98.272C78.0633 101.301 81.1133 117.516 81.1133 117.516H81.6555C81.677 117.655 81.7043 117.826 81.733 118.009C81.766 118.214 81.8004 118.431 81.832 118.628C81.3485 118.249 81.2625 118.213 80.7804 118.545H80.7776C80.7589 118.556 80.7388 118.571 80.7202 118.584C80.6599 118.625 80.5954 118.67 80.5222 118.723C79.9412 119.139 78.267 120.588 77.0405 121.358C76.7363 121.549 76.458 121.699 76.2314 121.781C76.0363 121.853 75.8828 121.956 75.7608 122.078C75.745 122.094 75.7278 122.11 75.712 122.127C75.4323 122.446 75.3634 122.876 75.4352 123.221C75.4983 123.523 75.6676 123.757 75.8928 123.789C76.2601 123.842 80.1707 123.174 83.1848 122.571C83.5664 122.495 83.9322 122.42 84.2765 122.347C84.2062 122.383 84.1402 122.415 84.0771 122.44C83.859 122.531 83.6941 122.658 83.5736 122.807C83.3067 123.138 83.2565 123.572 83.3412 123.911C83.4172 124.21 83.5951 124.437 83.8218 124.459C84.4257 124.521 94.4678 122.249 94.5395 121.926C94.5582 121.841 94.551 121.635 94.518 121.368C94.4836 121.106 94.4276 120.786 94.3516 120.467C94.2081 119.863 93.9901 119.261 93.7189 119.036C93.7189 119.036 93.323 118.48 92.5354 118.904L92.5053 118.47L92.4651 117.901H93.1996C93.1996 117.901 90.3161 98.354 91.1396 98.1887C91.8942 98.0363 107.776 98.6012 110.856 98.2965C111.142 98.2677 111.317 98.2332 111.36 98.1887C111.367 98.1815 111.377 98.1714 111.387 98.1614C111.389 98.1585 111.392 98.157 111.394 98.1542C111.402 98.1455 111.41 98.1384 111.419 98.1283C111.423 98.124 111.429 98.1182 111.433 98.1139C111.44 98.1053 111.449 98.0981 111.458 98.0895C111.463 98.0837 111.469 98.0765 111.475 98.0708C111.483 98.0622 111.491 98.0535 111.501 98.0435C111.508 98.0363 111.515 98.0277 111.522 98.0205C111.531 98.0104 111.539 98.0018 111.549 97.9917C111.557 97.9831 111.565 97.9745 111.572 97.9659C111.582 97.9558 111.591 97.9443 111.601 97.9342C111.61 97.9242 111.618 97.9141 111.627 97.9055C111.637 97.894 111.647 97.8825 111.657 97.871C111.667 97.8595 111.676 97.848 111.686 97.8379C111.696 97.8264 111.706 97.8135 111.717 97.802C111.727 97.7905 111.737 97.7775 111.749 97.7646C111.76 97.7517 111.772 97.7373 111.783 97.7244C111.793 97.7114 111.805 97.6985 111.816 97.6855C111.828 97.6712 111.841 97.6568 111.852 97.641C111.864 97.6266 111.875 97.6137 111.887 97.5993C111.898 97.5835 111.911 97.5691 111.924 97.5533C111.935 97.5375 111.948 97.5231 111.96 97.5073C111.973 97.4915 111.984 97.4757 111.997 97.4584C112.01 97.4426 112.023 97.4254 112.036 97.4081C112.049 97.3909 112.062 97.3736 112.074 97.3564C112.087 97.3391 112.1 97.3219 112.113 97.3032C112.126 97.2859 112.139 97.2672 112.152 97.25C112.166 97.2313 112.179 97.2126 112.194 97.1925C112.206 97.1752 112.219 97.1566 112.232 97.1379C112.247 97.1177 112.261 97.0976 112.275 97.0775C112.288 97.0588 112.301 97.0387 112.314 97.02C112.328 96.9984 112.343 96.9783 112.357 96.9553C112.369 96.9366 112.381 96.9179 112.394 96.8992C112.41 96.8748 112.426 96.8518 112.442 96.8274C112.449 96.8173 112.456 96.8058 112.463 96.7943C112.501 96.7368 112.538 96.6764 112.575 96.6146C112.587 96.5959 112.598 96.5787 112.608 96.56C112.624 96.5341 112.64 96.5068 112.655 96.4809C112.668 96.4594 112.681 96.4378 112.693 96.4162C112.709 96.3889 112.723 96.3616 112.739 96.3343C112.752 96.3113 112.764 96.2883 112.777 96.2653C112.793 96.238 112.808 96.2093 112.823 96.1805C112.836 96.1575 112.849 96.1345 112.861 96.1101C112.876 96.0813 112.892 96.0511 112.906 96.0209C112.918 95.9979 112.931 95.9735 112.942 95.9505C112.958 95.9203 112.974 95.8887 112.988 95.8571C113 95.8326 113.013 95.8082 113.024 95.7838C113.04 95.7521 113.054 95.7191 113.07 95.6874C113.082 95.663 113.093 95.6371 113.104 95.6127C113.119 95.5796 113.135 95.5466 113.149 95.5135C113.16 95.4876 113.172 95.4618 113.183 95.4359C113.198 95.4014 113.213 95.3683 113.228 95.3338C113.239 95.308 113.249 95.2806 113.261 95.2548C113.275 95.2203 113.29 95.1843 113.304 95.1484C113.314 95.1211 113.325 95.0938 113.335 95.0679C113.35 95.0319 113.364 94.9946 113.377 94.9572C113.387 94.9299 113.397 94.9026 113.407 94.8767C113.422 94.8379 113.434 94.8005 113.449 94.7617C113.459 94.7344 113.467 94.7071 113.476 94.6798C113.489 94.6395 113.503 94.6007 113.516 94.5605C113.525 94.5331 113.533 94.5058 113.542 94.4785C113.555 94.4368 113.568 94.3951 113.581 94.3535C113.588 94.3276 113.597 94.3017 113.604 94.2744C113.617 94.2298 113.63 94.1853 113.642 94.1407C113.65 94.1163 113.655 94.0918 113.663 94.0674C113.675 94.02 113.688 93.9725 113.7 93.9237C113.706 93.9035 113.71 93.882 113.714 93.8618C113.727 93.8087 113.74 93.7555 113.751 93.7023C113.753 93.6922 113.756 93.6836 113.757 93.6735C113.816 93.4047 113.866 93.1244 113.904 92.8326C113.906 92.8139 113.908 92.7967 113.911 92.7794C113.918 92.7219 113.924 92.6644 113.929 92.6069C113.932 92.5825 113.935 92.558 113.937 92.5336C113.942 92.479 113.947 92.4229 113.951 92.3669C113.954 92.3381 113.955 92.3108 113.958 92.282C113.962 92.2274 113.965 92.1714 113.968 92.1167C113.97 92.0865 113.971 92.0564 113.972 92.0262C113.975 91.9715 113.977 91.9169 113.978 91.8609C113.98 91.8292 113.98 91.7962 113.981 91.7645C113.982 91.7099 113.982 91.6539 113.982 91.5992C113.982 91.5662 113.982 91.5331 113.982 91.4986C113.982 91.4426 113.981 91.3865 113.98 91.3304C113.978 91.2959 113.978 91.2614 113.977 91.2269C113.975 91.1709 113.972 91.1134 113.97 91.0573C113.968 91.0228 113.965 90.9869 113.964 90.9524C113.959 90.8949 113.957 90.8374 113.951 90.7799C113.948 90.7454 113.945 90.7094 113.941 90.6735C113.935 90.6146 113.929 90.5556 113.924 90.4967C113.919 90.4608 113.915 90.4248 113.911 90.3889C113.904 90.3285 113.896 90.2696 113.888 90.2092C113.883 90.1733 113.878 90.1373 113.872 90.1014C113.863 90.0396 113.853 89.9778 113.843 89.9159C113.838 89.8814 113.832 89.8455 113.825 89.811C113.813 89.7478 113.802 89.6831 113.79 89.6184C113.784 89.5853 113.777 89.5523 113.77 89.5178C113.757 89.4516 113.743 89.3841 113.729 89.3165C113.721 89.2863 113.714 89.2547 113.707 89.2245C113.691 89.1541 113.674 89.0822 113.657 89.0103C113.651 88.9859 113.644 88.9615 113.638 88.937C113.618 88.858 113.598 88.7789 113.575 88.6998C113.575 88.6984 113.574 88.697 113.574 88.6955C113.492 88.3994 113.394 88.0975 113.284 87.7899C113.281 87.7813 113.278 87.7741 113.275 87.7655C113.246 87.6878 113.216 87.6088 113.186 87.5297C113.175 87.4995 113.163 87.4679 113.152 87.4377C113.123 87.3659 113.094 87.294 113.064 87.2221C113.049 87.1833 113.033 87.1445 113.016 87.1057C112.987 87.0367 112.957 86.9677 112.925 86.8987C112.906 86.8555 112.888 86.8124 112.868 86.7679C112.838 86.7003 112.806 86.6327 112.775 86.5666C112.753 86.5206 112.731 86.4746 112.709 86.4272C112.677 86.361 112.644 86.2949 112.61 86.2274C112.585 86.1785 112.561 86.1296 112.536 86.0807C112.502 86.0146 112.468 85.9485 112.433 85.8824C112.417 85.8522 112.402 85.8206 112.384 85.7904C112.371 85.7674 112.358 85.7429 112.346 85.7199C112.32 85.6711 112.292 85.6236 112.265 85.5747C112.227 85.5043 112.185 85.4339 112.145 85.362C112.126 85.3304 112.109 85.2987 112.09 85.2671C114.546 83.7405 116.844 82.2829 117.6 81.7108C118.531 81.0064 118.361 77.2215 117.862 73.3748C118.77 73.5919 119.805 73.5761 121.089 73.3274C124.773 72.6158 122.741 63.7509 120.487 61.494ZM99.2765 85.5101C98.8619 86.0865 98.4344 86.8584 98.1202 87.8488C97.5349 88.3203 97.1404 89.0233 97.1705 89.3654C97.1935 89.6313 97.423 90.0985 97.6683 90.4881C97.6583 90.708 97.654 90.9351 97.6554 91.1694H93.2297L93.1838 90.9639C94.607 89.6471 98.1102 86.5422 99.2765 85.5101ZM89.4539 118.543C89.4754 118.707 89.4984 118.878 89.5213 119.041C89.0465 118.7 88.9518 118.674 88.4928 119.019H88.4899C88.4167 119.071 88.3349 119.134 88.2417 119.209C87.9376 119.446 87.3264 119.998 86.6407 120.586C86.6235 120.473 86.6048 120.356 86.5819 120.24C86.5675 120.162 86.5503 120.084 86.5331 120.008C86.414 119.481 86.2376 118.989 86.0095 118.784C86.0095 118.784 85.6465 118.221 84.8575 118.588L84.8145 118.125L84.7571 117.516H85.6222L82.8204 98.1067H85.7039C86.503 104.665 88.4813 117.902 88.4813 117.902H89.3722C89.3894 118.06 89.4209 118.293 89.4539 118.543ZM113.027 79.4022C112.892 79.4611 112.66 79.5977 112.356 79.7961V79.0845V78.5613V76.8564L112.571 75.6504C113.185 77.4113 113.611 79.1478 113.027 79.4022Z" fill="#4076A3"/>
<path d="M86.7914 118.939L83.8347 119.189C83.8347 119.189 83.7214 118.501 83.6281 117.913C83.5679 117.538 83.5163 117.203 83.5091 117.116L86.5317 116.153L86.7068 118.028L86.7914 118.939Z" fill="#FDC8AA"/>
<path d="M88.6019 121.607C88.5674 121.732 87.008 122.09 85.0814 122.476C82.0673 123.078 78.1552 123.746 77.7894 123.693C77.5642 123.662 77.3949 123.427 77.3318 123.125C77.26 122.782 77.3289 122.351 77.6086 122.031C77.7363 121.888 77.9056 121.767 78.128 121.686C79.2656 121.278 81.6929 119.148 82.4202 118.629C82.5163 118.56 82.5996 118.5 82.6756 118.449H82.6784C83.1633 118.116 83.248 118.153 83.7357 118.538C84.1532 118.863 85.0168 119.011 85.8001 118.859C86.0856 118.804 86.361 118.709 86.5992 118.57C87.4929 118.05 87.9032 118.685 87.9032 118.685C88.1313 118.891 88.3078 119.382 88.4268 119.91C88.444 119.986 88.4613 120.064 88.4756 120.141C88.5387 120.463 88.5803 120.787 88.6047 121.048C88.6248 121.318 88.6234 121.524 88.6019 121.607Z" fill="white"/>
<path d="M88.6019 121.607C88.5674 121.732 87.008 122.09 85.0814 122.475C82.0673 123.078 78.1552 123.746 77.7894 123.693C77.5642 123.661 77.3949 123.427 77.3318 123.125C78.5368 122.98 82.7186 122.449 86.0239 121.728C86.9908 121.515 87.8831 121.288 88.6033 121.049C88.6248 121.318 88.6234 121.524 88.6019 121.607Z" fill="#9FB8D6"/>
<path d="M88.4741 120.142C88.3364 120.158 88.2059 120.167 88.0796 120.167C86.7928 120.174 86.1157 119.408 85.7986 118.858C86.0841 118.804 86.3596 118.709 86.5977 118.57C87.4914 118.049 87.9017 118.685 87.9017 118.685C88.1298 118.89 88.3063 119.382 88.4254 119.909C88.4426 119.987 88.4584 120.065 88.4741 120.142Z" fill="#D7E3F4"/>
<path d="M77.6072 122.032C78.5812 122.189 80.1607 121.664 81.9654 120.917C83.74 120.182 83.116 119.035 82.6755 118.45H82.6727C82.5966 118.499 82.5134 118.559 82.4173 118.628C81.6914 119.147 79.2627 121.278 78.1265 121.686C77.9056 121.768 77.7348 121.889 77.6072 122.032Z" fill="#D7E3F4"/>
<path d="M86.7053 118.029C85.9751 118.001 84.2694 117.937 83.6267 117.914C83.5665 117.539 83.5148 117.204 83.5076 117.117L86.5303 116.154L86.7053 118.029Z" fill="#FBB188"/>
<path opacity="0.5" d="M88.6019 121.607C88.5674 121.732 87.008 122.09 85.0814 122.476C85.3568 122.253 85.681 121.995 86.0239 121.728C86.7225 121.183 87.4972 120.598 88.0797 120.166C88.2059 120.074 88.3207 119.987 88.4254 119.91C88.4426 119.986 88.4598 120.063 88.4742 120.141C88.5373 120.463 88.5789 120.787 88.6033 121.048C88.6248 121.318 88.6234 121.524 88.6019 121.607Z" fill="#7D95B7"/>
<path d="M94.4822 119.527L91.5198 119.707C91.5198 119.707 91.4251 119.031 91.3476 118.446C91.296 118.062 91.2515 117.717 91.2443 117.629L94.2885 116.737L94.4019 118.376L94.4822 119.527Z" fill="#FDC8AA"/>
<path d="M85.2363 123.816C85.3123 124.115 85.4902 124.342 85.7169 124.364C86.3208 124.425 96.3629 122.154 96.4347 121.831C96.4533 121.746 96.4461 121.54 96.4131 121.273C96.3787 121.011 96.3228 120.691 96.2482 120.372C96.1047 119.768 95.8867 119.166 95.6155 118.941C95.6155 118.941 95.1794 118.323 94.3086 118.88C94.0762 119.028 93.8051 119.134 93.5225 119.2C92.7449 119.384 91.8756 119.274 91.4466 118.964C90.9416 118.601 90.857 118.568 90.385 118.921H90.3822C90.3076 118.973 90.2272 119.036 90.134 119.111C89.4296 119.659 87.0927 121.89 85.9737 122.344C85.7556 122.435 85.5907 122.561 85.4701 122.711C85.2033 123.041 85.1517 123.475 85.2363 123.816Z" fill="white"/>
<path d="M85.2363 123.816C85.3124 124.115 85.4903 124.342 85.7169 124.364C86.3209 124.425 96.363 122.154 96.4347 121.831C96.4534 121.746 96.4462 121.54 96.4132 121.273C93.2772 122.462 86.7871 123.563 85.2363 123.816Z" fill="#9FB8D6"/>
<path d="M93.521 119.202C93.8925 119.788 94.7103 120.619 96.2481 120.372C96.1047 119.768 95.8866 119.166 95.6155 118.941C95.6155 118.941 95.1794 118.323 94.3086 118.88C94.0747 119.029 93.8036 119.134 93.521 119.202Z" fill="#D7E3F4"/>
<path d="M85.4687 122.711C86.4485 122.828 88.005 122.237 89.7767 121.416C91.5197 120.608 90.8484 119.487 90.3836 118.922H90.3807C90.3061 118.974 90.2257 119.037 90.1325 119.112C89.4281 119.659 87.0912 121.89 85.9722 122.345C85.7556 122.435 85.5906 122.563 85.4687 122.711Z" fill="#D7E3F4"/>
<path d="M94.4019 118.376L91.3476 118.446C91.296 118.062 91.2515 117.717 91.2443 117.629L94.2885 116.737L94.4019 118.376Z" fill="#FBB188"/>
<path d="M102.516 84.0254C102.516 84.0254 99.466 85.9933 99.5492 91.1553C99.5492 91.1553 82.3227 92.0092 80.9484 92.5597C79.574 93.1103 78.7506 95.1472 79.3545 98.176C79.9585 101.205 83.0084 117.42 83.0084 117.42H87.5144L84.7127 98.0107H98.1203C98.1203 98.0107 106.226 97.2948 107.434 94.8726C108.643 92.4505 106.224 84.2453 106.224 84.2453L102.516 84.0254Z" fill="#15315E"/>
<path d="M113.258 98.094C113.215 98.1371 113.04 98.1731 112.754 98.2018C109.674 98.5066 93.7922 97.9416 93.0376 98.094C92.2141 98.2593 95.0976 117.806 95.0976 117.806H90.3721C90.3721 117.806 87.3222 97.4055 87.2677 94.7073C87.2132 92.0091 106.28 92.1198 105.539 90.6867C105.5 90.6105 105.464 90.5242 105.434 90.4279C105.379 90.2626 105.336 90.0729 105.305 89.8601C104.995 87.8606 105.539 84.0239 105.539 84.0239H113.258C113.354 84.1648 113.449 84.3071 113.538 84.4451C113.542 84.4523 113.548 84.4595 113.551 84.4667C113.82 84.885 114.063 85.2918 114.278 85.6943C118.203 92.9723 113.744 97.6067 113.258 98.094Z" fill="#1F3A6F"/>
<path d="M113.258 98.0937C113.215 98.1369 113.04 98.1728 112.755 98.2016C118.499 92.5882 112.644 86.1684 110.621 84.0251C110.261 83.6442 110.024 83.3983 109.993 83.3164L112.215 84.0251L113.538 84.4463C118.717 92.4387 113.772 97.5791 113.258 98.0937Z" fill="#15315E"/>
<path d="M97.1577 47.6713C97.0401 48.0336 95.8393 52.4208 98.0227 56.9632C100.208 61.5057 101.896 61.878 101.691 64.3548C101.484 66.833 112.819 66.5714 115.236 69.6548C117.654 72.7382 119.302 73.95 122.985 73.2341C126.666 72.5182 124.633 63.6533 122.381 61.3964C120.128 59.1396 116.721 59.2761 116.116 53.4816C115.512 47.6871 118.094 43.2812 110.565 42.2908C103.038 41.299 98.4216 43.803 97.1577 47.6713Z" fill="#1F3A6F"/>
<path d="M115.254 71.1067L114.462 75.5485V75.5529L114.246 76.7589V84.7427L107.065 84.9296L106.508 84.9439L101.553 85.0733C101.553 85.0733 94.574 91.2401 94.465 91.4615C94.356 91.6829 93.4206 88.6541 93.4206 88.4888C93.4206 88.3235 99.9049 80.8342 100.619 79.5678C100.771 79.2989 100.852 79.0215 100.872 78.7383C100.923 78.1159 100.694 77.4647 100.347 76.802C100.109 76.3507 99.8174 75.895 99.5205 75.4393C98.5866 74.0061 98.7515 71.5854 99.7959 67.6754C100.84 63.7669 103.752 63.271 103.752 63.271L110.867 63.5182L110.968 63.6936L115.254 71.1067Z" fill="#F4B545"/>
<path d="M110.161 55.2484C111.344 55.2484 112.304 54.07 112.304 52.6164C112.304 51.1628 111.344 49.9844 110.161 49.9844C108.977 49.9844 108.018 51.1628 108.018 52.6164C108.018 54.07 108.977 55.2484 110.161 55.2484Z" fill="#FDC8AA"/>
<path d="M106.815 89.2436C106.815 89.2436 105.098 90.2067 104.833 90.5517C104.569 90.8953 104.095 91.0333 104.095 91.0333C104.095 91.0333 103.116 91.0649 102.121 91.0793C101.169 91.0936 100.205 91.0936 100.083 91.0333C99.8361 90.9096 99.1044 89.7525 99.0628 89.268C99.0212 88.7822 99.8246 87.5747 100.824 87.326C101.826 87.0787 102.669 87.9355 103.598 87.9154C104.524 87.8938 104.833 87.1621 104.833 87.1621L106.24 88.6398L106.815 89.2436Z" fill="#FDC8AA"/>
<path d="M114.279 85.6959L106.51 90.2556L106.207 89.9667L105.434 90.4295L105.242 90.5431L104.936 90.1018L105.305 89.8603L113.551 84.4697C113.822 84.8866 114.063 85.2948 114.279 85.6959Z" fill="#15315E"/>
<path d="M106.815 89.2439C106.815 89.2439 105.098 90.207 104.833 90.552C104.569 90.8955 104.095 91.0336 104.095 91.0336C104.095 91.0336 103.116 91.0652 102.121 91.0795C102.415 90.9746 102.787 90.8639 103.249 90.7604C104.688 90.4327 105.669 89.31 106.24 88.6401L106.815 89.2439Z" fill="#FBB188"/>
<path d="M114.248 78.4619V84.7408L107.066 84.9263L106.51 84.9421L114.248 78.4619Z" fill="#E59D29"/>
<path d="M119.496 81.6174C117.641 83.0218 106.513 89.7521 106.513 89.7521L104.356 86.9864C104.356 86.9864 105.513 86.1009 107.066 84.9279C109.441 83.1368 112.742 80.6773 114.248 79.6983C114.553 79.5014 114.786 79.3634 114.919 79.3045C115.503 79.05 115.077 77.3136 114.462 75.5526V75.5498C114.001 74.2258 113.434 72.8904 113.113 72.1559C112.958 71.7979 112.859 71.5838 112.859 71.5838L110.968 63.692L110.867 63.2693C110.867 63.2693 117.269 62.621 118.052 64.6033C118.836 66.5856 121.351 80.213 119.496 81.6174Z" fill="#F4B545"/>
<path d="M104.356 68.5538L105.764 63.4608L105.539 62.1441L105.015 59.0549L107.16 56.2749L110.161 55.4771L110.395 57.0913L111.317 63.4881L113.258 63.6535L104.356 68.5538Z" fill="#FDC8AA"/>
<path d="M106.814 91.0708H84.1202V92.7541H106.814V91.0708Z" fill="#444343"/>
<path d="M110.395 57.0913C109.626 58.8623 107.946 61.7128 105.54 62.1441L105.016 59.0549L107.16 56.2748L110.162 55.4756L110.395 57.0913Z" fill="#FBB188"/>
<path d="M110.235 53.4817C110.235 57.1991 107.898 60.212 105.015 60.212C104.461 60.212 103.928 60.0999 103.428 59.8944C101.322 59.0275 99.7959 56.4832 99.7959 53.4817C99.7959 51.6374 100.371 49.9642 101.304 48.7481C102.249 47.5147 103.563 46.75 105.015 46.75C107.898 46.75 110.235 49.763 110.235 53.4817Z" fill="#FDC8AA"/>
<path d="M114.462 75.548V75.5523L114.246 76.7583V78.9864C113.495 76.8992 113.214 74.1723 113.113 72.1555C113.034 70.534 113.07 69.3726 113.07 69.3726C113.07 69.3726 114.462 75.4014 114.462 75.548Z" fill="#E59D29"/>
<path d="M100.873 78.7351C100.925 78.1127 100.695 77.4615 100.348 76.7988C100.939 76.8535 101.776 76.8635 102.662 76.6723C104.174 76.3446 103.915 77.8698 100.873 78.7351Z" fill="#E59D29"/>
<path d="M95.4879 92.7077L94.6185 92.7106L87.3437 92.7393L85.2722 92.748L80.9641 92.7638L74.553 92.7882L71.3137 78.2969L71.2692 78.1L75.4912 78.0842L77.5627 78.0756L84.8375 78.0468L92.2055 78.0181L95.4879 92.7077Z" fill="#444343"/>
<path d="M94.6185 92.7102L87.3437 92.7389L77.5627 78.0751L84.8375 78.0464L94.6185 92.7102Z" fill="#515151"/>
<path d="M85.2722 92.7478L80.9641 92.7636L71.3137 78.2967L71.2692 78.0998L75.4912 78.084L85.2722 92.7478Z" fill="#515151"/>
<path d="M94.7634 92.7635L95.4879 93.429L106.815 92.7534L94.7634 92.7635Z" fill="#15315E"/>
<path d="M100.777 49.6278C100.827 49.6451 104.783 51.7711 107.039 51.8387C109.296 51.9062 109.822 52.06 110.773 50.6484C111.723 49.2368 100.777 49.6278 100.777 49.6278Z" fill="#FBB188"/>
<path d="M103.428 59.8943C101.322 59.0275 99.7959 56.4831 99.7959 53.4817C99.7959 51.6374 100.371 49.9642 101.304 48.748L101.687 48.8961C101.687 48.8961 98.1504 55.9657 103.428 59.8943Z" fill="#FFD6BB"/>
<path d="M99.0126 51.843C99.0327 51.7194 99.8992 49.0974 102.104 49.9642C104.309 50.831 109.365 52.3806 110.237 51.0581C111.109 49.7371 112.696 53.4745 109.996 54.3615C109.996 54.3615 108.723 56.8397 111.317 59.7923C113.911 62.7449 113.704 52.5042 113.704 52.5042C113.704 52.5042 113.044 49.8406 113.004 49.6134C112.963 49.3863 109.563 46.0614 109.233 45.9378C108.903 45.8142 105.709 45.2564 105.153 45.3182C104.596 45.3801 101.319 45.8142 100.928 46.185C100.536 46.5574 98.9696 47.0734 98.6196 47.8367C98.2695 48.6 97.6512 49.5301 97.8578 50.1079C98.0644 50.6858 99.0126 51.843 99.0126 51.843Z" fill="#1F3A6F"/>
<path d="M157.38 85.6515L160.825 54.1059L210.351 49.6655L157.38 85.6515Z" fill="#92AFCC"/>
<path d="M159.833 64.1482C160.093 64.0547 210.351 49.6655 210.351 49.6655L145.733 50.472L159.833 64.1482Z" fill="#B7CAE5"/>
<path d="M164.619 68.8071L157.38 85.6516L181.66 69.5747L164.619 68.8071Z" fill="#7F9FBA"/>
<path d="M164.619 68.8071L178.814 82.4962L210.351 49.6655L164.619 68.8071Z" fill="#B7CAE5"/>
<path d="M33.0805 53.2505C37.3724 53.2505 40.8516 49.7642 40.8516 45.4636C40.8516 41.163 37.3724 37.6768 33.0805 37.6768C28.7886 37.6768 25.3094 41.163 25.3094 45.4636C25.3094 49.7642 28.7886 53.2505 33.0805 53.2505Z" fill="#F4B545"/>
<path d="M220.542 94.8238C223.835 94.8238 226.505 92.1484 226.505 88.8482C226.505 85.5479 223.835 82.8726 220.542 82.8726C217.248 82.8726 214.578 85.5479 214.578 88.8482C214.578 92.1484 217.248 94.8238 220.542 94.8238Z" fill="#F4B545"/>
<path d="M169.73 35.0315C170.714 34.0457 170.714 32.4475 169.73 31.4617C168.746 30.4759 167.151 30.476 166.168 31.4617C165.184 32.4475 165.184 34.0457 166.168 35.0315C167.151 36.0172 168.746 36.0172 169.73 35.0315Z" fill="#F4B545"/>
<path d="M115.253 10.4936C118.145 10.4936 120.49 8.14455 120.49 5.24682C120.49 2.34908 118.145 0 115.253 0C112.362 0 110.017 2.34908 110.017 5.24682C110.017 8.14455 112.362 10.4936 115.253 10.4936Z" fill="#B7CAE5"/>
<path d="M215.598 115.954C216.053 114.025 214.86 112.091 212.935 111.636C211.01 111.18 209.08 112.375 208.626 114.304C208.171 116.233 209.363 118.167 211.289 118.622C213.214 119.078 215.143 117.883 215.598 115.954Z" fill="#B7CAE5"/>
<path d="M4.43332 148.545C6.60264 148.545 8.36121 146.782 8.36121 144.609C8.36121 142.435 6.60264 140.673 4.43332 140.673C2.26401 140.673 0.505432 142.435 0.505432 144.609C0.505432 146.782 2.26401 148.545 4.43332 148.545Z" fill="#B7CAE5"/>
<path d="M73.9303 61.4699C76.4451 61.4699 78.4837 59.4271 78.4837 56.9073C78.4837 54.3875 76.4451 52.3447 73.9303 52.3447C71.4155 52.3447 69.3769 54.3875 69.3769 56.9073C69.3769 59.4271 71.4155 61.4699 73.9303 61.4699Z" fill="#B7CAE5"/>
</svg>
