<svg width="256" height="200" viewBox="0 0 256 200" fill="none" xmlns="http://www.w3.org/2000/svg">
<path d="M66.3136 189.751C67.9237 190.939 69.5735 192.087 71.26 193.193H196.708C198.246 191.96 199.75 190.668 201.216 189.312C231.105 161.666 243.33 109.993 226.324 89.353C213.886 74.2571 192.335 86.8168 170.576 65.5738C151.275 46.7328 155.445 28.887 141.212 21.5396C110.052 5.45145 26.4686 42.4258 21.2046 105.204C17.2389 152.507 60.7275 185.628 66.3136 189.751Z" fill="#ECF3FE"/>
<path d="M38.42 56.6899C38.2186 56.6899 38.0215 56.5896 37.9039 56.4068C37.7216 56.1207 37.8054 55.7418 38.0892 55.5589C38.5215 55.2817 38.9655 55.0075 39.4081 54.7421C39.6978 54.5681 40.0742 54.6639 40.2463 54.9559C40.4198 55.2463 40.3242 55.6238 40.033 55.7963C39.6022 56.0544 39.1699 56.3212 38.7479 56.5911C38.6479 56.6589 38.5332 56.6899 38.42 56.6899Z" fill="#2ED0FA"/>
<path d="M62.0553 132.428C61.6407 132.428 61.2187 132.422 60.8011 132.409C60.4629 132.399 60.1982 132.116 60.207 131.778C60.2173 131.439 60.4937 131.175 60.8364 131.182C61.8406 131.212 62.8508 131.205 63.8433 131.162C64.1815 131.146 64.4668 131.409 64.4815 131.747C64.4962 132.086 64.2345 132.372 63.8977 132.387C63.2875 132.415 62.6685 132.428 62.0553 132.428ZM57.775 132.206C57.7544 132.206 57.7323 132.204 57.7103 132.203C56.681 132.095 55.6488 131.948 54.643 131.765C54.3107 131.704 54.0901 131.384 54.1504 131.051C54.2107 130.718 54.5283 130.497 54.8621 130.557C55.837 130.736 56.8383 130.879 57.8367 130.982C58.1735 131.017 58.4175 131.32 58.3822 131.656C58.3499 131.971 58.0838 132.206 57.775 132.206ZM66.9135 132.141C66.6077 132.141 66.3445 131.912 66.3063 131.6C66.2666 131.264 66.5062 130.958 66.8415 130.918C67.8399 130.799 68.8383 130.64 69.8088 130.447C70.1396 130.38 70.4616 130.597 70.5278 130.929C70.594 131.261 70.3778 131.583 70.047 131.65C69.0441 131.849 68.0149 132.014 66.9856 132.136C66.9621 132.139 66.9371 132.141 66.9135 132.141ZM51.7757 131.109C51.7243 131.109 51.6713 131.101 51.6184 131.088C50.6082 130.818 49.6113 130.507 48.6541 130.162C48.3365 130.047 48.1703 129.696 48.285 129.378C48.3997 129.059 48.7496 128.893 49.0672 129.008C49.9921 129.341 50.9552 129.642 51.9316 129.903C52.258 129.99 52.4521 130.326 52.3654 130.653C52.2933 130.927 52.0463 131.109 51.7757 131.109ZM72.8951 130.944C72.629 130.944 72.3834 130.768 72.307 130.498C72.2143 130.172 72.4025 129.833 72.7275 129.74C73.6524 129.475 74.5655 129.173 75.4433 128.839L75.5713 128.791C75.8874 128.668 76.2403 128.828 76.3623 129.143C76.4829 129.46 76.3256 129.814 76.0109 129.936L75.8771 129.988C74.9684 130.333 74.0215 130.647 73.0642 130.921C73.0069 130.936 72.951 130.944 72.8951 130.944ZM46.0397 129.033C45.9529 129.033 45.8647 129.013 45.7809 128.974C44.8266 128.525 43.9017 128.03 43.0312 127.505C42.7416 127.33 42.6489 126.954 42.8224 126.663C42.9974 126.373 43.3724 126.28 43.662 126.454C44.4958 126.958 45.3839 127.431 46.2985 127.863C46.6043 128.008 46.7367 128.372 46.5926 128.679C46.4896 128.901 46.2691 129.033 46.0397 129.033ZM78.5856 128.75C78.3606 128.75 78.143 128.624 78.0371 128.407C77.8872 128.104 78.0121 127.737 78.315 127.586C79.2061 127.145 80.0869 126.656 80.9324 126.132C81.2206 125.954 81.597 126.044 81.7749 126.333C81.9528 126.622 81.8631 126.999 81.5749 127.178C80.6971 127.72 79.7825 128.229 78.8562 128.688C78.7694 128.729 78.6768 128.75 78.5856 128.75ZM40.8271 125.867C40.6962 125.867 40.5639 125.826 40.4536 125.739C39.6155 125.088 38.8259 124.389 38.1069 123.663C37.8686 123.422 37.8701 123.033 38.1098 122.796C38.3495 122.557 38.7377 122.558 38.9744 122.798C39.6567 123.489 40.4051 124.151 41.2021 124.768C41.4697 124.976 41.5182 125.361 41.3109 125.629C41.1918 125.784 41.0109 125.867 40.8271 125.867ZM83.7717 125.542C83.5864 125.542 83.4026 125.458 83.2821 125.298C83.0792 125.026 83.1336 124.643 83.4026 124.438C84.1922 123.842 84.9686 123.198 85.7126 122.524C85.9626 122.297 86.3493 122.316 86.5772 122.567C86.8037 122.818 86.7846 123.207 86.5346 123.434C85.7641 124.133 84.9583 124.801 84.1408 125.419C84.029 125.503 83.9011 125.542 83.7717 125.542ZM36.5556 121.526C36.3688 121.526 36.1836 121.44 36.063 121.277C35.4366 120.426 34.8749 119.527 34.3956 118.605C34.2397 118.304 34.3559 117.934 34.6558 117.778C34.9558 117.622 35.3248 117.738 35.4807 118.039C35.9307 118.904 36.4571 119.749 37.0467 120.548C37.2481 120.821 37.1893 121.205 36.9188 121.407C36.8085 121.486 36.682 121.526 36.5556 121.526ZM88.2961 121.445C88.1462 121.445 87.9977 121.39 87.8785 121.28C87.6315 121.048 87.6168 120.66 87.8477 120.413C88.5196 119.69 89.1769 118.921 89.8033 118.127C90.0136 117.862 90.3973 117.816 90.662 118.027C90.9267 118.238 90.9723 118.623 90.762 118.888C90.115 119.708 89.4357 120.501 88.7417 121.249C88.624 121.379 88.4608 121.445 88.2961 121.445ZM43.9532 117.046C43.9414 117.046 43.9311 117.046 43.9194 117.045C42.8857 116.989 41.8402 116.859 40.8095 116.662C40.4771 116.598 40.2595 116.277 40.3228 115.944C40.386 115.61 40.7065 115.392 41.0388 115.455C42.0152 115.643 43.0077 115.765 43.9855 115.818C44.3222 115.836 44.581 116.126 44.5634 116.464C44.5457 116.793 44.2767 117.046 43.9532 117.046ZM47.0028 116.987C46.6911 116.987 46.4249 116.75 46.394 116.433C46.3617 116.095 46.6073 115.796 46.944 115.764C47.9497 115.665 48.9217 115.482 49.8304 115.221C50.1539 115.128 50.4935 115.315 50.5876 115.641C50.6803 115.967 50.4935 116.306 50.1686 116.401C49.1878 116.684 48.1424 116.88 47.0631 116.986C47.0425 116.987 47.0219 116.987 47.0028 116.987ZM92.0854 116.65C91.9677 116.65 91.8486 116.616 91.7428 116.545C91.4634 116.355 91.3884 115.975 91.5781 115.693C92.131 114.872 92.6677 114.01 93.1749 113.133C93.344 112.84 93.7175 112.739 94.0101 112.909C94.3027 113.079 94.4027 113.455 94.2336 113.747C93.7131 114.649 93.1602 115.535 92.5927 116.379C92.475 116.555 92.2824 116.65 92.0854 116.65ZM33.7383 116.122C33.4854 116.122 33.2486 115.963 33.1604 115.709C32.8707 114.87 32.6208 113.996 32.4164 113.104C32.3443 113.086 32.2738 113.055 32.2091 113.011C31.3709 112.424 30.5475 111.769 29.7608 111.064C29.5094 110.839 29.4873 110.451 29.7123 110.197C29.9373 109.945 30.324 109.923 30.5769 110.149C31.3048 110.801 32.065 111.408 32.8369 111.952C33.1531 111.906 33.4545 112.114 33.5221 112.431C33.7309 113.419 33.9985 114.385 34.3176 115.307C34.4279 115.627 34.2588 115.976 33.9397 116.087C33.8721 116.11 33.8044 116.122 33.7383 116.122ZM37.9745 115.899C37.9083 115.899 37.8422 115.889 37.776 115.865C36.7997 115.531 35.8277 115.115 34.8896 114.631C34.5896 114.476 34.4705 114.106 34.6249 113.806C34.7793 113.505 35.1484 113.385 35.4484 113.54C36.3335 113.997 37.2496 114.388 38.1716 114.705C38.4906 114.814 38.6612 115.164 38.5524 115.484C38.4656 115.739 38.2289 115.899 37.9745 115.899ZM52.8227 115.274C52.605 115.274 52.3948 115.158 52.2845 114.953C52.1242 114.655 52.2345 114.282 52.5315 114.121C53.3638 113.67 54.1431 113.124 54.8503 112.499L54.9077 112.448C55.1591 112.222 55.5473 112.244 55.7723 112.496C55.9973 112.748 55.9752 113.136 55.7238 113.363L55.6605 113.421C54.8856 114.106 54.0299 114.705 53.1153 115.2C53.0212 115.251 52.9212 115.274 52.8227 115.274ZM95.1468 111.355C95.0556 111.355 94.963 111.334 94.8762 111.292C94.5733 111.141 94.4498 110.774 94.5998 110.47C95.0394 109.578 95.4614 108.652 95.8526 107.719C95.9834 107.406 96.3422 107.26 96.6539 107.391C96.9656 107.523 97.1112 107.883 96.9803 108.195C96.5789 109.152 96.1466 110.102 95.6952 111.016C95.5879 111.23 95.3717 111.355 95.1468 111.355ZM57.3574 111.253C57.2309 111.253 57.1045 111.215 56.9957 111.134C56.7236 110.933 56.6648 110.548 56.8663 110.276C57.4383 109.496 57.9499 108.648 58.3852 107.753C58.5337 107.448 58.8998 107.322 59.2042 107.471C59.5071 107.62 59.6336 107.987 59.4851 108.292C59.0175 109.252 58.4675 110.165 57.8514 111.004C57.7309 111.168 57.5456 111.253 57.3574 111.253ZM32.4649 110.147C32.1517 110.147 31.8856 109.908 31.8562 109.59C31.7826 108.791 31.7459 107.984 31.7459 107.192C31.7459 106.946 31.7503 106.7 31.7562 106.458C31.7665 106.119 32.0473 105.852 32.3855 105.862C32.7237 105.873 32.9898 106.154 32.9796 106.494C32.9737 106.724 32.9693 106.959 32.9693 107.194C32.9693 107.947 33.0045 108.716 33.0751 109.478C33.106 109.816 32.859 110.113 32.5223 110.146C32.5017 110.146 32.4826 110.147 32.4649 110.147ZM28.0081 109.056C27.8405 109.056 27.6743 108.987 27.5538 108.853C26.8715 108.092 26.2113 107.276 25.5908 106.43C25.3908 106.157 25.4496 105.773 25.7216 105.572C25.9937 105.371 26.3774 105.43 26.5774 105.703C27.1744 106.517 27.8081 107.302 28.4639 108.033C28.6904 108.285 28.6698 108.673 28.4184 108.9C28.3007 109.005 28.1537 109.056 28.0081 109.056ZM60.0291 105.783C59.9732 105.783 59.9173 105.775 59.86 105.759C59.535 105.666 59.3468 105.326 59.4409 105C59.7159 104.037 59.8982 103.064 59.982 102.11C60.0115 101.772 60.3085 101.524 60.6452 101.553C60.9819 101.582 61.2304 101.88 61.201 102.218C61.1098 103.25 60.9143 104.299 60.6173 105.338C60.5408 105.607 60.2952 105.783 60.0291 105.783ZM97.5156 105.712C97.4479 105.712 97.3788 105.7 97.3127 105.677C96.9936 105.565 96.8274 105.214 96.9392 104.894C97.2744 103.941 97.5847 102.97 97.8596 102.01C97.9523 101.684 98.2919 101.495 98.6169 101.589C98.9419 101.684 99.1286 102.023 99.036 102.349C98.7537 103.332 98.4361 104.326 98.0934 105.302C98.0038 105.554 97.7685 105.712 97.5156 105.712ZM24.3939 104.131C24.1865 104.131 23.9836 104.025 23.8689 103.834C23.3396 102.952 22.8411 102.03 22.3882 101.097C22.2397 100.792 22.3662 100.425 22.6706 100.277C22.9735 100.13 23.3411 100.255 23.4881 100.56C23.9263 101.463 24.4071 102.35 24.9173 103.202C25.0908 103.493 24.9982 103.87 24.7085 104.044C24.61 104.102 24.5012 104.131 24.3939 104.131ZM32.6561 104.043C32.6237 104.043 32.5899 104.04 32.5561 104.034C32.2223 103.98 31.9973 103.664 32.0517 103.329C32.2252 102.268 32.4752 101.237 32.7913 100.265C32.8972 99.9438 33.2428 99.7684 33.5633 99.8731C33.8839 99.9792 34.0588 100.326 33.9544 100.647C33.6559 101.558 33.4221 102.527 33.2589 103.528C33.2089 103.829 32.9501 104.043 32.6561 104.043ZM60.5276 99.7227C60.2261 99.7227 59.9644 99.5 59.9218 99.1918C59.7865 98.2069 59.5321 97.2691 59.163 96.4065C59.0292 96.0954 59.1733 95.7342 59.4836 95.6015C59.7938 95.4673 60.1541 95.6118 60.2864 95.9229C60.6981 96.8872 60.9834 97.9312 61.1319 99.0252C61.1775 99.3614 60.9437 99.6711 60.6084 99.7168C60.5834 99.7212 60.5555 99.7227 60.5276 99.7227ZM21.7236 98.633C21.4781 98.633 21.2457 98.4826 21.1516 98.2393C20.7781 97.2617 20.4488 96.2665 20.1723 95.28C20.0812 94.9542 20.2709 94.615 20.5958 94.5236C20.9208 94.4322 21.259 94.6224 21.3501 94.9483C21.6163 95.8993 21.9339 96.8592 22.2941 97.8014C22.4147 98.1184 22.2574 98.4723 21.9412 98.5932C21.8692 98.6197 21.7957 98.633 21.7236 98.633ZM34.5735 98.2614C34.475 98.2614 34.375 98.2379 34.2809 98.1863C33.9838 98.0241 33.875 97.651 34.0368 97.3546C34.5529 96.4036 35.1587 95.5218 35.8351 94.7315C36.0556 94.4749 36.4409 94.4455 36.6982 94.6652C36.9541 94.8863 36.9835 95.2727 36.7644 95.5307C36.1439 96.2561 35.588 97.0671 35.1116 97.9415C35.0014 98.1464 34.7911 98.2614 34.5735 98.2614ZM58.1279 94.186C57.9544 94.186 57.7823 94.1122 57.6618 93.9692C57.0442 93.2408 56.3193 92.6097 55.5032 92.0937C55.2179 91.9123 55.1327 91.5333 55.3135 91.2473C55.4944 90.9612 55.8723 90.8757 56.1575 91.0571C57.0765 91.6395 57.897 92.3532 58.594 93.1759C58.8131 93.434 58.7807 93.8218 58.5234 94.0415C58.4087 94.1373 58.2676 94.186 58.1279 94.186ZM38.5333 93.6669C38.3451 93.6669 38.1598 93.5799 38.0392 93.4163C37.8392 93.1435 37.8981 92.7586 38.1701 92.5581C38.9876 91.955 39.9052 91.4124 40.8977 90.9436C41.2035 90.799 41.5682 90.9303 41.7123 91.237C41.8564 91.5437 41.7255 91.9093 41.4197 92.0538C40.4992 92.4888 39.6493 92.9901 38.8965 93.546C38.7862 93.6286 38.6597 93.6669 38.5333 93.6669ZM20.0797 92.7424C19.7886 92.7424 19.5298 92.533 19.4783 92.2352C19.4592 92.1246 19.4401 92.014 19.4224 91.9034C19.2739 90.9922 19.1666 90.0588 19.1063 89.1314C19.0842 88.7937 19.3386 88.5018 19.6768 88.4782C20.0165 88.4531 20.3061 88.7112 20.3282 89.0503C20.387 89.9394 20.4885 90.8315 20.6311 91.7044C20.6487 91.8105 20.6664 91.9167 20.6855 92.0229C20.7443 92.3561 20.5208 92.6746 20.1885 92.7336C20.1503 92.7395 20.115 92.7424 20.0797 92.7424ZM44.0164 91.0482C43.7488 91.0482 43.5032 90.8713 43.4282 90.6015C43.3371 90.2756 43.5253 89.9365 43.8517 89.8451C44.8707 89.5575 45.9103 89.3526 46.9425 89.2376C47.2792 89.1992 47.5807 89.4425 47.6189 89.7787C47.6557 90.1149 47.4145 90.4186 47.0793 90.457C46.1132 90.5646 45.1383 90.7563 44.184 91.0261C44.1282 91.0409 44.0723 91.0482 44.0164 91.0482ZM53.0564 90.9332C52.9976 90.9332 52.9388 90.9244 52.88 90.9067C51.9831 90.6354 51.0199 90.4629 50.0142 90.3906C49.6775 90.367 49.4231 90.0721 49.4481 89.7345C49.4716 89.3968 49.7657 89.1432 50.1024 89.1668C51.1979 89.2449 52.2507 89.4351 53.2329 89.733C53.5564 89.8303 53.7402 90.1724 53.6431 90.4968C53.5623 90.7622 53.3196 90.9332 53.0564 90.9332ZM19.6753 86.6454C19.6665 86.6454 19.6592 86.6454 19.6503 86.6454C19.3121 86.6321 19.0504 86.3476 19.0637 86.0084C19.1034 84.9792 19.1989 83.9323 19.3445 82.8987C19.3916 82.564 19.6989 82.3296 20.0356 82.3768C20.3708 82.4239 20.6032 82.7351 20.5561 83.0698C20.4164 84.0621 20.3253 85.0677 20.287 86.0556C20.2738 86.3859 20.0032 86.6454 19.6753 86.6454ZM20.5252 80.5911C20.4782 80.5911 20.4297 80.5852 20.3811 80.5735C20.0532 80.4938 19.8503 80.1621 19.9297 79.8333C20.1709 78.835 20.4635 77.8279 20.8002 76.84C20.909 76.5201 21.2575 76.349 21.5766 76.4581C21.8957 76.5673 22.0662 76.9167 21.9574 77.2367C21.6324 78.1892 21.3501 79.1609 21.1178 80.1223C21.0516 80.4024 20.8017 80.5911 20.5252 80.5911ZM22.4941 74.8008C22.4118 74.8008 22.3279 74.7831 22.2471 74.7477C21.9383 74.6106 21.7986 74.2479 21.9354 73.9382C22.35 73.0005 22.8117 72.0627 23.3102 71.1485C23.4719 70.8507 23.8439 70.7415 24.141 70.9037C24.438 71.0659 24.5468 71.439 24.385 71.7368C23.9028 72.6215 23.4557 73.5283 23.0558 74.4351C22.9529 74.6637 22.7294 74.8008 22.4941 74.8008ZM25.4143 69.4322C25.2996 69.4322 25.1835 69.3998 25.0791 69.3319C24.7968 69.1461 24.7174 68.7657 24.9026 68.4826C25.4628 67.6245 26.0672 66.7737 26.698 65.9509C26.9038 65.6826 27.2891 65.6324 27.5567 65.8389C27.8243 66.0453 27.8743 66.4301 27.6685 66.7C27.0553 67.4977 26.4701 68.3248 25.9275 69.1565C25.8099 69.3349 25.6143 69.4322 25.4143 69.4322ZM29.133 64.5826C28.9874 64.5826 28.8418 64.531 28.7257 64.4263C28.4742 64.2007 28.4522 63.8129 28.6772 63.5593C29.3579 62.7955 30.0799 62.042 30.821 61.3195C31.0636 61.0836 31.4503 61.0895 31.6856 61.3328C31.9209 61.5761 31.915 61.9639 31.6724 62.1998C30.9519 62.9017 30.252 63.633 29.5888 64.3762C29.4682 64.5133 29.3021 64.5826 29.133 64.5826ZM33.5089 60.3198C33.3354 60.3198 33.1619 60.2461 33.0413 60.1031C32.8237 59.845 32.856 59.4573 33.1134 59.239C33.8927 58.577 34.7102 57.9312 35.541 57.3163C35.813 57.1158 36.1953 57.1733 36.3968 57.4461C36.5967 57.7188 36.5394 58.1037 36.2674 58.3042C35.4587 58.9014 34.6632 59.531 33.9044 60.1753C33.7883 60.2712 33.6486 60.3198 33.5089 60.3198Z" fill="#2ED0FA"/>
<path d="M99.2021 99.8079C99.1595 99.8079 99.1154 99.8034 99.0727 99.7931C98.7419 99.7209 98.5331 99.395 98.6037 99.0633C98.7948 98.1771 98.8742 97.6536 98.8831 97.5961C98.933 97.2614 99.2448 97.0299 99.5786 97.0801C99.9123 97.1302 100.143 97.4428 100.093 97.7775C100.078 97.8763 99.9947 98.4174 99.7991 99.3228C99.7374 99.6118 99.4844 99.8079 99.2021 99.8079Z" fill="#2ED0FA"/>
<path opacity="0.2" d="M54.9336 70.0733C62.7068 62.2785 62.7068 49.6405 54.9336 41.8456C47.1603 34.0508 34.5574 34.0508 26.7841 41.8456C19.0109 49.6405 19.0109 62.2785 26.7841 70.0733C34.5574 77.8682 47.1603 77.8682 54.9336 70.0733Z" fill="#4076A3"/>
<path d="M57.0216 67.8443C64.7948 60.0495 64.7948 47.4115 57.0216 39.6166C49.2483 31.8218 36.6454 31.8218 28.8721 39.6166C21.0989 47.4115 21.0989 60.0495 28.8721 67.8443C36.6454 75.6392 49.2483 75.6392 57.0216 67.8443Z" fill="#2ED0FA"/>
<path d="M51.7184 51.7727C52.5991 51.7727 53.3196 51.0502 53.3196 50.1669V50.0888C53.3196 49.2056 52.5991 48.4831 51.7184 48.4831H48.0512L48.4188 44.7511C48.5055 43.8753 47.838 43.1587 46.9366 43.1587C46.0352 43.1587 45.2265 43.8753 45.1398 44.7511L44.7722 48.4831H41.2844L41.652 44.7511C41.7387 43.8753 41.0712 43.1587 40.1698 43.1587C39.2684 43.1587 38.4597 43.8753 38.373 44.7511L38.0054 48.4831H34.1764C33.2957 48.4831 32.5752 49.2056 32.5752 50.0888V50.1669C32.5752 51.0502 33.2957 51.7727 34.1764 51.7727H37.6819L37.3378 55.2702H34.1779C33.2971 55.2702 32.5766 55.9927 32.5766 56.8759V56.954C32.5766 57.8373 33.2971 58.5597 34.1779 58.5597H37.0143L36.6055 62.709C36.5188 63.5848 37.1864 64.3014 38.0877 64.3014C38.9891 64.3014 39.7978 63.5848 39.8845 62.709L40.2933 58.5597H43.7811L43.3723 62.709C43.2856 63.5848 43.9531 64.3014 44.8545 64.3014C45.7559 64.3014 46.5646 63.5848 46.6513 62.709L47.0601 58.5597H51.7198C52.6006 58.5597 53.3211 57.8373 53.3211 56.954V56.8759C53.3211 55.9927 52.6006 55.2702 51.7198 55.2702H47.3851L47.7291 51.7727H51.7184ZM44.1031 55.2702H40.6153L40.9594 51.7727H44.4472L44.1031 55.2702Z" fill="white"/>
<path d="M131.811 200C181.662 200 222.073 197.726 222.073 194.92C222.073 192.115 181.662 189.841 131.811 189.841C81.9608 189.841 41.549 192.115 41.549 194.92C41.549 197.726 81.9608 200 131.811 200Z" fill="#B7CAE5"/>
<path d="M63.7654 192.309C63.7654 192.309 63.0508 193.626 63.7654 195.123H64.6373C64.73 195.123 64.8035 195.198 64.8035 195.289V195.733C64.8035 195.826 64.7285 195.9 64.6373 195.9H46.5514C45.7809 195.9 45.1559 195.273 45.1559 194.5V192.927C45.1559 192.154 45.7794 191.529 46.5514 191.529H64.6373C64.73 191.529 64.8035 191.604 64.8035 191.696V192.14C64.8035 192.233 64.7285 192.306 64.6373 192.306H63.7654V192.309Z" fill="#92AFCC"/>
<path d="M63.7653 195.123H46.8189C46.7601 195.123 46.7042 195.116 46.6498 195.102C46.3484 195.027 46.1249 194.754 46.1249 194.427V193.006C46.1249 192.621 46.4352 192.31 46.8189 192.31H63.7668C63.7668 192.31 63.6845 192.461 63.6021 192.721C63.4448 193.225 63.2933 194.135 63.7653 195.123Z" fill="#E2E2E2"/>
<path d="M63.7654 195.123H46.819C46.7601 195.123 46.7043 195.115 46.6499 195.102C46.616 195.021 46.5969 194.931 46.5969 194.838V193.417C46.5969 193.032 46.9072 192.721 47.291 192.721H63.6007C63.4448 193.225 63.2934 194.135 63.7654 195.123Z" fill="white"/>
<path d="M61.8039 179.199C61.8039 179.199 61.0892 180.516 61.8039 182.013H62.6758C62.7684 182.013 62.842 182.088 62.842 182.179V182.623C62.842 182.716 62.767 182.79 62.6758 182.79H44.5898C43.8194 182.79 43.1944 182.163 43.1944 181.391V179.817C43.1944 179.045 43.8179 178.419 44.5898 178.419H62.6758C62.7684 178.419 62.842 178.495 62.842 178.586V179.03C62.842 179.123 62.767 179.196 62.6758 179.196H61.8039V179.199Z" fill="#92AFCC"/>
<path d="M61.8039 182.015H44.856C44.7972 182.015 44.7413 182.007 44.6869 181.994C44.3855 181.919 44.162 181.646 44.162 181.319V179.897C44.162 179.512 44.4722 179.201 44.856 179.201H61.8039C61.8039 179.201 61.7215 179.353 61.6392 179.613C61.4818 180.117 61.3319 181.027 61.8039 182.015Z" fill="#E2E2E2"/>
<path d="M61.8038 182.014H44.856C44.7972 182.014 44.7413 182.007 44.6869 181.994C44.6531 181.913 44.6339 181.823 44.6339 181.73V180.308C44.6339 179.923 44.9442 179.612 45.328 179.612H61.6377C61.4818 180.117 61.3318 181.026 61.8038 182.014Z" fill="white"/>
<path d="M63.0434 183.57C63.0434 183.57 62.3288 184.887 63.0434 186.383H63.9154C64.008 186.383 64.0815 186.459 64.0815 186.55V186.994C64.0815 187.087 64.0065 187.16 63.9154 187.16H45.8294C45.0589 187.16 44.434 186.534 44.434 185.761V184.188C44.434 183.415 45.0574 182.79 45.8294 182.79H63.9154C64.008 182.79 64.0815 182.865 64.0815 182.957V183.4C64.0815 183.493 64.0065 183.567 63.9154 183.567H63.0434V183.57Z" fill="#166AFF"/>
<path d="M63.0434 186.383H46.0955C46.0367 186.383 45.9808 186.376 45.9264 186.363C45.625 186.287 45.4015 186.015 45.4015 185.687V184.266C45.4015 183.881 45.7117 183.57 46.0955 183.57H63.0434C63.0434 183.57 62.961 183.722 62.8787 183.981C62.7228 184.485 62.5714 185.395 63.0434 186.383Z" fill="#E2E2E2"/>
<path d="M63.0434 186.383H46.0955C46.0367 186.383 45.9808 186.376 45.9264 186.363C45.8926 186.282 45.8735 186.192 45.8735 186.099V184.677C45.8735 184.293 46.1838 183.981 46.5675 183.981H62.8773C62.7229 184.486 62.5714 185.395 63.0434 186.383Z" fill="white"/>
<path d="M61.6009 187.94C61.6009 187.94 60.8863 189.257 61.6009 190.753H62.4729C62.5655 190.753 62.6391 190.829 62.6391 190.92V191.364C62.6391 191.457 62.5641 191.531 62.4729 191.531H44.3869C43.6164 191.531 42.9915 190.904 42.9915 190.131V188.558C42.9915 187.785 43.615 187.16 44.3869 187.16H62.4729C62.5655 187.16 62.6391 187.235 62.6391 187.327V187.771C62.6391 187.863 62.5641 187.937 62.4729 187.937H61.6009V187.94Z" fill="#B7CAE5"/>
<path d="M61.6009 190.754H44.6545C44.5957 190.754 44.5399 190.746 44.4854 190.733C44.184 190.658 43.9605 190.385 43.9605 190.058V188.636C43.9605 188.252 44.2708 187.94 44.6545 187.94H61.6024C61.6024 187.94 61.5201 188.092 61.4377 188.352C61.2804 188.856 61.1304 189.766 61.6009 190.754Z" fill="#E2E2E2"/>
<path d="M61.6009 190.753H44.6545C44.5957 190.753 44.5398 190.746 44.4854 190.733C44.4516 190.652 44.4325 190.562 44.4325 190.469V189.048C44.4325 188.663 44.7428 188.352 45.1265 188.352H61.4362C61.2804 188.856 61.1304 189.766 61.6009 190.753Z" fill="white"/>
<path opacity="0.2" d="M170.637 153.555C179.452 141.945 184.55 127.113 184.006 111.011C182.865 77.253 156.564 49.795 124.264 48.6464C88.5961 47.3783 59.385 77.6393 60.1746 114.823C60.904 149.19 87.7374 177.259 120.619 178.076C128.094 178.262 135.268 177.039 141.941 174.681L172.233 187.39C174.925 188.52 177.723 186.025 177.069 183.07C175.393 175.519 172.696 163.276 170.637 153.555Z" fill="#4076A3"/>
<path d="M174.426 149.295C183.242 138.157 188.339 123.925 187.795 108.478C186.654 76.0895 160.353 49.7462 128.053 48.6448C92.3853 47.4283 63.1742 76.4611 63.9639 112.136C64.6932 145.109 91.5266 172.039 124.408 172.822C131.883 173 139.057 171.828 145.73 169.566L176.022 181.759C178.714 182.843 181.512 180.448 180.857 177.614C179.182 170.368 176.485 158.623 174.426 149.295Z" fill="#FCFCFC"/>
<path d="M124.525 95.1797H88.4226C86.7845 95.1797 85.4435 93.835 85.4435 92.1924C85.4435 90.5498 86.7845 89.2051 88.4226 89.2051H124.525C126.163 89.2051 127.504 90.5498 127.504 92.1924C127.504 93.835 126.163 95.1797 124.525 95.1797Z" fill="#5693DB"/>
<path d="M110.536 107.533H88.4226C86.7845 107.533 85.4435 106.188 85.4435 104.545C85.4435 102.903 86.7845 101.558 88.4226 101.558H110.536C112.174 101.558 113.515 102.903 113.515 104.545C113.514 106.189 112.174 107.533 110.536 107.533Z" fill="#5693DB"/>
<path d="M168.21 107.533H119.155C117.517 107.533 116.176 106.188 116.176 104.545C116.176 102.903 117.517 101.558 119.155 101.558H168.21C169.848 101.558 171.189 102.903 171.189 104.545C171.187 106.189 169.848 107.533 168.21 107.533Z" fill="#5693DB"/>
<path d="M124.525 119.888H88.4226C86.7845 119.888 85.4435 118.543 85.4435 116.9C85.4435 115.258 86.7845 113.913 88.4226 113.913H124.525C126.163 113.913 127.504 115.258 127.504 116.9C127.504 118.543 126.163 119.888 124.525 119.888Z" fill="#5693DB"/>
<path d="M168.21 119.888H132.829C131.191 119.888 129.85 118.543 129.85 116.9C129.85 115.258 131.191 113.913 132.829 113.913H168.21C169.848 113.913 171.189 115.258 171.189 116.9C171.187 118.543 169.848 119.888 168.21 119.888Z" fill="#5693DB"/>
<path d="M115.138 132.243H88.4226C86.7845 132.243 85.4435 130.898 85.4435 129.255C85.4435 127.613 86.7845 126.268 88.4226 126.268H115.138C116.776 126.268 118.117 127.613 118.117 129.255C118.117 130.898 116.776 132.243 115.138 132.243Z" fill="#5693DB"/>
<path d="M150.474 132.243H123.758C122.12 132.243 120.779 130.898 120.779 129.255C120.779 127.613 122.12 126.268 123.758 126.268H150.474C152.112 126.268 153.453 127.613 153.453 129.255C153.453 130.898 152.112 132.243 150.474 132.243Z" fill="#5693DB"/>
<path opacity="0.2" d="M177.972 36.0201C156.521 36.7662 139.056 54.5854 138.299 76.4963C137.937 86.946 141.322 96.573 147.177 104.109C145.809 110.418 144.018 118.365 142.907 123.266C142.472 125.183 144.33 126.803 146.118 126.07L166.233 117.822C170.665 119.352 175.429 120.146 180.393 120.025C202.229 119.495 220.047 101.278 220.532 78.972C221.054 54.8375 201.657 35.1973 177.972 36.0201Z" fill="#4076A3"/>
<path d="M151.815 101.348C145.961 93.9501 142.575 84.5 142.936 74.242C143.694 52.7336 161.16 35.2402 182.609 34.5089C206.296 33.7009 225.694 52.9813 225.169 76.672C224.683 98.5682 206.865 116.451 185.03 116.971C180.065 117.089 175.301 116.311 170.87 114.81L150.754 122.906C148.966 123.626 147.108 122.036 147.543 120.153C148.656 115.342 150.449 107.542 151.815 101.348Z" fill="#166AFF"/>
<path d="M182.622 66.3034H159.858C158.824 66.3034 157.98 65.4556 157.98 64.4205C157.98 63.3854 158.825 62.5376 159.858 62.5376H182.622C183.656 62.5376 184.5 63.3854 184.5 64.4205C184.502 65.4571 183.656 66.3034 182.622 66.3034Z" fill="white"/>
<path d="M173.802 74.0945H159.858C158.824 74.0945 157.98 73.2466 157.98 72.2115C157.98 71.175 158.825 70.3286 159.858 70.3286H173.802C174.835 70.3286 175.679 71.1764 175.679 72.2115C175.679 73.2466 174.834 74.0945 173.802 74.0945Z" fill="white"/>
<path d="M210.169 74.0945H179.238C178.204 74.0945 177.36 73.2466 177.36 72.2115C177.36 71.175 178.205 70.3286 179.238 70.3286H210.169C211.203 70.3286 212.047 71.1764 212.047 72.2115C212.047 73.2466 211.201 74.0945 210.169 74.0945Z" fill="white"/>
<path d="M182.622 81.884H159.858C158.824 81.884 157.98 81.0362 157.98 80.0011C157.98 78.9645 158.825 78.1182 159.858 78.1182H182.622C183.656 78.1182 184.5 78.966 184.5 80.0011C184.502 81.0362 183.656 81.884 182.622 81.884Z" fill="white"/>
<path d="M210.169 81.884H187.859C186.825 81.884 185.981 81.0362 185.981 80.0011C185.981 78.9645 186.826 78.1182 187.859 78.1182H210.169C211.203 78.1182 212.047 78.966 212.047 80.0011C212.047 81.0362 211.201 81.884 210.169 81.884Z" fill="white"/>
<path d="M176.704 89.6741H159.858C158.824 89.6741 157.98 88.8262 157.98 87.7911C157.98 86.7546 158.825 85.9082 159.858 85.9082H176.704C177.736 85.9082 178.582 86.756 178.582 87.7911C178.582 88.8277 177.736 89.6741 176.704 89.6741Z" fill="white"/>
<path d="M198.985 89.6741H182.139C181.106 89.6741 180.261 88.8262 180.261 87.7911C180.261 86.7546 181.106 85.9082 182.139 85.9082H198.985C200.019 85.9082 200.863 86.756 200.863 87.7911C200.863 88.8277 200.019 89.6741 198.985 89.6741Z" fill="white"/>
<path d="M100.089 148.921C99.1683 151.075 82.291 147.998 78.6091 148.921C76.9975 149.323 75.0654 148.875 73.4774 147.765C73.1818 147.557 72.8966 147.327 72.6275 147.072C71.0468 145.589 70.0352 143.349 70.4778 140.612C71.3982 134.919 75.0801 123.38 81.6778 121.534C81.6778 121.534 94.5659 119.071 95.7937 132.303C97.02 145.537 101.009 146.767 100.089 148.921Z" fill="#1F3A6F"/>
<path d="M74.8772 139.317C74.8405 139.485 73.8979 143.68 73.4759 147.766C73.1804 147.558 72.8951 147.328 72.626 147.073C72.9892 144.867 73.7185 141.305 74.8772 139.317Z" fill="#15315E"/>
<path d="M78.6341 143.776C78.6341 143.776 78.0018 150.111 78.3179 151.495C78.6341 152.88 77.3401 151.034 77.3401 151.034C77.3401 151.034 77.5607 148.598 78.6341 143.776Z" fill="#15315E"/>
<path d="M93.2867 139.764C93.2867 139.764 94.2939 148.15 93.119 152.033C91.9442 155.919 95.5496 152.956 95.5496 152.956L93.2867 139.764Z" fill="#15315E"/>
<path d="M90.0268 149.702C90.1797 149.61 91.7913 144.559 91.753 142.584C91.7148 140.609 92.0604 148.648 91.1399 150.533C90.2179 152.418 90.0268 149.702 90.0268 149.702Z" fill="#15315E"/>
<path d="M78.3665 135.032C78.3282 135.186 77.7445 141.833 82.0072 143.932C86.2684 146.032 91.7927 143.339 91.5619 137.416C91.331 131.493 78.3665 135.032 78.3665 135.032Z" fill="#15315E"/>
<path d="M83.9719 193.473C94.6375 193.348 103.246 189.982 103.199 185.955C103.152 181.927 94.4673 178.764 83.8017 178.889C73.1361 179.014 64.528 182.381 64.575 186.408C64.622 190.435 73.3062 193.598 83.9719 193.473Z" fill="#072542"/>
<path d="M88.7917 185.851C88.7917 185.851 92.1677 177.184 95.3894 177.236C98.611 177.287 105.004 177.364 104.8 178.685C104.596 180.006 96.2084 185.031 95.3894 185.288C94.5718 185.543 88.7917 185.851 88.7917 185.851Z" fill="#072542"/>
<path d="M69.8823 182.478C69.9249 181.902 69.6514 174.799 78.4356 175.351C87.2198 175.902 98.8272 176.115 98.4507 179.201C98.0743 182.287 90.9399 188.402 86.9125 188.287C82.885 188.17 69.7573 184.145 69.8823 182.478Z" fill="#072542"/>
<path d="M74.5964 177.029C73.8979 177.331 73.2156 177.53 72.5584 177.654C68.6868 178.381 65.6975 176.406 65.6975 176.406C65.6975 176.406 65.6548 176.042 65.6754 175.519C65.7225 174.291 66.1209 172.189 68.2545 171.902C71.2982 171.489 74.5964 177.029 74.5964 177.029Z" fill="#FDC8AA"/>
<path d="M101.403 177.538C101.403 177.538 99.8535 178.702 96.1834 179.145C96.0731 179.156 95.9613 179.17 95.8452 179.182C91.9324 179.593 97.3023 172.619 97.3023 172.619C97.3023 172.619 101.521 171.464 102.034 172.619C102.141 172.859 102.215 173.179 102.256 173.542C102.418 174.922 102.119 176.926 101.403 177.538Z" fill="#FDC8AA"/>
<path d="M104.059 175.805C104.059 175.805 102.572 177.25 101.403 177.538C101.403 177.538 101.577 177.157 101.708 176.613C102 175.385 102.072 173.319 99.4433 172.853C99.2301 172.815 98.9977 172.787 98.7463 172.772C98.7463 172.772 99.4653 172.192 99.0257 170.538C98.5919 168.91 96.0746 160.815 95.9966 160.563L95.9952 160.557C95.9952 160.557 95.9966 160.562 95.9966 160.571L95.9996 160.587C96.0437 160.902 96.3554 163.552 94.4821 166.143C94.4821 166.143 96.8157 177.716 94.3263 178.014C91.9869 178.294 84.9965 179.382 75.4477 177.986C74.839 177.896 74.217 177.799 73.5862 177.688C73.5862 177.688 73.8127 175.37 74.3067 173.52C74.8008 171.672 75.3184 168.806 73.4304 162.49C73.4289 162.489 73.4289 162.487 73.4289 162.487C73.4289 162.487 70.6013 168.648 70.3866 173.198C70.3866 173.198 67.1782 172.088 65.696 176.405C65.696 176.405 63.0508 175.814 64.3344 171.116C65.6196 166.415 66.6297 163.608 66.6239 160.357C66.618 157.107 68.3089 152.875 69.4367 152.036C70.5645 151.199 72.2629 149.36 75.7301 149.465C79.1987 149.568 92.3206 148.363 92.3206 148.363C92.3206 148.363 97.0539 148.026 98.4654 149.97C99.8756 151.915 101.358 154.282 102.288 158.635C102.825 161.149 104.29 165.684 104.878 169.53C105.31 172.344 105.272 174.789 104.059 175.805Z" fill="#166AFF"/>
<path d="M93.1191 148.341C93.1191 148.341 92.4883 154.339 86.242 155.102C79.9957 155.865 76.3785 152.237 75.7315 149.465C75.7315 149.465 79.6193 149.425 82.091 143.741C82.2484 143.379 82.4013 142.993 82.5454 142.583C84.9627 135.746 87.411 142.24 87.411 142.24C87.411 142.24 87.7594 143.726 88.8167 145.256C89.7136 146.561 90.9752 147.857 93.1191 148.341Z" fill="#FDC8AA"/>
<path d="M88.8166 145.259C85.595 145.343 83.4423 144.549 82.0925 143.742C82.2498 143.381 82.4027 142.994 82.5468 142.585C84.9642 135.747 87.4124 142.241 87.4124 142.241C87.4124 142.241 87.7594 143.727 88.8166 145.259Z" fill="#FBB188"/>
<path d="M92.375 135.32C92.375 138.558 90.6091 141.345 88.0741 142.585C87.2242 143.004 86.2861 143.247 85.2994 143.272C85.2377 143.275 85.1744 143.275 85.1127 143.275C81.1014 143.275 77.8504 139.713 77.8504 135.319C77.8504 130.925 81.1014 127.362 85.1127 127.362C87.0963 127.362 88.8931 128.235 90.2047 129.648C91.5457 131.09 92.375 133.1 92.375 135.32Z" fill="#FDC8AA"/>
<path d="M92.375 135.32C92.375 138.558 90.609 141.345 88.0741 142.585C91.9442 140.415 91.0957 133.626 90.2047 129.649C91.5457 131.09 92.375 133.1 92.375 135.32Z" fill="#FBB188"/>
<path d="M77.3401 130.851C77.3401 130.851 87.6712 135.147 92.8882 132.332C98.1052 129.518 87.1595 122.526 82.8644 125.662C78.5679 128.8 77.3401 130.851 77.3401 130.851Z" fill="#1F3A6F"/>
<path d="M90.1988 191.729C90.2135 192.476 90.8767 192.857 91.6207 193.123C91.7619 193.171 91.906 193.219 92.0486 193.261C92.353 193.354 92.65 193.434 92.9073 193.517C93.9307 193.848 95.0409 194.729 95.082 194.798C95.1056 194.836 95.7922 195.01 96.5524 195.054C97.1465 195.088 97.7846 195.046 98.1772 194.798C98.7375 194.444 99.2874 191.85 99.6035 189.908C99.7932 188.749 99.8991 187.824 99.8755 187.747C99.8755 187.747 99.2565 187.707 98.3551 187.663C97.9258 187.641 97.4317 187.619 96.9083 187.599C95.7981 187.557 94.5556 187.529 93.5337 187.551C92.6338 187.57 91.903 187.626 91.5795 187.748C91.2252 187.882 90.9575 188.171 90.7576 188.543C90.2665 189.46 90.1812 190.885 90.1988 191.729Z" fill="#ECF3FE"/>
<path d="M99.9667 170.68C99.8256 171.625 99.6388 172.328 99.4418 172.851C99.2286 172.813 98.9963 172.785 98.7448 172.77C98.7448 172.77 99.4638 172.191 99.0242 170.536C98.5904 168.909 96.0731 160.814 95.9952 160.562L95.9937 160.556C95.9952 160.557 100.478 167.242 99.9667 170.68Z" fill="#E59D29"/>
<path d="M75.4477 177.987C74.839 177.897 74.217 177.8 73.5862 177.689C73.5862 177.689 73.8126 175.371 74.3067 173.521C74.8007 171.673 75.3183 168.807 73.4303 162.492C73.545 162.642 78.2238 169.002 75.4477 177.987Z" fill="#E59D29"/>
<path d="M68.7956 177.182C68.7956 177.182 58.0028 174.363 56.2398 177.465C54.4768 180.567 55.3443 183.696 58.169 185.675C60.9936 187.654 63.733 192.011 88.3828 190.752L89.3592 186.594C89.3592 186.594 76.9519 183.593 71.3468 180.824V178.108C71.3453 178.108 70.8409 177.642 68.7956 177.182Z" fill="#1B345E"/>
<path d="M82.2454 188.953L73.3716 190.196C73.3716 190.196 73.6789 195.223 73.7686 195.223C73.8583 195.223 85.5568 192.735 85.5568 192.735L82.2454 188.953Z" fill="#FDC8AA"/>
<path d="M96.5524 195.056C97.1465 195.09 97.7846 195.047 98.1772 194.8C99.0712 194.235 99.9417 187.954 99.8755 187.749C99.8755 187.749 99.2565 187.709 98.3551 187.665C98.0287 190.093 97.0421 193.471 96.5524 195.056Z" fill="#9FB8D6"/>
<path d="M70.6307 196.268C70.7027 196.414 71.4291 196.451 72.1011 196.335C72.5098 196.264 72.8995 196.136 73.1112 195.941C73.6744 195.421 76.9225 195.033 76.9225 195.033C76.9225 195.033 77.0578 194.959 77.2637 194.82C77.9812 194.335 79.5487 193.054 79.0708 191.363C78.4576 189.189 75.7344 189.208 75.5992 189.208C75.5992 189.208 73.8729 188.765 73.4891 188.458C73.3862 188.375 73.1701 188.322 72.901 188.297C72.6187 188.272 72.2775 188.278 71.9482 188.318C71.4188 188.378 70.9174 188.523 70.7262 188.747C70.3042 189.248 70.516 196.037 70.6307 196.268Z" fill="#ECF3FE"/>
<path opacity="0.5" d="M90.1988 191.729C90.2135 192.476 90.8767 192.857 91.6207 193.123C91.7619 193.171 91.906 193.219 92.0486 193.261L99.6035 189.908C99.7932 188.749 99.8991 187.824 99.8755 187.747C99.8755 187.747 99.2565 187.707 98.3551 187.663C97.9258 187.641 97.4317 187.619 96.9083 187.599C95.7981 187.557 94.5556 187.529 93.5337 187.551C92.6338 187.57 91.903 187.626 91.5795 187.748C91.2252 187.882 90.9575 188.171 90.7576 188.543C90.2665 189.46 90.1812 190.885 90.1988 191.729Z" fill="#587189"/>
<path d="M94.8262 177.902C95.0306 177.798 106.431 173.086 109.86 173.186C113.289 173.285 116.44 179.923 112.665 182.963C108.891 186.004 96.348 190.553 82.6218 194.92C82.6218 194.92 80.1707 192.08 79.5046 188.875C79.5046 188.875 92.772 183.195 95.3805 181.542L94.8262 177.902Z" fill="#1F3A6F"/>
<path d="M70.6307 196.268C70.7027 196.414 71.4291 196.451 72.1011 196.335C72.5098 196.264 72.8995 196.136 73.1112 195.941C73.6744 195.421 76.9225 195.033 76.9225 195.033C76.9225 195.033 77.0578 194.959 77.2637 194.82C72.2819 194.66 72.6216 189.972 72.9024 188.299C72.6201 188.274 72.279 188.28 71.9496 188.319C71.4203 188.38 70.9189 188.524 70.7277 188.748C70.3042 189.248 70.516 196.037 70.6307 196.268Z" fill="#D7E3F4"/>
<path d="M70.6307 196.268C70.7027 196.414 71.4291 196.451 72.1011 196.334C71.9584 195.604 71.782 194.58 71.6511 193.443C71.4467 191.662 71.7982 189.227 71.9467 188.317C71.4173 188.378 70.9159 188.522 70.7248 188.746C70.3042 189.248 70.516 196.036 70.6307 196.268Z" fill="#9FB8D6"/>
<path d="M99.4829 166.33V180.031C99.4829 181.047 98.6551 181.877 97.642 181.877H71.4717C70.9718 181.877 70.5175 181.675 70.1851 181.348C69.844 181.013 69.6308 180.544 69.6308 180.031V166.33C69.6308 165.314 70.4586 164.484 71.4717 164.484H97.642C98.1272 164.484 98.5698 164.674 98.8992 164.987C99.2594 165.321 99.4829 165.801 99.4829 166.33Z" fill="#869FB7"/>
<path d="M73.1115 168.224C73.5364 167.798 73.5365 167.107 73.1115 166.681C72.6866 166.255 71.9977 166.255 71.5727 166.681C71.1478 167.107 71.1478 167.798 71.5727 168.224C71.9977 168.65 72.6866 168.65 73.1115 168.224Z" fill="#495A70"/>
<path d="M99.4829 166.33V180.031C99.4829 181.047 98.6551 181.877 97.642 181.877H71.4718C70.9718 181.877 70.5175 181.675 70.1852 181.348C90.0033 179.424 96.6671 170.866 98.8992 164.987C99.2594 165.322 99.4829 165.801 99.4829 166.33Z" fill="#728DA3"/>
<path d="M54.6356 170.493L54.6091 170.78C54.6091 170.78 54.6091 170.782 54.6091 170.786L54.4753 172.346L54.3827 173.417L54.1901 175.621L53.9475 178.422H49.6921L49.4495 175.621L49.1642 172.346L49.0304 170.78L49.004 170.493H54.6356Z" fill="white"/>
<path d="M54.6518 172.346L54.5445 173.493L54.346 175.621H49.2966L48.9908 172.346H54.6518Z" fill="#166AFF"/>
<path d="M54.4209 169.745V169.673C54.4209 169.267 54.0945 168.94 53.6902 168.94H49.9509C49.5466 168.94 49.2201 169.267 49.2201 169.673V169.745H48.6614V170.779H49.2201H54.4209H54.9797V169.745H54.4209Z" fill="#1F3A6F"/>
<path opacity="0.2" d="M54.6518 172.346L54.546 173.495C54.496 173.471 54.443 173.445 54.3842 173.417C53.8681 173.166 53.0462 172.763 52.2007 172.346C50.6567 171.585 49.032 170.78 49.032 170.78H54.6107C54.6107 170.78 54.6107 170.782 54.6107 170.786L54.4769 172.346H54.6518Z" fill="#A8A8A8"/>
<path d="M130.027 38.6334C132.312 36.3422 132.312 32.6275 130.027 30.3363C127.742 28.0451 124.038 28.0451 121.753 30.3363C119.468 32.6275 119.468 36.3422 121.753 38.6334C124.038 40.9246 127.742 40.9246 130.027 38.6334Z" fill="#F4B545"/>
<path d="M210.671 149.523C211.312 146.801 209.632 144.074 206.918 143.432C204.204 142.789 201.484 144.474 200.843 147.196C200.202 149.917 201.883 152.644 204.597 153.287C207.311 153.93 210.031 152.244 210.671 149.523Z" fill="#F4B545"/>
<path d="M227.973 172.534C229.339 172.534 230.447 171.423 230.447 170.053C230.447 168.682 229.339 167.571 227.973 167.571C226.606 167.571 225.498 168.682 225.498 170.053C225.498 171.423 226.606 172.534 227.973 172.534Z" fill="#B7CAE5"/>
<path d="M157.98 7.22501C159.97 7.22501 161.583 5.60763 161.583 3.6125C161.583 1.61737 159.97 0 157.98 0C155.99 0 154.378 1.61737 154.378 3.6125C154.378 5.60763 155.99 7.22501 157.98 7.22501Z" fill="#B7CAE5"/>
<path d="M252.057 82.0722C254.235 79.8887 254.235 76.3486 252.057 74.1651C249.88 71.9816 246.35 71.9816 244.172 74.1651C241.995 76.3486 241.995 79.8887 244.172 82.0722C246.35 84.2557 249.88 84.2557 252.057 82.0722Z" fill="#F4B545"/>
<path d="M60.1405 15.4935C60.6338 12.4454 58.5696 9.57332 55.5299 9.07863C52.4902 8.58393 49.6262 10.6539 49.1328 13.7021C48.6395 16.7502 50.7037 19.6222 53.7434 20.1169C56.7831 20.6116 59.6472 18.5416 60.1405 15.4935Z" fill="#B7CAE5"/>
<path d="M8.36249 101.928C9.90198 100.384 9.90198 97.8809 8.36249 96.3371C6.823 94.7933 4.32699 94.7933 2.7875 96.3371C1.248 97.8809 1.248 100.384 2.7875 101.928C4.32699 103.471 6.823 103.471 8.36249 101.928Z" fill="#B7CAE5"/>
</svg>
