<svg width="30" height="30" viewBox="0 0 30 30" fill="none" xmlns="http://www.w3.org/2000/svg">
<path d="M25.4288 4.2637C22.1438 1.04049 17.6239 -0.466147 13.0175 0.126627C6.48466 0.966391 1.11264 6.32606 0.24818 12.8589C-0.282848 16.8972 0.791556 20.8614 3.26145 24.0352V27.4437C3.26145 28.3328 3.71838 29.1479 4.4717 29.6172C4.87923 29.8642 5.33616 30 5.81779 30C6.21298 30 6.60816 29.9012 6.96629 29.7283L9.2386 28.5922C11.6838 29.6172 14.3513 29.9753 16.9817 29.6295C23.6628 28.7404 29.0472 23.2448 29.7881 16.5761C30.3068 11.9698 28.7137 7.48691 25.4288 4.2637ZM27.3306 16.3044C26.7131 21.8617 22.2179 26.431 16.6483 27.1843C14.2895 27.4931 11.8937 27.1226 9.72023 26.1099C9.37444 25.9494 8.97926 25.9494 8.64582 26.1223L5.85484 27.5178C5.83014 27.5301 5.80544 27.5301 5.76839 27.5178C5.73135 27.4931 5.73135 27.4684 5.73135 27.4437V23.603C5.73135 23.3189 5.63255 23.0349 5.44731 22.8126C3.21205 20.1204 2.23644 16.6996 2.69338 13.1924C3.40964 7.74625 7.8925 3.28809 13.3386 2.58417C13.8943 2.49773 14.4377 2.46068 14.9935 2.46068C18.2537 2.46068 21.3658 3.72032 23.6998 6.01733C26.4414 8.70951 27.7628 12.4637 27.3306 16.3044Z" fill="url(#paint0_linear_63_8)"/>
<path d="M21.3287 10.6606L17.4015 13.4393C17.2287 13.5381 17.0187 13.5257 16.8582 13.4146L13.6226 10.9817C13.425 10.8335 13.1657 10.7841 12.931 10.8335C12.684 10.8829 12.4865 11.0311 12.363 11.2287L7.53432 18.1074C7.33672 18.4408 7.38612 18.836 7.65781 19.12C7.81835 19.2929 8.04064 19.3917 8.26293 19.3917C8.39878 19.3917 8.54697 19.3547 8.69517 19.2806L12.647 16.255C12.7952 16.1809 12.9804 16.1932 13.1163 16.2797L17.4262 18.8607C17.6238 18.9842 17.8708 19.0212 18.1055 18.9471C18.3401 18.8854 18.5253 18.7249 18.6241 18.5149L22.5266 11.7721C22.6995 11.4263 22.6254 11.0311 22.3413 10.7594C22.0573 10.4878 21.6621 10.4507 21.3287 10.6606ZM7.68251 18.8236C7.59606 18.6384 7.58371 18.4161 7.70721 18.1938C7.57136 18.4161 7.58371 18.6384 7.68251 18.8236Z" fill="url(#paint1_linear_63_8)"/>
<defs>
<linearGradient id="paint0_linear_63_8" x1="15" y1="0" x2="15" y2="30" gradientUnits="userSpaceOnUse">
<stop stop-color="#166AFF"/>
<stop offset="1" stop-color="#2ED0FA"/>
</linearGradient>
<linearGradient id="paint1_linear_63_8" x1="15" y1="0" x2="15" y2="30" gradientUnits="userSpaceOnUse">
<stop stop-color="#166AFF"/>
<stop offset="1" stop-color="#2ED0FA"/>
</linearGradient>
</defs>
</svg>
