<svg width="66" height="60" viewBox="0 0 66 60" fill="none" xmlns="http://www.w3.org/2000/svg">
<path opacity="0.3" d="M45.7975 60H20.2098C17.5875 60 15.1551 58.5851 13.8548 56.3097L0.947762 33.5991C-0.315921 31.382 -0.315921 28.618 0.947762 26.4009L13.8548 3.69758C15.1477 1.41485 17.5875 0 20.2098 0H45.7975C48.4198 0 50.8596 1.41485 52.1525 3.69758L65.0522 26.4009C66.3159 28.618 66.3159 31.382 65.0522 33.5991L52.1525 56.3097C50.8522 58.5851 48.4198 60 45.7975 60ZM1.59056 26.7582C0.458359 28.7565 0.458359 31.2362 1.59056 33.2345L14.4976 55.9451C15.6664 57.9944 17.8504 59.2707 20.2171 59.2707H45.8048C48.1642 59.2707 50.3555 57.9944 51.5243 55.9451L64.4314 33.2345C65.5636 31.2362 65.5636 28.7565 64.4314 26.7582L51.517 4.05494C50.3482 2.00559 48.1569 0.729306 45.7975 0.729306H20.2098C17.8504 0.729306 15.6591 2.00559 14.4903 4.05494L1.59056 26.7582Z" fill="#166AFF"/>
</svg>
