<svg width="24" height="24" viewBox="0 0 24 24" fill="none" xmlns="http://www.w3.org/2000/svg">
<path d="M20.2532 3.41096C17.6252 0.832391 14.0093 -0.372918 10.3242 0.101302C5.09788 0.773113 0.800264 5.06085 0.108694 10.2871C-0.316128 13.5178 0.543395 16.6891 2.51931 19.2282V21.9549C2.51931 22.6663 2.88486 23.3183 3.48751 23.6937C3.81354 23.8913 4.17908 24 4.56438 24C4.88053 24 5.19668 23.921 5.48318 23.7826L7.30103 22.8737C9.25718 23.6937 11.3912 23.9802 13.4955 23.7036C18.8404 22.9923 23.1479 18.5959 23.7406 13.2609C24.1556 9.57582 22.8811 5.98953 20.2532 3.41096ZM21.7746 13.0435C21.2806 17.4894 17.6845 21.1448 13.2288 21.7475C11.3418 21.9944 9.42514 21.6981 7.68633 20.8879C7.4097 20.7595 7.09356 20.7595 6.82681 20.8978L4.59402 22.0142C4.57426 22.0241 4.5545 22.0241 4.52486 22.0142C4.49523 21.9944 4.49523 21.9747 4.49523 21.9549V18.8824C4.49523 18.6551 4.41619 18.4279 4.268 18.2501C2.47979 16.0963 1.69931 13.3597 2.06485 10.5539C2.63787 6.197 6.22415 2.63047 10.581 2.06734C11.0256 1.99818 11.4603 1.96854 11.9049 1.96854C14.5131 1.96854 17.0028 2.97626 18.87 4.81386C21.0633 6.96761 22.1204 9.971 21.7746 13.0435Z" fill="url(#paint0_linear_51_2198)"/>
<path d="M16.9731 8.52852L13.8314 10.7514C13.6931 10.8305 13.5251 10.8206 13.3967 10.7317L10.8082 8.78539C10.6502 8.66683 10.4427 8.62731 10.255 8.66683C10.0574 8.70635 9.89931 8.82491 9.80052 8.98298L5.9376 14.4859C5.77953 14.7527 5.81905 15.0688 6.0364 15.296C6.16483 15.4343 6.34266 15.5134 6.5205 15.5134C6.62917 15.5134 6.74773 15.4837 6.86628 15.4245L10.0277 13.004C10.1463 12.9447 10.2945 12.9546 10.4032 13.0237L13.8511 15.0886C14.0092 15.1874 14.2068 15.217 14.3945 15.1577C14.5822 15.1083 14.7304 14.9799 14.8095 14.8119L17.9314 9.41768C18.0697 9.14105 18.0104 8.82491 17.7832 8.60755C17.556 8.3902 17.2398 8.36056 16.9731 8.52852ZM6.05616 15.0589C5.987 14.9107 5.97712 14.7329 6.07592 14.5551C5.96724 14.7329 5.97712 14.9107 6.05616 15.0589Z" fill="url(#paint1_linear_51_2198)"/>
<defs>
<linearGradient id="paint0_linear_51_2198" x1="11.9101" y1="0" x2="11.9101" y2="24" gradientUnits="userSpaceOnUse">
<stop stop-color="#166AFF"/>
<stop offset="1" stop-color="#2ED0FA"/>
</linearGradient>
<linearGradient id="paint1_linear_51_2198" x1="11.9101" y1="0" x2="11.9101" y2="24" gradientUnits="userSpaceOnUse">
<stop stop-color="#166AFF"/>
<stop offset="1" stop-color="#2ED0FA"/>
</linearGradient>
</defs>
</svg>
