<svg width="25" height="24" viewBox="0 0 25 24" fill="none" xmlns="http://www.w3.org/2000/svg">
<path d="M23.8195 1.02256C23.5789 0.781955 23.218 0.661654 22.8571 0.781955C21.8947 1.02256 20.812 0.781955 20.0902 0.180451C19.7293 -0.0601504 19.1278 -0.0601504 18.7669 0.180451C17.9248 0.781955 16.9624 0.902256 16 0.781955C15.6391 0.661654 15.2782 0.781955 15.0376 1.02256C14.5564 1.14286 14.3158 1.50376 14.3158 1.86466V5.95489C14.3158 7.7594 15.1579 9.32331 16.6015 10.406L18.5263 11.8496C18.8872 12.2105 19.4887 12.2105 19.9699 11.8496L21.8947 10.406C23.3383 9.32331 24.1804 7.7594 24.1804 5.95489V1.86466C24.3007 1.50376 24.0601 1.14286 23.8195 1.02256ZM21.8947 5.95489C21.8947 6.91729 21.4135 7.7594 20.5714 8.3609L19.3684 9.20301L18.0451 8.3609C17.3233 7.7594 16.8421 6.91729 16.7218 5.95489V3.18797C17.6842 3.18797 18.5263 2.94737 19.3684 2.58647C20.2105 2.94737 21.0526 3.18797 21.8947 3.30827V5.95489ZM20.4511 14.3759C19.8496 14.2556 19.1278 14.6165 19.0075 15.218C18.0451 18.9474 14.6767 21.594 10.8271 21.594H4.09023L4.93233 20.8722C5.41353 20.391 5.41353 19.6692 4.93233 19.188C1.56391 15.9398 1.56391 10.6466 4.81203 7.2782C6.37594 5.71429 8.54135 4.75188 10.8271 4.75188C11.5489 4.75188 12.0301 4.27068 12.0301 3.54887C12.0301 2.82707 11.5489 2.34586 10.8271 2.34586C4.81203 2.34586 0 7.27819 0 13.1729C0 15.5789 0.842105 17.985 2.40601 19.9098L0.360902 21.9549C-0.120301 22.4361 -0.120301 23.1579 0.360902 23.6391C0.601504 23.8797 0.962406 24 1.20301 24H10.8271C15.7594 24 20.0902 20.6316 21.2932 15.8195C21.5338 15.218 21.1729 14.6165 20.4511 14.3759Z" fill="url(#paint0_linear_201_411)"/>
<defs>
<linearGradient id="paint0_linear_201_411" x1="0" y1="0" x2="24" y2="24" gradientUnits="userSpaceOnUse">
<stop stop-color="#166AFF"/>
<stop offset="1" stop-color="#2ED0FA"/>
</linearGradient>
</defs>
</svg>
