<svg width="26" height="24" viewBox="0 0 26 24" fill="none" xmlns="http://www.w3.org/2000/svg">
<path d="M19.3312 13.5154C19.3312 18.3932 15.3626 22.3618 10.4848 22.3618C8.82363 22.3618 7.20466 21.8982 5.80233 21.0213C5.60042 20.8952 5.35018 20.8612 5.11715 20.9361L2.08889 21.9113L3.06404 18.883C3.13776 18.6532 3.10664 18.4026 2.97885 18.1978C2.10199 16.7955 1.63838 15.1765 1.63838 13.5154C1.63838 8.63754 5.60698 4.66894 10.4848 4.66894C11.2244 4.66894 11.9432 4.76068 12.6305 4.9327C12.7754 4.39208 12.9872 3.8785 13.2558 3.40096C12.3733 3.16014 11.4444 3.03072 10.4848 3.03072C4.69039 3.03072 0.00015054 7.72014 0.00015054 13.5154C0.00015054 15.3543 0.479741 17.1506 1.39059 18.7347L0.0394679 22.9298C-0.05473 23.2223 0.0226761 23.5429 0.239741 23.76C0.454758 23.975 0.774622 24.0553 1.06991 23.9603L5.265 22.6096C6.84957 23.5204 8.64588 24 10.4848 24C16.2792 24 20.9694 19.3106 20.9694 13.5154C20.9694 13.354 20.9653 13.1939 20.958 13.0341C20.4382 13.1889 19.8923 13.2819 19.3283 13.3044C19.33 13.3749 19.3312 13.4449 19.3312 13.5154Z" fill="url(#paint0_linear_201_409)"/>
<path d="M14.5804 15.1126C15.1458 15.1126 15.6042 14.6542 15.6042 14.0887C15.6042 13.5233 15.1458 13.0648 14.5804 13.0648C14.0149 13.0648 13.5565 13.5233 13.5565 14.0887C13.5565 14.6542 14.0149 15.1126 14.5804 15.1126Z" fill="url(#paint1_linear_201_409)"/>
<path d="M10.4848 15.1126C11.0503 15.1126 11.5087 14.6542 11.5087 14.0887C11.5087 13.5233 11.0503 13.0648 10.4848 13.0648C9.91931 13.0648 9.4609 13.5233 9.4609 14.0887C9.4609 14.6542 9.91931 15.1126 10.4848 15.1126Z" fill="url(#paint2_linear_201_409)"/>
<path d="M6.38923 15.1126C6.95471 15.1126 7.41312 14.6542 7.41312 14.0887C7.41312 13.5233 6.95471 13.0648 6.38923 13.0648C5.82375 13.0648 5.36534 13.5233 5.36534 14.0887C5.36534 14.6542 5.82375 15.1126 6.38923 15.1126Z" fill="url(#paint3_linear_201_409)"/>
<path d="M19.0593 0C16.5708 0 14.3977 1.37283 13.2558 3.40096C12.9872 3.8785 12.7754 4.39208 12.6305 4.9327C12.483 5.48232 12.404 6.0598 12.404 6.65529C12.404 10.3249 15.3896 13.3106 19.0593 13.3106C19.1494 13.3106 19.2391 13.3077 19.3283 13.3044C19.8923 13.2819 20.4382 13.1889 20.958 13.0341C23.7057 12.215 25.7145 9.66594 25.7145 6.6557C25.7145 2.98567 22.7289 0 19.0593 0ZM20.7515 11.3783C20.2457 11.5601 19.7027 11.6625 19.1371 11.6711C19.1113 11.6715 19.0851 11.6719 19.0593 11.6719C16.2927 11.6719 14.0422 9.42143 14.0422 6.65488C14.0422 6.25024 14.0905 5.85625 14.1819 5.47904C14.3129 4.93515 14.5328 4.42567 14.8253 3.96655C15.716 2.56833 17.281 1.63823 19.0593 1.63823C21.8258 1.63823 24.0763 3.88874 24.0763 6.65529C24.0763 8.82799 22.6879 10.6825 20.7515 11.3783Z" fill="url(#paint4_linear_201_409)"/>
<path d="M17.3571 9C17.2619 9 17.1786 8.96429 17.1071 8.89286C17.0357 8.82143 17 8.7381 17 8.64286V5.4881C17 5.39286 17.0357 5.30952 17.1071 5.2381C17.1786 5.16667 17.2619 5.13095 17.3571 5.13095H18.0119C18.0119 4.81746 18.1171 4.5506 18.3274 4.33036C18.5377 4.11012 18.7996 4 19.1131 4C19.4266 4 19.6984 4.11012 19.9286 4.33036C20.1587 4.5506 20.2738 4.81746 20.2738 5.13095H20.9286C21.0238 5.13095 21.1071 5.16667 21.1786 5.2381C21.25 5.30952 21.2857 5.39286 21.2857 5.4881V8.64286C21.2857 8.7381 21.25 8.82143 21.1786 8.89286C21.1071 8.96429 21.0238 9 20.9286 9H17.3571ZM19.1429 6.91667C19.4563 6.91667 19.7282 6.80159 19.9583 6.57143C20.1885 6.34127 20.3036 6.06944 20.3036 5.75595H19.9464C19.9464 5.97421 19.8671 6.1627 19.7083 6.32143C19.5496 6.48016 19.3611 6.55952 19.1429 6.55952C18.9246 6.55952 18.7361 6.48016 18.5774 6.32143C18.4187 6.1627 18.3393 5.97421 18.3393 5.75595H17.9821C17.9821 6.06944 18.0972 6.34127 18.3274 6.57143C18.5575 6.80159 18.8294 6.91667 19.1429 6.91667ZM18.369 5.13095H19.9167C19.9167 4.9127 19.8423 4.72917 19.6935 4.58036C19.5446 4.43155 19.3611 4.35714 19.1429 4.35714C18.9246 4.35714 18.7411 4.43155 18.5923 4.58036C18.4435 4.72917 18.369 4.9127 18.369 5.13095Z" fill="url(#paint5_linear_201_409)"/>
<defs>
<linearGradient id="paint0_linear_201_409" x1="0" y1="0" x2="26" y2="24" gradientUnits="userSpaceOnUse">
<stop stop-color="#166AFF"/>
<stop offset="1" stop-color="#2ED0FA"/>
</linearGradient>
<linearGradient id="paint1_linear_201_409" x1="0" y1="0" x2="26" y2="24" gradientUnits="userSpaceOnUse">
<stop stop-color="#166AFF"/>
<stop offset="1" stop-color="#2ED0FA"/>
</linearGradient>
<linearGradient id="paint2_linear_201_409" x1="0" y1="0" x2="26" y2="24" gradientUnits="userSpaceOnUse">
<stop stop-color="#166AFF"/>
<stop offset="1" stop-color="#2ED0FA"/>
</linearGradient>
<linearGradient id="paint3_linear_201_409" x1="0" y1="0" x2="26" y2="24" gradientUnits="userSpaceOnUse">
<stop stop-color="#166AFF"/>
<stop offset="1" stop-color="#2ED0FA"/>
</linearGradient>
<linearGradient id="paint4_linear_201_409" x1="0" y1="0" x2="26" y2="24" gradientUnits="userSpaceOnUse">
<stop stop-color="#166AFF"/>
<stop offset="1" stop-color="#2ED0FA"/>
</linearGradient>
<linearGradient id="paint5_linear_201_409" x1="0" y1="0" x2="26" y2="24" gradientUnits="userSpaceOnUse">
<stop stop-color="#166AFF"/>
<stop offset="1" stop-color="#2ED0FA"/>
</linearGradient>
</defs>
</svg>
