<svg width="27" height="24" viewBox="0 0 27 24" fill="none" xmlns="http://www.w3.org/2000/svg">
<path d="M8.72472 6.5134C3.91389 6.5134 0 10.4273 0 15.2381C0 17.4573 0.854739 19.5996 2.36414 21.2096L1.9742 22.6946C1.88316 23.0412 1.9768 23.4101 2.222 23.6714C2.42072 23.8832 2.69642 24.0001 2.98097 24C3.04749 24 3.11453 23.9937 3.18115 23.9806L5.81324 23.465C6.74641 23.7955 7.7243 23.9628 8.72472 23.9628C13.5356 23.9628 17.4495 20.049 17.4495 15.2381C17.4495 10.4273 13.5356 6.5134 8.72472 6.5134ZM8.72472 21.881C7.8818 21.881 7.06079 21.7254 6.28454 21.4187C6.16217 21.3704 6.03236 21.3459 5.90198 21.3459C5.8351 21.3459 5.76811 21.3524 5.70185 21.3653L4.40928 21.6185L4.53014 21.1582C4.62809 20.7853 4.51187 20.3888 4.22815 20.1278C2.86423 18.8727 2.08194 17.0905 2.08194 15.2381C2.08194 11.5753 5.06187 8.59533 8.72472 8.59533C12.3876 8.59533 15.3676 11.5753 15.3676 15.2381C15.3676 18.901 12.3876 21.881 8.72472 21.881Z" fill="url(#paint0_linear_201_410)"/>
<path d="M10.6915 12.3852H6.75801C6.18308 12.3852 5.71704 12.8512 5.71704 13.4262C5.71704 14.0011 6.18308 14.4671 6.75801 14.4671H10.6915C11.2664 14.4671 11.7325 14.0011 11.7325 13.4262C11.7325 12.8512 11.2664 12.3852 10.6915 12.3852Z" fill="url(#paint1_linear_201_410)"/>
<path d="M10.6915 16.0463H6.75801C6.18308 16.0463 5.71704 16.5123 5.71704 17.0872C5.71704 17.6622 6.18308 18.1282 6.75801 18.1282H10.6915C11.2664 18.1282 11.7325 17.6622 11.7325 17.0872C11.7325 16.5123 11.2664 16.0463 10.6915 16.0463Z" fill="url(#paint2_linear_201_410)"/>
<path d="M25.6079 12.7941C25.033 12.7941 24.567 13.2601 24.567 13.835V13.853C24.567 14.9816 23.6494 15.9154 22.5216 15.9346C22.2413 15.9394 21.9748 16.057 21.7824 16.2608C21.6265 16.4259 21.5299 16.6362 21.5049 16.8589L20.9336 16.5004C20.4466 16.1949 19.8041 16.3418 19.4985 16.8288C19.1929 17.3157 19.3399 17.9582 19.8269 18.2638L22.0591 19.6647C22.2281 19.7707 22.4202 19.824 22.6125 19.824C22.7926 19.824 22.9729 19.7773 23.1345 19.6836C23.4687 19.4898 23.6681 19.127 23.6525 18.741L23.617 17.8618C24.3068 17.668 24.9376 17.2971 25.4529 16.7735C26.2242 15.9897 26.6489 14.9526 26.6489 13.853V13.835C26.6489 13.2601 26.1829 12.7941 25.6079 12.7941Z" fill="url(#paint3_linear_201_410)"/>
<path d="M22.4849 0H9.87363C7.89871 0 6.1821 1.40349 5.79199 3.33719C5.67832 3.90077 6.04302 4.44978 6.60655 4.5635C7.16998 4.67671 7.71914 4.31247 7.83287 3.74894C8.02768 2.78303 8.88596 2.08199 9.87363 2.08199H22.4849C23.6328 2.08199 24.5668 3.01595 24.5668 4.16393V8.63026C24.5668 9.20518 25.0328 9.67122 25.6078 9.67122C26.1827 9.67122 26.6487 9.20518 26.6487 8.63026V4.16393C26.6487 1.86791 24.7808 0 22.4849 0Z" fill="url(#paint4_linear_201_410)"/>
<defs>
<linearGradient id="paint0_linear_201_410" x1="0" y1="0" x2="27" y2="24" gradientUnits="userSpaceOnUse">
<stop stop-color="#166AFF"/>
<stop offset="1" stop-color="#2ED0FA"/>
</linearGradient>
<linearGradient id="paint1_linear_201_410" x1="0" y1="0" x2="27" y2="24" gradientUnits="userSpaceOnUse">
<stop stop-color="#166AFF"/>
<stop offset="1" stop-color="#2ED0FA"/>
</linearGradient>
<linearGradient id="paint2_linear_201_410" x1="0" y1="0" x2="27" y2="24" gradientUnits="userSpaceOnUse">
<stop stop-color="#166AFF"/>
<stop offset="1" stop-color="#2ED0FA"/>
</linearGradient>
<linearGradient id="paint3_linear_201_410" x1="0" y1="0" x2="27" y2="24" gradientUnits="userSpaceOnUse">
<stop stop-color="#166AFF"/>
<stop offset="1" stop-color="#2ED0FA"/>
</linearGradient>
<linearGradient id="paint4_linear_201_410" x1="0" y1="0" x2="27" y2="24" gradientUnits="userSpaceOnUse">
<stop stop-color="#166AFF"/>
<stop offset="1" stop-color="#2ED0FA"/>
</linearGradient>
</defs>
</svg>
