<svg width="25" height="26" viewBox="0 0 25 26" fill="none" xmlns="http://www.w3.org/2000/svg">
<path d="M20.86 4.58001C16.7 0.420006 10.16 -0.189994 5.31 3.14001C2.62 4.99001 0.81 7.77001 0.21 10.98C-0.38 14.16 0.29 17.37 2.09 20.05C1.9 20.68 1.13 22.26 0.31 23.7C0.13 24.02 0.13 24.4 0.3 24.72C0.43 24.97 0.66 25.14 0.93 25.22C1.2 25.3 1.48 25.27 1.75 25.12C2.09 24.94 2.77 24.58 3.51 24.22C4.67 23.66 5.24 23.47 5.48 23.41C7.48 24.74 9.8 25.43 12.19 25.43C12.2 25.43 12.21 25.43 12.22 25.43C15.48 25.43 18.55 24.16 20.86 21.85C25.63 17.1 25.63 9.34001 20.86 4.58001ZM3.98 21C4.26 20.24 4.37 19.63 4 19.12C2.76 17.39 2.1 15.36 2.11 13.23C2.1 7.64001 6.64 3.10001 12.22 3.10001C17.8 3.10001 22.34 7.64001 22.34 13.22C22.34 18.8 17.8 23.34 12.22 23.34C12.21 23.34 12.2 23.34 12.2 23.34C10.12 23.34 8.13 22.71 6.42 21.51C6.2 21.36 5.94 21.28 5.67 21.28C5.28 21.27 4.88 21.39 4.54 21.51C4.27 21.6 3.96 21.72 3.61 21.87C3.76 21.54 3.89 21.25 3.98 21Z" fill="url(#paint0_linear_56_2230)"/>
<path d="M4.98002 15.11L7.81002 14.11C8.25002 13.95 8.68002 13.99 8.90002 14.2L12.08 17.25C12.61 17.76 13.31 18.03 14.09 18.03C15.11 18.03 16.17 17.56 16.99 16.74L20.57 13.16C20.86 12.87 20.95 12.44 20.82 12.06C20.62 11.52 20.01 11.23 19.48 11.43L16.71 12.43C16.26 12.59 15.82 12.56 15.6 12.33L12.5 9.23999C11.87 8.60999 10.95 8.32999 9.98002 8.45999C9.10002 8.57999 8.24002 9.01999 7.55002 9.70999L3.88002 13.38C3.60002 13.66 3.50002 14.09 3.63002 14.47C3.83002 15.01 4.44002 15.3 4.98002 15.11ZM8.32002 11.91L9.04002 11.19C9.37002 10.86 9.78002 10.63 10.17 10.55C10.53 10.48 10.84 10.54 11.02 10.72L14.11 13.8C14.63 14.32 15.35 14.6 16.13 14.61L15.5 15.24C14.86 15.88 13.94 16.11 13.53 15.72L10.35 12.68C9.83002 12.18 9.12002 11.91 8.35002 11.91C8.34002 11.91 8.33002 11.91 8.32002 11.91Z" fill="url(#paint1_linear_56_2230)"/>
<defs>
<linearGradient id="paint0_linear_56_2230" x1="12.2193" y1="0.998779" x2="12.2193" y2="25.43" gradientUnits="userSpaceOnUse">
<stop stop-color="#166AFF"/>
<stop offset="1" stop-color="#2ED0FA"/>
</linearGradient>
<linearGradient id="paint1_linear_56_2230" x1="12.2193" y1="0.998779" x2="12.2193" y2="25.43" gradientUnits="userSpaceOnUse">
<stop stop-color="#166AFF"/>
<stop offset="1" stop-color="#2ED0FA"/>
</linearGradient>
</defs>
</svg>
