<svg width="23" height="24" viewBox="0 0 23 24" fill="none" xmlns="http://www.w3.org/2000/svg">
<path d="M19.6849 16.92C19.0849 16.56 18.3649 16.8 18.0049 17.4C16.5649 20.04 13.6849 21.6 10.8049 21.6H4.08486L4.80486 20.88C5.28486 20.4 5.28486 19.68 4.80486 19.2C1.56486 15.96 1.44486 10.56 4.80486 7.32C6.12486 6 7.80486 5.16 9.72486 4.92C10.4449 4.8 10.8049 4.2 10.8049 3.6C10.8049 3 10.0849 2.4 9.48486 2.52C3.60486 3.24 -0.595138 8.64 0.124862 14.52C0.364862 16.56 1.20486 18.36 2.40486 19.92L0.364862 21.96C0.00486225 22.32 -0.115138 22.8 0.124862 23.28C0.244862 23.76 0.724862 24 1.20486 24H10.8049C14.6449 24 18.2449 21.96 20.1649 18.6C20.5249 18 20.2849 17.28 19.6849 16.92ZM20.4049 5.04V3.6C20.4049 1.56 18.8449 0 16.8049 0C14.7649 0 13.2049 1.56 13.2049 3.6V5.04C11.7649 5.52 10.8049 6.96 10.8049 8.4V10.8C10.8049 12.84 12.3649 14.4 14.4049 14.4H19.2049C21.2449 14.4 22.8049 12.84 22.8049 10.8V8.4C22.8049 6.84 21.8449 5.52 20.4049 5.04ZM15.6049 3.6C15.6049 2.88 16.0849 2.4 16.8049 2.4C17.5249 2.4 18.0049 2.88 18.0049 3.6V4.8H15.6049V3.6ZM20.4049 10.8C20.4049 11.52 19.9249 12 19.2049 12H14.4049C13.6849 12 13.2049 11.52 13.2049 10.8V8.4C13.2049 7.68 13.6849 7.2 14.4049 7.2H19.2049C19.9249 7.2 20.4049 7.68 20.4049 8.4V10.8Z" fill="url(#paint0_linear_201_408)"/>
<defs>
<linearGradient id="paint0_linear_201_408" x1="0" y1="0" x2="23.5" y2="24" gradientUnits="userSpaceOnUse">
<stop stop-color="#166AFF"/>
<stop offset="1" stop-color="#2ED0FA"/>
</linearGradient>
</defs>
</svg>
