<svg width="26" height="24" viewBox="0 0 26 24" fill="none" xmlns="http://www.w3.org/2000/svg">
<path d="M6.85 24C7.93248 24 8.81 23.1225 8.81 22.04C8.81 20.9575 7.93248 20.08 6.85 20.08C5.76752 20.08 4.89 20.9575 4.89 22.04C4.89 23.1225 5.76752 24 6.85 24Z" fill="url(#paint0_linear_57_2237)"/>
<path d="M16.65 24C17.7325 24 18.61 23.1225 18.61 22.04C18.61 20.9575 17.7325 20.08 16.65 20.08C15.5675 20.08 14.69 20.9575 14.69 22.04C14.69 23.1225 15.5675 24 16.65 24Z" fill="url(#paint1_linear_57_2237)"/>
<path d="M19.04 0C15.3 0 12.26 3.04 12.26 6.78C12.26 9.79 14.23 12.35 16.95 13.23H5.3L4.38 5.4H10.77C11.31 5.4 11.75 4.96 11.75 4.42C11.75 3.88 11.31 3.44 10.77 3.44H4.15L4.11 3.09C3.94 1.62 2.68 0.5 1.2 0.5H0.98C0.44 0.5 0 0.94 0 1.48C0 2.02 0.44 2.46 0.98 2.46H1.2C1.7 2.46 2.11 2.83 2.17 3.32L3.52 14.78C3.81 17.25 5.9 19.1 8.38 19.1H18.6C19.14 19.1 19.58 18.66 19.58 18.12C19.58 17.58 19.14 17.14 18.6 17.14H8.38C7.13 17.14 6.03 16.36 5.61 15.18H17.29C18.89 15.18 20.33 14.41 21.23 13.19C23.89 12.28 25.82 9.75 25.82 6.77C25.82 3.04 22.77 0 19.04 0ZM22.15 10.91C21.46 11.43 20.64 11.79 19.74 11.91C19.51 11.94 19.27 11.96 19.03 11.96C16.18 11.96 13.86 9.64 13.86 6.79C13.86 3.94 16.18 1.62 19.03 1.62C21.88 1.62 24.2 3.94 24.2 6.79C24.21 8.46 23.4 9.96 22.15 10.91Z" fill="url(#paint2_linear_57_2237)"/>
<path d="M23.15 6.02C23.06 5.76 22.76 5.62 22.51 5.72L21.18 6.2C20.96 6.28 20.76 6.26 20.65 6.15L19.17 4.67C18.87 4.37 18.43 4.23 17.96 4.3C17.54 4.36 17.13 4.57 16.8 4.9L15.04 6.66C14.91 6.79 14.86 7 14.92 7.18C15.01 7.44 15.3 7.58 15.56 7.49L16.91 7.01C17.12 6.94 17.33 6.95 17.43 7.05L18.95 8.51C19.2 8.75 19.54 8.88 19.91 8.88C20.4 8.88 20.91 8.66 21.3 8.26L23.02 6.54C23.17 6.41 23.21 6.21 23.15 6.02ZM20.6 7.56C20.29 7.87 19.85 7.98 19.66 7.79L18.14 6.33C17.89 6.09 17.55 5.96 17.18 5.96H17.17L17.51 5.62C17.67 5.46 17.86 5.35 18.05 5.31C18.22 5.28 18.37 5.3 18.46 5.39L19.94 6.87C20.19 7.12 20.53 7.25 20.91 7.26L20.6 7.56Z" fill="url(#paint3_linear_57_2237)"/>
<defs>
<linearGradient id="paint0_linear_57_2237" x1="12.91" y1="0" x2="12.91" y2="24" gradientUnits="userSpaceOnUse">
<stop stop-color="#166AFF"/>
<stop offset="1" stop-color="#2ED0FA"/>
</linearGradient>
<linearGradient id="paint1_linear_57_2237" x1="12.91" y1="0" x2="12.91" y2="24" gradientUnits="userSpaceOnUse">
<stop stop-color="#166AFF"/>
<stop offset="1" stop-color="#2ED0FA"/>
</linearGradient>
<linearGradient id="paint2_linear_57_2237" x1="12.91" y1="0" x2="12.91" y2="24" gradientUnits="userSpaceOnUse">
<stop stop-color="#166AFF"/>
<stop offset="1" stop-color="#2ED0FA"/>
</linearGradient>
<linearGradient id="paint3_linear_57_2237" x1="12.91" y1="0" x2="12.91" y2="24" gradientUnits="userSpaceOnUse">
<stop stop-color="#166AFF"/>
<stop offset="1" stop-color="#2ED0FA"/>
</linearGradient>
</defs>
</svg>
