<svg width="23" height="24" viewBox="0 0 23 24" fill="none" xmlns="http://www.w3.org/2000/svg">
<path d="M4.92 12C5.17 12 5.41 11.92 5.62 11.77L7.56 10.38C8.26 9.88 8.83 9.22 9.23 8.46C9.63 7.7 9.84 6.86 9.85 6V1.95C9.85 1.77 9.81 1.6 9.73 1.44C9.65 1.28 9.54 1.14 9.4 1.03C9.27 0.92 9.11 0.84 8.93 0.8C8.76 0.75 8.58 0.75 8.4 0.79C7.92 0.89 7.42 0.89 6.94 0.79C6.46 0.69 6.01 0.5 5.6 0.21C5.4 0.07 5.17 0 4.92 0C4.67 0 4.44 0.07 4.24 0.21C3.83 0.5 3.38 0.69 2.9 0.79C2.42 0.89 1.92 0.89 1.44 0.79C1.26 0.75 1.08 0.76 0.91 0.8C0.73 0.85 0.57 0.93 0.43 1.04C0.29 1.16 0.18 1.3 0.11 1.47C0.04 1.64 0 1.81 0 1.99V6C0 6.87 0.21 7.72 0.6 8.5C1 9.27 1.57 9.93 2.28 10.44L4.24 11.77C4.43 11.92 4.67 12 4.92 12ZM2.39 6V3.26C3.27 3.23 4.13 3 4.92 2.6C5.71 3 6.57 3.23 7.45 3.26V6C7.44 6.47 7.31 6.93 7.09 7.35C6.87 7.76 6.55 8.12 6.17 8.4L4.97 9.29L3.67 8.4C3.29 8.12 2.97 7.77 2.75 7.35C2.53 6.93 2.4 6.47 2.39 6ZM19.29 4.8H13.29C12.97 4.8 12.67 4.93 12.44 5.15C12.21 5.37 12.09 5.68 12.09 6C12.09 6.32 12.22 6.62 12.44 6.85C12.67 7.08 12.97 7.2 13.29 7.2H19.29C19.61 7.2 19.91 7.33 20.14 7.55C20.37 7.78 20.49 8.08 20.49 8.4V20.06L18.64 18.32C18.53 18.21 18.4 18.13 18.26 18.08C18.12 18.02 17.97 18 17.82 18H7.28C6.96 18 6.66 17.87 6.43 17.65C6.2 17.42 6.08 17.12 6.08 16.8V15.6C6.08 15.28 5.95 14.98 5.73 14.75C5.51 14.53 5.2 14.4 4.88 14.4C4.56 14.4 4.26 14.53 4.03 14.75C3.8 14.98 3.68 15.28 3.68 15.6V16.8C3.68 17.75 4.06 18.67 4.73 19.35C5.4 20.03 6.32 20.4 7.28 20.4H17.31L20.91 23.68C21.13 23.88 21.42 24 21.71 24C21.88 24 22.05 23.97 22.2 23.9C22.41 23.8 22.59 23.65 22.72 23.45C22.85 23.25 22.91 23.03 22.91 22.79V8.4C22.91 7.92 22.82 7.45 22.63 7.01C22.45 6.57 22.18 6.17 21.84 5.84C21.5 5.51 21.1 5.24 20.66 5.06C20.23 4.88 19.76 4.79 19.29 4.8Z" fill="url(#paint0_linear_57_2241)"/>
<defs>
<linearGradient id="paint0_linear_57_2241" x1="11.4636" y1="0.017525" x2="11.4636" y2="24.0175" gradientUnits="userSpaceOnUse">
<stop stop-color="#166AFF"/>
<stop offset="1" stop-color="#2ED0FA"/>
</linearGradient>
</defs>
</svg>
