<svg width="45" height="46" viewBox="0 0 45 46" fill="none" xmlns="http://www.w3.org/2000/svg">
<rect y="0.389648" width="45" height="45" rx="22.5" fill="#5BFF45"/>
<path d="M34.3452 15.23C34.144 14.7344 33.8496 14.2852 33.4787 13.9077C33.1078 13.5302 32.6677 13.2319 32.1839 13.0302C31.7 12.8284 31.1822 12.7275 30.66 12.7326H24.0771C23.7278 12.7326 23.3933 12.8754 23.1464 13.1292C22.8995 13.383 22.7606 13.7275 22.7606 14.086C22.7606 14.4451 22.8995 14.789 23.1464 15.0434C23.3933 15.2972 23.7284 15.44 24.0771 15.44H30.6606C31.01 15.44 31.3445 15.5827 31.5913 15.8365C31.8382 16.0903 31.9771 16.4349 31.9771 16.7933V29.9501L29.9496 27.9876C29.8317 27.8684 29.6916 27.7745 29.538 27.7116C29.3843 27.6488 29.2195 27.6184 29.0541 27.6222H17.4936C17.1442 27.6222 16.8097 27.4794 16.5628 27.2256C16.316 26.9718 16.1771 26.6273 16.1771 26.2682V24.9148C16.1771 24.5557 16.0382 24.2118 15.7914 23.958C15.5445 23.7042 15.2094 23.5614 14.86 23.5614C14.5107 23.5614 14.1762 23.7042 13.9293 23.958C13.6824 24.2118 13.5436 24.5563 13.5436 24.9148V26.2682C13.5436 27.3449 13.9595 28.3779 14.7008 29.1399C15.4414 29.9013 16.4462 30.3289 17.4936 30.3289H28.5011L32.4511 34.0242C32.6906 34.2551 33.0053 34.3852 33.3331 34.3897C33.5182 34.3877 33.7009 34.3509 33.8731 34.2812C34.1064 34.1733 34.3039 33.9982 34.4415 33.7774C34.5798 33.5559 34.652 33.2983 34.6495 33.0357V16.7927C34.6501 16.2566 34.5464 15.7255 34.3452 15.23Z" fill="white"/>
<path d="M15.0779 18.95C15.2063 18.8935 15.2902 18.7641 15.2902 18.62V16.5928H15.9481C18.0996 16.5928 20.0833 17.7952 21.1245 19.7285L21.1343 19.7469C21.1967 19.863 21.3146 19.9328 21.4398 19.9328C21.4689 19.9328 21.4972 19.9296 21.5263 19.922C21.6806 19.8814 21.7879 19.7386 21.7879 19.5749C21.7879 15.8657 18.8841 12.8411 15.2908 12.777V10.7479C15.2908 10.6045 15.2069 10.4744 15.0785 10.418C14.9501 10.3621 14.8008 10.3901 14.7008 10.4909L10.7551 14.4273C10.6878 14.4946 10.6496 14.5872 10.6496 14.6843C10.6496 14.7814 10.6878 14.874 10.7551 14.9413L14.7002 18.8776C14.8008 18.9773 14.9501 19.0052 15.0779 18.95Z" fill="white"/>
</svg>
