<svg width="45" height="45" viewBox="0 0 45 45" fill="none" xmlns="http://www.w3.org/2000/svg">
<rect width="45" height="45" rx="22.5" fill="#FF5151"/>
<path d="M15.965 22.8896C16.215 22.8896 16.455 22.8096 16.665 22.6596L18.605 21.2696C19.305 20.7696 19.875 20.1096 20.275 19.3496C20.675 18.5896 20.885 17.7496 20.895 16.8896V12.8396C20.895 12.6596 20.855 12.4896 20.775 12.3296C20.695 12.1696 20.585 12.0296 20.445 11.9196C20.315 11.8096 20.155 11.7296 19.975 11.6896C19.805 11.6396 19.625 11.6396 19.445 11.6796C18.965 11.7796 18.465 11.7796 17.985 11.6796C17.505 11.5796 17.055 11.3896 16.645 11.0996C16.445 10.9596 16.215 10.8896 15.965 10.8896C15.715 10.8896 15.485 10.9596 15.285 11.0996C14.875 11.3896 14.425 11.5796 13.945 11.6796C13.465 11.7796 12.965 11.7796 12.485 11.6796C12.305 11.6396 12.125 11.6496 11.955 11.6896C11.775 11.7396 11.615 11.8196 11.475 11.9296C11.335 12.0496 11.225 12.1896 11.155 12.3596C11.085 12.5296 11.045 12.6996 11.045 12.8796V16.8896C11.045 17.7596 11.255 18.6096 11.645 19.3896C12.045 20.1596 12.615 20.8196 13.325 21.3296L15.285 22.6596C15.475 22.8096 15.715 22.8896 15.965 22.8896ZM13.435 16.8896V14.1496C14.315 14.1196 15.175 13.8896 15.965 13.4896C16.755 13.8896 17.615 14.1196 18.495 14.1496V16.8896C18.485 17.3596 18.355 17.8196 18.135 18.2396C17.915 18.6496 17.595 19.0096 17.215 19.2896L16.015 20.1796L14.715 19.2896C14.335 19.0096 14.015 18.6596 13.795 18.2396C13.575 17.8196 13.445 17.3596 13.435 16.8896ZM30.335 15.6896H24.335C24.015 15.6896 23.715 15.8196 23.485 16.0396C23.255 16.2596 23.135 16.5696 23.135 16.8896C23.135 17.2096 23.265 17.5096 23.485 17.7396C23.715 17.9696 24.015 18.0896 24.335 18.0896H30.335C30.655 18.0896 30.955 18.2196 31.185 18.4396C31.415 18.6696 31.535 18.9696 31.535 19.2896V30.9496L29.685 29.2096C29.575 29.0996 29.445 29.0196 29.305 28.9696C29.165 28.9096 29.015 28.8896 28.865 28.8896H18.325C18.005 28.8896 17.705 28.7596 17.475 28.5396C17.245 28.3096 17.125 28.0096 17.125 27.6896V26.4896C17.125 26.1696 16.995 25.8696 16.775 25.6396C16.555 25.4196 16.245 25.2896 15.925 25.2896C15.605 25.2896 15.305 25.4196 15.075 25.6396C14.845 25.8696 14.725 26.1696 14.725 26.4896V27.6896C14.725 28.6396 15.105 29.5596 15.775 30.2396C16.445 30.9196 17.365 31.2896 18.325 31.2896H28.355L31.955 34.5696C32.175 34.7696 32.465 34.8896 32.755 34.8896C32.925 34.8896 33.095 34.8596 33.245 34.7896C33.455 34.6896 33.635 34.5396 33.765 34.3396C33.895 34.1396 33.955 33.9196 33.955 33.6796V19.2896C33.955 18.8096 33.865 18.3396 33.675 17.8996C33.495 17.4596 33.225 17.0596 32.885 16.7296C32.545 16.3996 32.145 16.1296 31.705 15.9496C31.275 15.7696 30.805 15.6796 30.335 15.6896Z" fill="white"/>
</svg>
