<svg width="45" height="46" viewBox="0 0 45 46" fill="none" xmlns="http://www.w3.org/2000/svg">
<rect y="0.389648" width="45" height="45" rx="22.5" fill="#FFDA32"/>
<path d="M34.5955 29.5989L33.2459 25.6773C33.9011 24.3082 34.2434 22.7728 34.2434 21.2472C34.2434 18.5187 33.1872 15.9467 31.2704 13.9908C29.3537 12.0349 26.7914 10.9396 24.0629 10.8907C21.2269 10.8516 18.5766 11.9175 16.5816 13.9223C14.7039 15.8098 13.638 18.3036 13.5695 20.9636C11.7212 22.4012 10.6259 24.6407 10.6259 26.978C10.6259 28.0635 10.8704 29.1491 11.3104 30.127L10.3912 32.7968C10.1956 33.3738 10.3423 33.9997 10.7726 34.43C11.0757 34.7332 11.4669 34.8896 11.8874 34.8896C12.0635 34.8896 12.2395 34.8603 12.4057 34.8016L15.0755 33.8824C16.0633 34.3322 17.1488 34.5669 18.2441 34.5669C20.6108 34.5669 22.8698 33.4423 24.3074 31.545C25.7059 31.4864 27.0946 31.1441 28.3464 30.5475L32.2777 31.8971C32.9427 32.122 33.6762 31.9558 34.1652 31.457C34.6542 30.9876 34.8204 30.2639 34.5955 29.5989ZM24.0434 12.8466C28.6006 12.9151 32.2973 16.6899 32.2875 21.2472C32.2875 22.6066 31.955 23.9561 31.3193 25.1492C31.1922 25.3839 31.1727 25.6676 31.2607 25.9218L32.6591 29.9803L28.6006 28.5819C28.5028 28.5427 28.3953 28.533 28.2779 28.533C28.1214 28.533 27.965 28.5721 27.8183 28.6503C26.6252 29.286 25.2756 29.6185 23.9065 29.6185C19.359 29.6185 15.5939 25.9218 15.5254 21.3743C15.4863 19.0859 16.3567 16.9247 17.9801 15.311C19.5937 13.6876 21.7354 12.8173 24.0434 12.8466ZM18.2441 32.8946L18.2343 32.6208C17.3151 32.6208 16.4056 32.3959 15.6036 31.9656C15.4569 31.8873 15.3005 31.8482 15.144 31.8482C15.0364 31.8482 14.9289 31.8678 14.8311 31.8971L12.5035 32.699L13.3055 30.3715C13.3935 30.1172 13.3739 29.8336 13.2468 29.5989C12.8165 28.797 12.5915 27.8875 12.5915 26.9682C12.5915 25.6871 13.0218 24.4549 13.814 23.4574C14.2443 25.4035 15.2222 27.1736 16.6696 28.5916C18.1072 29.9999 19.8773 30.9485 21.8136 31.3495C20.8064 32.1709 19.5644 32.611 18.2539 32.611V32.8946H18.2441Z" fill="white"/>
<path d="M19.6817 19.1541H28.141C28.6789 19.1541 29.1189 18.7141 29.1189 18.1762C29.1189 17.6383 28.6789 17.1982 28.141 17.1982H19.6817C19.1438 17.1982 18.7037 17.6383 18.7037 18.1762C18.7037 18.7141 19.1438 19.1541 19.6817 19.1541Z" fill="white"/>
<path d="M19.6817 22.0785H28.141C28.6789 22.0785 29.1189 21.6384 29.1189 21.1005C29.1189 20.5626 28.6789 20.1226 28.141 20.1226H19.6817C19.1438 20.1226 18.7037 20.5626 18.7037 21.1005C18.7037 21.6384 19.1438 22.0785 19.6817 22.0785Z" fill="white"/>
<path d="M19.6817 24.993H24.8844C25.4223 24.993 25.8623 24.5529 25.8623 24.0151C25.8623 23.4772 25.4223 23.0371 24.8844 23.0371H19.6817C19.1438 23.0371 18.7037 23.4772 18.7037 24.0151C18.7037 24.5529 19.1438 24.993 19.6817 24.993Z" fill="white"/>
</svg>
