<svg width="45" height="46" viewBox="0 0 45 46" fill="none" xmlns="http://www.w3.org/2000/svg">
<rect y="0.389648" width="45" height="45" rx="22.5" fill="#D71400"/>
<path d="M22.5 20.8897C21.7089 20.8897 20.9355 21.1243 20.2777 21.5638C19.6199 22.0033 19.1072 22.628 18.8045 23.3589C18.5017 24.0898 18.4225 24.8941 18.5769 25.67C18.7312 26.4459 19.1122 27.1587 19.6716 27.7181C20.231 28.2775 20.9437 28.6585 21.7196 28.8128C22.4956 28.9671 23.2998 28.8879 24.0307 28.5852C24.7616 28.2824 25.3863 27.7697 25.8259 27.1119C26.2654 26.4541 26.5 25.6808 26.5 24.8897C26.5 23.8288 26.0786 22.8114 25.3284 22.0612C24.5783 21.3111 23.5609 20.8897 22.5 20.8897ZM22.5 26.8897C22.1044 26.8897 21.7177 26.7724 21.3889 26.5526C21.06 26.3328 20.8036 26.0205 20.6522 25.655C20.5009 25.2896 20.4613 24.8874 20.5384 24.4995C20.6156 24.1115 20.8061 23.7551 21.0858 23.4754C21.3655 23.1957 21.7218 23.0053 22.1098 22.9281C22.4978 22.8509 22.8999 22.8905 23.2654 23.0419C23.6308 23.1933 23.9432 23.4496 24.1629 23.7785C24.3827 24.1074 24.5 24.4941 24.5 24.8897C24.5 25.4201 24.2893 25.9288 23.9142 26.3039C23.5391 26.6789 23.0304 26.8897 22.5 26.8897Z" fill="white"/>
<path d="M33.036 15.0117L30.378 12.3537C29.9148 11.888 29.3639 11.5188 28.7571 11.2676C28.1504 11.0163 27.4998 10.8878 26.843 10.8897H15.5C14.1744 10.8913 12.9036 11.4185 11.9662 12.3559C11.0289 13.2932 10.5016 14.5641 10.5 15.8897V29.8897C10.5016 31.2152 11.0289 32.4861 11.9662 33.4234C12.9036 34.3608 14.1744 34.8881 15.5 34.8896H29.5C30.8256 34.8881 32.0964 34.3608 33.0338 33.4234C33.9711 32.4861 34.4984 31.2152 34.5 29.8897V18.5467C34.5018 17.8899 34.3734 17.2393 34.1221 16.6325C33.8708 16.0257 33.5016 15.4748 33.036 15.0117ZM27.5 12.9697V13.8897C27.5 14.6853 27.1839 15.4484 26.6213 16.011C26.0587 16.5736 25.2956 16.8897 24.5 16.8897H20.5C19.7043 16.8897 18.9413 16.5736 18.3787 16.011C17.8161 15.4484 17.5 14.6853 17.5 13.8897V12.8897H26.843C27.0643 12.8916 27.2847 12.9185 27.5 12.9697ZM32.5 29.8897C32.5 30.6853 32.1839 31.4484 31.6213 32.011C31.0587 32.5736 30.2956 32.8897 29.5 32.8897H15.5C14.7043 32.8897 13.9413 32.5736 13.3787 32.011C12.8161 31.4484 12.5 30.6853 12.5 29.8897V15.8897C12.5 15.094 12.8161 14.331 13.3787 13.7683C13.9413 13.2057 14.7043 12.8897 15.5 12.8897V13.8897C15.5016 15.2153 16.0289 16.4861 16.9662 17.4234C17.9036 18.3608 19.1744 18.8881 20.5 18.8897H24.5C25.7575 18.8858 26.9671 18.4073 27.8871 17.55C28.8071 16.6927 29.3695 15.5198 29.462 14.2657L31.622 16.4257C32.1824 16.9895 32.4979 17.7517 32.5 18.5467V29.8897Z" fill="white"/>
</svg>
