<svg width="45" height="46" viewBox="0 0 45 46" fill="none" xmlns="http://www.w3.org/2000/svg">
<rect y="0.389648" width="45" height="45" rx="22.5" fill="#1775FF"/>
<path d="M22.5 26.8896C21.7089 26.8896 20.9355 26.6551 20.2777 26.2155C19.6199 25.776 19.1072 25.1513 18.8045 24.4204C18.5017 23.6895 18.4225 22.8852 18.5769 22.1093C18.7312 21.3334 19.1122 20.6206 19.6716 20.0612C20.231 19.5018 20.9437 19.1208 21.7196 18.9665C22.4956 18.8122 23.2998 18.8914 24.0307 19.1941C24.7616 19.4969 25.3864 20.0096 25.8259 20.6674C26.2654 21.3252 26.5 22.0985 26.5 22.8896C26.5 23.9505 26.0786 24.9679 25.3284 25.7181C24.5783 26.4682 23.5609 26.8896 22.5 26.8896ZM22.5 20.8896C22.1044 20.8896 21.7178 21.0069 21.3889 21.2267C21.06 21.4465 20.8036 21.7588 20.6522 22.1243C20.5009 22.4897 20.4613 22.8919 20.5384 23.2798C20.6156 23.6678 20.8061 24.0242 21.0858 24.3039C21.3655 24.5836 21.7219 24.774 22.1098 24.8512C22.4978 24.9284 22.8999 24.8888 23.2654 24.7374C23.6308 24.586 23.9432 24.3297 24.1629 24.0008C24.3827 23.6719 24.5 23.2852 24.5 22.8896C24.5 22.3592 24.2893 21.8505 23.9142 21.4754C23.5391 21.1004 23.0304 20.8896 22.5 20.8896ZM28.5 33.8896C28.5 32.2984 27.8679 30.7722 26.7426 29.647C25.6174 28.5218 24.0913 27.8896 22.5 27.8896C20.9087 27.8896 19.3826 28.5218 18.2574 29.647C17.1321 30.7722 16.5 32.2984 16.5 33.8896C16.5 34.1549 16.6054 34.4092 16.7929 34.5968C16.9804 34.7843 17.2348 34.8896 17.5 34.8896C17.7652 34.8896 18.0196 34.7843 18.2071 34.5968C18.3946 34.4092 18.5 34.1549 18.5 33.8896C18.5 32.8288 18.9214 31.8114 19.6716 31.0612C20.4217 30.3111 21.4391 29.8896 22.5 29.8896C23.5609 29.8896 24.5783 30.3111 25.3284 31.0612C26.0786 31.8114 26.5 32.8288 26.5 33.8896C26.5 34.1549 26.6054 34.4092 26.7929 34.5968C26.9804 34.7843 27.2348 34.8896 27.5 34.8896C27.7652 34.8896 28.0196 34.7843 28.2071 34.5968C28.3946 34.4092 28.5 34.1549 28.5 33.8896ZM28.5 18.8896C27.7089 18.8896 26.9355 18.6551 26.2777 18.2155C25.6199 17.776 25.1072 17.1513 24.8045 16.4204C24.5017 15.6895 24.4225 14.8852 24.5769 14.1093C24.7312 13.3334 25.1122 12.6206 25.6716 12.0612C26.231 11.5018 26.9437 11.1208 27.7196 10.9665C28.4956 10.8122 29.2998 10.8914 30.0307 11.1941C30.7616 11.4969 31.3864 12.0096 31.8259 12.6674C32.2654 13.3252 32.5 14.0985 32.5 14.8897C32.5 15.9505 32.0786 16.9679 31.3284 17.7181C30.5783 18.4682 29.5609 18.8896 28.5 18.8896ZM28.5 12.8897C28.1044 12.8897 27.7178 13.0069 27.3889 13.2267C27.06 13.4465 26.8036 13.7588 26.6522 14.1243C26.5009 14.4897 26.4613 14.8919 26.5384 15.2798C26.6156 15.6678 26.8061 16.0242 27.0858 16.3039C27.3655 16.5836 27.7219 16.7741 28.1098 16.8512C28.4978 16.9284 28.8999 16.8888 29.2654 16.7374C29.6308 16.586 29.9432 16.3297 30.1629 16.0008C30.3827 15.6719 30.5 15.2852 30.5 14.8897C30.5 14.3592 30.2893 13.8505 29.9142 13.4754C29.5391 13.1004 29.0304 12.8897 28.5 12.8897ZM34.5 25.8896C34.4984 24.2988 33.8658 22.7736 32.7409 21.6488C31.616 20.5239 30.0908 19.8912 28.5 19.8896C28.2348 19.8896 27.9804 19.995 27.7929 20.1825C27.6054 20.3701 27.5 20.6244 27.5 20.8896C27.5 21.1549 27.6054 21.4092 27.7929 21.5968C27.9804 21.7843 28.2348 21.8896 28.5 21.8896C29.5609 21.8896 30.5783 22.3111 31.3284 23.0612C32.0786 23.8114 32.5 24.8288 32.5 25.8896C32.5 26.1549 32.6054 26.4092 32.7929 26.5968C32.9804 26.7843 33.2348 26.8896 33.5 26.8896C33.7652 26.8896 34.0196 26.7843 34.2071 26.5968C34.3946 26.4092 34.5 26.1549 34.5 25.8896ZM16.5 18.8896C15.7089 18.8896 14.9355 18.6551 14.2777 18.2155C13.6199 17.776 13.1072 17.1513 12.8045 16.4204C12.5017 15.6895 12.4225 14.8852 12.5769 14.1093C12.7312 13.3334 13.1122 12.6206 13.6716 12.0612C14.231 11.5018 14.9437 11.1208 15.7196 10.9665C16.4956 10.8122 17.2998 10.8914 18.0307 11.1941C18.7616 11.4969 19.3864 12.0096 19.8259 12.6674C20.2654 13.3252 20.5 14.0985 20.5 14.8897C20.5 15.9505 20.0786 16.9679 19.3284 17.7181C18.5783 18.4682 17.5609 18.8896 16.5 18.8896V18.8896ZM16.5 12.8897C16.1044 12.8897 15.7178 13.0069 15.3889 13.2267C15.06 13.4465 14.8036 13.7588 14.6522 14.1243C14.5009 14.4897 14.4613 14.8919 14.5384 15.2798C14.6156 15.6678 14.8061 16.0242 15.0858 16.3039C15.3655 16.5836 15.7219 16.7741 16.1098 16.8512C16.4978 16.9284 16.8999 16.8888 17.2654 16.7374C17.6308 16.586 17.9432 16.3297 18.1629 16.0008C18.3827 15.6719 18.5 15.2852 18.5 14.8897C18.5 14.3592 18.2893 13.8505 17.9142 13.4754C17.5391 13.1004 17.0304 12.8897 16.5 12.8897ZM12.5 25.8896C12.5 24.8288 12.9214 23.8114 13.6716 23.0612C14.4217 22.3111 15.4391 21.8896 16.5 21.8896C16.7652 21.8896 17.0196 21.7843 17.2071 21.5968C17.3946 21.4092 17.5 21.1549 17.5 20.8896C17.5 20.6244 17.3946 20.3701 17.2071 20.1825C17.0196 19.995 16.7652 19.8896 16.5 19.8896C14.9092 19.8912 13.384 20.5239 12.2591 21.6488C11.1342 22.7736 10.5016 24.2988 10.5 25.8896C10.5 26.1549 10.6054 26.4092 10.7929 26.5968C10.9804 26.7843 11.2348 26.8896 11.5 26.8896C11.7652 26.8896 12.0196 26.7843 12.2071 26.5968C12.3946 26.4092 12.5 26.1549 12.5 25.8896Z" fill="white"/>
</svg>
