<svg width="45" height="46" viewBox="0 0 45 46" fill="none" xmlns="http://www.w3.org/2000/svg">
<rect y="0.389648" width="45" height="45" rx="22.5" fill="#FF8033"/>
<path d="M22.5 20.7078V18.526C22.4982 17.8508 22.2874 17.1927 21.8969 16.6419C21.5062 16.0912 20.9548 15.6747 20.3182 15.4496V14.1624C20.3182 13.2944 19.9734 12.462 19.3597 11.8482C18.7459 11.2345 17.9135 10.8896 17.0455 10.8896C16.1775 10.8896 15.3451 11.2345 14.7313 11.8482C14.1176 12.462 13.7728 13.2944 13.7728 14.1624V15.4496C13.1362 15.6747 12.5848 16.0912 12.1941 16.6419C11.8035 17.1927 11.5928 17.8508 11.5909 18.526V20.7078C11.5909 21.5758 11.9357 22.4082 12.5495 23.022C13.1633 23.6357 13.9957 23.9806 14.8637 23.9806H19.2273C20.0953 23.9806 20.9277 23.6357 21.5415 23.022C22.1552 22.4082 22.5 21.5758 22.5 20.7078ZM15.9546 14.1624C15.9546 13.873 16.0695 13.5956 16.2741 13.391C16.4787 13.1864 16.7562 13.0715 17.0455 13.0715C17.3348 13.0715 17.6123 13.1864 17.8169 13.391C18.0215 13.5956 18.1364 13.873 18.1364 14.1624V15.2533H15.9546V14.1624ZM13.7728 20.7078V18.526C13.7728 18.2367 13.8877 17.9592 14.0923 17.7546C14.2969 17.55 14.5743 17.4351 14.8637 17.4351H19.2273C19.5166 17.4351 19.7941 17.55 19.9987 17.7546C20.2033 17.9592 20.3182 18.2367 20.3182 18.526V20.7078C20.3182 20.9971 20.2033 21.2747 19.9987 21.4792C19.7941 21.6838 19.5166 21.7987 19.2273 21.7987H14.8637C14.5743 21.7987 14.2969 21.6838 14.0923 21.4792C13.8877 21.2747 13.7728 20.9971 13.7728 20.7078ZM30.1364 17.4351H25.7728C25.4835 17.4351 25.2059 17.55 25.0014 17.7546C24.7968 17.9592 24.6819 18.2367 24.6819 18.526C24.6819 18.8153 24.7968 19.0928 25.0014 19.2974C25.2059 19.502 25.4835 19.6169 25.7728 19.6169H30.1364C30.4257 19.6169 30.7032 19.7319 30.9078 19.9364C31.1123 20.141 31.2273 20.4185 31.2273 20.7078V31.3115L29.5146 29.7296C29.3134 29.5412 29.0483 29.4361 28.7728 29.4351H19.2273C18.938 29.4351 18.6605 29.3201 18.4559 29.1156C18.2513 28.911 18.1364 28.6335 18.1364 28.3442V27.2533C18.1364 26.964 18.0215 26.6864 17.8169 26.4819C17.6123 26.2774 17.3348 26.1624 17.0455 26.1624C16.7562 26.1624 16.4787 26.2774 16.2741 26.4819C16.0695 26.6864 15.9546 26.964 15.9546 27.2533V28.3442C15.9546 29.2121 16.2994 30.0446 16.9131 30.6583C17.5269 31.2721 18.3593 31.6169 19.2273 31.6169H28.3473L31.62 34.5951C31.8101 34.7736 32.0578 34.8781 32.3182 34.8896C32.4679 34.888 32.6158 34.8584 32.7546 34.8024C32.9497 34.7172 33.1157 34.5768 33.232 34.3984C33.3483 34.2202 33.4099 34.0117 33.4091 33.7987V20.7078C33.4091 19.8398 33.0643 19.0074 32.4505 18.3937C31.8368 17.7799 31.0043 17.4351 30.1364 17.4351Z" fill="white"/>
</svg>
