<svg width="24" height="24" viewBox="0 0 24 24" fill="none" xmlns="http://www.w3.org/2000/svg">
<path d="M18.0077 8.48886C18.0077 9.15101 17.7447 9.78604 17.2765 10.2543C16.8083 10.7225 16.1732 10.9855 15.5111 10.9855C14.8489 10.9855 14.2139 10.7225 13.7457 10.2543C13.2775 9.78604 13.0144 9.15101 13.0144 8.48886C13.0144 7.82671 13.2775 7.19168 13.7457 6.72347C14.2139 6.25525 14.8489 5.99222 15.5111 5.99222C16.1732 5.99222 16.8083 6.25525 17.2765 6.72347C17.7447 7.19168 18.0077 7.82671 18.0077 8.48886ZM18.0017 15.3456C17.9469 16.9324 17.5507 18.4886 16.8403 19.9085C16.1857 21.1464 15.2028 22.1801 13.9994 22.8962C12.7961 23.6123 11.4187 23.9832 10.0185 23.968H9.01981V18.4754C9.01535 17.5498 8.64566 16.6633 7.99113 16.0088C7.3366 15.3543 6.45015 14.9846 5.52451 14.9801H0.031896V13.9815C0.016778 12.5812 0.387612 11.2039 1.10372 10.0005C1.81982 8.79713 2.85353 7.81424 4.09144 7.15965C5.51129 6.4492 7.06757 6.05306 8.6543 5.99821C10.1092 4.11897 11.9776 2.60031 14.1145 1.5601C16.2513 0.519901 18.5992 -0.0138543 20.9757 0.000273309C21.3712 -0.00222555 21.7633 0.0733579 22.1294 0.22269C22.4956 0.372022 22.8287 0.592166 23.1097 0.870499C23.3906 1.14883 23.6138 1.47988 23.7665 1.84466C23.9193 2.20944 23.9985 2.60078 23.9997 2.99624C24.0166 5.37726 23.4842 7.7301 22.444 9.87192C21.4037 12.0137 19.8836 13.8868 18.0017 15.3456ZM2.1131 12.9828H4.37206C5.11371 11.331 5.98493 9.74052 6.97756 8.22621C6.2881 8.38661 5.62002 8.62797 4.98723 8.94524C4.22619 9.34712 3.56984 9.92163 3.07074 10.6228C2.57165 11.3239 2.24367 12.1322 2.1131 12.9828ZM15.7737 17.0224C14.2594 18.015 12.6689 18.8862 11.0171 19.6279V21.8868C11.8678 21.7563 12.6761 21.4283 13.3772 20.9292C14.0783 20.4301 14.6528 19.7737 15.0547 19.0127C15.372 18.3799 15.6133 17.7118 15.7737 17.0224ZM22.0024 2.96828C21.9951 2.7083 21.8867 2.46141 21.7001 2.28013C21.5136 2.09885 21.2638 1.99749 21.0037 1.99759C15.8506 2.14439 12.3653 4.11873 9.00183 8.81043C8.06324 10.1618 7.23788 11.5884 6.53415 13.0757C7.62461 13.2788 8.62802 13.8073 9.41235 14.5916C10.1967 15.3759 10.7252 16.3793 10.9282 17.4698C12.4155 16.7661 13.8421 15.9407 15.1935 15.0021C19.8812 11.6346 21.8556 8.14932 22.0024 2.96828ZM6.14568 17.8553C6.70369 18.419 7.01671 19.1802 7.01671 19.9734C7.01671 20.7666 6.70369 21.5278 6.14568 22.0916C5.23989 22.9963 2.52854 23.5546 1.40405 23.7533L-6.10352e-05 24L0.246607 22.5959C0.446339 21.4714 1.00359 18.76 1.90837 17.8543C2.47935 17.3097 3.23817 17.0059 4.02722 17.0061C4.81628 17.0063 5.57495 17.3104 6.14568 17.8553ZM5.02518 19.9734C5.02554 19.8422 4.99986 19.7123 4.94963 19.5911C4.8994 19.4699 4.82563 19.3598 4.73258 19.2674C4.5453 19.0801 4.29133 18.975 4.02653 18.975C3.76172 18.975 3.50775 19.0801 3.32047 19.2674C2.93973 19.9547 2.67232 20.6989 2.52854 21.4714C3.30131 21.327 4.04582 21.0593 4.73357 20.6785C4.82633 20.586 4.89985 20.4761 4.9499 20.3551C4.99995 20.2341 5.02554 20.1044 5.02518 19.9734Z" fill="url(#paint0_linear_44_2026)"/>
<defs>
<linearGradient id="paint0_linear_44_2026" x1="12" y1="0" x2="12" y2="24" gradientUnits="userSpaceOnUse">
<stop stop-color="#166AFF"/>
<stop offset="1" stop-color="#2ED0FA"/>
</linearGradient>
</defs>
</svg>
