<svg width="24" height="24" viewBox="0 0 24 24" fill="none" xmlns="http://www.w3.org/2000/svg">
<path d="M20 6H19V4C19 1.794 17.206 0 15 0H7C4.794 0 3 1.794 3 4V9C3 9.739 3.201 10.431 3.552 11.025C1.557 11.248 0 12.945 0 15V20C0 22.206 1.794 24 4 24H12C14.206 24 16 22.206 16 20V19H20C22.206 19 24 17.206 24 15V10C24 7.794 22.206 6 20 6ZM5 4C5 2.897 5.897 2 7 2H15C16.103 2 17 2.897 17 4V6H12C9.794 6 8 7.794 8 10V11H7C5.897 11 5 10.103 5 9V4ZM12 13C12.179 13 12.353 13.024 12.518 13.068L8.995 16.59C8.468 17.117 7.549 17.117 7.02 16.59L3.494 13.064C3.655 13.022 3.825 12.999 3.999 12.999H12V13ZM14 20C14 21.103 13.103 22 12 22H4C2.897 22 2 21.103 2 20V15C2 14.816 2.025 14.639 2.072 14.47L5.607 18.005C6.249 18.647 7.102 19 8.009 19C8.916 19 9.77 18.646 10.411 18.005L13.933 14.483C13.977 14.648 14.001 14.821 14.001 15V20H14ZM22 15C22 16.103 21.103 17 20 17H16V15C16 12.794 14.206 11 12 11H10V10C10 8.897 10.897 8 12 8H20C21.103 8 22 8.897 22 10V15ZM20 11C20 11.552 19.552 12 19 12C18.448 12 18 11.552 18 11C18 10.448 18.448 10 19 10C19.552 10 20 10.448 20 11Z" fill="url(#paint0_linear_44_2032)"/>
<defs>
<linearGradient id="paint0_linear_44_2032" x1="12" y1="0" x2="12" y2="24" gradientUnits="userSpaceOnUse">
<stop stop-color="#166AFF"/>
<stop offset="1" stop-color="#2ED0FA"/>
</linearGradient>
</defs>
</svg>
