<svg width="25" height="24" viewBox="0 0 25 24" fill="none" xmlns="http://www.w3.org/2000/svg">
<path d="M4.71946 12.0758C4.68042 7.7384 8.22526 4.21674 12.4957 4.21674C13.5602 4.21674 14.6072 4.42767 15.57 4.83234L13.8999 6.50024L22.5882 8.67792L20.4081 0L18.6853 1.72064C16.8327 0.596741 14.7051 0.00549319 12.4957 0.00549319C6.10096 0.00549319 0.812742 5.07733 0.527497 11.4472L0.501099 12.0388L4.72735 12.954L4.71946 12.0758ZM1.97389 10.9215C2.51028 5.54187 7.02324 1.40918 12.4957 1.40918C16.3388 1.40918 18.5757 3.37683 18.8686 3.52258L19.6484 2.74365L20.6538 6.74579L16.647 5.74164L17.9051 4.48517C17.4706 4.29309 15.5984 2.81287 12.4955 2.81287C7.69199 2.81287 3.74365 6.54913 3.34695 11.2189L1.97389 10.9215Z" fill="url(#paint0_linear_46_2064)"/>
<path d="M20.2717 11.9837C20.2717 16.3524 16.7498 19.7509 12.4957 19.7509C11.4293 19.7509 10.3862 19.5406 9.43279 19.1376L11.0469 17.5254L2.35776 15.3283L4.55539 24L6.30793 22.2687C8.15872 23.3639 10.3338 23.9621 12.4957 23.9621C18.9456 23.9621 24.1763 18.8461 24.4731 12.5643L24.5011 11.9707L20.2719 11.0579V11.9837H20.2717ZM23.025 13.0882C22.4751 18.4444 17.9592 22.5582 12.4957 22.5582C8.74992 22.5582 6.34404 20.5875 6.12076 20.4792L5.31452 21.2756L4.29874 17.2672L8.30428 18.28L7.10353 19.4791C7.5347 19.6714 9.38091 21.1545 12.4957 21.1545C17.1573 21.1545 21.2129 17.6547 21.6417 12.7897L23.025 13.0882Z" fill="url(#paint1_linear_46_2064)"/>
<defs>
<linearGradient id="paint0_linear_46_2064" x1="12.5011" y1="0" x2="12.5011" y2="24" gradientUnits="userSpaceOnUse">
<stop stop-color="#166AFF"/>
<stop offset="1" stop-color="#2ED0FA"/>
</linearGradient>
<linearGradient id="paint1_linear_46_2064" x1="12.5011" y1="0" x2="12.5011" y2="24" gradientUnits="userSpaceOnUse">
<stop stop-color="#166AFF"/>
<stop offset="1" stop-color="#2ED0FA"/>
</linearGradient>
</defs>
</svg>
