<svg width="24" height="24" viewBox="0 0 24 24" fill="none" xmlns="http://www.w3.org/2000/svg">
<path d="M22.0002 17.3517V6.64952C22.5064 6.41036 22.9478 6.05296 23.2869 5.60748C23.6261 5.162 23.8532 4.64149 23.9491 4.08985C24.0449 3.5382 24.0067 2.9716 23.8377 2.43781C23.6686 1.90403 23.3737 1.41872 22.9778 1.0228C22.5819 0.626885 22.0966 0.331975 21.5628 0.162939C21.029 -0.00609648 20.4624 -0.0443012 19.9108 0.0515468C19.3591 0.147395 18.8386 0.374485 18.3931 0.713667C17.9476 1.05285 17.5903 1.49418 17.3511 2.00044H6.64891C6.40974 1.49418 6.05235 1.05285 5.60687 0.713667C5.16139 0.374485 4.64088 0.147395 4.08924 0.0515468C3.53759 -0.0443012 2.97099 -0.00609648 2.4372 0.162939C1.90342 0.331975 1.41811 0.626885 1.02219 1.0228C0.626275 1.41872 0.331364 1.90403 0.162329 2.43781C-0.00670683 2.9716 -0.0449115 3.5382 0.0509364 4.08985C0.146784 4.64149 0.373875 5.162 0.713057 5.60748C1.05224 6.05296 1.49357 6.41036 1.99983 6.64952V17.3497C1.49382 17.589 1.05275 17.9464 0.713777 18.3918C0.374807 18.8372 0.147874 19.3576 0.0521035 19.9091C-0.043667 20.4606 -0.00546891 21.027 0.163479 21.5606C0.332426 22.0942 0.627172 22.5794 1.02288 22.9753C1.41858 23.3712 1.90365 23.6661 2.43721 23.8353C2.97076 24.0045 3.53716 24.0429 4.08868 23.9474C4.6402 23.8519 5.16067 23.6252 5.60624 23.2864C6.05181 22.9476 6.40941 22.5067 6.64891 22.0008H17.3491C17.5884 22.5068 17.9458 22.9479 18.3912 23.2868C18.8366 23.6258 19.357 23.8527 19.9085 23.9485C20.46 24.0443 21.0264 24.0061 21.56 23.8371C22.0936 23.6682 22.5788 23.3734 22.9747 22.9777C23.3706 22.582 23.6655 22.097 23.8347 21.5634C24.0039 21.0299 24.0423 20.4634 23.9468 19.9119C23.8513 19.3604 23.6245 18.8399 23.2858 18.3944C22.947 17.9488 22.5061 17.5912 22.0002 17.3517ZM17.0511 20.0007H6.94891C6.84109 19.2569 6.49568 18.5679 5.96421 18.0364C5.43274 17.5049 4.7437 17.1595 3.99986 17.0517V6.94952C4.7437 6.8417 5.43274 6.49629 5.96421 5.96482C6.49568 5.43335 6.84109 4.74431 6.94891 4.00047H17.0491C17.157 4.7446 17.5027 5.43386 18.0346 5.96536C18.5664 6.49686 19.2559 6.8421 20.0001 6.94952V17.0497C19.256 17.1576 18.5667 17.5033 18.0352 18.0352C17.5037 18.5671 17.1585 19.2565 17.0511 20.0007ZM20.5001 2.00044C20.7968 2.00044 21.0868 2.08841 21.3335 2.25324C21.5802 2.41806 21.7725 2.65234 21.886 2.92643C21.9995 3.20052 22.0292 3.50213 21.9713 3.79311C21.9135 4.08408 21.7706 4.35136 21.5608 4.56114C21.351 4.77093 21.0838 4.91379 20.7928 4.97167C20.5018 5.02955 20.2002 4.99984 19.9261 4.88631C19.652 4.77277 19.4177 4.58051 19.2529 4.33383C19.0881 4.08716 19.0001 3.79714 19.0001 3.50047C19.0001 3.10263 19.1582 2.7211 19.4395 2.43979C19.7208 2.15848 20.1023 2.00044 20.5001 2.00044ZM3.49986 2.00044C3.79653 2.00044 4.08655 2.08841 4.33322 2.25324C4.5799 2.41806 4.77216 2.65234 4.8857 2.92643C4.99923 3.20052 5.02894 3.50213 4.97106 3.79311C4.91318 4.08408 4.77032 4.35136 4.56053 4.56114C4.35075 4.77093 4.08347 4.91379 3.7925 4.97167C3.50152 5.02955 3.19991 4.99984 2.92582 4.88631C2.65173 4.77277 2.41745 4.58051 2.25263 4.33383C2.0878 4.08716 1.99983 3.79714 1.99983 3.50047C1.99983 3.10263 2.15787 2.7211 2.43918 2.43979C2.72049 2.15848 3.10202 2.00044 3.49986 2.00044ZM3.49986 22.0008C3.20318 22.0008 2.91316 21.9128 2.66649 21.748C2.41981 21.5832 2.22755 21.3489 2.11401 21.0748C2.00048 20.8007 1.97077 20.4991 2.02865 20.2081C2.08653 19.9171 2.22939 19.6499 2.43918 19.4401C2.64896 19.2303 2.91624 19.0874 3.20721 19.0296C3.49819 18.9717 3.7998 19.0014 4.07389 19.1149C4.34798 19.2284 4.58226 19.4207 4.74708 19.6674C4.9119 19.9141 4.99988 20.2041 4.99988 20.5008C4.99988 20.8986 4.84184 21.2801 4.56053 21.5614C4.27922 21.8427 3.89769 22.0008 3.49986 22.0008ZM20.5001 22.0008C20.2035 22.0008 19.9135 21.9128 19.6668 21.748C19.4201 21.5832 19.2278 21.3489 19.1143 21.0748C19.0008 20.8007 18.9711 20.4991 19.0289 20.2081C19.0868 19.9171 19.2297 19.6499 19.4395 19.4401C19.6492 19.2303 19.9165 19.0874 20.2075 19.0296C20.4985 18.9717 20.8001 19.0014 21.0742 19.1149C21.3483 19.2284 21.5825 19.4207 21.7474 19.6674C21.9122 19.9141 22.0002 20.2041 22.0002 20.5008C22.0002 20.8986 21.8421 21.2801 21.5608 21.5614C21.2795 21.8427 20.898 22.0008 20.5001 22.0008ZM13 9.00056V12.0006H14C14.2653 12.0006 14.5196 12.106 14.7072 12.2935C14.8947 12.481 15 12.7354 15 13.0006C15 13.2658 14.8947 13.5202 14.7072 13.7077C14.5196 13.8953 14.2653 14.0006 14 14.0006H13V15.0007C13 15.2659 13.1054 15.5202 13.2929 15.7078C13.4805 15.8953 13.7348 16.0007 14 16.0007C14.2653 16.0007 14.5196 16.106 14.7072 16.2936C14.8947 16.4811 15 16.7355 15 17.0007C15 17.2659 14.8947 17.5203 14.7072 17.7078C14.5196 17.8954 14.2653 18.0007 14 18.0007C13.2596 17.9981 12.5467 17.7201 12 17.2207C11.4533 17.7201 10.7404 17.9981 9.99997 18.0007C9.73474 18.0007 9.48039 17.8954 9.29285 17.7078C9.10531 17.5203 8.99995 17.2659 8.99995 17.0007C8.99995 16.7355 9.10531 16.4811 9.29285 16.2936C9.48039 16.106 9.73474 16.0007 9.99997 16.0007C10.2652 16.0007 10.5195 15.8953 10.7071 15.7078C10.8946 15.5202 11 15.2659 11 15.0007V14.0006H9.99997C9.73474 14.0006 9.48039 13.8953 9.29285 13.7077C9.10531 13.5202 8.99995 13.2658 8.99995 13.0006C8.99995 12.7354 9.10531 12.481 9.29285 12.2935C9.48039 12.106 9.73474 12.0006 9.99997 12.0006H11V9.00056C11 8.73534 10.8946 8.48098 10.7071 8.29344C10.5195 8.1059 10.2652 8.00054 9.99997 8.00054C9.73474 8.00054 9.48039 7.89518 9.29285 7.70764C9.10531 7.5201 8.99995 7.26575 8.99995 7.00052C8.99995 6.7353 9.10531 6.48095 9.29285 6.29341C9.48039 6.10587 9.73474 6.00051 9.99997 6.00051C10.7404 6.00311 11.4533 6.28116 12 6.78052C12.5467 6.28116 13.2596 6.00311 14 6.00051C14.2653 6.00051 14.5196 6.10587 14.7072 6.29341C14.8947 6.48095 15 6.7353 15 7.00052C15 7.26575 14.8947 7.5201 14.7072 7.70764C14.5196 7.89518 14.2653 8.00054 14 8.00054C13.7348 8.00054 13.4805 8.1059 13.2929 8.29344C13.1054 8.48098 13 8.73534 13 9.00056Z" fill="url(#paint0_linear_46_2079)"/>
<defs>
<linearGradient id="paint0_linear_46_2079" x1="12" y1="0" x2="12" y2="24" gradientUnits="userSpaceOnUse">
<stop stop-color="#166AFF"/>
<stop offset="1" stop-color="#2ED0FA"/>
</linearGradient>
</defs>
</svg>
